<?xml version="1.0" encoding="UTF-8" standalone="no"?>
<!-- Created with Inkscape (http://www.inkscape.org/) -->

<svg
   width="392.85233mm"
   height="198.1837mm"
   viewBox="0 0 392.85233 198.1837"
   version="1.1"
   id="svg1"
   xml:space="preserve"
   inkscape:version="1.3 (0e150ed6c4, 2023-07-21)"
   sodipodi:docname="Refresh_rates.svg"
   inkscape:export-filename="Refresh_rates.png"
   inkscape:export-xdpi="96"
   inkscape:export-ydpi="96"
   xmlns:inkscape="http://www.inkscape.org/namespaces/inkscape"
   xmlns:sodipodi="http://sodipodi.sourceforge.net/DTD/sodipodi-0.dtd"
   xmlns="http://www.w3.org/2000/svg"
   xmlns:svg="http://www.w3.org/2000/svg"><sodipodi:namedview
     id="namedview1"
     pagecolor="#ffffff"
     bordercolor="#000000"
     borderopacity="0.25"
     inkscape:showpageshadow="2"
     inkscape:pageopacity="0.0"
     inkscape:pagecheckerboard="0"
     inkscape:deskcolor="#d1d1d1"
     inkscape:document-units="mm"
     showguides="false"
     inkscape:zoom="0.52599003"
     inkscape:cx="744.31069"
     inkscape:cy="305.13886"
     inkscape:window-width="1920"
     inkscape:window-height="1027"
     inkscape:window-x="-8"
     inkscape:window-y="-8"
     inkscape:window-maximized="1"
     inkscape:current-layer="layer1"
     inkscape:export-bgcolor="#ffffffff"
     showgrid="false" /><defs
     id="defs1" /><g
     inkscape:label="Layer 1"
     inkscape:groupmode="layer"
     id="layer1"
     transform="translate(91.043541,-46.280827)"><g
       id="g3"
       transform="translate(0.10418172,93.02896)"><g
         id="g1"><path
           id="path14"
           style="fill:#0977c7;fill-opacity:0.05;stroke:none;stroke-width:1.098;stroke-linecap:round;stroke-linejoin:round;paint-order:markers stroke fill"
           d="m -28.148773,69.092592 a 6.5802398,6.5802398 0 0 0 -6.57996,6.579961 6.5802398,6.5802398 0 0 0 2.080493,4.782653 c -0.417637,0.643627 -0.89774,1.411673 -1.41335,2.25826 l -10.241236,-0.693497 a 1.7491749,1.7491749 0 0 0 -1.113627,0.306441 c 0,0 -1.864645,1.288133 -4.095357,3.152779 -2.230712,1.864646 -4.852718,4.27885 -6.515886,6.849194 a 1.749,1.749 0 0 0 0.51935,2.420008 1.749,1.749 0 0 0 2.417943,-0.519348 c 1.271262,-1.964677 3.718149,-4.307373 5.822384,-6.066297 1.854698,-1.550338 3.040766,-2.364489 3.386873,-2.607593 l 7.844999,0.529167 c -2.021362,3.593461 -4.434525,8.298768 -6.965983,14.14849 a 1.7491749,1.7491749 0 0 0 -0.0801,0.22272 c 0,0 -1.299216,4.64167 -2.974496,9.08007 -0.83764,2.2192 -1.782244,4.39154 -2.621545,5.80275 -0.357302,0.60078 -0.659127,0.95349 -0.882634,1.18752 -0.382119,-0.24015 -1.23178,-0.82922 -2.302701,-1.90014 -1.233636,-1.23364 -2.63335,-2.81087 -3.93723,-4.35581 -2.60776,-3.08986 -4.83019,-6.0389 -4.83019,-6.0389 a 1.7491749,1.7491749 0 0 0 -2.63292,-0.18346 l -4.80281,4.80074 a 1.749,1.749 0 0 0 0,2.47427 1.749,1.749 0 0 0 2.47479,0 l 3.41995,-3.42149 c 0.76825,1.00135 1.69418,2.24959 3.69899,4.62504 1.34155,1.58956 2.78604,3.22322 4.136702,4.57388 1.35066,1.35066 2.43642,2.42179 3.857646,2.97449 1.166932,0.45381 2.373858,-0.10113 3.06803,-0.709 0.694171,-0.60787 1.216028,-1.36185 1.738395,-2.24017 1.044734,-1.75663 2.012538,-4.03935 2.886646,-6.35517 0.486323,-1.28844 0.919929,-2.53827 1.314648,-3.71915 0.604868,1.17697 1.287987,2.45924 2.076359,3.84421 2.087627,3.66745 4.58137,7.64242 6.743775,10.05055 1.818331,2.02497 4.59575,5.87959 7.017659,9.17205 1.210956,1.64623 2.337965,3.15703 3.277319,4.29276 0.469678,0.56786 0.883262,1.03813 1.297079,1.42575 0.206908,0.19381 0.408219,0.36854 0.687296,0.54105 0.279078,0.17252 0.660701,0.46052 1.470712,0.3359 1.023431,-0.15745 1.426877,-0.5865 1.953369,-1.00769 0.526492,-0.42119 1.03615,-0.90931 1.503784,-1.38286 0.935269,-0.94711 1.701188,-1.85519 1.701188,-1.85519 a 1.749,1.749 0 0 0 -0.205155,-2.46496 1.749,1.749 0 0 0 -2.464966,0.20515 c 0,0 -0.700414,0.82644 -1.521354,1.65778 -0.375714,0.38047 -0.764873,0.73851 -1.097608,1.0139 -0.195893,-0.21004 -0.362378,-0.37695 -0.628902,-0.69919 -0.841863,-1.01786 -1.955343,-2.50186 -3.156397,-4.13463 -2.402106,-3.26553 -5.137883,-7.10338 -7.232116,-9.4356 -1.750164,-1.94905 -4.280026,-5.88795 -6.305041,-9.44542 -1.012508,-1.77872 -1.914839,-3.47563 -2.568319,-4.8028 -0.326741,-0.66359 -0.59062,-1.23603 -0.771529,-1.66398 -0.114807,-0.27159 -0.18919,-0.50606 -0.224793,-0.6103 0.05642,-0.19695 0.139524,-0.48524 0.146761,-0.51108 2.06348,-4.76416 4.025705,-8.71998 5.745903,-11.90987 0.02791,0.375015 0.04066,0.63036 0.07855,1.080038 0.129739,1.539939 0.287132,3.09021 0.488342,4.33772 0.100606,0.623754 0.205666,1.165274 0.357085,1.660363 0.07571,0.247545 0.155929,0.482062 0.316259,0.767395 0.160331,0.285334 0.387781,0.778773 1.242302,1.011825 0.766368,0.209011 0.91736,0.04734 1.172021,-0.0098 0.254661,-0.05712 0.495175,-0.131574 0.765845,-0.222725 0.541339,-0.182302 1.186305,-0.435697 1.925464,-0.742074 1.478317,-0.612751 3.31511,-1.438576 5.121134,-2.271696 3.612047,-1.666239 7.092073,-3.361035 7.092073,-3.361035 a 1.749,1.749 0 0 0 0.806153,-2.337861 1.749,1.749 0 0 0 -2.337842,-0.806669 c 0,0 -3.45701,1.683924 -7.025411,3.33003 -1.7842,0.823052 -3.598325,1.63756 -4.996078,2.216919 -0.390255,0.161757 -0.639307,0.247841 -0.950846,0.366902 -0.01179,-0.06776 -0.02154,-0.08663 -0.03307,-0.15813 -0.173928,-1.078356 -0.333492,-2.579647 -0.459403,-4.07417 -0.251824,-2.989044 -0.384473,-5.96656 -0.384473,-5.96656 a 1.7491749,1.7491749 0 0 0 -0.05684,-0.245463 c 0.509581,-0.829078 0.964296,-1.549438 1.362707,-2.154908 a 6.5802398,6.5802398 0 0 0 1.393197,0.166398 6.5802398,6.5802398 0 0 0 6.580477,-6.580476 6.5802398,6.5802398 0 0 0 -6.580477,-6.579961 z" /><path
           id="circle21"
           style="fill:#0977c7;fill-opacity:0.15;stroke:none;stroke-width:1.098;stroke-linecap:round;stroke-linejoin:round;paint-order:markers stroke fill"
           d="m 9.4880407,63.208841 a 6.5802398,6.5802398 0 0 0 -6.57996,6.580477 6.5802398,6.5802398 0 0 0 1.98748,4.689119 c -0.35323,0.643528 -0.69559,1.264219 -1.09192,2.001429 -0.04972,0.03238 -0.10198,0.06517 -0.14728,0.09715 -0.1419,0.100164 -0.29073,0.212748 -0.46509,0.349333 -0.34873,0.27317 -0.79442,0.637235 -1.316199,1.072286 -1.04355899,0.870102 -2.38371899,2.01744 -3.724838,3.185335 -1.341118,1.167895 -2.679364,2.354695 -3.722253,3.303158 -0.52144,0.474231 -0.968202,0.886556 -1.312581,1.21853 -0.17219,0.165986 -0.318111,0.309903 -0.445451,0.443384 -0.12734,0.133481 -0.200261,0.16982 -0.410311,0.505912 -0.3151,0.504148 -0.305593,0.617651 -0.470772,1.035079 -0.16518,0.417427 -0.36775,0.951069 -0.59738,1.570447 -0.45927,1.238756 -1.024582,2.810632 -1.5761307,4.359424 -1.103089,3.097583 -2.148706,6.103507 -2.148706,6.103507 a 1.749,1.749 0 0 0 1.07642,2.226219 1.749,1.749 0 0 0 2.2267367,-1.0759 c 0,0 1.044776,-2.997758 2.142505,-6.080255 0.54886,-1.541248 1.111219,-3.104375 1.560628,-4.316532 0.2247,-0.606078 0.421512,-1.126487 0.569991,-1.501717 0.09114,-0.230334 0.174518,-0.400034 0.187586,-0.43925 0.07272,-0.07557 0.174734,-0.179705 0.312642,-0.312642 0.30169,-0.290829 0.731448,-0.687411 1.238168,-1.14825 0.821653,-0.747258 1.862766,-1.669775 2.92953701,-2.605009 -2.32694601,4.795342 -4.40193901,9.696613 -4.85706801,13.296346 a 1.7491749,1.7491749 0 0 0 0.08578,0.802535 c 0,0 0.260952,0.749315 0.389123,1.115185 a 1.749,1.749 0 0 0 0.0072,0.14831 c 0.124955,0.499829 0.317007,0.982859 0.557072,1.475879 0.489346,1.41385 1.097811,3.18235 1.732194,5.07514 0.678049,2.02309 1.363207,4.11591 1.88670601,5.826 0.103327,0.33754 0.163476,0.58461 0.252698,0.89917 -0.696248,0.15276 -1.39651301,0.30644 -2.12958601,0.46251 -1.979848,0.42148 -4.003121,0.84287 -5.623429,1.21646 -0.810159,0.18679 -1.517163,0.36206 -2.0918617,0.52555 -0.28735,0.0817 -0.541451,0.15843 -0.779281,0.24598 -0.237819,0.0875 -0.424652,0.12741 -0.804602,0.41238 -0.532269,0.3992 -1.734261,0.64027 -1.734261,0.64027 a 1.7491749,1.7491749 0 0 0 -1.380794,0.99839 l -3.023587,6.49211 a 1.749,1.749 0 0 0 0.84801,2.32388 1.749,1.749 0 0 0 2.323888,-0.84749 l 2.6448,-5.67976 c 0.632499,-0.1553 1.435378,-0.43691 2.2577427,-1.01492 0.0067,-0.006 0.03259,-0.0246 0.07803,-0.0413 0.1047,-0.0385 0.29186,-0.0995 0.5271,-0.1664 0.470489,-0.13385 1.139587,-0.29851 1.920296,-0.47852 1.561428,-0.36001 3.57777,-0.78183 5.566068,-1.2051 0.566029,-0.1205 1.10344801,-0.23943 1.65468001,-0.35915 -0.172823,0.44566 -0.381275,0.94774 -0.64854,1.52911 -0.72905901,1.58587 -1.74742001,3.55142 -2.76778901,5.45703 -1.020369,1.90561 -2.044748,3.75421 -2.806547,5.14852 -0.3809,0.69715 -0.694461,1.27724 -0.919841,1.71669 -0.11269,0.21973 -0.20187,0.39841 -0.28112,0.58033 -0.0396,0.091 -0.07636,0.17282 -0.125057,0.33796 -0.0244,0.0826 -0.05761,0.17638 -0.07441,0.40618 -0.008,0.1149 -0.01899,0.26712 0.03721,0.51935 0.0281,0.12612 0.0753,0.27997 0.170016,0.45527 0.0947,0.17531 0.448198,0.53415 0.449068,0.53485 0.31785,0.25428 0.273897,0.18634 0.353467,0.23047 0.0796,0.0441 0.166331,0.0906 0.269751,0.1447 0.20683,0.1083 0.475489,0.24573 0.789099,0.40411 0.627219,0.31678 1.432673,0.71794 2.232422,1.11363 1.599508,0.79139 3.16983201,1.55856 3.16983201,1.55856 a 1.749,1.749 0 0 0 2.33990599,-0.80099 1.749,1.749 0 0 0 -0.803049,-2.33991 c 0,0 -1.56376099,-0.76539 -3.154329,-1.55236 -0.64136,-0.31732 -1.235017,-0.61472 -1.781287,-0.88883 0.13822,-0.25682 0.227706,-0.42961 0.398425,-0.74208 0.75266,-1.37755 1.784551,-3.23913 2.82050001,-5.17384 1.035949,-1.93471 2.07593899,-3.94033 2.86131999,-5.64875 0.3927,-0.8542 0.72252,-1.63067 0.96274,-2.32389 0.18724,-0.54038 0.36062,-0.96949 0.38809,-1.55908 0.70703,-0.18063 1.308,-0.34852 1.80557,-0.5271 0.25998,-0.0933 0.48591,-0.17734 0.7674,-0.34158 0.14075,-0.0821 0.30142,-0.17478 0.51779,-0.40618 0.21638,-0.2314 0.57669,-0.74163 0.4961,-1.46709 -0.073,-0.65683 -0.19928,-0.69593 -0.29714,-0.88057 -0.0979,-0.18465 -0.20531,-0.36402 -0.33176,-0.56482 -0.25291,-0.40159 -0.57999,-0.88434 -0.96894,-1.44694 -0.7779,-1.12521 -1.79647,-2.55326 -2.82825,-4.03748 -1.03178,-1.48422 -2.07598199,-3.0263 -2.88871199,-4.33979 -0.509848,-0.82398 -0.906823,-1.58088 -1.159619,-2.105289 -0.25544401,-0.732305 -0.53987201,-1.5465 -0.59582901,-1.705332 0.326031,-2.142662 1.64945001,-5.670085 3.31711,-9.414929 -0.09808,0.992364 -0.179592,1.9492 -0.233577,2.819466 -0.0539,0.869534 -0.08135,1.650757 -0.06615,2.324406 0.0152,0.67365 -0.0219,1.149443 0.306441,1.915646 0.697342,1.627173 4.238502,11.039122 4.238502,11.039122 a 1.749,1.749 0 0 0 2.25206,1.02371 1.749,1.749 0 0 0 1.02319,-2.24999 c 0,0 -3.39573,-9.08402 -4.29896,-11.19157 0.1283,0.299363 -0.01176,-0.104994 -0.02326,-0.615466 -0.0115,-0.510472 0.01027,-1.218559 0.06047,-2.028817 0.10053,-1.620516 0.31199,-3.664252 0.5488,-5.652368 0.39844,-3.344973 0.79856,-6.051167 0.93741,-6.979936 0.53745,-1.007955 1.01256,-1.883559 1.48001,-2.735233 a 6.5802398,6.5802398 0 0 0 1.53169,0.196887 6.5802398,6.5802398 0 0 0 6.5804803,-6.57996 6.5802398,6.5802398 0 0 0 -6.5804803,-6.580477 z" /><path
           id="circle24"
           style="fill:#0977c7;fill-opacity:0.2;stroke:none;stroke-width:1.098;stroke-linecap:round;stroke-linejoin:round;paint-order:markers stroke fill"
           d="m 36.800367,62.095804 a 6.5802398,6.5802398 0 0 0 -6.58048,6.580477 6.5802398,6.5802398 0 0 0 1.65158,4.353222 c -0.57611,1.014562 -1.24987,2.210408 -1.97042,3.501595 l -8.86975,6.251815 a 1.7491749,1.7491749 0 0 0 -0.7307,1.230416 c 0,0 -0.24651,2.150323 -0.44907,4.423503 -0.10127,1.136589 -0.19238,2.303817 -0.23616,3.275769 -0.0219,0.485976 -0.0327,0.920782 -0.0238,1.30638 0.009,0.385598 -0.0734,0.582239 0.20154,1.26969 a 1.749,1.749 0 0 0 0.84852,0.898653 c -0.0348,0.135171 -0.0703,0.271266 -0.0961,0.406177 a 1.7491749,1.7491749 0 0 0 -0.40669,0.619083 c -0.22226,0.577894 -0.5524,1.674638 -1.10742,3.446815 -0.55502,1.772191 -1.25671,4.028281 -1.96113,6.258021 -0.7044,2.22973 -1.41248,4.43548 -1.97093,6.09575 -0.27922,0.83013 -0.52187,1.52556 -0.70074,1.99988 -0.0727,0.19289 -0.12466,0.31636 -0.16795,0.41806 -0.67738,0.57424 -3.39335,2.93929 -6.4182133,5.88853 -1.57964,1.54015 -3.13634,3.14083 -4.32428,4.56665 -0.59396,0.7129 -1.0967,1.3748 -1.48208,2.02726 -0.38537,0.65246 -0.81287,1.24073 -0.63717,2.3828 0.28085,1.82547 1.34053,3.39523 2.28151,4.78317 0.94099,1.38796 1.834,2.46704 1.834,2.46704 a 1.749,1.749 0 0 0 2.4629,0.23409 1.749,1.749 0 0 0 0.23409,-2.4629 c 0,0 -0.79707,-0.96565 -1.63452,-2.2009 -0.79107,-1.16682 -1.47991,-2.59344 -1.62523,-3.16828 0.019,-0.0733 0.02367,-0.13067 0.09767,-0.2558 0.22458,-0.38022 0.63341,-0.94051 1.15652,-1.56838 1.04624,-1.25574 2.54566,-2.8062 4.0783003,-4.30051 3.065273,-2.98864 6.462853,-5.93451 6.501933,-5.96708 0.41223,-0.34353 0.4021,-0.45935 0.46871,-0.57826 0.0666,-0.11891 0.11154,-0.21603 0.15813,-0.31987 0.0932,-0.20768 0.18535,-0.43658 0.28887,-0.71107 0.20703,-0.54898 0.45581,-1.2682 0.74207,-2.11925 0.57253,-1.7021 1.28336,-3.91968 1.99058,-6.15828 0.70722,-2.2386 1.41102,-4.49568 1.96474,-6.2637 0.22274,-0.711201 0.24339,-0.764361 0.41599,-1.302766 1.22275,0.687956 2.82529,1.598266 5.77329,3.207036 1.95265,1.06559 3.94457,2.1331 5.54695,2.95125 0.60181,0.30727 1.08235,0.53576 1.55856,0.76171 -0.005,0.007 -0.005,0.008 -0.01,0.0155 -0.72381,1.09294 -1.86378,2.65306 -3.06079,4.30103 -1.197,1.64797 -2.45542,3.38975 -3.46646,4.93148 -1.01104,1.54173 -1.81319,2.59943 -2.05672,4.10931 -0.3671,2.27607 0.81937,4.12668 1.8278,5.53351 1.00843,1.40683 2.07067,2.41381 2.07067,2.41381 a 1.749,1.749 0 0 0 2.47272,-0.0584 1.749,1.749 0 0 0 -0.0589,-2.47271 c 0,0 -0.85005,-0.81663 -1.64228,-1.92185 -0.79224,-1.10522 -1.29448,-2.45729 -1.21698,-2.9378 -0.0212,0.13158 0.58664,-1.31048 1.52911,-2.74764 0.94246,-1.43716 2.1786,-3.15291 3.37137,-4.79506 1.19278,-1.64214 2.33927,-3.20499 3.14657,-4.42402 0.40366,-0.60951 0.71964,-1.10866 0.95705,-1.6247 0.1187,-0.25802 0.25273,-0.47699 0.28112,-1.03353 0.0142,-0.27827 -10e-4,-0.72441 -0.3421,-1.2051 -0.34077,-0.48069 -0.98598,-0.74654 -1.38647,-0.77514 0.35094,0.0251 0.22148,0.0404 0.10335,-0.004 -0.11814,-0.0443 -0.31653,-0.12628 -0.55862,-0.23616 -0.48418,-0.21978 -1.15315,-0.54976 -1.92754,-0.94516 -1.54878,-0.79078 -3.52502,-1.84885 -5.46271,-2.906281 -2.72143,-1.485123 -4.86817,-2.687348 -6.20376,-3.438035 0.0893,-0.321992 0.25482,-0.846465 0.50282,-1.464511 0.36657,-0.913608 0.88508,-2.061515 1.50171,-3.339847 0.7465,-1.547561 1.64196,-3.294845 2.58434,-5.085995 l -0.40463,3.490226 a 1.7491749,1.7491749 0 0 0 0.52142,1.459343 c 0,0 2.06508,1.995728 4.4943,4.177523 2.42922,2.181794 4.98319,4.475186 6.9665,5.466847 a 1.749,1.749 0 0 0 2.34611,-0.78341 1.749,1.749 0 0 0 -0.78135,-2.345596 c -0.86219,-0.431095 -3.82292,-2.808312 -6.19549,-4.939233 -2.03629,-1.828892 -3.31149,-3.063898 -3.77548,-3.509863 l 1.30483,-11.242725 c 0.61769,-1.105299 1.20598,-2.150659 1.71411,-3.046326 a 6.5802398,6.5802398 0 0 0 1.99058,0.317294 6.5802398,6.5802398 0 0 0 6.57996,-6.57996 6.5802398,6.5802398 0 0 0 -6.57996,-6.580477 z M 26.100237,83.48933 c -0.99341,1.8667 -1.93982,3.701661 -2.77554,5.397603 0.004,-0.04703 0.007,-0.09257 0.0114,-0.139526 0.16243,-1.82285 0.29774,-2.997026 0.36122,-3.564124 z" /><path
           id="circle26"
           style="fill:#0977c7;fill-opacity:0.25;stroke:none;stroke-width:1.098;stroke-linecap:round;stroke-linejoin:round;paint-order:markers stroke fill"
           d="m 62.846089,63.568437 a 6.5802398,6.5802398 0 0 0 -7.220427,5.870025 6.5802398,6.5802398 0 0 0 1.670947,5.084309 c -0.696561,1.004491 -1.397599,2.031895 -2.459704,3.639444 -0.964219,0.336786 -2.140411,0.738124 -3.367531,1.123851 -1.372506,0.431433 -2.76985,0.829015 -3.795354,1.045948 -0.48243,0.102053 -0.874124,0.156557 -1.091412,0.170541 -0.189976,-0.09461 -0.412272,-0.167848 -0.668498,-0.18741 -0.620235,-0.04735 -1.140447,0.257141 -1.390892,0.485119 -0.500892,0.455961 -0.527274,0.719889 -0.622602,0.974268 -0.190662,0.508755 -0.292847,1.011869 -0.407609,1.644791 -0.229505,1.265842 -0.432832,2.940183 -0.61307,4.648679 -0.360536,3.416993 -0.611008,6.935246 -0.611008,6.935246 a 1.749,1.749 0 0 0 1.619183,1.869461 1.749,1.749 0 0 0 1.388234,-0.539946 1.7491749,1.7491749 0 0 0 0.0058,0.487378 c -1.123243,1.203771 -3.129067,3.345829 -5.773703,6.097719 -1.796048,1.8689 -3.669438,3.78646 -5.234209,5.32475 -1.56478,1.5383 -2.991729,2.78359 -3.226702,2.93641 -1.357713,0.88297 -4.948392,3.42202 -8.296,6.15389 -1.67381,1.36592 -3.269981,2.7652 -4.497458,4.05991 -0.613739,0.64736 -1.136644,1.26348 -1.54654,1.89822 -0.409889,0.63474 -0.805761,1.27933 -0.736188,2.30183 0.155863,2.29072 1.654383,3.96658 2.940898,5.46938 1.286524,1.50276 2.538622,2.6459 2.538622,2.6459 a 1.749,1.749 0 0 0 2.47176,-0.11025 1.749,1.749 0 0 0 -0.110234,-2.47176 c 0,0 -1.115698,-1.0222 -2.242532,-2.33846 -1.02445,-1.19665 -1.902489,-2.7769 -2.071435,-3.29695 0.02124,-0.0626 0.05771,-0.16387 0.147032,-0.30225 0.220548,-0.34153 0.624435,-0.83811 1.147005,-1.38929 1.045138,-1.10238 2.562654,-2.44338 4.171017,-3.75592 3.21675,-2.62505 6.856873,-5.19509 7.990542,-5.93238 1.010729,-0.65733 2.166491,-1.79559 3.772715,-3.37465 1.606232,-1.57904 3.495134,-3.51191 5.304255,-5.39441 2.630154,-2.73684 4.621567,-4.86355 5.770249,-6.094418 0.994218,0.71557 2.289433,1.635418 3.748331,2.633008 3.111751,2.12779 6.774769,4.51476 9.498794,5.69441 0.152289,0.0659 0.06503,-0.0389 0.112237,0.15081 0.0472,0.18959 0.05755,0.69548 -0.102594,1.37752 -0.320441,1.36406 -1.238553,3.33895 -2.334331,5.24935 -2.191558,3.82074 -5.023295,7.46507 -5.023295,7.46507 a 1.7491749,1.7491749 0 0 0 0.653912,2.66549 l 6.57425,3.00247 a 1.749,1.749 0 0 0 2.317848,-0.86432 1.749,1.749 0 0 0 -0.86438,-2.31733 l -4.616552,-2.10802 c 1.066511,-1.45929 2.506159,-3.51123 3.992893,-6.10322 1.179535,-2.05642 2.232459,-4.18131 2.703955,-6.18839 0.235752,-1.00356 0.347506,-1.99974 0.09224,-3.02442 -0.25527,-1.02467 -1.049114,-2.05345 -2.116197,-2.51556 -2.153541,-0.93259 -5.867338,-3.28743 -8.913977,-5.370708 -2.436848,-1.666295 -3.668867,-2.589978 -4.392313,-3.123369 1.021789,-3.107681 3.739253,-8.122274 6.514242,-12.52087 -0.06697,2.899334 -0.160509,6.921696 -0.196538,8.935502 -0.01857,1.0386 0.547471,1.844552 1.117274,2.378748 0.569801,0.534198 1.224317,0.917858 1.949783,1.273399 1.450942,0.711079 3.209709,1.27018 4.95888,1.74072 3.498341,0.94105 6.952241,1.48865 6.952241,1.48865 a 1.749,1.749 0 0 0 2.001346,-1.45233 1.749,1.749 0 0 0 -1.452636,-2.003454 c 0,0 -3.323826,-0.531481 -6.590951,-1.410348 -1.633573,-0.439431 -3.253651,-0.975927 -4.329825,-1.503337 -0.538082,-0.263707 -0.93559,-0.534814 -1.097058,-0.686187 -0.0046,-0.0042 -0.0035,-0.0039 -0.0073,-0.0075 0.05759,-3.121305 0.288147,-12.991145 0.288147,-12.991145 a 1.7491749,1.7491749 0 0 0 -0.244248,-0.870436 c 0.579879,-0.856989 0.851885,-1.258577 1.261873,-1.848109 a 6.5802398,6.5802398 0 0 0 1.238596,0.265963 6.5802398,6.5802398 0 0 0 7.221,-5.870486 6.5802398,6.5802398 0 0 0 -5.870545,-7.22048 z M 46.878102,80.689931 c 0.02563,0.01748 0.04927,0.03307 0.0764,0.05464 -0.0226,-0.01862 -0.05187,-0.0362 -0.0764,-0.05464 z m 4.968217,2.138573 c -2.401514,3.863554 -4.79053,8.019239 -6.013537,11.459218 0.08082,-1.068051 0.252489,-3.26129 0.525676,-5.851004 0.176102,-1.668136 0.380698,-3.309339 0.577399,-4.393648 0.0073,-0.04193 0.0101,-0.03979 0.01833,-0.08019 0.462604,-0.03832 0.926017,-0.09858 1.44495,-0.208356 1.041114,-0.220232 2.240332,-0.557098 3.447379,-0.925995 z" /><path
           id="circle29"
           style="fill:#0977c7;fill-opacity:0.3;stroke:none;stroke-width:1.098;stroke-linecap:round;stroke-linejoin:round;paint-order:markers stroke fill"
           d="m 78.136653,72.033677 a 6.5802398,6.5802398 0 0 0 -6.58048,6.580477 6.5802398,6.5802398 0 0 0 1.83141,4.533056 c -0.39305,0.648812 -0.82134,1.368363 -1.28777,2.153357 -0.88805,0.150208 -2.15767,0.358454 -3.7605,0.581877 -1.24521,0.173575 -2.53389,0.329499 -3.56257,0.409794 -0.51434,0.04015 -0.96518,0.06107 -1.28726,0.05891 -0.32208,-0.0022 -0.56509,-0.0748 -0.35915,-0.0062 -0.72604,-0.242013 -1.32406,-0.02778 -1.68775,0.15658 -0.3637,0.184355 -0.60673,0.391092 -0.84543,0.611332 -0.47739,0.44048 -0.90829,0.96522 -1.37304,1.58595 -0.92951,1.241459 -1.94933,2.851034 -2.92386,4.472595 -1.94906,3.243121 -3.69331,6.525188 -3.69331,6.525188 a 1.749,1.749 0 0 0 0.7245,2.365227 1.749,1.749 0 0 0 2.36523,-0.72451 c 0,0 1.71489,-3.224503 3.60133,-6.363431 0.94323,-1.569465 1.9352,-3.12003 2.72697,-4.177523 0.36318,-0.485069 0.66631,-0.826366 0.86506,-1.021643 0.17909,0.01033 0.38473,0.07313 0.5762,0.07441 0.479,0.0032 1.00786,-0.02532 1.58388,-0.07028 1.15203,-0.08992 2.48828,-0.254425 3.77341,-0.433565 0.45364,-0.06323 0.69676,-0.102944 1.00356,-0.149862 -0.30128,0.524347 -0.59085,1.016591 -0.89607,1.555977 -1.46663,2.591782 -2.92006,5.267831 -4.04472,7.578349 -1.12465,2.310518 -1.95973,4.027948 -2.1115,5.697338 a 1.7491749,1.7491749 0 0 0 0.091,0.66973 c -1.02519,1.40518 -2.6186,3.5592 -4.77284,6.25388 -1.57636,1.97181 -3.25795,3.96968 -4.71651,5.49217 -0.72928,0.76125 -1.4046,1.40354 -1.9513,1.8495 -0.54671,0.44597 -1.01776,0.6688 -0.98805,0.66042 -0.42617,0.1202 -2.07224,0.26874 -3.96875,0.26769 -1.89653,-0.001 -4.14856,-0.0924 -6.29729,-0.21498 -4.29748,-0.24518 -8.17573,-0.61134 -8.17573,-0.61133 a 1.7491749,1.7491749 0 0 0 -1.86707,1.33997 l -1.572,6.66368 a 1.749,1.749 0 0 0 1.3007,2.10375 1.749,1.749 0 0 0 2.10323,-1.3007 l 1.22886,-5.21105 c 1.08126,0.098 3.20948,0.30409 6.78305,0.50798 2.18807,0.12484 4.48786,0.21955 6.49418,0.22066 2.00633,10e-4 3.6123,-0.0296 4.92011,-0.39843 0.89671,-0.25292 1.52991,-0.72931 2.24999,-1.31671 0.72009,-0.5874 1.47338,-1.3136 2.2655,-2.14044 1.58424,-1.65369 3.31,-3.70822 4.92373,-5.72678 2.39449,-2.99521 4.13142,-5.36173 5.08031,-6.66885 1.56664,0.50317 3.74515,1.21286 6.38669,2.12804 2.10173,0.72815 4.2302,1.50011 5.85701,2.16214 0.8134,0.33101 1.50414,0.63678 1.97094,0.87488 0.2235,0.114 0.39977,0.2694 0.49041,0.34572 0.0504,0.10383 0.12797,0.24436 0.30644,0.64854 0.23978,0.543 0.54459,1.27117 0.8847,2.1115 0.68023,1.68063 1.50986,3.8141 2.32647,5.91953 0.81662,2.10542 1.62022,4.18327 2.25929,5.77743 0.31953,0.79707 0.59687,1.47008 0.82269,1.98437 0.11292,0.25714 0.20997,0.47233 0.30851,0.66611 0.0493,0.0969 0.0968,0.18643 0.16381,0.29507 0.0669,0.10864 0.0753,0.21335 0.43564,0.51367 0.60512,0.50426 1.02891,0.44602 1.29863,0.44493 0.26973,-0.001 0.45868,-0.035 0.64854,-0.0739 0.37972,-0.0778 0.74395,-0.19298 1.15031,-0.33383 0.81274,-0.28168 1.763116,-0.67279 2.695446,-1.07642 1.86463,-0.80725 3.64267,-1.66398 3.64267,-1.66398 a 1.749,1.749 0 0 0 0.81855,-2.33422 1.749,1.749 0 0 0 -2.33422,-0.81804 c 0,0 -1.73646,0.83396 -3.517616,1.60507 -0.8344,0.36123 -1.65302,0.69142 -2.29495,0.92036 -0.17472,-0.41184 -0.35371,-0.83832 -0.59169,-1.43196 -0.62529,-1.5598 -1.42854,-3.63296 -2.24586,-5.74022 -0.81733,-2.10724 -1.64876,-4.24872 -2.34404,-5.96656 -0.34764,-0.85893 -0.65992,-1.61126 -0.92553,-2.21278 -0.26562,-0.60152 -0.40703,-0.96383 -0.73277,-1.43764 -0.63083,-0.91758 -1.0558,-0.94152 -1.67587,-1.2578 -0.62006,-0.31627 -1.37378,-0.64736 -2.24017,-0.99994 -1.73278,-0.70515 -3.90004,-1.48975 -6.03322,-2.22881 -3.38886,-1.1741 -5.4603,-1.81801 -6.67195,-2.20245 a 1.749,1.749 0 0 0 -0.006,-0.007 c 0.26646,-0.81005 0.50543,-1.63928 1.27382,-3.217897 1.03273,-2.121659 2.39991,-4.645023 3.79254,-7.113781 0.001,0.04309 0.001,0.05761 0.003,0.101803 0.0505,1.526015 0.12083,3.079376 0.22066,4.338236 0.0499,0.629431 0.10576,1.182747 0.17983,1.65623 0.037,0.236741 0.0756,0.451192 0.13643,0.677482 0.0608,0.22629 0.0675,0.4391 0.42013,0.892447 0.57872,0.74406 1.03642,0.70537 1.33997,0.75809 0.30355,0.0527 0.55411,0.0579 0.82579,0.0563 0.54336,-0.003 1.15155,-0.0572 1.85157,-0.14056 1.40004,-0.16678 3.13397,-0.45842 4.84776,-0.77308 3.42757,-0.629317 6.7598,-1.355469 6.7598,-1.355469 a 1.749,1.749 0 0 0 1.33583,-2.082043 1.749,1.749 0 0 0 -2.08204,-1.336353 c 0,0 -3.29182,0.718701 -6.64456,1.334286 -1.67637,0.307792 -3.37144,0.588448 -4.63072,0.738456 -0.33296,0.03966 -0.51391,0.04296 -0.77153,0.06253 -0.0278,-0.251478 -0.0564,-0.445599 -0.0816,-0.763778 -0.0919,-1.158706 -0.16181,-2.680708 -0.21136,-4.17804 -0.0962,-2.907878 -0.11809,-5.634683 -0.11937,-5.796028 0.4797,-0.804065 0.79719,-1.334869 1.19218,-1.985409 a 6.5802398,6.5802398 0 0 0 1.74046,0.241846 6.5802398,6.5802398 0 0 0 6.57996,-6.57996 6.5802398,6.5802398 0 0 0 -6.57996,-6.580477 z" /><path
           id="circle33"
           style="fill:#0977c7;fill-opacity:0.35;stroke:none;stroke-width:1.098;stroke-linecap:round;stroke-linejoin:round;paint-order:markers stroke fill"
           d="m 108.13532,67.494015 a 6.5802398,6.5802398 0 0 0 -6.58048,6.57996 6.5802398,6.5802398 0 0 0 1.37098,3.993555 c -0.59232,1.002864 -1.26062,2.168747 -1.96474,3.451986 -0.93792,0.07936 -2.135711,0.174448 -3.356381,0.252697 -1.28252,0.08221 -2.57445,0.142872 -3.51555,0.146761 -0.47055,0.0019 -0.86172,-0.0125 -1.05833,-0.03307 -0.0767,-0.008 -0.0788,-0.01102 -0.0625,-0.0062 -0.27759,-0.124535 -0.556724,-0.196924 -0.734324,-0.197404 -0.38353,-0.001 -0.56613,0.07592 -0.72296,0.132809 -0.31366,0.113779 -0.50018,0.227673 -0.71675,0.359668 -0.43313,0.263989 -0.91001,0.607677 -1.47071,1.031461 -1.1214,0.847568 -2.53331,1.999182 -3.93361,3.169833 -2.8006,2.341299 -5.54488,4.751653 -5.54488,4.751653 a 1.749,1.749 0 0 0 -0.1602,2.4691 1.749,1.749 0 0 0 2.46858,0.16019 c 0,0 2.72379,-2.39044 5.48081,-4.695319 1.37851,-1.152436 2.76933,-2.286893 3.79873,-3.064929 0.42041,-0.317748 0.71732,-0.519158 0.9648,-0.681612 0.0859,0.0128 0.184114,0.04013 0.269754,0.04909 0.4307,0.04507 0.89741,0.05494 1.43557,0.05271 1.07632,-0.0044 2.40793,-0.07 3.72639,-0.154512 0.51735,-0.03316 0.82604,-0.05918 1.20664,-0.08785 -2.38529,4.736208 -4.7418,10.2841 -5.53661,15.262108 a 1.749,1.749 0 0 0 0,0.10129 c -0.4325,0.89683 -2.186534,4.51799 -4.336174,8.51576 -1.21525,2.26004 -2.48677,4.48884 -3.50573,6.01927 -0.30958,0.46497 -0.50905,0.68671 -0.74982,0.99219 -0.28571,-0.3511 -0.58546,-0.72277 -0.95137,-1.21853 -0.93931,-1.27266 -2.07307,-2.91543 -3.18378,-4.53151 -1.1107,-1.61607 -2.19643,-3.20394 -3.08198,-4.41007 -0.44277,-0.60307 -0.8284,-1.10455 -1.18546,-1.50947 -0.17854,-0.20246 -0.34071,-0.37877 -0.57206,-0.56844 -0.11567,-0.0948 -0.2452,-0.19642 -0.4749,-0.3085 -0.2297,-0.11208 -0.61223,-0.29614 -1.24024,-0.15658 -0.61855,0.13745 -1.000364,0.31466 -1.769404,0.60358 -0.76905,0.28893 -1.70503,0.65232 -2.61534,1.00975 -1.82064,0.71485 -3.53726,1.40612 -3.53726,1.40612 a 1.749,1.749 0 0 0 -0.96841,2.27583 1.749,1.749 0 0 0 2.27531,0.96842 c 0,0 1.70693,-0.68633 3.50986,-1.39423 0.90147,-0.35395 1.82642,-0.71269 2.566264,-0.99064 0.27637,-0.10383 0.25157,-0.0945 0.4842,-0.17363 0.20859,0.25687 0.41164,0.50557 0.70745,0.90847 0.8262,1.12529 1.90712,2.70169 3.01946,4.32015 1.11234,1.61847 2.25724,3.2809 3.252,4.62866 0.49736,0.67387 0.95638,1.26824 1.37459,1.75803 0.4182,0.4898 0.67734,0.85335 1.34204,1.23817 0.77553,0.44898 1.6526,0.22667 2.08979,-0.004 0.43719,-0.23072 0.70887,-0.48928 0.98444,-0.77308 0.55114,-0.5676 1.06651,-1.27698 1.63659,-2.1332 1.14016,-1.71245 2.43297,-3.99206 3.67419,-6.30039 1.686034,-3.13558 2.377014,-4.61971 3.218414,-6.33812 0.76947,1.36988 1.2212,2.11825 2.51561,4.60541 2.102681,4.04021 4.321711,8.89462 4.693251,10.75231 0.64898,3.24491 3.32348,7.07054 5.82239,10.51927 2.49891,3.44871 4.86947,6.26783 4.86947,6.26783 a 1.7491749,1.7491749 0 0 0 2.44533,0.22841 l 5.86889,-4.80074 a 1.749,1.749 0 0 0 0.24598,-2.46083 1.749,1.749 0 0 0 -2.46083,-0.2465 l -4.48035,3.66593 c -0.71548,-0.86996 -1.7827,-2.12336 -3.65456,-4.70669 -2.41402,-3.33159 -4.89739,-7.50662 -5.22655,-9.15242 -0.60661,-3.03303 -2.87805,-7.56153 -5.0214,-11.67991 -1.978271,-3.80117 -3.687181,-6.78478 -3.963581,-7.26622 0.7739,-3.858788 2.6454,-8.423448 4.637961,-12.503111 0.0881,0.592088 0.17,1.154048 0.30592,1.984375 0.25865,1.579998 0.54401,3.176178 0.83406,4.455028 0.14502,0.63942 0.28838,1.19434 0.4532,1.67793 0.0824,0.2418 0.16516,0.46356 0.29714,0.71262 0.13198,0.24906 0.20916,0.59705 0.93741,0.96118 0.68914,0.34458 0.96686,0.2245 1.23404,0.19896 0.26718,-0.0255 0.49636,-0.0747 0.74414,-0.13436 0.49556,-0.11936 1.05089,-0.29379 1.68,-0.51005 1.25823,-0.43252 2.79177,-1.03219 4.29689,-1.64434 3.01024,-1.22432 5.89422,-2.49804 5.89422,-2.49804 a 1.749,1.749 0 0 0 0.89296,-2.306839 1.749,1.749 0 0 0 -2.30683,-0.892452 c 0,0 -2.85109,1.258406 -5.79861,2.457211 -1.47377,0.59941 -2.97285,1.18334 -4.11551,1.57614 -0.27117,0.0932 -0.42391,0.12825 -0.64648,0.19688 -0.0527,-0.20221 -0.0945,-0.32148 -0.15038,-0.56792 -0.26016,-1.14705 -0.54213,-2.70287 -0.79478,-4.246255 -0.50532,-3.086768 -0.90227,-6.135026 -0.90227,-6.135026 a 1.7491749,1.7491749 0 0 0 -0.14986,-0.450101 c 0.45081,-0.807455 0.88266,-1.564061 1.28106,-2.243791 a 6.5802398,6.5802398 0 0 0 2.3952,0.468705 6.5802398,6.5802398 0 0 0 6.57996,-6.580477 6.5802398,6.5802398 0 0 0 -6.57996,-6.57996 z" /><path
           id="circle17"
           style="fill:#0977c7;fill-opacity:0.1;stroke:none;stroke-width:1.098;stroke-linecap:round;stroke-linejoin:round;paint-order:markers stroke fill"
           d="m -8.8910113,72.560429 a 6.5802398,6.5802398 0 0 0 -6.5799597,6.580477 6.5802398,6.5802398 0 0 0 1.699121,4.400765 c -0.438704,0.617584 -0.906562,1.297992 -1.389579,2.017448 -1.104834,0.130442 -2.394373,0.284373 -3.788916,0.468188 -1.593884,0.21009 -3.214247,0.439526 -4.515487,0.666109 -0.650619,0.113292 -1.216694,0.22435 -1.693436,0.341582 -0.238372,0.05862 -0.453219,0.118145 -0.671794,0.195336 -0.218575,0.07719 -0.412792,0.08652 -0.845943,0.468706 -0.289244,0.255214 -0.435182,0.433884 -0.745691,0.77773 -0.31051,0.343847 -0.700713,0.786877 -1.1467,1.300696 -0.891977,1.027635 -2.003377,2.33648 -3.093868,3.65404 -1.090491,1.31756 -2.156255,2.639454 -2.970362,3.712952 -0.407052,0.536749 -0.750444,1.008562 -1.017509,1.415934 -0.133531,0.203686 -0.24707,0.386889 -0.353983,0.593762 -0.106914,0.206874 -0.288871,0.294718 -0.288871,1.060916 a 1.749,1.749 0 0 0 1.75028,1.74977 1.749,1.749 0 0 0 1.652613,-1.19166 c -0.0039,-0.004 -0.0087,-0.009 -0.0062,-0.0134 0.0025,-0.005 0.02414,-0.0391 0.02946,-0.0486 a 1.749,1.749 0 0 0 0.07183,-0.4961 c 0,0.23151 -0.01517,0.35054 -0.03307,0.43305 0.03039,-0.0515 0.04664,-0.083 0.103353,-0.1695 0.18814,-0.28699 0.498971,-0.717909 0.879016,-1.219046 0.760092,-1.002274 1.80747,-2.303189 2.878894,-3.597713 1.071425,-1.294523 2.169978,-2.587836 3.041158,-3.591512 0.43559,-0.501837 0.814812,-0.930822 1.101225,-1.247986 0.193465,-0.214235 0.240901,-0.262619 0.312643,-0.337964 0.06099,-0.01776 0.09408,-0.02972 0.187585,-0.05271 0.339012,-0.08336 0.854794,-0.185398 1.460893,-0.290938 1.212196,-0.211079 2.802906,-0.43974 4.371309,-0.646472 0.385715,-0.05084 0.583534,-0.07267 0.902788,-0.113171 -2.944341,4.929033 -5.806825,10.870302 -5.853907,16.331822 a 1.749,1.749 0 0 0 0.02894,0.1943 c -0.09347,0.77269 -0.535285,4.37801 -1.205094,8.24911 -0.37237,2.15208 -0.805917,4.26374 -1.214913,5.63842 -0.05899,0.19826 -0.08348,0.2108 -0.14211,0.37517 -0.587637,-0.30129 -1.03393,-0.58909 -1.851567,-0.96687 -1.483442,-0.68543 -3.274145,-1.48122 -5.025533,-2.29082 -1.751388,-0.8096 -3.46563,-1.63589 -4.742346,-2.34766 -0.638359,-0.35588 -1.169257,-0.68649 -1.509469,-0.93741 -0.34021,-0.25091 -0.452222,-0.52443 -0.293005,-0.17415 -0.322449,-0.7094 -1.205826,-1.32671 -1.931665,-1.40818 -0.72584,-0.0815 -1.254439,0.10462 -1.732711,0.30696 -0.956541,0.40469 -1.790614,1.02686 -2.607076,1.68723 -1.632921,1.32075 -3.078365,2.84169 -3.078365,2.84169 a 1.749,1.749 0 0 0 0.05839,2.47272 1.749,1.749 0 0 0 2.472718,-0.0563 c 0,0 1.355661,-1.41477 2.746086,-2.53938 0.628606,-0.50843 1.227251,-0.88519 1.601969,-1.07228 0.231807,0.22482 0.423696,0.5616 0.687296,0.75602 0.5372,0.3962 1.167649,0.77914 1.882573,1.17771 1.429846,0.79713 3.193697,1.64424 4.976957,2.46858 1.783261,0.82434 3.581657,1.62347 5.027083,2.29133 1.445427,0.66786 2.677347,1.33983 2.726449,1.37666 0.525315,0.39399 1.613857,0.48881 2.201416,0.17984 0.587559,-0.30898 0.813233,-0.67375 1.013375,-0.99632 0.400284,-0.64514 0.627662,-1.32041 0.873331,-2.14613 0.491339,-1.65144 0.924981,-3.82475 1.308447,-6.04097 0.532489,-3.07747 0.696587,-4.61321 0.904338,-6.24613 1.074201,0.66915 1.677067,0.99918 3.480408,2.26549 1.480005,1.03927 3.00875,2.18733 4.234367,3.25975 1.225615,1.07242 2.13801,2.15148 2.357478,2.60139 0.05421,0.11113 0.18123,1.49729 -0.177766,3.21893 -0.358997,1.72164 -1.017384,3.81482 -1.732194,5.83375 -0.71481,2.01893 -1.48286,3.96802 -2.064474,5.48442 -0.290807,0.7582 -0.534625,1.40447 -0.711068,1.93167 -0.08822,0.2636 -0.159422,0.49362 -0.216524,0.73639 -0.0571,0.24277 -0.30359,0.3031 0.01344,1.25418 0.38979,1.16934 1.073785,1.22272 1.465027,1.35909 0.391242,0.13638 0.753682,0.20447 1.152384,0.26562 0.797406,0.1223 1.715657,0.18442 2.6210287,0.22479 1.810743,0.0807 3.556372,0.0584 3.556372,0.0584 a 1.749,1.749 0 0 0 1.72651,-1.77147 1.749,1.749 0 0 0 -1.771469,-1.72651 c 0,0 -1.675906,0.0201 -3.35535,-0.0548 -0.5775817,-0.0258 -1.0567057,-0.079 -1.5451257,-0.12867 0.111744,-0.30199 0.187177,-0.52159 0.330213,-0.89452 0.571592,-1.49028 1.3547087,-3.4765 2.0959957,-5.5702 0.741287,-2.09372 1.443026,-4.29107 1.859318,-6.28748 0.416292,-1.99641 0.733212,-3.75508 -0.101803,-5.46685 -0.669749,-1.37298 -1.823936,-2.49557 -3.1992877,-3.69899 -1.375351,-1.20343 -2.981962,-2.40649 -4.525305,-3.49023 -2.368425,-1.66312 -4.184393,-2.78773 -5.093229,-3.34243 0.450358,-4.22961 2.989929,-9.615098 5.669422,-14.02912 0.0063,0.582047 0.01903,1.269078 0.04909,2.244307 0.04501,1.45984 0.110658,2.933205 0.216524,4.117578 0.05293,0.592186 0.11359,1.106363 0.203089,1.564246 0.04475,0.228941 0.09039,0.439924 0.185518,0.695565 0.09512,0.25564 0.09504,0.653493 0.908472,1.111044 0.704499,0.39629 0.805213,0.25921 1.033012,0.27337 0.227799,0.0142 0.451728,0.0123 0.709,0.006 0.514546,-0.0125 1.1477577,-0.0521 1.8810217,-0.11162 1.46653,-0.11906 3.320368,-0.31755 5.161959,-0.538988 1.841592,-0.22144 3.66363101,-0.46456 5.060673,-0.679545 0.698523,-0.107492 1.287472,-0.20733 1.74408,-0.29869 0.228304,-0.04568 0.419559,-0.08628 0.613399,-0.14056 0.09692,-0.02714 0.189996,-0.05414 0.33383,-0.113688 0.143833,-0.05955 0.359313,0.09833 0.874882,-0.72657 a 1.749,1.749 0 0 0 -0.556555,-2.409672 1.749,1.749 0 0 0 -2.410189,0.556555 c 0.247611,-0.396176 0.415264,-0.551898 0.531234,-0.612366 -0.0327,0.007 -0.0355,0.0092 -0.07235,0.01654 -0.361926,0.07242 -0.920219,0.166749 -1.58956699,0.269751 -1.338697,0.206006 -3.13773601,0.44798 -4.94750201,0.665593 -1.809767,0.217613 -3.635606,0.41258 -5.027083,0.525549 -0.454938,0.03693 -0.7597627,0.04896 -1.0996747,0.06666 -0.01844,-0.160461 -0.0359,-0.241793 -0.05271,-0.429948 -0.09421,-1.053961 -0.161237,-2.489406 -0.205155,-3.913973 -0.08783,-2.849133 -0.08785,-5.666321 -0.08785,-5.666321 a 1.7491749,1.7491749 0 0 0 -0.425814,-1.087789 c 0.114891,-0.163341 0.236219,-0.340902 0.347266,-0.49661 a 6.5802398,6.5802398 0 0 0 1.9306307,0.295589 6.5802398,6.5802398 0 0 0 6.580477,-6.57996 6.5802398,6.5802398 0 0 0 -6.580477,-6.580477 z m 11.229806,22.915397 c 0.07796,-0.01659 0.126952,-0.02769 0.172599,-0.03876 -0.03968,-0.002 -0.09061,-0.004 -0.172599,0.03876 z m 0.172599,-0.03876 c 0.0179,9.08e-4 0.03796,0.0035 0.05013,-0.0016 0.07725,-0.03198 0.07948,-0.02857 0.06046,-0.02325 -0.01183,0.0033 -0.08134,0.01772 -0.110588,0.02481 z m -35.3404787,5.211054 c -0.01133,0.0192 -0.03183,0.0507 -0.03876,0.063 a 1.749,1.749 0 0 1 -0.02325,0.062 c 0.01091,0.012 0.03752,-0.0122 0.06201,-0.12506 z" /><path
           style="fill:#0977c7;fill-opacity:1;stroke:#007dda;stroke-width:1.36055;stroke-linecap:round;stroke-linejoin:round;stroke-dasharray:none;stroke-opacity:1;paint-order:markers stroke fill"
           d="m -77.68931,137.56904 h 365.9355"
           id="path42" /><path
           id="path45"
           style="fill:#0977c7;fill-opacity:0.45;stroke:none;stroke-width:1.098;stroke-linecap:round;stroke-linejoin:round;paint-order:markers stroke fill"
           d="m 161.03509,63.208841 a 6.5802398,6.5802398 0 0 0 -6.57996,6.580477 6.5802398,6.5802398 0 0 0 1.98748,4.689119 c -0.35323,0.643528 -0.69559,1.264219 -1.09192,2.001429 -0.0497,0.03238 -0.10198,0.06517 -0.14728,0.09715 -0.1419,0.100164 -0.29073,0.212748 -0.46509,0.349333 -0.34873,0.27317 -0.79442,0.637235 -1.3162,1.072286 -1.04356,0.870102 -2.38372,2.01744 -3.72484,3.185335 -1.34111,1.167895 -2.67936,2.354695 -3.72225,3.303158 -0.52144,0.474231 -0.9682,0.886556 -1.31258,1.21853 -0.17219,0.165986 -0.31811,0.309903 -0.44545,0.443384 -0.12734,0.133481 -0.20026,0.16982 -0.41031,0.505912 -0.3151,0.504148 -0.3056,0.617651 -0.47077,1.035079 -0.16518,0.417427 -0.36775,0.951069 -0.59738,1.570447 -0.45927,1.238756 -1.02459,2.810632 -1.57614,4.359424 -1.10308,3.097583 -2.1487,6.103507 -2.1487,6.103507 a 1.749,1.749 0 0 0 1.07642,2.226219 1.749,1.749 0 0 0 2.22674,-1.0759 c 0,0 1.04477,-2.997758 2.1425,-6.080255 0.54886,-1.541248 1.11122,-3.104375 1.56063,-4.316532 0.2247,-0.606078 0.42151,-1.126487 0.56999,-1.501717 0.0911,-0.230334 0.17452,-0.400034 0.18759,-0.43925 0.0727,-0.07557 0.17473,-0.179705 0.31264,-0.312642 0.30169,-0.290829 0.73145,-0.687411 1.23817,-1.14825 0.82165,-0.747258 1.86276,-1.669775 2.92953,-2.605009 -2.32694,4.795342 -4.40194,9.696613 -4.85707,13.296346 a 1.7491749,1.7491749 0 0 0 0.0858,0.802535 c 0,0 0.26096,0.749315 0.38913,1.115185 a 1.749,1.749 0 0 0 0.007,0.14831 c 0.12495,0.499829 0.317,0.982859 0.55707,1.475879 0.48935,1.41385 1.09781,3.18235 1.73219,5.07514 0.67805,2.02309 1.36321,4.11591 1.88671,5.826 0.10333,0.33754 0.16348,0.58461 0.2527,0.89917 -0.69625,0.15276 -1.39652,0.30644 -2.12959,0.46251 -1.97985,0.42148 -4.00312,0.84287 -5.62343,1.21646 -0.81016,0.18679 -1.51716,0.36206 -2.09186,0.52555 -0.28735,0.0817 -0.54145,0.15843 -0.77928,0.24598 -0.23782,0.0875 -0.42465,0.12741 -0.8046,0.41238 -0.53227,0.3992 -1.73426,0.64027 -1.73426,0.64027 a 1.7491749,1.7491749 0 0 0 -1.3808,0.99839 l -3.02359,6.49211 a 1.749,1.749 0 0 0 0.84801,2.32388 1.749,1.749 0 0 0 2.32389,-0.84749 l 2.6448,-5.67976 c 0.6325,-0.1553 1.43538,-0.43691 2.25775,-1.01492 0.007,-0.006 0.0326,-0.0246 0.078,-0.0413 0.1047,-0.0385 0.29186,-0.0995 0.5271,-0.1664 0.47049,-0.13385 1.13958,-0.29851 1.92029,-0.47852 1.56143,-0.36001 3.57777,-0.78183 5.56607,-1.2051 0.56603,-0.1205 1.10345,-0.23943 1.65468,-0.35915 -0.17282,0.44566 -0.38127,0.94774 -0.64854,1.52911 -0.72906,1.58587 -1.74742,3.55142 -2.76779,5.45703 -1.02037,1.90561 -2.04475,3.75421 -2.80655,5.14852 -0.3809,0.69715 -0.69446,1.27724 -0.91984,1.71669 -0.11269,0.21973 -0.20187,0.39841 -0.28112,0.58033 -0.0396,0.091 -0.0764,0.17282 -0.12505,0.33796 -0.0244,0.0826 -0.0576,0.17638 -0.0744,0.40618 -0.008,0.1149 -0.019,0.26712 0.0372,0.51935 0.0281,0.12612 0.0753,0.27997 0.17001,0.45527 0.0947,0.17531 0.4482,0.53415 0.44907,0.53485 0.31785,0.25428 0.2739,0.18634 0.35347,0.23047 0.0796,0.0441 0.16633,0.0906 0.26975,0.1447 0.20683,0.1083 0.47549,0.24573 0.7891,0.40411 0.62722,0.31678 1.43267,0.71794 2.23242,1.11363 1.59951,0.79139 3.16983,1.55856 3.16983,1.55856 a 1.749,1.749 0 0 0 2.33991,-0.80099 1.749,1.749 0 0 0 -0.80305,-2.33991 c 0,0 -1.56376,-0.76539 -3.15433,-1.55236 -0.64136,-0.31732 -1.23502,-0.61472 -1.78129,-0.88883 0.13822,-0.25682 0.22771,-0.42961 0.39843,-0.74208 0.75266,-1.37755 1.78455,-3.23913 2.8205,-5.17384 1.03595,-1.93471 2.07594,-3.94033 2.86132,-5.64875 0.3927,-0.8542 0.72252,-1.63067 0.96274,-2.32389 0.18724,-0.54038 0.36062,-0.96949 0.38809,-1.55908 0.70703,-0.18063 1.308,-0.34852 1.80557,-0.5271 0.25998,-0.0933 0.48591,-0.17734 0.7674,-0.34158 0.14075,-0.0821 0.30142,-0.17478 0.51779,-0.40618 0.21638,-0.2314 0.57669,-0.74163 0.4961,-1.46709 -0.073,-0.65683 -0.19928,-0.69593 -0.29714,-0.88057 -0.0979,-0.18465 -0.20531,-0.36402 -0.33176,-0.56482 -0.25291,-0.40159 -0.57999,-0.88434 -0.96894,-1.44694 -0.7779,-1.12521 -1.79647,-2.55326 -2.82825,-4.03748 -1.03178,-1.48422 -2.07598,-3.0263 -2.88871,-4.33979 -0.50985,-0.82398 -0.90683,-1.58088 -1.15962,-2.105289 -0.25545,-0.732305 -0.53988,-1.5465 -0.59583,-1.705332 0.32603,-2.142662 1.64945,-5.670085 3.31711,-9.414929 -0.0981,0.992364 -0.17959,1.9492 -0.23358,2.819466 -0.0539,0.869534 -0.0814,1.650757 -0.0662,2.324406 0.0152,0.67365 -0.0219,1.149443 0.30644,1.915646 0.69734,1.627173 4.2385,11.039122 4.2385,11.039122 a 1.749,1.749 0 0 0 2.25206,1.02371 1.749,1.749 0 0 0 1.02319,-2.24999 c 0,0 -3.39573,-9.08402 -4.29896,-11.19157 0.1283,0.299363 -0.0118,-0.104994 -0.0233,-0.615466 -0.0115,-0.510472 0.0103,-1.218559 0.0605,-2.028817 0.10053,-1.620516 0.31199,-3.664252 0.5488,-5.652368 0.39844,-3.344973 0.79856,-6.051167 0.93741,-6.979936 0.53745,-1.007955 1.01256,-1.883559 1.48001,-2.735233 a 6.5802398,6.5802398 0 0 0 1.53169,0.196887 6.5802398,6.5802398 0 0 0 6.58048,-6.57996 6.5802398,6.5802398 0 0 0 -6.58048,-6.580477 z" /><path
           id="path46"
           style="fill:#0977c7;fill-opacity:0.5;stroke:none;stroke-width:1.098;stroke-linecap:round;stroke-linejoin:round;paint-order:markers stroke fill"
           d="m 190.48156,62.095804 a 6.5802398,6.5802398 0 0 0 -6.58048,6.580477 6.5802398,6.5802398 0 0 0 1.65158,4.353222 c -0.57611,1.014562 -1.24987,2.210408 -1.97042,3.501595 l -8.86975,6.251815 a 1.7491749,1.7491749 0 0 0 -0.7307,1.230416 c 0,0 -0.24651,2.150323 -0.44907,4.423503 -0.10127,1.136589 -0.19238,2.303817 -0.23616,3.275769 -0.0219,0.485976 -0.0327,0.920782 -0.0238,1.30638 0.009,0.385598 -0.0734,0.582239 0.20154,1.26969 a 1.749,1.749 0 0 0 0.84852,0.898653 c -0.0348,0.135171 -0.0703,0.271266 -0.0961,0.406177 a 1.7491749,1.7491749 0 0 0 -0.40669,0.619083 c -0.22226,0.577894 -0.5524,1.674638 -1.10742,3.446815 -0.55502,1.772191 -1.25671,4.028281 -1.96113,6.258021 -0.7044,2.22973 -1.41248,4.43548 -1.97093,6.09575 -0.27922,0.83013 -0.52187,1.52556 -0.70074,1.99988 -0.0727,0.19289 -0.12466,0.31636 -0.16795,0.41806 -0.67738,0.57424 -3.39335,2.93929 -6.41822,5.88853 -1.57964,1.54015 -3.13634,3.14083 -4.32428,4.56665 -0.59396,0.7129 -1.0967,1.3748 -1.48208,2.02726 -0.38537,0.65246 -0.81287,1.24073 -0.63717,2.3828 0.28085,1.82547 1.34053,3.39523 2.28151,4.78317 0.94099,1.38796 1.834,2.46704 1.834,2.46704 a 1.749,1.749 0 0 0 2.4629,0.23409 1.749,1.749 0 0 0 0.23409,-2.4629 c 0,0 -0.79707,-0.96565 -1.63452,-2.2009 -0.79107,-1.16682 -1.47991,-2.59344 -1.62523,-3.16828 0.019,-0.0733 0.0237,-0.13067 0.0977,-0.2558 0.22458,-0.38022 0.63341,-0.94051 1.15652,-1.56838 1.04624,-1.25574 2.54566,-2.8062 4.0783,-4.30051 3.06528,-2.98864 6.46286,-5.93451 6.50194,-5.96708 0.41223,-0.34353 0.4021,-0.45935 0.46871,-0.57826 0.0666,-0.11891 0.11154,-0.21603 0.15813,-0.31987 0.0932,-0.20768 0.18535,-0.43658 0.28887,-0.71107 0.20703,-0.54898 0.45581,-1.2682 0.74207,-2.11925 0.57253,-1.7021 1.28336,-3.91968 1.99058,-6.15828 0.70722,-2.2386 1.41102,-4.49568 1.96474,-6.2637 0.22274,-0.711201 0.24339,-0.764361 0.41599,-1.302766 1.22275,0.687956 2.82529,1.598266 5.77329,3.207036 1.95265,1.06559 3.94457,2.1331 5.54695,2.95125 0.60181,0.30727 1.08235,0.53576 1.55856,0.76171 -0.005,0.007 -0.005,0.008 -0.01,0.0155 -0.72381,1.09294 -1.86378,2.65306 -3.06079,4.30103 -1.197,1.64797 -2.45542,3.38975 -3.46646,4.93148 -1.01104,1.54173 -1.81319,2.59943 -2.05672,4.10931 -0.3671,2.27607 0.81937,4.12668 1.8278,5.53351 1.00843,1.40683 2.07067,2.41381 2.07067,2.41381 a 1.749,1.749 0 0 0 2.47272,-0.0584 1.749,1.749 0 0 0 -0.0589,-2.47271 c 0,0 -0.85005,-0.81663 -1.64228,-1.92185 -0.79224,-1.10522 -1.29448,-2.45729 -1.21698,-2.9378 -0.0212,0.13158 0.58664,-1.31048 1.52911,-2.74764 0.94246,-1.43716 2.1786,-3.15291 3.37137,-4.79506 1.19278,-1.64214 2.33927,-3.20499 3.14657,-4.42402 0.40366,-0.60951 0.71964,-1.10866 0.95705,-1.6247 0.1187,-0.25802 0.25273,-0.47699 0.28112,-1.03353 0.0142,-0.27827 -10e-4,-0.72441 -0.3421,-1.2051 -0.34077,-0.48069 -0.98598,-0.74654 -1.38647,-0.77514 0.35094,0.0251 0.22148,0.0404 0.10335,-0.004 -0.11814,-0.0443 -0.31653,-0.12628 -0.55862,-0.23616 -0.48418,-0.21978 -1.15315,-0.54976 -1.92754,-0.94516 -1.54878,-0.79078 -3.52502,-1.84885 -5.46271,-2.906281 -2.72143,-1.485123 -4.86817,-2.687348 -6.20376,-3.438035 0.0893,-0.321992 0.25482,-0.846465 0.50282,-1.464511 0.36657,-0.913608 0.88508,-2.061515 1.50171,-3.339847 0.7465,-1.547561 1.64196,-3.294845 2.58434,-5.085995 l -0.40463,3.490226 a 1.7491749,1.7491749 0 0 0 0.52142,1.459343 c 0,0 2.06508,1.995728 4.4943,4.177523 2.42922,2.181794 4.98319,4.475186 6.9665,5.466847 a 1.749,1.749 0 0 0 2.34611,-0.78341 1.749,1.749 0 0 0 -0.78135,-2.345596 c -0.86219,-0.431095 -3.82292,-2.808312 -6.19549,-4.939233 -2.03629,-1.828892 -3.31149,-3.063898 -3.77548,-3.509863 l 1.30483,-11.242725 c 0.61769,-1.105299 1.20598,-2.150659 1.71411,-3.046326 a 6.5802398,6.5802398 0 0 0 1.99058,0.317294 6.5802398,6.5802398 0 0 0 6.57996,-6.57996 6.5802398,6.5802398 0 0 0 -6.57996,-6.580477 z M 179.78143,83.48933 c -0.99341,1.8667 -1.93982,3.701661 -2.77554,5.397603 0.004,-0.04703 0.007,-0.09257 0.0114,-0.139526 0.16243,-1.82285 0.29774,-2.997026 0.36122,-3.564124 z" /><path
           id="path47"
           style="fill:#0977c7;fill-opacity:0.6;stroke:none;stroke-width:1.098;stroke-linecap:round;stroke-linejoin:round;paint-order:markers stroke fill"
           d="m 217.28667,63.568437 a 6.5802398,6.5802398 0 0 0 -7.22043,5.870025 6.5802398,6.5802398 0 0 0 1.67095,5.084309 c -0.69656,1.004491 -1.3976,2.031895 -2.45971,3.639444 -0.96422,0.336786 -2.14041,0.738124 -3.36753,1.123851 -1.3725,0.431433 -2.76985,0.829015 -3.79535,1.045948 -0.48243,0.102053 -0.87413,0.156557 -1.09141,0.170541 -0.18998,-0.09461 -0.41228,-0.167848 -0.6685,-0.18741 -0.62024,-0.04735 -1.14045,0.257141 -1.39089,0.485119 -0.5009,0.455961 -0.52728,0.719889 -0.62261,0.974268 -0.19066,0.508755 -0.29284,1.011869 -0.4076,1.644791 -0.22951,1.265842 -0.43284,2.940183 -0.61307,4.648679 -0.36054,3.416993 -0.61101,6.935246 -0.61101,6.935246 a 1.749,1.749 0 0 0 1.61918,1.869461 1.749,1.749 0 0 0 1.38823,-0.539946 1.7491749,1.7491749 0 0 0 0.006,0.487378 c -1.12324,1.203771 -3.12906,3.345829 -5.7737,6.097719 -1.79605,1.8689 -3.66944,3.78646 -5.23421,5.32475 -1.56478,1.5383 -2.99173,2.78359 -3.2267,2.93641 -1.35771,0.88297 -4.94839,3.42202 -8.296,6.15389 -1.67381,1.36592 -3.26998,2.7652 -4.49746,4.05991 -0.61374,0.64736 -1.13664,1.26348 -1.54654,1.89822 -0.40989,0.63474 -0.80576,1.27933 -0.73619,2.30183 0.15587,2.29072 1.65439,3.96658 2.9409,5.46938 1.28653,1.50276 2.53862,2.6459 2.53862,2.6459 a 1.749,1.749 0 0 0 2.47176,-0.11025 1.749,1.749 0 0 0 -0.11023,-2.47176 c 0,0 -1.1157,-1.0222 -2.24253,-2.33846 -1.02445,-1.19665 -1.90249,-2.7769 -2.07144,-3.29695 0.0212,-0.0626 0.0577,-0.16387 0.14704,-0.30225 0.22054,-0.34153 0.62443,-0.83811 1.147,-1.38929 1.04514,-1.10238 2.56265,-2.44338 4.17102,-3.75592 3.21675,-2.62505 6.85687,-5.19509 7.99054,-5.93238 1.01073,-0.65733 2.16649,-1.79559 3.77271,-3.37465 1.60624,-1.57904 3.49514,-3.51191 5.30426,-5.39441 2.63015,-2.73684 4.62157,-4.86355 5.77025,-6.094418 0.99422,0.71557 2.28943,1.635418 3.74833,2.633008 3.11175,2.12779 6.77477,4.51476 9.49879,5.69441 0.15229,0.0659 0.065,-0.0389 0.11224,0.15081 0.0472,0.18959 0.0575,0.69548 -0.10259,1.37752 -0.32044,1.36406 -1.23856,3.33895 -2.33433,5.24935 -2.19156,3.82074 -5.0233,7.46507 -5.0233,7.46507 a 1.7491749,1.7491749 0 0 0 0.65391,2.66549 l 6.57425,3.00247 a 1.749,1.749 0 0 0 2.31785,-0.86432 1.749,1.749 0 0 0 -0.86438,-2.31733 l -4.61655,-2.10802 c 1.06651,-1.45929 2.50616,-3.51123 3.99289,-6.10322 1.17954,-2.05642 2.23246,-4.18131 2.70396,-6.18839 0.23575,-1.00356 0.3475,-1.99974 0.0922,-3.02442 -0.25527,-1.02467 -1.04912,-2.05345 -2.1162,-2.51556 -2.15354,-0.93259 -5.86734,-3.28743 -8.91398,-5.370708 -2.43685,-1.666295 -3.66886,-2.589978 -4.39231,-3.123369 1.02179,-3.107681 3.73925,-8.122274 6.51424,-12.52087 -0.067,2.899334 -0.16051,6.921696 -0.19654,8.935502 -0.0186,1.0386 0.54747,1.844552 1.11728,2.378748 0.5698,0.534198 1.22431,0.917858 1.94978,1.273399 1.45094,0.711079 3.20971,1.27018 4.95888,1.74072 3.49834,0.94105 6.95224,1.48865 6.95224,1.48865 a 1.749,1.749 0 0 0 2.00135,-1.45233 1.749,1.749 0 0 0 -1.45264,-2.003454 c 0,0 -3.32382,-0.531481 -6.59095,-1.410348 -1.63357,-0.439431 -3.25365,-0.975927 -4.32982,-1.503337 -0.53809,-0.263707 -0.93559,-0.534814 -1.09706,-0.686187 -0.005,-0.0042 -0.004,-0.0039 -0.007,-0.0075 0.0576,-3.121305 0.28814,-12.991145 0.28814,-12.991145 a 1.7491749,1.7491749 0 0 0 -0.24424,-0.870436 c 0.57988,-0.856989 0.85188,-1.258577 1.26187,-1.848109 a 6.5802398,6.5802398 0 0 0 1.2386,0.265963 6.5802398,6.5802398 0 0 0 7.221,-5.870486 6.5802398,6.5802398 0 0 0 -5.87055,-7.22048 z m -15.96799,17.121494 c 0.0256,0.01748 0.0493,0.03307 0.0764,0.05464 -0.0226,-0.01862 -0.0519,-0.0362 -0.0764,-0.05464 z m 4.96822,2.138573 c -2.40152,3.863554 -4.79053,8.019239 -6.01354,11.459218 0.0808,-1.068051 0.25249,-3.26129 0.52568,-5.851004 0.1761,-1.668136 0.38069,-3.309339 0.5774,-4.393648 0.007,-0.04193 0.0101,-0.03979 0.0183,-0.08019 0.4626,-0.03832 0.92601,-0.09858 1.44495,-0.208356 1.04111,-0.220232 2.24033,-0.557098 3.44737,-0.925995 z" /><path
           id="path48"
           style="fill:#0977c7;fill-opacity:0.7;stroke:none;stroke-width:1.098;stroke-linecap:round;stroke-linejoin:round;paint-order:markers stroke fill"
           d="m 236.61492,72.033677 a 6.5802398,6.5802398 0 0 0 -6.58048,6.580477 6.5802398,6.5802398 0 0 0 1.83141,4.533056 c -0.39305,0.648812 -0.82134,1.368363 -1.28777,2.153357 -0.88805,0.150208 -2.15767,0.358454 -3.7605,0.581877 -1.24521,0.173575 -2.53389,0.329499 -3.56257,0.409794 -0.51434,0.04015 -0.96518,0.06107 -1.28726,0.05891 -0.32208,-0.0022 -0.56509,-0.0748 -0.35915,-0.0062 -0.72604,-0.242013 -1.32406,-0.02778 -1.68775,0.15658 -0.3637,0.184355 -0.60673,0.391092 -0.84543,0.611332 -0.47739,0.44048 -0.90829,0.96522 -1.37304,1.58595 -0.92951,1.241459 -1.94933,2.851034 -2.92386,4.472595 -1.94906,3.243121 -3.69331,6.525188 -3.69331,6.525188 a 1.749,1.749 0 0 0 0.7245,2.365227 1.749,1.749 0 0 0 2.36523,-0.72451 c 0,0 1.71489,-3.224503 3.60133,-6.363431 0.94323,-1.569465 1.9352,-3.12003 2.72697,-4.177523 0.36318,-0.485069 0.66631,-0.826366 0.86506,-1.021643 0.17909,0.01033 0.38473,0.07313 0.5762,0.07441 0.479,0.0032 1.00786,-0.02532 1.58388,-0.07028 1.15203,-0.08992 2.48828,-0.254425 3.77341,-0.433565 0.45364,-0.06323 0.69676,-0.102944 1.00356,-0.149862 -0.30128,0.524347 -0.59085,1.016591 -0.89607,1.555977 -1.46663,2.591782 -2.92006,5.267831 -4.04472,7.578349 -1.12465,2.310518 -1.95973,4.027948 -2.1115,5.697338 a 1.7491749,1.7491749 0 0 0 0.091,0.66973 c -1.02519,1.40518 -2.6186,3.5592 -4.77284,6.25388 -1.57636,1.97181 -3.25795,3.96968 -4.71651,5.49217 -0.72928,0.76125 -1.4046,1.40354 -1.9513,1.8495 -0.54671,0.44597 -1.01776,0.6688 -0.98805,0.66042 -0.42617,0.1202 -2.07224,0.26874 -3.96875,0.26769 -1.89653,-0.001 -4.14856,-0.0924 -6.29729,-0.21498 -4.29748,-0.24518 -8.17573,-0.61134 -8.17573,-0.61133 a 1.7491749,1.7491749 0 0 0 -1.86707,1.33997 l -1.572,6.66368 a 1.749,1.749 0 0 0 1.3007,2.10375 1.749,1.749 0 0 0 2.10323,-1.3007 l 1.22886,-5.21105 c 1.08126,0.098 3.20948,0.30409 6.78305,0.50798 2.18807,0.12484 4.48786,0.21955 6.49418,0.22066 2.00633,10e-4 3.6123,-0.0296 4.92011,-0.39843 0.89671,-0.25292 1.52991,-0.72931 2.24999,-1.31671 0.72009,-0.5874 1.47338,-1.3136 2.2655,-2.14044 1.58424,-1.65369 3.31,-3.70822 4.92373,-5.72678 2.39449,-2.99521 4.13142,-5.36173 5.08031,-6.66885 1.56664,0.50317 3.74515,1.21286 6.38669,2.12804 2.10173,0.72815 4.2302,1.50011 5.85701,2.16214 0.8134,0.33101 1.50414,0.63678 1.97094,0.87488 0.2235,0.114 0.39977,0.2694 0.49041,0.34572 0.0504,0.10383 0.12797,0.24436 0.30644,0.64854 0.23978,0.543 0.54459,1.27117 0.8847,2.1115 0.68023,1.68063 1.50986,3.8141 2.32647,5.91953 0.81662,2.10542 1.62022,4.18327 2.25929,5.77743 0.31953,0.79707 0.59687,1.47008 0.82269,1.98437 0.11292,0.25714 0.20997,0.47233 0.30851,0.66611 0.0493,0.0969 0.0968,0.18643 0.16381,0.29507 0.0669,0.10864 0.0753,0.21335 0.43564,0.51367 0.60512,0.50426 1.02891,0.44602 1.29863,0.44493 0.26973,-0.001 0.45868,-0.035 0.64854,-0.0739 0.37972,-0.0778 0.74395,-0.19298 1.15031,-0.33383 0.81274,-0.28168 1.76312,-0.67279 2.69545,-1.07642 1.86463,-0.80725 3.64267,-1.66398 3.64267,-1.66398 a 1.749,1.749 0 0 0 0.81855,-2.33422 1.749,1.749 0 0 0 -2.33422,-0.81804 c 0,0 -1.73646,0.83396 -3.51762,1.60507 -0.8344,0.36123 -1.65302,0.69142 -2.29495,0.92036 -0.17472,-0.41184 -0.35371,-0.83832 -0.59169,-1.43196 -0.62529,-1.5598 -1.42854,-3.63296 -2.24586,-5.74022 -0.81733,-2.10724 -1.64876,-4.24872 -2.34404,-5.96656 -0.34764,-0.85893 -0.65992,-1.61126 -0.92553,-2.21278 -0.26562,-0.60152 -0.40703,-0.96383 -0.73277,-1.43764 -0.63083,-0.91758 -1.0558,-0.94152 -1.67587,-1.2578 -0.62006,-0.31627 -1.37378,-0.64736 -2.24017,-0.99994 -1.73278,-0.70515 -3.90004,-1.48975 -6.03322,-2.22881 -3.38886,-1.1741 -5.4603,-1.81801 -6.67195,-2.20245 a 1.749,1.749 0 0 0 -0.006,-0.007 c 0.26646,-0.81005 0.50543,-1.63928 1.27382,-3.217897 1.03273,-2.121659 2.39991,-4.645023 3.79254,-7.113781 10e-4,0.04309 10e-4,0.05761 0.003,0.101803 0.0505,1.526015 0.12083,3.079376 0.22066,4.338236 0.0499,0.629431 0.10576,1.182747 0.17983,1.65623 0.037,0.236741 0.0756,0.451192 0.13643,0.677482 0.0608,0.22629 0.0675,0.4391 0.42013,0.892447 0.57872,0.74406 1.03642,0.70537 1.33997,0.75809 0.30355,0.0527 0.55411,0.0579 0.82579,0.0563 0.54336,-0.003 1.15155,-0.0572 1.85157,-0.14056 1.40004,-0.16678 3.13397,-0.45842 4.84776,-0.77308 3.42757,-0.629317 6.7598,-1.355469 6.7598,-1.355469 a 1.749,1.749 0 0 0 1.33583,-2.082043 1.749,1.749 0 0 0 -2.08204,-1.336353 c 0,0 -3.29182,0.718701 -6.64456,1.334286 -1.67637,0.307792 -3.37144,0.588448 -4.63072,0.738456 -0.33296,0.03966 -0.51391,0.04296 -0.77153,0.06253 -0.0278,-0.251478 -0.0564,-0.445599 -0.0816,-0.763778 -0.0919,-1.158706 -0.16181,-2.680708 -0.21136,-4.17804 -0.0962,-2.907878 -0.11809,-5.634683 -0.11937,-5.796028 0.4797,-0.804065 0.79719,-1.334869 1.19218,-1.985409 a 6.5802398,6.5802398 0 0 0 1.74046,0.241846 6.5802398,6.5802398 0 0 0 6.57996,-6.57996 6.5802398,6.5802398 0 0 0 -6.57996,-6.580477 z" /><path
           id="path49"
           style="fill:#0977c7;fill-opacity:0.4;stroke:none;stroke-width:1.098;stroke-linecap:round;stroke-linejoin:round;paint-order:markers stroke fill"
           d="m 134.4752,72.560429 a 6.5802398,6.5802398 0 0 0 -6.57996,6.580477 6.5802398,6.5802398 0 0 0 1.69913,4.400765 c -0.43871,0.617584 -0.90657,1.297992 -1.38958,2.017448 -1.10484,0.130442 -2.39438,0.284373 -3.78892,0.468188 -1.59388,0.21009 -3.21425,0.439526 -4.51549,0.666109 -0.65061,0.113292 -1.21669,0.22435 -1.69343,0.341582 -0.23837,0.05862 -0.45322,0.118145 -0.6718,0.195336 -0.21857,0.07719 -0.41279,0.08652 -0.84594,0.468706 -0.28924,0.255214 -0.43518,0.433884 -0.74569,0.77773 -0.31051,0.343847 -0.70071,0.786877 -1.1467,1.300696 -0.89198,1.027635 -2.00338,2.33648 -3.09387,3.65404 -1.09049,1.31756 -2.15625,2.639454 -2.97036,3.712952 -0.40705,0.536749 -0.75044,1.008562 -1.01751,1.415934 -0.13353,0.203686 -0.24707,0.386889 -0.35398,0.593762 -0.10692,0.206874 -0.28887,0.294718 -0.28887,1.060916 a 1.749,1.749 0 0 0 1.75028,1.74977 1.749,1.749 0 0 0 1.65261,-1.19166 c -0.004,-0.004 -0.009,-0.009 -0.006,-0.0134 0.002,-0.005 0.0241,-0.0391 0.0295,-0.0486 a 1.749,1.749 0 0 0 0.0718,-0.4961 c 0,0.23151 -0.0152,0.35054 -0.0331,0.43305 0.0304,-0.0515 0.0466,-0.083 0.10335,-0.1695 0.18814,-0.28699 0.49897,-0.717909 0.87902,-1.219046 0.76009,-1.002274 1.80747,-2.303189 2.87889,-3.597713 1.07143,-1.294523 2.16998,-2.587836 3.04116,-3.591512 0.43559,-0.501837 0.81481,-0.930822 1.10123,-1.247986 0.19346,-0.214235 0.2409,-0.262619 0.31264,-0.337964 0.061,-0.01776 0.0941,-0.02972 0.18758,-0.05271 0.33902,-0.08336 0.8548,-0.185398 1.4609,-0.290938 1.21219,-0.211079 2.8029,-0.43974 4.37131,-0.646472 0.38571,-0.05084 0.58353,-0.07267 0.90278,-0.113171 -2.94434,4.929033 -5.80682,10.870302 -5.8539,16.331822 a 1.749,1.749 0 0 0 0.0289,0.1943 c -0.0935,0.77269 -0.53529,4.37801 -1.2051,8.24911 -0.37237,2.15208 -0.80591,4.26374 -1.21491,5.63842 -0.059,0.19826 -0.0835,0.2108 -0.14211,0.37517 -0.58764,-0.30129 -1.03393,-0.58909 -1.85157,-0.96687 -1.48344,-0.68543 -3.27414,-1.48122 -5.02553,-2.29082 -1.75139,-0.8096 -3.46563,-1.63589 -4.74235,-2.34766 -0.63835,-0.35588 -1.16925,-0.68649 -1.50946,-0.93741 -0.34021,-0.25091 -0.45223,-0.52443 -0.29301,-0.17415 -0.32245,-0.7094 -1.20583,-1.32671 -1.93167,-1.40818 -0.72584,-0.0815 -1.25443,0.10462 -1.73271,0.30696 -0.956541,0.40469 -1.790611,1.02686 -2.607071,1.68723 -1.63292,1.32075 -3.07837,2.84169 -3.07837,2.84169 a 1.749,1.749 0 0 0 0.0584,2.47272 1.749,1.749 0 0 0 2.47272,-0.0563 c 0,0 1.35566,-1.41477 2.74609,-2.53938 0.628601,-0.50843 1.227251,-0.88519 1.601971,-1.07228 0.2318,0.22482 0.42369,0.5616 0.68729,0.75602 0.5372,0.3962 1.16765,0.77914 1.88258,1.17771 1.42984,0.79713 3.19369,1.64424 4.97695,2.46858 1.78326,0.82434 3.58166,1.62347 5.02708,2.29133 1.44543,0.66786 2.67735,1.33983 2.72645,1.37666 0.52532,0.39399 1.61386,0.48881 2.20142,0.17984 0.58756,-0.30898 0.81323,-0.67375 1.01338,-0.99632 0.40028,-0.64514 0.62766,-1.32041 0.87333,-2.14613 0.49134,-1.65144 0.92498,-3.82475 1.30844,-6.04097 0.53249,-3.07747 0.69659,-4.61321 0.90434,-6.24613 1.0742,0.66915 1.67707,0.99918 3.48041,2.26549 1.48,1.03927 3.00875,2.18733 4.23437,3.25975 1.22561,1.07242 2.13801,2.15148 2.35747,2.60139 0.0542,0.11113 0.18123,1.49729 -0.17776,3.21893 -0.359,1.72164 -1.01739,3.81482 -1.7322,5.83375 -0.71481,2.01893 -1.48286,3.96802 -2.06447,5.48442 -0.29081,0.7582 -0.53463,1.40447 -0.71107,1.93167 -0.0882,0.2636 -0.15942,0.49362 -0.21652,0.73639 -0.0571,0.24277 -0.30359,0.3031 0.0134,1.25418 0.38979,1.16934 1.07378,1.22272 1.46502,1.35909 0.39125,0.13638 0.75369,0.20447 1.15239,0.26562 0.7974,0.1223 1.71566,0.18442 2.62103,0.22479 1.81074,0.0807 3.55637,0.0584 3.55637,0.0584 a 1.749,1.749 0 0 0 1.72651,-1.77147 1.749,1.749 0 0 0 -1.77147,-1.72651 c 0,0 -1.67591,0.0201 -3.35535,-0.0548 -0.57758,-0.0258 -1.05671,-0.079 -1.54513,-0.12867 0.11175,-0.30199 0.18718,-0.52159 0.33022,-0.89452 0.57159,-1.49028 1.35471,-3.4765 2.09599,-5.5702 0.74129,-2.09372 1.44303,-4.29107 1.85932,-6.28748 0.41629,-1.99641 0.73321,-3.75508 -0.1018,-5.46685 -0.66975,-1.37298 -1.82394,-2.49557 -3.19929,-3.69899 -1.37535,-1.20343 -2.98196,-2.40649 -4.5253,-3.49023 -2.36843,-1.66312 -4.1844,-2.78773 -5.09323,-3.34243 0.45035,-4.22961 2.98993,-9.615098 5.66942,-14.02912 0.006,0.582047 0.019,1.269078 0.0491,2.244307 0.045,1.45984 0.11066,2.933205 0.21652,4.117578 0.0529,0.592186 0.11359,1.106363 0.20309,1.564246 0.0448,0.228941 0.0904,0.439924 0.18552,0.695565 0.0951,0.25564 0.095,0.653493 0.90847,1.111044 0.7045,0.39629 0.80521,0.25921 1.03301,0.27337 0.2278,0.0142 0.45173,0.0123 0.709,0.006 0.51455,-0.0125 1.14776,-0.0521 1.88103,-0.11162 1.46653,-0.11906 3.32036,-0.31755 5.16195,-0.538988 1.8416,-0.22144 3.66364,-0.46456 5.06068,-0.679545 0.69852,-0.107492 1.28747,-0.20733 1.74408,-0.29869 0.2283,-0.04568 0.41956,-0.08628 0.6134,-0.14056 0.0969,-0.02714 0.18999,-0.05414 0.33383,-0.113688 0.14383,-0.05955 0.35931,0.09833 0.87488,-0.72657 a 1.749,1.749 0 0 0 -0.55656,-2.409672 1.749,1.749 0 0 0 -2.41019,0.556555 c 0.24762,-0.396176 0.41527,-0.551898 0.53124,-0.612366 -0.0327,0.007 -0.0355,0.0092 -0.0724,0.01654 -0.36193,0.07242 -0.92022,0.166749 -1.58957,0.269751 -1.3387,0.206006 -3.13773,0.44798 -4.9475,0.665593 -1.80977,0.217613 -3.63561,0.41258 -5.02708,0.525549 -0.45494,0.03693 -0.75977,0.04896 -1.09968,0.06666 -0.0184,-0.160461 -0.0359,-0.241793 -0.0527,-0.429948 -0.0942,-1.053961 -0.16124,-2.489406 -0.20515,-3.913973 -0.0878,-2.849133 -0.0879,-5.666321 -0.0879,-5.666321 a 1.7491749,1.7491749 0 0 0 -0.42582,-1.087789 c 0.11489,-0.163341 0.23622,-0.340902 0.34727,-0.49661 a 6.5802398,6.5802398 0 0 0 1.93063,0.295589 6.5802398,6.5802398 0 0 0 6.58048,-6.57996 6.5802398,6.5802398 0 0 0 -6.58048,-6.580477 z m 11.22981,22.915397 c 0.078,-0.01659 0.12695,-0.02769 0.1726,-0.03876 -0.0397,-0.002 -0.0906,-0.004 -0.1726,0.03876 z m 0.1726,-0.03876 c 0.0179,9.08e-4 0.038,0.0035 0.0501,-0.0016 0.0773,-0.03198 0.0795,-0.02857 0.0605,-0.02325 -0.0118,0.0033 -0.0813,0.01772 -0.11059,0.02481 z m -35.34048,5.211054 c -0.0113,0.0192 -0.0318,0.0507 -0.0388,0.063 a 1.749,1.749 0 0 1 -0.0232,0.062 c 0.0109,0.012 0.0375,-0.0122 0.062,-0.12506 z" /><path
           id="path50"
           style="fill:#0977c7;fill-opacity:0.9;stroke:none;stroke-width:1.098;stroke-linecap:round;stroke-linejoin:round;paint-order:markers stroke fill"
           d="m 262.98707,69.092592 a 6.5802398,6.5802398 0 0 0 -6.57996,6.579961 6.5802398,6.5802398 0 0 0 2.08049,4.782653 c -0.41764,0.643627 -0.89774,1.411673 -1.41335,2.25826 l -10.24123,-0.693497 a 1.7491749,1.7491749 0 0 0 -1.11363,0.306441 c 0,0 -1.86465,1.288133 -4.09536,3.152779 -2.23071,1.864646 -4.85272,4.27885 -6.51588,6.849194 a 1.749,1.749 0 0 0 0.51935,2.420008 1.749,1.749 0 0 0 2.41794,-0.519348 c 1.27126,-1.964677 3.71815,-4.307373 5.82238,-6.066297 1.8547,-1.550338 3.04077,-2.364489 3.38688,-2.607593 l 7.845,0.529167 c -2.02137,3.593461 -4.43453,8.298768 -6.96599,14.14849 a 1.7491749,1.7491749 0 0 0 -0.0801,0.22272 c 0,0 -1.29921,4.64167 -2.97449,9.08007 -0.83764,2.2192 -1.78225,4.39154 -2.62155,5.80275 -0.3573,0.60078 -0.65912,0.95349 -0.88263,1.18752 -0.38212,-0.24015 -1.23178,-0.82922 -2.3027,-1.90014 -1.23364,-1.23364 -2.63335,-2.81087 -3.93723,-4.35581 -2.60776,-3.08986 -4.8302,-6.0389 -4.8302,-6.0389 a 1.7491749,1.7491749 0 0 0 -2.63291,-0.18346 l -4.80281,4.80074 a 1.749,1.749 0 0 0 0,2.47427 1.749,1.749 0 0 0 2.47479,0 l 3.41994,-3.42149 c 0.76825,1.00135 1.69419,2.24959 3.699,4.62504 1.34155,1.58956 2.78604,3.22322 4.1367,4.57388 1.35066,1.35066 2.43642,2.42179 3.85765,2.97449 1.16693,0.45381 2.37385,-0.10113 3.06803,-0.709 0.69417,-0.60787 1.21602,-1.36185 1.73839,-2.24017 1.04473,-1.75663 2.01254,-4.03935 2.88665,-6.35517 0.48632,-1.28844 0.91993,-2.53827 1.31464,-3.71915 0.60487,1.17697 1.28799,2.45924 2.07636,3.84421 2.08763,3.66745 4.58137,7.64242 6.74378,10.05055 1.81833,2.02497 4.59575,5.87959 7.01766,9.17205 1.21095,1.64623 2.33796,3.15703 3.27732,4.29276 0.46967,0.56786 0.88326,1.03813 1.29708,1.42575 0.2069,0.19381 0.40821,0.36854 0.68729,0.54105 0.27908,0.17252 0.6607,0.46052 1.47071,0.3359 1.02343,-0.15745 1.42688,-0.5865 1.95337,-1.00769 0.52649,-0.42119 1.03615,-0.90931 1.50379,-1.38286 0.93527,-0.94711 1.70118,-1.85519 1.70118,-1.85519 a 1.749,1.749 0 0 0 -0.20515,-2.46496 1.749,1.749 0 0 0 -2.46497,0.20515 c 0,0 -0.70041,0.82644 -1.52135,1.65778 -0.37571,0.38047 -0.76487,0.73851 -1.09761,1.0139 -0.19589,-0.21004 -0.36238,-0.37695 -0.6289,-0.69919 -0.84186,-1.01786 -1.95534,-2.50186 -3.1564,-4.13463 -2.4021,-3.26553 -5.13788,-7.10338 -7.23211,-9.4356 -1.75017,-1.94905 -4.28003,-5.88795 -6.30505,-9.44542 -1.0125,-1.77872 -1.91483,-3.47563 -2.56831,-4.8028 -0.32674,-0.66359 -0.59062,-1.23603 -0.77153,-1.66398 -0.11481,-0.27159 -0.18919,-0.50606 -0.2248,-0.6103 0.0564,-0.19695 0.13953,-0.48524 0.14677,-0.51108 2.06348,-4.76416 4.0257,-8.71998 5.7459,-11.90987 0.0279,0.375015 0.0407,0.63036 0.0786,1.080038 0.12974,1.539939 0.28713,3.09021 0.48834,4.33772 0.1006,0.623754 0.20566,1.165274 0.35708,1.660363 0.0757,0.247545 0.15593,0.482062 0.31626,0.767395 0.16033,0.285334 0.38778,0.778773 1.2423,1.011825 0.76637,0.209011 0.91736,0.04734 1.17203,-0.0098 0.25466,-0.05712 0.49517,-0.131574 0.76584,-0.222725 0.54134,-0.182302 1.18631,-0.435697 1.92546,-0.742074 1.47832,-0.612751 3.31511,-1.438576 5.12114,-2.271696 3.61205,-1.666239 7.09207,-3.361035 7.09207,-3.361035 a 1.749,1.749 0 0 0 0.80615,-2.337861 1.749,1.749 0 0 0 -2.33784,-0.806669 c 0,0 -3.45701,1.683924 -7.02541,3.33003 -1.7842,0.823052 -3.59832,1.63756 -4.99608,2.216919 -0.39025,0.161757 -0.6393,0.247841 -0.95084,0.366902 -0.0118,-0.06776 -0.0215,-0.08663 -0.0331,-0.15813 -0.17393,-1.078356 -0.3335,-2.579647 -0.45941,-4.07417 -0.25182,-2.989044 -0.38447,-5.96656 -0.38447,-5.96656 a 1.7491749,1.7491749 0 0 0 -0.0568,-0.245463 c 0.50959,-0.829078 0.9643,-1.549438 1.36271,-2.154908 a 6.5802398,6.5802398 0 0 0 1.3932,0.166398 6.5802398,6.5802398 0 0 0 6.58048,-6.580476 6.5802398,6.5802398 0 0 0 -6.58048,-6.579961 z" /><text
           xml:space="preserve"
           style="font-weight:600;font-size:8.33591px;line-height:1.1;font-family:'Segoe UI';-inkscape-font-specification:'Segoe UI Semi-Bold';text-align:center;letter-spacing:0px;text-orientation:upright;text-anchor:middle;opacity:1;fill:#000000;fill-opacity:1;stroke:#da004c;stroke-width:1.96911;stroke-linecap:round;stroke-linejoin:round;stroke-dasharray:none;stroke-opacity:1;paint-order:markers stroke fill"
           x="-77.341095"
           y="63.125481"
           id="text78"><tspan
             sodipodi:role="line"
             id="tspan78"
             style="font-style:normal;font-variant:normal;font-weight:normal;font-stretch:normal;font-family:'Sarasa UI SC';-inkscape-font-specification:'Sarasa UI SC';text-align:start;text-anchor:start;fill:#000000;fill-opacity:1;stroke:none;stroke-width:1.96911"
             x="-77.341095"
             y="63.125481">120 Hz</tspan></text></g><g
         id="g2"
         transform="translate(0,-182.59614)"><path
           id="path65"
           style="fill:#e41202;fill-opacity:0.075;stroke:none;stroke-width:1.098;stroke-linecap:round;stroke-linejoin:round;paint-order:markers stroke fill"
           d="m -28.148773,161.14519 a 6.5802398,6.5802398 0 0 0 -6.57996,6.57996 6.5802398,6.5802398 0 0 0 2.080493,4.78266 c -0.417637,0.64362 -0.89774,1.41167 -1.41335,2.25826 l -10.241236,-0.6935 a 1.7491749,1.7491749 0 0 0 -1.113627,0.30644 c 0,0 -1.864645,1.28813 -4.095357,3.15278 -2.230712,1.86465 -4.852718,4.27885 -6.515886,6.84919 a 1.749,1.749 0 0 0 0.51935,2.42001 1.749,1.749 0 0 0 2.417943,-0.51935 c 1.271262,-1.96467 3.718149,-4.30737 5.822384,-6.06629 1.854698,-1.55034 3.040766,-2.36449 3.386873,-2.6076 l 7.844999,0.52917 c -2.021362,3.59346 -4.434525,8.29877 -6.965983,14.14849 a 1.7491749,1.7491749 0 0 0 -0.0801,0.22272 c 0,0 -1.299216,4.64167 -2.974496,9.08007 -0.83764,2.2192 -1.782244,4.39154 -2.621545,5.80275 -0.357302,0.60078 -0.659127,0.95349 -0.882634,1.18752 -0.382119,-0.24015 -1.23178,-0.82922 -2.302701,-1.90014 -1.233636,-1.23364 -2.63335,-2.81087 -3.93723,-4.35581 -2.60776,-3.08986 -4.83019,-6.0389 -4.83019,-6.0389 a 1.7491749,1.7491749 0 0 0 -2.63292,-0.18346 l -4.80281,4.80074 a 1.749,1.749 0 0 0 0,2.47427 1.749,1.749 0 0 0 2.47479,0 l 3.41995,-3.42149 c 0.76825,1.00135 1.69418,2.24959 3.69899,4.62504 1.34155,1.58956 2.78604,3.22322 4.136702,4.57388 1.35066,1.35066 2.43642,2.42179 3.857646,2.97449 1.166932,0.45381 2.373858,-0.10113 3.06803,-0.709 0.694171,-0.60787 1.216028,-1.36185 1.738395,-2.24017 1.044734,-1.75663 2.012538,-4.03935 2.886646,-6.35517 0.486323,-1.28844 0.919929,-2.53827 1.314648,-3.71915 0.604868,1.17697 1.287987,2.45924 2.076359,3.84421 2.087627,3.66745 4.58137,7.64242 6.743775,10.05055 1.818331,2.02497 4.59575,5.87959 7.017659,9.17205 1.210956,1.64623 2.337965,3.15703 3.277319,4.29276 0.469678,0.56786 0.883262,1.03813 1.297079,1.42575 0.206908,0.19381 0.408219,0.36854 0.687296,0.54105 0.279078,0.17252 0.660701,0.46052 1.470712,0.3359 1.023431,-0.15745 1.426877,-0.5865 1.953369,-1.00769 0.526492,-0.42119 1.03615,-0.90931 1.503784,-1.38286 0.935269,-0.94711 1.701188,-1.85519 1.701188,-1.85519 a 1.749,1.749 0 0 0 -0.205155,-2.46496 1.749,1.749 0 0 0 -2.464966,0.20515 c 0,0 -0.700414,0.82644 -1.521354,1.65778 -0.375714,0.38047 -0.764873,0.73851 -1.097608,1.0139 -0.195893,-0.21004 -0.362378,-0.37695 -0.628902,-0.69919 -0.841863,-1.01786 -1.955343,-2.50186 -3.156397,-4.13463 -2.402106,-3.26553 -5.137883,-7.10338 -7.232116,-9.4356 -1.750164,-1.94905 -4.280026,-5.88795 -6.305041,-9.44542 -1.012508,-1.77872 -1.914839,-3.47563 -2.568319,-4.8028 -0.326741,-0.66359 -0.59062,-1.23603 -0.771529,-1.66398 -0.114807,-0.27159 -0.18919,-0.50606 -0.224793,-0.6103 0.05642,-0.19695 0.139524,-0.48524 0.146761,-0.51108 2.06348,-4.76416 4.025705,-8.71998 5.745903,-11.90987 0.02791,0.37502 0.04066,0.63036 0.07855,1.08004 0.129739,1.53994 0.287132,3.09021 0.488342,4.33772 0.100606,0.62375 0.205666,1.16527 0.357085,1.66036 0.07571,0.24755 0.155929,0.48206 0.316259,0.7674 0.160331,0.28533 0.387781,0.77877 1.242302,1.01182 0.766368,0.20901 0.91736,0.0473 1.172021,-0.01 0.254661,-0.0571 0.495175,-0.13157 0.765845,-0.22272 0.541339,-0.18231 1.186305,-0.4357 1.925464,-0.74208 1.478317,-0.61275 3.31511,-1.43857 5.121134,-2.27169 3.612047,-1.66624 7.092073,-3.36104 7.092073,-3.36104 a 1.749,1.749 0 0 0 0.806153,-2.33786 1.749,1.749 0 0 0 -2.337842,-0.80667 c 0,0 -3.45701,1.68393 -7.025411,3.33003 -1.7842,0.82305 -3.598325,1.63756 -4.996078,2.21692 -0.390255,0.16176 -0.639307,0.24784 -0.950846,0.3669 -0.01179,-0.0678 -0.02154,-0.0866 -0.03307,-0.15813 -0.173928,-1.07835 -0.333492,-2.57964 -0.459403,-4.07417 -0.251824,-2.98904 -0.384473,-5.96656 -0.384473,-5.96656 a 1.7491749,1.7491749 0 0 0 -0.05684,-0.24546 c 0.509581,-0.82908 0.964296,-1.54944 1.362707,-2.15491 a 6.5802398,6.5802398 0 0 0 1.393197,0.1664 6.5802398,6.5802398 0 0 0 6.580477,-6.58048 6.5802398,6.5802398 0 0 0 -6.580477,-6.57996 z" /><path
           id="path66"
           style="fill:#e41202;fill-opacity:0.205556;stroke:none;stroke-width:1.098;stroke-linecap:round;stroke-linejoin:round;paint-order:markers stroke fill"
           d="m 9.4880407,155.26144 a 6.5802398,6.5802398 0 0 0 -6.57996,6.58048 6.5802398,6.5802398 0 0 0 1.98748,4.68912 c -0.35323,0.64353 -0.69559,1.26422 -1.09192,2.00143 -0.04972,0.0324 -0.10198,0.0652 -0.14728,0.0971 -0.1419,0.10016 -0.29073,0.21274 -0.46509,0.34933 -0.34873,0.27317 -0.79442,0.63723 -1.316199,1.07229 -1.04355899,0.8701 -2.38371899,2.01744 -3.724838,3.18533 -1.341118,1.1679 -2.679364,2.3547 -3.722253,3.30316 -0.52144,0.47423 -0.968202,0.88655 -1.312581,1.21853 -0.17219,0.16598 -0.318111,0.3099 -0.445451,0.44338 -0.12734,0.13348 -0.200261,0.16982 -0.410311,0.50591 -0.3151,0.50415 -0.305593,0.61766 -0.470772,1.03508 -0.16518,0.41743 -0.36775,0.95107 -0.59738,1.57045 -0.45927,1.23876 -1.024582,2.81063 -1.5761307,4.35942 -1.103089,3.09759 -2.148706,6.10351 -2.148706,6.10351 a 1.749,1.749 0 0 0 1.07642,2.22622 1.749,1.749 0 0 0 2.2267367,-1.0759 c 0,0 1.044776,-2.99776 2.142505,-6.08025 0.54886,-1.54125 1.111219,-3.10438 1.560628,-4.31654 0.2247,-0.60607 0.421512,-1.12648 0.569991,-1.50171 0.09114,-0.23034 0.174518,-0.40004 0.187586,-0.43925 0.07272,-0.0756 0.174734,-0.17971 0.312642,-0.31265 0.30169,-0.29082 0.731448,-0.68741 1.238168,-1.14825 0.821653,-0.74725 1.862766,-1.66977 2.92953701,-2.605 -2.32694601,4.79534 -4.40193901,9.69661 -4.85706801,13.29634 a 1.7491749,1.7491749 0 0 0 0.08578,0.80254 c 0,0 0.260952,0.74931 0.389123,1.11518 a 1.749,1.749 0 0 0 0.0072,0.14831 c 0.124955,0.49983 0.317007,0.98286 0.557072,1.47588 0.489346,1.41385 1.097811,3.18235 1.732194,5.07514 0.678049,2.02309 1.363207,4.11591 1.88670601,5.826 0.103327,0.33754 0.163476,0.58461 0.252698,0.89917 -0.696248,0.15276 -1.39651301,0.30644 -2.12958601,0.46251 -1.979848,0.42148 -4.003121,0.84287 -5.623429,1.21646 -0.810159,0.18679 -1.517163,0.36206 -2.0918617,0.52555 -0.28735,0.0817 -0.541451,0.15843 -0.779281,0.24598 -0.237819,0.0875 -0.424652,0.12741 -0.804602,0.41238 -0.532269,0.3992 -1.734261,0.64027 -1.734261,0.64027 a 1.7491749,1.7491749 0 0 0 -1.380794,0.99839 l -3.023587,6.49211 a 1.749,1.749 0 0 0 0.84801,2.32388 1.749,1.749 0 0 0 2.323888,-0.84749 l 2.6448,-5.67976 c 0.632499,-0.1553 1.435378,-0.43691 2.2577427,-1.01492 0.0067,-0.006 0.03259,-0.0246 0.07803,-0.0413 0.1047,-0.0385 0.29186,-0.0995 0.5271,-0.1664 0.470489,-0.13385 1.139587,-0.29851 1.920296,-0.47852 1.561428,-0.36001 3.57777,-0.78183 5.566068,-1.2051 0.566029,-0.1205 1.10344801,-0.23943 1.65468001,-0.35915 -0.172823,0.44566 -0.381275,0.94774 -0.64854,1.52911 -0.72905901,1.58587 -1.74742001,3.55142 -2.76778901,5.45703 -1.020369,1.90561 -2.044748,3.75421 -2.806547,5.14852 -0.3809,0.69715 -0.694461,1.27724 -0.919841,1.71669 -0.11269,0.21973 -0.20187,0.39841 -0.28112,0.58033 -0.0396,0.091 -0.07636,0.17282 -0.125057,0.33796 -0.0244,0.0826 -0.05761,0.17638 -0.07441,0.40618 -0.008,0.1149 -0.01899,0.26712 0.03721,0.51935 0.0281,0.12612 0.0753,0.27997 0.170016,0.45527 0.0947,0.17531 0.448198,0.53415 0.449068,0.53485 0.31785,0.25428 0.273897,0.18634 0.353467,0.23047 0.0796,0.0441 0.166331,0.0906 0.269751,0.1447 0.20683,0.1083 0.475489,0.24573 0.789099,0.40411 0.627219,0.31678 1.432673,0.71794 2.232422,1.11363 1.599508,0.79139 3.16983201,1.55856 3.16983201,1.55856 a 1.749,1.749 0 0 0 2.33990599,-0.80099 1.749,1.749 0 0 0 -0.803049,-2.33991 c 0,0 -1.56376099,-0.76539 -3.154329,-1.55236 -0.64136,-0.31732 -1.235017,-0.61472 -1.781287,-0.88883 0.13822,-0.25682 0.227706,-0.42961 0.398425,-0.74208 0.75266,-1.37755 1.784551,-3.23913 2.82050001,-5.17384 1.035949,-1.93471 2.07593899,-3.94033 2.86131999,-5.64875 0.3927,-0.8542 0.72252,-1.63067 0.96274,-2.32389 0.18724,-0.54038 0.36062,-0.96949 0.38809,-1.55908 0.70703,-0.18063 1.308,-0.34852 1.80557,-0.5271 0.25998,-0.0933 0.48591,-0.17734 0.7674,-0.34158 0.14075,-0.0821 0.30142,-0.17478 0.51779,-0.40618 0.21638,-0.2314 0.57669,-0.74163 0.4961,-1.46709 -0.073,-0.65683 -0.19928,-0.69593 -0.29714,-0.88057 -0.0979,-0.18465 -0.20531,-0.36402 -0.33176,-0.56482 -0.25291,-0.40159 -0.57999,-0.88434 -0.96894,-1.44694 -0.7779,-1.12521 -1.79647,-2.55326 -2.82825,-4.03748 -1.03178,-1.48422 -2.07598199,-3.0263 -2.88871199,-4.33979 -0.509848,-0.82398 -0.906823,-1.58088 -1.159619,-2.10529 -0.25544401,-0.7323 -0.53987201,-1.5465 -0.59582901,-1.70533 0.326031,-2.14266 1.64945001,-5.67009 3.31711,-9.41493 -0.09808,0.99236 -0.179592,1.9492 -0.233577,2.81947 -0.0539,0.86953 -0.08135,1.65075 -0.06615,2.3244 0.0152,0.67365 -0.0219,1.14945 0.306441,1.91565 0.697342,1.62717 4.238502,11.03912 4.238502,11.03912 a 1.749,1.749 0 0 0 2.25206,1.02371 1.749,1.749 0 0 0 1.02319,-2.24999 c 0,0 -3.39573,-9.08402 -4.29896,-11.19157 0.1283,0.29936 -0.01176,-0.10499 -0.02326,-0.61547 -0.0115,-0.51047 0.01027,-1.21855 0.06047,-2.02881 0.10053,-1.62052 0.31199,-3.66425 0.5488,-5.65237 0.39844,-3.34497 0.79856,-6.05117 0.93741,-6.97994 0.53745,-1.00795 1.01256,-1.88356 1.48001,-2.73523 a 6.5802398,6.5802398 0 0 0 1.53169,0.19689 6.5802398,6.5802398 0 0 0 6.5804803,-6.57996 6.5802398,6.5802398 0 0 0 -6.5804803,-6.58048 z" /><path
           id="path68"
           style="fill:#e41202;fill-opacity:0.352778;stroke:none;stroke-width:1.098;stroke-linecap:round;stroke-linejoin:round;paint-order:markers stroke fill"
           d="m 62.846089,155.62104 a 6.5802398,6.5802398 0 0 0 -7.220427,5.87002 6.5802398,6.5802398 0 0 0 1.670947,5.08431 c -0.696561,1.00449 -1.397599,2.0319 -2.459704,3.63945 -0.964219,0.33678 -2.140411,0.73812 -3.367531,1.12385 -1.372506,0.43143 -2.76985,0.82901 -3.795354,1.04594 -0.48243,0.10206 -0.874124,0.15656 -1.091412,0.17055 -0.189976,-0.0946 -0.412272,-0.16785 -0.668498,-0.18741 -0.620235,-0.0473 -1.140447,0.25714 -1.390892,0.48511 -0.500892,0.45597 -0.527274,0.71989 -0.622602,0.97427 -0.190662,0.50876 -0.292847,1.01187 -0.407609,1.64479 -0.229505,1.26585 -0.432832,2.94019 -0.61307,4.64868 -0.360536,3.417 -0.611008,6.93525 -0.611008,6.93525 a 1.749,1.749 0 0 0 1.619183,1.86946 1.749,1.749 0 0 0 1.388234,-0.53995 1.7491749,1.7491749 0 0 0 0.0058,0.48738 c -1.123243,1.20377 -3.129067,3.34583 -5.773703,6.09772 -1.796048,1.8689 -3.669438,3.78646 -5.234209,5.32475 -1.56478,1.5383 -2.991729,2.78359 -3.226702,2.93641 -1.357713,0.88297 -4.948392,3.42202 -8.296,6.15389 -1.67381,1.36592 -3.269981,2.7652 -4.497458,4.05991 -0.613739,0.64736 -1.136644,1.26348 -1.54654,1.89822 -0.409889,0.63474 -0.805761,1.27933 -0.736188,2.30183 0.155863,2.29072 1.654383,3.96658 2.940898,5.46938 1.286524,1.50276 2.538622,2.6459 2.538622,2.6459 a 1.749,1.749 0 0 0 2.47176,-0.11025 1.749,1.749 0 0 0 -0.110234,-2.47176 c 0,0 -1.115698,-1.0222 -2.242532,-2.33846 -1.02445,-1.19665 -1.902489,-2.7769 -2.071435,-3.29695 0.02124,-0.0626 0.05771,-0.16387 0.147032,-0.30225 0.220548,-0.34153 0.624435,-0.83811 1.147005,-1.38929 1.045138,-1.10238 2.562654,-2.44338 4.171017,-3.75592 3.21675,-2.62505 6.856873,-5.19509 7.990542,-5.93238 1.010729,-0.65733 2.166491,-1.79559 3.772715,-3.37465 1.606232,-1.57904 3.495134,-3.51191 5.304255,-5.39441 2.630154,-2.73684 4.621567,-4.86355 5.770249,-6.09442 0.994218,0.71557 2.289433,1.63542 3.748331,2.63301 3.111751,2.12779 6.774769,4.51476 9.498794,5.69441 0.152289,0.0659 0.06503,-0.0389 0.112237,0.15081 0.0472,0.18959 0.05755,0.69548 -0.102594,1.37752 -0.320441,1.36406 -1.238553,3.33895 -2.334331,5.24935 -2.191558,3.82074 -5.023295,7.46507 -5.023295,7.46507 a 1.7491749,1.7491749 0 0 0 0.653912,2.66549 l 6.57425,3.00247 a 1.749,1.749 0 0 0 2.317848,-0.86432 1.749,1.749 0 0 0 -0.86438,-2.31733 l -4.616552,-2.10802 c 1.066511,-1.45929 2.506159,-3.51123 3.992893,-6.10322 1.179535,-2.05642 2.232459,-4.18131 2.703955,-6.18839 0.235752,-1.00356 0.347506,-1.99974 0.09224,-3.02442 -0.25527,-1.02467 -1.049114,-2.05345 -2.116197,-2.51556 -2.153541,-0.93259 -5.867338,-3.28743 -8.913977,-5.37071 -2.436848,-1.66629 -3.668867,-2.58998 -4.392313,-3.12337 1.021789,-3.10768 3.739253,-8.12227 6.514242,-12.52087 -0.06697,2.89934 -0.160509,6.9217 -0.196538,8.93551 -0.01857,1.0386 0.547471,1.84455 1.117274,2.37874 0.569801,0.5342 1.224317,0.91786 1.949783,1.2734 1.450942,0.71108 3.209709,1.27018 4.95888,1.74072 3.498341,0.94105 6.952241,1.48865 6.952241,1.48865 a 1.749,1.749 0 0 0 2.001346,-1.45233 1.749,1.749 0 0 0 -1.452636,-2.00345 c 0,0 -3.323826,-0.53148 -6.590951,-1.41035 -1.633573,-0.43943 -3.253651,-0.97593 -4.329825,-1.50334 -0.538082,-0.2637 -0.93559,-0.53481 -1.097058,-0.68618 -0.0046,-0.004 -0.0035,-0.004 -0.0073,-0.007 0.05759,-3.12131 0.288147,-12.99115 0.288147,-12.99115 a 1.7491749,1.7491749 0 0 0 -0.244248,-0.87043 c 0.579879,-0.85699 0.851885,-1.25858 1.261873,-1.84811 a 6.5802398,6.5802398 0 0 0 1.238596,0.26596 6.5802398,6.5802398 0 0 0 7.221,-5.87049 6.5802398,6.5802398 0 0 0 -5.870545,-7.22048 z m -15.967987,17.12149 c 0.02563,0.0175 0.04927,0.0331 0.0764,0.0546 -0.0226,-0.0186 -0.05187,-0.0362 -0.0764,-0.0546 z m 4.968217,2.13857 c -2.401514,3.86356 -4.79053,8.01924 -6.013537,11.45922 0.08082,-1.06805 0.252489,-3.26129 0.525676,-5.851 0.176102,-1.66814 0.380698,-3.30934 0.577399,-4.39365 0.0073,-0.0419 0.0101,-0.0398 0.01833,-0.0802 0.462604,-0.0383 0.926017,-0.0986 1.44495,-0.20836 1.041114,-0.22023 2.240332,-0.55709 3.447379,-0.92599 z" /><path
           id="path70"
           style="fill:#e41202;fill-opacity:0.425;stroke:none;stroke-width:1.098;stroke-linecap:round;stroke-linejoin:round;paint-order:markers stroke fill"
           d="m 108.13532,159.54662 a 6.5802398,6.5802398 0 0 0 -6.58048,6.57996 6.5802398,6.5802398 0 0 0 1.37098,3.99355 c -0.59232,1.00286 -1.26062,2.16875 -1.96474,3.45199 -0.93792,0.0794 -2.135711,0.17444 -3.356381,0.25269 -1.28252,0.0822 -2.57445,0.14288 -3.51555,0.14676 -0.47055,0.002 -0.86172,-0.0125 -1.05833,-0.0331 -0.0767,-0.008 -0.0788,-0.011 -0.0625,-0.006 -0.27759,-0.12453 -0.556724,-0.19692 -0.734324,-0.1974 -0.38353,-0.001 -0.56613,0.0759 -0.72296,0.13281 -0.31366,0.11378 -0.50018,0.22767 -0.71675,0.35967 -0.43313,0.26399 -0.91001,0.60767 -1.47071,1.03146 -1.1214,0.84757 -2.53331,1.99918 -3.93361,3.16983 -2.8006,2.3413 -5.54488,4.75165 -5.54488,4.75165 a 1.749,1.749 0 0 0 -0.1602,2.4691 1.749,1.749 0 0 0 2.46858,0.16019 c 0,0 2.72379,-2.39044 5.48081,-4.69531 1.37851,-1.15244 2.76933,-2.2869 3.79873,-3.06493 0.42041,-0.31775 0.71732,-0.51916 0.9648,-0.68162 0.0859,0.0128 0.184114,0.0401 0.269754,0.0491 0.4307,0.0451 0.89741,0.0549 1.43557,0.0527 1.07632,-0.004 2.40793,-0.07 3.72639,-0.15451 0.51735,-0.0332 0.82604,-0.0592 1.20664,-0.0879 -2.38529,4.73621 -4.7418,10.2841 -5.53661,15.26211 a 1.749,1.749 0 0 0 0,0.10129 c -0.4325,0.89683 -2.186534,4.51799 -4.336174,8.51576 -1.21525,2.26004 -2.48677,4.48884 -3.50573,6.01927 -0.30958,0.46497 -0.50905,0.68671 -0.74982,0.99219 -0.28571,-0.3511 -0.58546,-0.72277 -0.95137,-1.21853 -0.93931,-1.27266 -2.07307,-2.91543 -3.18378,-4.53151 -1.1107,-1.61607 -2.19643,-3.20394 -3.08198,-4.41007 -0.44277,-0.60307 -0.8284,-1.10455 -1.18546,-1.50947 -0.17854,-0.20246 -0.34071,-0.37877 -0.57206,-0.56844 -0.11567,-0.0948 -0.2452,-0.19642 -0.4749,-0.3085 -0.2297,-0.11208 -0.61223,-0.29614 -1.24024,-0.15658 -0.61855,0.13745 -1.000364,0.31466 -1.769404,0.60358 -0.76905,0.28893 -1.70503,0.65232 -2.61534,1.00975 -1.82064,0.71485 -3.53726,1.40612 -3.53726,1.40612 a 1.749,1.749 0 0 0 -0.96841,2.27583 1.749,1.749 0 0 0 2.27531,0.96842 c 0,0 1.70693,-0.68633 3.50986,-1.39423 0.90147,-0.35395 1.82642,-0.71269 2.566264,-0.99064 0.27637,-0.10383 0.25157,-0.0945 0.4842,-0.17363 0.20859,0.25687 0.41164,0.50557 0.70745,0.90847 0.8262,1.12529 1.90712,2.70169 3.01946,4.32015 1.11234,1.61847 2.25724,3.2809 3.252,4.62866 0.49736,0.67387 0.95638,1.26824 1.37459,1.75803 0.4182,0.4898 0.67734,0.85335 1.34204,1.23817 0.77553,0.44898 1.6526,0.22667 2.08979,-0.004 0.43719,-0.23072 0.70887,-0.48928 0.98444,-0.77308 0.55114,-0.5676 1.06651,-1.27698 1.63659,-2.1332 1.14016,-1.71245 2.43297,-3.99206 3.67419,-6.30039 1.686034,-3.13558 2.377014,-4.61971 3.218414,-6.33812 0.76947,1.36988 1.2212,2.11825 2.51561,4.60541 2.102681,4.04021 4.321711,8.89462 4.693251,10.75231 0.64898,3.24491 3.32348,7.07054 5.82239,10.51927 2.49891,3.44871 4.86947,6.26783 4.86947,6.26783 a 1.7491749,1.7491749 0 0 0 2.44533,0.22841 l 5.86889,-4.80074 a 1.749,1.749 0 0 0 0.24598,-2.46083 1.749,1.749 0 0 0 -2.46083,-0.2465 l -4.48035,3.66593 c -0.71548,-0.86996 -1.7827,-2.12336 -3.65456,-4.70669 -2.41402,-3.33159 -4.89739,-7.50662 -5.22655,-9.15242 -0.60661,-3.03303 -2.87805,-7.56153 -5.0214,-11.67991 -1.978271,-3.80117 -3.687181,-6.78478 -3.963581,-7.26622 0.7739,-3.85879 2.6454,-8.42345 4.637961,-12.50311 0.0881,0.59209 0.17,1.15405 0.30592,1.98437 0.25865,1.58 0.54401,3.17618 0.83406,4.45503 0.14502,0.63942 0.28838,1.19434 0.4532,1.67793 0.0824,0.2418 0.16516,0.46356 0.29714,0.71262 0.13198,0.24906 0.20916,0.59705 0.93741,0.96118 0.68914,0.34458 0.96686,0.2245 1.23404,0.19896 0.26718,-0.0255 0.49636,-0.0747 0.74414,-0.13436 0.49556,-0.11936 1.05089,-0.29379 1.68,-0.51005 1.25823,-0.43252 2.79177,-1.03219 4.29689,-1.64434 3.01024,-1.22432 5.89422,-2.49804 5.89422,-2.49804 a 1.749,1.749 0 0 0 0.89296,-2.30684 1.749,1.749 0 0 0 -2.30683,-0.89245 c 0,0 -2.85109,1.25841 -5.79861,2.45721 -1.47377,0.59941 -2.97285,1.18334 -4.11551,1.57614 -0.27117,0.0932 -0.42391,0.12825 -0.64648,0.19688 -0.0527,-0.20221 -0.0945,-0.32148 -0.15038,-0.56792 -0.26016,-1.14705 -0.54213,-2.70287 -0.79478,-4.24625 -0.50532,-3.08677 -0.90227,-6.13503 -0.90227,-6.13503 a 1.7491749,1.7491749 0 0 0 -0.14986,-0.4501 c 0.45081,-0.80745 0.88266,-1.56406 1.28106,-2.24379 a 6.5802398,6.5802398 0 0 0 2.3952,0.4687 6.5802398,6.5802398 0 0 0 6.57996,-6.58047 6.5802398,6.5802398 0 0 0 -6.57996,-6.57996 z" /><path
           style="fill:#e41202;fill-opacity:0.47;stroke:#f6412c;stroke-width:1.36055;stroke-linecap:round;stroke-linejoin:round;stroke-dasharray:none;stroke-opacity:1;paint-order:markers stroke fill"
           d="m -77.68931,229.62164 h 365.9355"
           id="path72" /><path
           id="path73"
           style="fill:#e41202;fill-opacity:0.461111;stroke:none;stroke-width:1.098;stroke-linecap:round;stroke-linejoin:round;paint-order:markers stroke fill"
           d="m 161.03509,155.26144 a 6.5802398,6.5802398 0 0 0 -6.57996,6.58048 6.5802398,6.5802398 0 0 0 1.98748,4.68912 c -0.35323,0.64353 -0.69559,1.26422 -1.09192,2.00143 -0.0497,0.0324 -0.10198,0.0652 -0.14728,0.0971 -0.1419,0.10016 -0.29073,0.21274 -0.46509,0.34933 -0.34873,0.27317 -0.79442,0.63723 -1.3162,1.07229 -1.04356,0.8701 -2.38372,2.01744 -3.72484,3.18533 -1.34111,1.1679 -2.67936,2.3547 -3.72225,3.30316 -0.52144,0.47423 -0.9682,0.88655 -1.31258,1.21853 -0.17219,0.16598 -0.31811,0.3099 -0.44545,0.44338 -0.12734,0.13348 -0.20026,0.16982 -0.41031,0.50591 -0.3151,0.50415 -0.3056,0.61766 -0.47077,1.03508 -0.16518,0.41743 -0.36775,0.95107 -0.59738,1.57045 -0.45927,1.23876 -1.02459,2.81063 -1.57614,4.35942 -1.10308,3.09759 -2.1487,6.10351 -2.1487,6.10351 a 1.749,1.749 0 0 0 1.07642,2.22622 1.749,1.749 0 0 0 2.22674,-1.0759 c 0,0 1.04477,-2.99776 2.1425,-6.08025 0.54886,-1.54125 1.11122,-3.10438 1.56063,-4.31654 0.2247,-0.60607 0.42151,-1.12648 0.56999,-1.50171 0.0911,-0.23034 0.17452,-0.40004 0.18759,-0.43925 0.0727,-0.0756 0.17473,-0.17971 0.31264,-0.31265 0.30169,-0.29082 0.73145,-0.68741 1.23817,-1.14825 0.82165,-0.74725 1.86276,-1.66977 2.92953,-2.605 -2.32694,4.79534 -4.40194,9.69661 -4.85707,13.29634 a 1.7491749,1.7491749 0 0 0 0.0858,0.80254 c 0,0 0.26096,0.74931 0.38913,1.11518 a 1.749,1.749 0 0 0 0.007,0.14831 c 0.12495,0.49983 0.317,0.98286 0.55707,1.47588 0.48935,1.41385 1.09781,3.18235 1.73219,5.07514 0.67805,2.02309 1.36321,4.11591 1.88671,5.826 0.10333,0.33754 0.16348,0.58461 0.2527,0.89917 -0.69625,0.15276 -1.39652,0.30644 -2.12959,0.46251 -1.97985,0.42148 -4.00312,0.84287 -5.62343,1.21646 -0.81016,0.18679 -1.51716,0.36206 -2.09186,0.52555 -0.28735,0.0817 -0.54145,0.15843 -0.77928,0.24598 -0.23782,0.0875 -0.42465,0.12741 -0.8046,0.41238 -0.53227,0.3992 -1.73426,0.64027 -1.73426,0.64027 a 1.7491749,1.7491749 0 0 0 -1.3808,0.99839 l -3.02359,6.49211 a 1.749,1.749 0 0 0 0.84801,2.32388 1.749,1.749 0 0 0 2.32389,-0.84749 l 2.6448,-5.67976 c 0.6325,-0.1553 1.43538,-0.43691 2.25775,-1.01492 0.007,-0.006 0.0326,-0.0246 0.078,-0.0413 0.1047,-0.0385 0.29186,-0.0995 0.5271,-0.1664 0.47049,-0.13385 1.13958,-0.29851 1.92029,-0.47852 1.56143,-0.36001 3.57777,-0.78183 5.56607,-1.2051 0.56603,-0.1205 1.10345,-0.23943 1.65468,-0.35915 -0.17282,0.44566 -0.38127,0.94774 -0.64854,1.52911 -0.72906,1.58587 -1.74742,3.55142 -2.76779,5.45703 -1.02037,1.90561 -2.04475,3.75421 -2.80655,5.14852 -0.3809,0.69715 -0.69446,1.27724 -0.91984,1.71669 -0.11269,0.21973 -0.20187,0.39841 -0.28112,0.58033 -0.0396,0.091 -0.0764,0.17282 -0.12505,0.33796 -0.0244,0.0826 -0.0576,0.17638 -0.0744,0.40618 -0.008,0.1149 -0.019,0.26712 0.0372,0.51935 0.0281,0.12612 0.0753,0.27997 0.17001,0.45527 0.0947,0.17531 0.4482,0.53415 0.44907,0.53485 0.31785,0.25428 0.2739,0.18634 0.35347,0.23047 0.0796,0.0441 0.16633,0.0906 0.26975,0.1447 0.20683,0.1083 0.47549,0.24573 0.7891,0.40411 0.62722,0.31678 1.43267,0.71794 2.23242,1.11363 1.59951,0.79139 3.16983,1.55856 3.16983,1.55856 a 1.749,1.749 0 0 0 2.33991,-0.80099 1.749,1.749 0 0 0 -0.80305,-2.33991 c 0,0 -1.56376,-0.76539 -3.15433,-1.55236 -0.64136,-0.31732 -1.23502,-0.61472 -1.78129,-0.88883 0.13822,-0.25682 0.22771,-0.42961 0.39843,-0.74208 0.75266,-1.37755 1.78455,-3.23913 2.8205,-5.17384 1.03595,-1.93471 2.07594,-3.94033 2.86132,-5.64875 0.3927,-0.8542 0.72252,-1.63067 0.96274,-2.32389 0.18724,-0.54038 0.36062,-0.96949 0.38809,-1.55908 0.70703,-0.18063 1.308,-0.34852 1.80557,-0.5271 0.25998,-0.0933 0.48591,-0.17734 0.7674,-0.34158 0.14075,-0.0821 0.30142,-0.17478 0.51779,-0.40618 0.21638,-0.2314 0.57669,-0.74163 0.4961,-1.46709 -0.073,-0.65683 -0.19928,-0.69593 -0.29714,-0.88057 -0.0979,-0.18465 -0.20531,-0.36402 -0.33176,-0.56482 -0.25291,-0.40159 -0.57999,-0.88434 -0.96894,-1.44694 -0.7779,-1.12521 -1.79647,-2.55326 -2.82825,-4.03748 -1.03178,-1.48422 -2.07598,-3.0263 -2.88871,-4.33979 -0.50985,-0.82398 -0.90683,-1.58088 -1.15962,-2.10529 -0.25545,-0.7323 -0.53988,-1.5465 -0.59583,-1.70533 0.32603,-2.14266 1.64945,-5.67009 3.31711,-9.41493 -0.0981,0.99236 -0.17959,1.9492 -0.23358,2.81947 -0.0539,0.86953 -0.0814,1.65075 -0.0662,2.3244 0.0152,0.67365 -0.0219,1.14945 0.30644,1.91565 0.69734,1.62717 4.2385,11.03912 4.2385,11.03912 a 1.749,1.749 0 0 0 2.25206,1.02371 1.749,1.749 0 0 0 1.02319,-2.24999 c 0,0 -3.39573,-9.08402 -4.29896,-11.19157 0.1283,0.29936 -0.0118,-0.10499 -0.0233,-0.61547 -0.0115,-0.51047 0.0103,-1.21855 0.0605,-2.02881 0.10053,-1.62052 0.31199,-3.66425 0.5488,-5.65237 0.39844,-3.34497 0.79856,-6.05117 0.93741,-6.97994 0.53745,-1.00795 1.01256,-1.88356 1.48001,-2.73523 a 6.5802398,6.5802398 0 0 0 1.53169,0.19689 6.5802398,6.5802398 0 0 0 6.58048,-6.57996 6.5802398,6.5802398 0 0 0 -6.58048,-6.58048 z" /><path
           id="path75"
           style="fill:#e41202;fill-opacity:0.5;stroke:none;stroke-width:1.098;stroke-linecap:round;stroke-linejoin:round;paint-order:markers stroke fill"
           d="m 217.28667,155.62104 a 6.5802398,6.5802398 0 0 0 -7.22043,5.87002 6.5802398,6.5802398 0 0 0 1.67095,5.08431 c -0.69656,1.00449 -1.3976,2.0319 -2.45971,3.63945 -0.96422,0.33678 -2.14041,0.73812 -3.36753,1.12385 -1.3725,0.43143 -2.76985,0.82901 -3.79535,1.04594 -0.48243,0.10206 -0.87413,0.15656 -1.09141,0.17055 -0.18998,-0.0946 -0.41228,-0.16785 -0.6685,-0.18741 -0.62024,-0.0473 -1.14045,0.25714 -1.39089,0.48511 -0.5009,0.45597 -0.52728,0.71989 -0.62261,0.97427 -0.19066,0.50876 -0.29284,1.01187 -0.4076,1.64479 -0.22951,1.26585 -0.43284,2.94019 -0.61307,4.64868 -0.36054,3.417 -0.61101,6.93525 -0.61101,6.93525 a 1.749,1.749 0 0 0 1.61918,1.86946 1.749,1.749 0 0 0 1.38823,-0.53995 1.7491749,1.7491749 0 0 0 0.006,0.48738 c -1.12324,1.20377 -3.12906,3.34583 -5.7737,6.09772 -1.79605,1.8689 -3.66944,3.78646 -5.23421,5.32475 -1.56478,1.5383 -2.99173,2.78359 -3.2267,2.93641 -1.35771,0.88297 -4.94839,3.42202 -8.296,6.15389 -1.67381,1.36592 -3.26998,2.7652 -4.49746,4.05991 -0.61374,0.64736 -1.13664,1.26348 -1.54654,1.89822 -0.40989,0.63474 -0.80576,1.27933 -0.73619,2.30183 0.15587,2.29072 1.65439,3.96658 2.9409,5.46938 1.28653,1.50276 2.53862,2.6459 2.53862,2.6459 a 1.749,1.749 0 0 0 2.47176,-0.11025 1.749,1.749 0 0 0 -0.11023,-2.47176 c 0,0 -1.1157,-1.0222 -2.24253,-2.33846 -1.02445,-1.19665 -1.90249,-2.7769 -2.07144,-3.29695 0.0212,-0.0626 0.0577,-0.16387 0.14704,-0.30225 0.22054,-0.34153 0.62443,-0.83811 1.147,-1.38929 1.04514,-1.10238 2.56265,-2.44338 4.17102,-3.75592 3.21675,-2.62505 6.85687,-5.19509 7.99054,-5.93238 1.01073,-0.65733 2.16649,-1.79559 3.77271,-3.37465 1.60624,-1.57904 3.49514,-3.51191 5.30426,-5.39441 2.63015,-2.73684 4.62157,-4.86355 5.77025,-6.09442 0.99422,0.71557 2.28943,1.63542 3.74833,2.63301 3.11175,2.12779 6.77477,4.51476 9.49879,5.69441 0.15229,0.0659 0.065,-0.0389 0.11224,0.15081 0.0472,0.18959 0.0575,0.69548 -0.10259,1.37752 -0.32044,1.36406 -1.23856,3.33895 -2.33433,5.24935 -2.19156,3.82074 -5.0233,7.46507 -5.0233,7.46507 a 1.7491749,1.7491749 0 0 0 0.65391,2.66549 l 6.57425,3.00247 a 1.749,1.749 0 0 0 2.31785,-0.86432 1.749,1.749 0 0 0 -0.86438,-2.31733 l -4.61655,-2.10802 c 1.06651,-1.45929 2.50616,-3.51123 3.99289,-6.10322 1.17954,-2.05642 2.23246,-4.18131 2.70396,-6.18839 0.23575,-1.00356 0.3475,-1.99974 0.0922,-3.02442 -0.25527,-1.02467 -1.04912,-2.05345 -2.1162,-2.51556 -2.15354,-0.93259 -5.86734,-3.28743 -8.91398,-5.37071 -2.43685,-1.66629 -3.66886,-2.58998 -4.39231,-3.12337 1.02179,-3.10768 3.73925,-8.12227 6.51424,-12.52087 -0.067,2.89934 -0.16051,6.9217 -0.19654,8.93551 -0.0186,1.0386 0.54747,1.84455 1.11728,2.37874 0.5698,0.5342 1.22431,0.91786 1.94978,1.2734 1.45094,0.71108 3.20971,1.27018 4.95888,1.74072 3.49834,0.94105 6.95224,1.48865 6.95224,1.48865 a 1.749,1.749 0 0 0 2.00135,-1.45233 1.749,1.749 0 0 0 -1.45264,-2.00345 c 0,0 -3.32382,-0.53148 -6.59095,-1.41035 -1.63357,-0.43943 -3.25365,-0.97593 -4.32982,-1.50334 -0.53809,-0.2637 -0.93559,-0.53481 -1.09706,-0.68618 -0.005,-0.004 -0.004,-0.004 -0.007,-0.007 0.0576,-3.12131 0.28814,-12.99115 0.28814,-12.99115 a 1.7491749,1.7491749 0 0 0 -0.24424,-0.87043 c 0.57988,-0.85699 0.85188,-1.25858 1.26187,-1.84811 a 6.5802398,6.5802398 0 0 0 1.2386,0.26596 6.5802398,6.5802398 0 0 0 7.221,-5.87049 6.5802398,6.5802398 0 0 0 -5.87055,-7.22048 z m -15.96799,17.12149 c 0.0256,0.0175 0.0493,0.0331 0.0764,0.0546 -0.0226,-0.0186 -0.0519,-0.0362 -0.0764,-0.0546 z m 4.96822,2.13857 c -2.40152,3.86356 -4.79053,8.01924 -6.01354,11.45922 0.0808,-1.06805 0.25249,-3.26129 0.52568,-5.851 0.1761,-1.66814 0.38069,-3.30934 0.5774,-4.39365 0.007,-0.0419 0.0101,-0.0398 0.0183,-0.0802 0.4626,-0.0383 0.92601,-0.0986 1.44495,-0.20836 1.04111,-0.22023 2.24033,-0.55709 3.44737,-0.92599 z" /><path
           id="path78"
           style="fill:#e41202;fill-opacity:0.7;stroke:none;stroke-width:1.098;stroke-linecap:round;stroke-linejoin:round;paint-order:markers stroke fill"
           d="m 262.98707,161.14519 a 6.5802398,6.5802398 0 0 0 -6.57996,6.57996 6.5802398,6.5802398 0 0 0 2.08049,4.78266 c -0.41764,0.64362 -0.89774,1.41167 -1.41335,2.25826 l -10.24123,-0.6935 a 1.7491749,1.7491749 0 0 0 -1.11363,0.30644 c 0,0 -1.86465,1.28813 -4.09536,3.15278 -2.23071,1.86465 -4.85272,4.27885 -6.51588,6.84919 a 1.749,1.749 0 0 0 0.51935,2.42001 1.749,1.749 0 0 0 2.41794,-0.51935 c 1.27126,-1.96467 3.71815,-4.30737 5.82238,-6.06629 1.8547,-1.55034 3.04077,-2.36449 3.38688,-2.6076 l 7.845,0.52917 c -2.02137,3.59346 -4.43453,8.29877 -6.96599,14.14849 a 1.7491749,1.7491749 0 0 0 -0.0801,0.22272 c 0,0 -1.29921,4.64167 -2.97449,9.08007 -0.83764,2.2192 -1.78225,4.39154 -2.62155,5.80275 -0.3573,0.60078 -0.65912,0.95349 -0.88263,1.18752 -0.38212,-0.24015 -1.23178,-0.82922 -2.3027,-1.90014 -1.23364,-1.23364 -2.63335,-2.81087 -3.93723,-4.35581 -2.60776,-3.08986 -4.8302,-6.0389 -4.8302,-6.0389 a 1.7491749,1.7491749 0 0 0 -2.63291,-0.18346 l -4.80281,4.80074 a 1.749,1.749 0 0 0 0,2.47427 1.749,1.749 0 0 0 2.47479,0 l 3.41994,-3.42149 c 0.76825,1.00135 1.69419,2.24959 3.699,4.62504 1.34155,1.58956 2.78604,3.22322 4.1367,4.57388 1.35066,1.35066 2.43642,2.42179 3.85765,2.97449 1.16693,0.45381 2.37385,-0.10113 3.06803,-0.709 0.69417,-0.60787 1.21602,-1.36185 1.73839,-2.24017 1.04473,-1.75663 2.01254,-4.03935 2.88665,-6.35517 0.48632,-1.28844 0.91993,-2.53827 1.31464,-3.71915 0.60487,1.17697 1.28799,2.45924 2.07636,3.84421 2.08763,3.66745 4.58137,7.64242 6.74378,10.05055 1.81833,2.02497 4.59575,5.87959 7.01766,9.17205 1.21095,1.64623 2.33796,3.15703 3.27732,4.29276 0.46967,0.56786 0.88326,1.03813 1.29708,1.42575 0.2069,0.19381 0.40821,0.36854 0.68729,0.54105 0.27908,0.17252 0.6607,0.46052 1.47071,0.3359 1.02343,-0.15745 1.42688,-0.5865 1.95337,-1.00769 0.52649,-0.42119 1.03615,-0.90931 1.50379,-1.38286 0.93527,-0.94711 1.70118,-1.85519 1.70118,-1.85519 a 1.749,1.749 0 0 0 -0.20515,-2.46496 1.749,1.749 0 0 0 -2.46497,0.20515 c 0,0 -0.70041,0.82644 -1.52135,1.65778 -0.37571,0.38047 -0.76487,0.73851 -1.09761,1.0139 -0.19589,-0.21004 -0.36238,-0.37695 -0.6289,-0.69919 -0.84186,-1.01786 -1.95534,-2.50186 -3.1564,-4.13463 -2.4021,-3.26553 -5.13788,-7.10338 -7.23211,-9.4356 -1.75017,-1.94905 -4.28003,-5.88795 -6.30505,-9.44542 -1.0125,-1.77872 -1.91483,-3.47563 -2.56831,-4.8028 -0.32674,-0.66359 -0.59062,-1.23603 -0.77153,-1.66398 -0.11481,-0.27159 -0.18919,-0.50606 -0.2248,-0.6103 0.0564,-0.19695 0.13953,-0.48524 0.14677,-0.51108 2.06348,-4.76416 4.0257,-8.71998 5.7459,-11.90987 0.0279,0.37502 0.0407,0.63036 0.0786,1.08004 0.12974,1.53994 0.28713,3.09021 0.48834,4.33772 0.1006,0.62375 0.20566,1.16527 0.35708,1.66036 0.0757,0.24755 0.15593,0.48206 0.31626,0.7674 0.16033,0.28533 0.38778,0.77877 1.2423,1.01182 0.76637,0.20901 0.91736,0.0473 1.17203,-0.01 0.25466,-0.0571 0.49517,-0.13157 0.76584,-0.22272 0.54134,-0.18231 1.18631,-0.4357 1.92546,-0.74208 1.47832,-0.61275 3.31511,-1.43857 5.12114,-2.27169 3.61205,-1.66624 7.09207,-3.36104 7.09207,-3.36104 a 1.749,1.749 0 0 0 0.80615,-2.33786 1.749,1.749 0 0 0 -2.33784,-0.80667 c 0,0 -3.45701,1.68393 -7.02541,3.33003 -1.7842,0.82305 -3.59832,1.63756 -4.99608,2.21692 -0.39025,0.16176 -0.6393,0.24784 -0.95084,0.3669 -0.0118,-0.0678 -0.0215,-0.0866 -0.0331,-0.15813 -0.17393,-1.07835 -0.3335,-2.57964 -0.45941,-4.07417 -0.25182,-2.98904 -0.38447,-5.96656 -0.38447,-5.96656 a 1.7491749,1.7491749 0 0 0 -0.0568,-0.24546 c 0.50959,-0.82908 0.9643,-1.54944 1.36271,-2.15491 a 6.5802398,6.5802398 0 0 0 1.3932,0.1664 6.5802398,6.5802398 0 0 0 6.58048,-6.58048 6.5802398,6.5802398 0 0 0 -6.58048,-6.57996 z" /><text
           xml:space="preserve"
           style="font-weight:600;font-size:8.33591px;line-height:1.1;font-family:'Segoe UI';-inkscape-font-specification:'Segoe UI Semi-Bold';text-align:center;letter-spacing:0px;text-orientation:upright;text-anchor:middle;opacity:1;fill:#000000;fill-opacity:1;stroke:#da004c;stroke-width:1.96911;stroke-linecap:round;stroke-linejoin:round;stroke-dasharray:none;stroke-opacity:1;paint-order:markers stroke fill"
           x="-76.699226"
           y="155.17783"
           id="text79"><tspan
             sodipodi:role="line"
             id="tspan79"
             style="font-style:normal;font-variant:normal;font-weight:normal;font-stretch:normal;font-family:'Sarasa UI SC';-inkscape-font-specification:'Sarasa UI SC';text-align:start;text-anchor:start;fill:#000000;fill-opacity:1;stroke:none;stroke-width:1.96911"
             x="-76.699226"
             y="155.17783">60 Hz</tspan></text></g></g></g></svg>
