<?xml version="1.0" encoding="UTF-8" standalone="no"?>
<!-- Created with Inkscape (http://www.inkscape.org/) -->

<svg
   width="47.345348mm"
   height="15.754643mm"
   viewBox="0 0 47.345348 15.754643"
   version="1.1"
   id="svg1"
   xml:space="preserve"
   inkscape:version="1.4 (86a8ad7, 2024-10-11)"
   sodipodi:docname="Link.svg"
   inkscape:export-filename="Link.png"
   inkscape:export-xdpi="266"
   inkscape:export-ydpi="266"
   xmlns:inkscape="http://www.inkscape.org/namespaces/inkscape"
   xmlns:sodipodi="http://sodipodi.sourceforge.net/DTD/sodipodi-0.dtd"
   xmlns="http://www.w3.org/2000/svg"
   xmlns:svg="http://www.w3.org/2000/svg"><sodipodi:namedview
     id="namedview1"
     pagecolor="#d2d2d2"
     bordercolor="#eeeeee"
     borderopacity="1"
     inkscape:showpageshadow="false"
     inkscape:pageopacity="0"
     inkscape:pagecheckerboard="true"
     inkscape:deskcolor="#4f4f4f"
     inkscape:document-units="mm"
     showguides="true"
     inkscape:zoom="4.0668163"
     inkscape:cx="68.112248"
     inkscape:cy="7.9915092"
     inkscape:window-width="1920"
     inkscape:window-height="1009"
     inkscape:window-x="-8"
     inkscape:window-y="-8"
     inkscape:window-maximized="1"
     inkscape:current-layer="layer1"
     labelstyle="default" /><defs
     id="defs1"><marker
       style="overflow:visible"
       id="DartArrow"
       refX="0"
       refY="0"
       orient="auto-start-reverse"
       inkscape:stockid="Dart arrow"
       markerWidth="1"
       markerHeight="1"
       viewBox="0 0 1 1"
       inkscape:isstock="true"
       inkscape:collect="always"
       preserveAspectRatio="xMidYMid"><path
         style="fill:context-stroke;fill-rule:evenodd;stroke:none"
         d="M 0,0 5,-5 -12.5,0 5,5 Z"
         transform="scale(-0.5)"
         id="path10" /></marker><marker
       style="overflow:visible"
       id="ArrowWideRounded"
       refX="0"
       refY="0"
       orient="auto-start-reverse"
       inkscape:stockid="Wide, rounded arrow"
       markerWidth="1"
       markerHeight="1"
       viewBox="0 0 1 1"
       inkscape:isstock="true"
       inkscape:collect="always"
       preserveAspectRatio="xMidYMid"><path
         style="fill:none;stroke:context-stroke;stroke-width:1;stroke-linecap:round"
         d="M 3,-3 0,0 3,3"
         transform="rotate(180,0.125,0)"
         sodipodi:nodetypes="ccc"
         id="path4" /></marker></defs><g
     inkscape:label="图层 1"
     inkscape:groupmode="layer"
     id="layer1"
     transform="translate(-17.426582,-19.162673)"><g
       id="g7"><rect
         style="fill:#a0f1ff;fill-opacity:1;stroke:#00a0d8;stroke-width:0.310999;stroke-linecap:round;stroke-linejoin:round;stroke-opacity:1"
         id="rect1"
         width="9.8447952"
         height="9.8447952"
         x="20.241636"
         y="19.965612"
         rx="1.8703432"
         ry="1.8703432" /><path
         id="path7"
         style="fill:#0064e2;fill-opacity:1;stroke-width:0.109956"
         d="m 28.576818,21.710938 c -0.04015,-8.62e-4 -0.08207,0.0063 -0.123046,0.01953 -0.08195,0.02639 -0.16708,0.07592 -0.253907,0.152343 -0.152544,0.134275 -0.267365,0.287777 -0.378906,0.503907 -0.01767,0.03423 -0.138951,0.187195 -0.242187,0.287109 -0.484379,0.468784 -0.691303,0.678345 -1.046875,1.058594 -0.20799,0.222424 -0.475696,0.508482 -0.595703,0.636719 -0.120178,0.128425 -0.224059,0.238934 -0.251954,0.271484 -0.09936,0.115942 -0.486979,0.542288 -0.582031,0.640625 -0.06374,0.06594 -0.139403,0.154817 -0.191406,0.220703 0.06999,-0.128004 0.119603,-0.238794 0.207031,-0.375 0.08096,-0.142148 0.15249,-0.286261 0.238281,-0.425781 0.08351,-0.147372 0.133009,-0.236184 0.23633,-0.421868 0.192971,-0.346798 0.322663,-0.523135 0.490183,-0.804642 0.05747,-0.106327 0.14994,-0.2425 0.169922,-0.263671 0.05627,-0.05963 0.132965,-0.169329 0.193359,-0.269532 0.05378,-0.08923 0.161279,-0.250049 0.234375,-0.349609 0.103663,-0.141181 0.164067,-0.248397 0.185547,-0.34375 0.01074,-0.04768 0.01402,-0.09761 -0.01367,-0.148438 -0.0277,-0.05082 -0.09027,-0.07936 -0.138672,-0.08008 -0.0968,-0.0014 -0.17699,0.04758 -0.27539,0.121094 -0.0984,0.07352 -0.209031,0.179946 -0.324219,0.320313 -0.40279,0.411848 -0.789603,0.837788 -1.181621,1.257831 -0.185812,0.199096 -0.339425,0.386718 -0.570312,0.625 -0.07953,0.08208 -0.297823,0.328386 -0.697339,0.802662 -0.297223,0.372331 -0.417431,0.517219 -0.929687,1.083985 -0.211635,0.23415 -0.406806,0.402093 -0.56836,0.505859 -0.161553,0.103766 -0.290418,0.136738 -0.345703,0.128906 -0.02764,-0.0039 -0.03641,-0.01075 -0.04687,-0.02539 -0.01047,-0.01464 -0.02335,-0.04464 -0.02344,-0.09766 -1.74e-4,-0.106039 0.05032,-0.291348 0.173828,-0.535157 0.102734,-0.202798 0.169795,-0.347049 0.205078,-0.449219 0.01764,-0.05108 0.02901,-0.08813 0.02734,-0.136718 -8.35e-4,-0.02429 -0.0061,-0.05751 -0.03125,-0.08789 -0.02514,-0.03038 -0.06802,-0.04492 -0.09766,-0.04492 -0.0567,0 -0.113886,0.01825 -0.15625,0.05664 -0.238924,0.432901 -0.531075,0.854351 -0.65426,1.37118 0.0041,0.352461 0.550869,0.631853 1.009762,0.361282 0.395953,-0.233463 0.949915,-0.758495 1.220703,-1.158203 0.02758,-0.04071 0.152862,-0.171088 0.242188,-0.279297 0.144987,-0.175638 0.240439,-0.311093 0.427711,-0.535239 0.129823,-0.155386 0.326536,-0.380662 0.431641,-0.507813 0.210276,-0.254381 0.490034,-0.566247 0.71875,-0.810547 -0.132084,0.216397 -0.175446,0.323285 -0.29296,0.533254 -0.160678,0.266569 -0.168098,0.279227 -0.330078,0.589844 -0.03485,0.06684 -0.07028,0.132241 -0.09961,0.183594 -0.02932,0.05135 -0.06146,0.0983 -0.05273,0.08789 -0.02648,0.03159 -0.04056,0.0591 -0.06641,0.105469 -0.02585,0.04637 -0.05573,0.104339 -0.08398,0.16211 -0.05368,0.109737 -0.134185,0.262813 -0.173829,0.330078 -0.07389,0.125404 -0.120353,0.241763 -0.138671,0.345703 -0.01832,0.10394 -0.0127,0.199523 0.03711,0.277343 0.04981,0.07782 0.153918,0.11591 0.248047,0.09961 0.09413,-0.0163 0.18666,-0.07063 0.287109,-0.160156 0.193954,-0.131173 0.250138,-0.239513 0.441446,-0.505954 0.08595,-0.112109 0.189026,-0.236683 0.277344,-0.330078 0.07814,-0.08264 0.219121,-0.238989 0.316406,-0.351562 0.09389,-0.10865 0.249098,-0.278097 0.339844,-0.373047 0.09334,-0.09766 0.265713,-0.27992 0.384766,-0.408203 0.118636,-0.127834 0.283288,-0.304368 0.365234,-0.392578 0.178443,-0.192066 0.301173,-0.314013 0.441406,-0.455079 -0.05675,0.138241 -0.118927,0.28873 -0.128906,0.308594 -0.02216,0.04407 -0.05696,0.121595 -0.08203,0.179688 -0.02123,0.04919 -0.08721,0.209296 -0.191406,0.40625 -0.104259,0.197079 -0.199359,0.451372 -0.279372,0.679788 -0.120311,0.276756 -0.247932,0.635015 -0.388672,1.091797 -0.04669,0.151536 -0.06734,0.311038 -0.06055,0.455078 0.0068,0.14404 0.03584,0.273978 0.111328,0.371094 0.02349,0.03022 0.04767,0.06018 0.06641,0.08398 0.267696,0.339977 0.961798,0.0235 1.031247,-0.06444 0.03672,-0.0465 0.06055,-0.10428 0.06055,-0.169922 0,-0.07898 -0.04089,-0.132566 -0.08789,-0.171875 -0.047,-0.03931 -0.11638,-0.07632 -0.199219,-0.04102 -0.0019,8.19e-4 -0.04869,0.0083 -0.05859,0.0078 -0.07907,-0.0035 -0.127512,0.02309 -0.179687,0.07031 -0.04392,0.03975 -0.08012,0.05943 -0.103516,0.06641 -0.0234,0.007 -0.03216,0.0051 -0.04297,0 -0.02163,-0.01023 -0.06466,-0.06312 -0.08594,-0.166016 -0.02195,-0.591497 0.237166,-1.10841 0.429681,-1.646486 0.0154,-0.04691 0.03314,-0.09409 0.04883,-0.130859 0.01569,-0.03677 0.04097,-0.0711 0.02734,-0.05469 0.529238,-1.173831 0.73191,-1.516326 1.074373,-2.089843 0.05,-0.08374 0.147897,-0.205258 0.236328,-0.300781 0.04422,-0.04776 0.08517,-0.08986 0.117187,-0.117187 0.01601,-0.01366 0.03006,-0.02487 0.03711,-0.0293 0.007,-0.0044 0.013,0.0039 -0.02148,0.0039 0.08825,0 0.146484,-0.08005 0.146484,-0.154297 0,0.02523 0.0013,-0.0025 0.01172,-0.02539 0.01043,-0.02285 0.02669,-0.05026 0.04297,-0.07422 0.06288,-0.09253 0.09613,-0.178353 0.09961,-0.261719 0.0035,-0.08337 -0.03549,-0.17071 -0.107422,-0.210938 -0.03596,-0.02011 -0.07509,-0.02844 -0.115235,-0.0293 z"
         sodipodi:nodetypes="cccsssssscsssscscsccsssscssccsssscsscsssssccsccsccssssssssscccsscscsssssccsccssscsssscccccscc" /></g><g
       id="g4"
       transform="translate(0.35532047,0.10427666)"><rect
         style="fill:#ffffff;fill-opacity:1;stroke:#747474;stroke-width:0.2;stroke-linecap:round;stroke-linejoin:round;stroke-dasharray:none;stroke-opacity:1"
         id="rect2"
         width="2.737659"
         height="2.737659"
         x="19.206551"
         y="27.648237"
         rx="0"
         ry="0" /><path
         style="fill:#ffffff;fill-opacity:1;stroke:#00aaff;stroke-width:0.28;stroke-linecap:round;stroke-linejoin:round;stroke-dasharray:none;stroke-opacity:1;marker-end:url(#ArrowWideRounded)"
         d="m 19.769454,29.822993 1.497087,-1.497086"
         id="path2" /></g><g
       id="g8"
       transform="matrix(0.23130788,0,0,0.23130788,42.29162,20.744747)"><rect
         style="fill:#a0f1ff;fill-opacity:1;stroke:#00a0d8;stroke-width:0.310999;stroke-linecap:round;stroke-linejoin:round;stroke-opacity:1"
         id="rect7"
         width="9.8447952"
         height="9.8447952"
         x="20.241636"
         y="19.965612"
         rx="1.8703432"
         ry="1.8703432" /><path
         id="path8"
         style="fill:#0064e2;fill-opacity:1;stroke-width:0.109956"
         d="m 28.576818,21.710938 c -0.04015,-8.62e-4 -0.08207,0.0063 -0.123046,0.01953 -0.08195,0.02639 -0.16708,0.07592 -0.253907,0.152343 -0.152544,0.134275 -0.267365,0.287777 -0.378906,0.503907 -0.01767,0.03423 -0.138951,0.187195 -0.242187,0.287109 -0.484379,0.468784 -0.691303,0.678345 -1.046875,1.058594 -0.20799,0.222424 -0.475696,0.508482 -0.595703,0.636719 -0.120178,0.128425 -0.224059,0.238934 -0.251954,0.271484 -0.09936,0.115942 -0.486979,0.542288 -0.582031,0.640625 -0.06374,0.06594 -0.139403,0.154817 -0.191406,0.220703 0.06999,-0.128004 0.119603,-0.238794 0.207031,-0.375 0.08096,-0.142148 0.15249,-0.286261 0.238281,-0.425781 0.08351,-0.147372 0.133009,-0.236184 0.23633,-0.421868 0.192971,-0.346798 0.322663,-0.523135 0.490183,-0.804642 0.05747,-0.106327 0.14994,-0.2425 0.169922,-0.263671 0.05627,-0.05963 0.132965,-0.169329 0.193359,-0.269532 0.05378,-0.08923 0.161279,-0.250049 0.234375,-0.349609 0.103663,-0.141181 0.164067,-0.248397 0.185547,-0.34375 0.01074,-0.04768 0.01402,-0.09761 -0.01367,-0.148438 -0.0277,-0.05082 -0.09027,-0.07936 -0.138672,-0.08008 -0.0968,-0.0014 -0.17699,0.04758 -0.27539,0.121094 -0.0984,0.07352 -0.209031,0.179946 -0.324219,0.320313 -0.40279,0.411848 -0.789603,0.837788 -1.181621,1.257831 -0.185812,0.199096 -0.339425,0.386718 -0.570312,0.625 -0.07953,0.08208 -0.297823,0.328386 -0.697339,0.802662 -0.297223,0.372331 -0.417431,0.517219 -0.929687,1.083985 -0.211635,0.23415 -0.406806,0.402093 -0.56836,0.505859 -0.161553,0.103766 -0.290418,0.136738 -0.345703,0.128906 -0.02764,-0.0039 -0.03641,-0.01075 -0.04687,-0.02539 -0.01047,-0.01464 -0.02335,-0.04464 -0.02344,-0.09766 -1.74e-4,-0.106039 0.05032,-0.291348 0.173828,-0.535157 0.102734,-0.202798 0.169795,-0.347049 0.205078,-0.449219 0.01764,-0.05108 0.02901,-0.08813 0.02734,-0.136718 -8.35e-4,-0.02429 -0.0061,-0.05751 -0.03125,-0.08789 -0.02514,-0.03038 -0.06802,-0.04492 -0.09766,-0.04492 -0.0567,0 -0.113886,0.01825 -0.15625,0.05664 -0.238924,0.432901 -0.531075,0.854351 -0.65426,1.37118 0.0041,0.352461 0.550869,0.631853 1.009762,0.361282 0.395953,-0.233463 0.949915,-0.758495 1.220703,-1.158203 0.02758,-0.04071 0.152862,-0.171088 0.242188,-0.279297 0.144987,-0.175638 0.240439,-0.311093 0.427711,-0.535239 0.129823,-0.155386 0.326536,-0.380662 0.431641,-0.507813 0.210276,-0.254381 0.490034,-0.566247 0.71875,-0.810547 -0.132084,0.216397 -0.175446,0.323285 -0.29296,0.533254 -0.160678,0.266569 -0.168098,0.279227 -0.330078,0.589844 -0.03485,0.06684 -0.07028,0.132241 -0.09961,0.183594 -0.02932,0.05135 -0.06146,0.0983 -0.05273,0.08789 -0.02648,0.03159 -0.04056,0.0591 -0.06641,0.105469 -0.02585,0.04637 -0.05573,0.104339 -0.08398,0.16211 -0.05368,0.109737 -0.134185,0.262813 -0.173829,0.330078 -0.07389,0.125404 -0.120353,0.241763 -0.138671,0.345703 -0.01832,0.10394 -0.0127,0.199523 0.03711,0.277343 0.04981,0.07782 0.153918,0.11591 0.248047,0.09961 0.09413,-0.0163 0.18666,-0.07063 0.287109,-0.160156 0.193954,-0.131173 0.250138,-0.239513 0.441446,-0.505954 0.08595,-0.112109 0.189026,-0.236683 0.277344,-0.330078 0.07814,-0.08264 0.219121,-0.238989 0.316406,-0.351562 0.09389,-0.10865 0.249098,-0.278097 0.339844,-0.373047 0.09334,-0.09766 0.265713,-0.27992 0.384766,-0.408203 0.118636,-0.127834 0.283288,-0.304368 0.365234,-0.392578 0.178443,-0.192066 0.301173,-0.314013 0.441406,-0.455079 -0.05675,0.138241 -0.118927,0.28873 -0.128906,0.308594 -0.02216,0.04407 -0.05696,0.121595 -0.08203,0.179688 -0.02123,0.04919 -0.08721,0.209296 -0.191406,0.40625 -0.104259,0.197079 -0.199359,0.451372 -0.279372,0.679788 -0.120311,0.276756 -0.247932,0.635015 -0.388672,1.091797 -0.04669,0.151536 -0.06734,0.311038 -0.06055,0.455078 0.0068,0.14404 0.03584,0.273978 0.111328,0.371094 0.02349,0.03022 0.04767,0.06018 0.06641,0.08398 0.267696,0.339977 0.961798,0.0235 1.031247,-0.06444 0.03672,-0.0465 0.06055,-0.10428 0.06055,-0.169922 0,-0.07898 -0.04089,-0.132566 -0.08789,-0.171875 -0.047,-0.03931 -0.11638,-0.07632 -0.199219,-0.04102 -0.0019,8.19e-4 -0.04869,0.0083 -0.05859,0.0078 -0.07907,-0.0035 -0.127512,0.02309 -0.179687,0.07031 -0.04392,0.03975 -0.08012,0.05943 -0.103516,0.06641 -0.0234,0.007 -0.03216,0.0051 -0.04297,0 -0.02163,-0.01023 -0.06466,-0.06312 -0.08594,-0.166016 -0.02195,-0.591497 0.237166,-1.10841 0.429681,-1.646486 0.0154,-0.04691 0.03314,-0.09409 0.04883,-0.130859 0.01569,-0.03677 0.04097,-0.0711 0.02734,-0.05469 0.529238,-1.173831 0.73191,-1.516326 1.074373,-2.089843 0.05,-0.08374 0.147897,-0.205258 0.236328,-0.300781 0.04422,-0.04776 0.08517,-0.08986 0.117187,-0.117187 0.01601,-0.01366 0.03006,-0.02487 0.03711,-0.0293 0.007,-0.0044 0.013,0.0039 -0.02148,0.0039 0.08825,0 0.146484,-0.08005 0.146484,-0.154297 0,0.02523 0.0013,-0.0025 0.01172,-0.02539 0.01043,-0.02285 0.02669,-0.05026 0.04297,-0.07422 0.06288,-0.09253 0.09613,-0.178353 0.09961,-0.261719 0.0035,-0.08337 -0.03549,-0.17071 -0.107422,-0.210938 -0.03596,-0.02011 -0.07509,-0.02844 -0.115235,-0.0293 z"
         sodipodi:nodetypes="cccsssssscsssscscsccsssscssccsssscsscsssssccsccsccssssssssscccsscscsssssccsccssscsssscccccscc" /></g><path
       style="fill:none;fill-opacity:1;stroke:#000000;stroke-width:0.3;stroke-linecap:round;stroke-linejoin:round;stroke-dasharray:none;stroke-opacity:1;marker-end:url(#DartArrow)"
       d="M 32.386616,25.164033 H 43.197491"
       id="path9" /><text
       xml:space="preserve"
       style="font-size:2.11666px;line-height:1.2;font-family:'Sarasa UI SC';-inkscape-font-specification:'Sarasa UI SC';text-align:center;letter-spacing:0px;word-spacing:0px;writing-mode:lr-tb;direction:ltr;text-anchor:middle;fill:#000000;fill-opacity:1;stroke:none;stroke-width:0.3;stroke-linecap:round;stroke-linejoin:round;stroke-dasharray:none;stroke-opacity:1"
       x="38.413109"
       y="24.151951"
       id="text10"><tspan
         sodipodi:role="line"
         id="tspan10"
         style="font-style:normal;font-variant:normal;font-weight:normal;font-stretch:normal;font-size:2.11666px;font-family:'Sarasa Gothic SC';-inkscape-font-specification:'Sarasa Gothic SC, Normal';font-variant-ligatures:normal;font-variant-caps:normal;font-variant-numeric:normal;font-variant-east-asian:normal;stroke-width:0.3"
         x="38.413109"
         y="24.151951">相当于……</tspan></text><text
       xml:space="preserve"
       style="font-style:normal;font-variant:normal;font-weight:normal;font-stretch:normal;font-size:1.41111px;line-height:1.2;font-family:'Sarasa Gothic SC';-inkscape-font-specification:'Sarasa Gothic SC, Normal';font-variant-ligatures:normal;font-variant-caps:normal;font-variant-numeric:normal;font-variant-east-asian:normal;text-align:center;letter-spacing:0px;word-spacing:0px;writing-mode:lr-tb;direction:ltr;text-anchor:middle;fill:#000000;fill-opacity:1;stroke:none;stroke-width:0.3;stroke-linecap:round;stroke-linejoin:round;stroke-dasharray:none;stroke-opacity:1"
       x="53.875362"
       y="26.944069"
       id="text11"><tspan
         sodipodi:role="line"
         id="tspan11"
         style="font-style:normal;font-variant:normal;font-weight:normal;font-stretch:normal;font-size:1.41111px;font-family:'Sarasa Gothic SC';-inkscape-font-specification:'Sarasa Gothic SC, Normal';font-variant-ligatures:normal;font-variant-caps:normal;font-variant-numeric:normal;font-variant-east-asian:normal;stroke-width:0.3"
         x="53.875362"
         y="26.944069">Missing.exe</tspan></text><path
       id="path11"
       style="fill:#ffffff;fill-opacity:1;stroke:#000000;stroke-width:0.156996;stroke-linecap:round;stroke-linejoin:round;stroke-dasharray:none;stroke-opacity:1"
       inkscape:transform-center-y="-0.3094664"
       d="m 28.083494,28.213212 0.606361,3.377492 0.746365,-0.806314 0.844355,1.275534 0.664171,-0.439639 -0.853852,-1.289648 0.975239,-0.420326 z"
       inkscape:transform-center-x="0.087871058" /><text
       xml:space="preserve"
       style="font-style:normal;font-variant:normal;font-weight:normal;font-stretch:normal;font-size:1.41111px;line-height:1.2;font-family:'Sarasa Gothic SC';-inkscape-font-specification:'Sarasa Gothic SC, Normal';font-variant-ligatures:normal;font-variant-caps:normal;font-variant-numeric:normal;font-variant-east-asian:normal;text-align:center;letter-spacing:0px;word-spacing:0px;writing-mode:lr-tb;direction:ltr;text-anchor:middle;fill:#5f5f5f;fill-opacity:1;stroke:none;stroke-width:0.3;stroke-linecap:round;stroke-linejoin:round;stroke-dasharray:none;stroke-opacity:1"
       x="55.1884"
       y="24.151888"
       id="text13"><tspan
         sodipodi:role="line"
         id="tspan13"
         style="font-style:normal;font-variant:normal;font-weight:normal;font-stretch:normal;font-size:1.41111px;font-family:'Sarasa Gothic SC';-inkscape-font-specification:'Sarasa Gothic SC, Normal';font-variant-ligatures:normal;font-variant-caps:normal;font-variant-numeric:normal;font-variant-east-asian:normal;stroke-width:0.3;fill:#5f5f5f;fill-opacity:1"
         x="55.1884"
         y="24.151888">█████.██</tspan></text><text
       xml:space="preserve"
       style="font-style:normal;font-variant:normal;font-weight:normal;font-stretch:normal;font-size:1.41111px;line-height:1.2;font-family:'Sarasa Gothic SC';-inkscape-font-specification:'Sarasa Gothic SC, Normal';font-variant-ligatures:normal;font-variant-caps:normal;font-variant-numeric:normal;font-variant-east-asian:normal;text-align:center;letter-spacing:0px;word-spacing:0px;writing-mode:lr-tb;direction:ltr;text-anchor:middle;fill:#5f5f5f;fill-opacity:1;stroke:none;stroke-width:0.3;stroke-linecap:round;stroke-linejoin:round;stroke-dasharray:none;stroke-opacity:1"
       x="53.071735"
       y="20.976889"
       id="text14"><tspan
         sodipodi:role="line"
         id="tspan14"
         style="font-style:normal;font-variant:normal;font-weight:normal;font-stretch:normal;font-size:1.41111px;font-family:'Sarasa Gothic SC';-inkscape-font-specification:'Sarasa Gothic SC, Normal';font-variant-ligatures:normal;font-variant-caps:normal;font-variant-numeric:normal;font-variant-east-asian:normal;stroke-width:0.3;fill:#5f5f5f;fill-opacity:1"
         x="53.071735"
         y="20.976889">██.██</tspan></text><path
       style="fill:#ffffff;fill-opacity:1;stroke:#000000;stroke-width:0.106371;stroke-linecap:round;stroke-linejoin:round;stroke-dasharray:none;stroke-opacity:1"
       d="m 48.504351,28.286901 -1.245554,-0.01015 v 2.357613 h 1.706924 v -1.75188 z"
       id="path15"
       sodipodi:nodetypes="cccccc" /><text
       xml:space="preserve"
       style="font-style:normal;font-variant:normal;font-weight:normal;font-stretch:normal;font-size:1.41111px;line-height:1.2;font-family:'Sarasa Gothic SC';-inkscape-font-specification:'Sarasa Gothic SC, Normal';font-variant-ligatures:normal;font-variant-caps:normal;font-variant-numeric:normal;font-variant-east-asian:normal;text-align:center;letter-spacing:0px;word-spacing:0px;writing-mode:lr-tb;direction:ltr;text-anchor:middle;fill:#5f5f5f;fill-opacity:1;stroke:none;stroke-width:0.3;stroke-linecap:round;stroke-linejoin:round;stroke-dasharray:none;stroke-opacity:1"
       x="53.77729"
       y="30.037781"
       id="text15"><tspan
         sodipodi:role="line"
         id="tspan15"
         style="font-style:normal;font-variant:normal;font-weight:normal;font-stretch:normal;font-size:1.41111px;font-family:'Sarasa Gothic SC';-inkscape-font-specification:'Sarasa Gothic SC, Normal';font-variant-ligatures:normal;font-variant-caps:normal;font-variant-numeric:normal;font-variant-east-asian:normal;stroke-width:0.3;fill:#5f5f5f;fill-opacity:1"
         x="53.77729"
         y="30.037781">███.██</tspan></text><path
       style="fill:#ffffff;fill-opacity:1;stroke:#000000;stroke-width:0.106371;stroke-linecap:round;stroke-linejoin:round;stroke-dasharray:none;stroke-opacity:1"
       d="m 48.504351,22.401007 -1.245554,-0.01015 v 2.357613 h 1.706924 v -1.75188 z"
       id="path16"
       sodipodi:nodetypes="cccccc" /><path
       style="fill:#ffffff;fill-opacity:1;stroke:#000000;stroke-width:0.106371;stroke-linecap:round;stroke-linejoin:round;stroke-dasharray:none;stroke-opacity:1"
       d="m 48.504351,19.226008 -1.245554,-0.01015 v 2.357613 h 1.706924 v -1.75188 z"
       id="path17"
       sodipodi:nodetypes="cccccc" /><path
       id="path12"
       style="fill:#ffffff;fill-opacity:1;stroke:#000000;stroke-width:0.154696;stroke-linecap:round;stroke-linejoin:round;stroke-dasharray:none;stroke-opacity:1"
       inkscape:transform-center-y="-0.30493209"
       d="m 56.610098,26.405326 0.597476,3.328003 0.735428,-0.7945 0.831984,1.256844 0.654439,-0.433196 -0.841341,-1.270752 0.96095,-0.414168 z"
       inkscape:transform-center-x="0.086583113" /><text
       xml:space="preserve"
       style="font-size:2.11666px;line-height:1.2;font-family:'Sarasa UI SC';-inkscape-font-specification:'Sarasa UI SC';text-align:center;letter-spacing:0px;word-spacing:0px;writing-mode:lr-tb;direction:ltr;text-anchor:middle;fill:#000000;fill-opacity:1;stroke:none;stroke-width:0.3;stroke-linecap:round;stroke-linejoin:round;stroke-dasharray:none;stroke-opacity:1"
       x="25.810673"
       y="34.735283"
       id="text17"><tspan
         sodipodi:role="line"
         id="tspan17"
         style="font-style:normal;font-variant:normal;font-weight:normal;font-stretch:normal;font-size:2.11666px;font-family:'Sarasa Gothic SC';-inkscape-font-specification:'Sarasa Gothic SC, Normal';font-variant-ligatures:normal;font-variant-caps:normal;font-variant-numeric:normal;font-variant-east-asian:normal;stroke-width:0.3"
         x="25.810673"
         y="34.735283">打开「快捷方式」</tspan></text><text
       xml:space="preserve"
       style="font-size:2.11666px;line-height:1.2;font-family:'Sarasa UI SC';-inkscape-font-specification:'Sarasa UI SC';text-align:center;letter-spacing:0px;word-spacing:0px;writing-mode:lr-tb;direction:ltr;text-anchor:middle;fill:#000000;fill-opacity:1;stroke:none;stroke-width:0.3;stroke-linecap:round;stroke-linejoin:round;stroke-dasharray:none;stroke-opacity:1"
       x="54.288113"
       y="34.735283"
       id="text18"><tspan
         sodipodi:role="line"
         id="tspan18"
         style="font-style:normal;font-variant:normal;font-weight:normal;font-stretch:normal;font-size:2.11666px;font-family:'Sarasa Gothic SC';-inkscape-font-specification:'Sarasa Gothic SC, Normal';font-variant-ligatures:normal;font-variant-caps:normal;font-variant-numeric:normal;font-variant-east-asian:normal;stroke-width:0.3"
         x="54.288113"
         y="34.735283">打开它「指向」的文件</tspan></text></g></svg>
