<?xml version="1.0" encoding="UTF-8" standalone="no"?>
<!-- Created with Inkscape (http://www.inkscape.org/) -->

<svg
   width="202.98433mm"
   height="131.10588mm"
   viewBox="0 0 202.98433 131.10588"
   version="1.1"
   id="svg1"
   xml:space="preserve"
   inkscape:version="1.4 (86a8ad7, 2024-10-11)"
   sodipodi:docname="Certificate.svg"
   inkscape:export-filename="Certificate.png"
   inkscape:export-xdpi="300"
   inkscape:export-ydpi="300"
   xmlns:inkscape="http://www.inkscape.org/namespaces/inkscape"
   xmlns:sodipodi="http://sodipodi.sourceforge.net/DTD/sodipodi-0.dtd"
   xmlns:xlink="http://www.w3.org/1999/xlink"
   xmlns="http://www.w3.org/2000/svg"
   xmlns:svg="http://www.w3.org/2000/svg"><sodipodi:namedview
     id="namedview1"
     pagecolor="#505050"
     bordercolor="#eeeeee"
     borderopacity="1"
     inkscape:showpageshadow="0"
     inkscape:pageopacity="0"
     inkscape:pagecheckerboard="0"
     inkscape:deskcolor="#d1d1d1"
     inkscape:document-units="mm"
     inkscape:zoom="1.1515925"
     inkscape:cx="219.26158"
     inkscape:cy="264.41644"
     inkscape:window-width="1920"
     inkscape:window-height="1009"
     inkscape:window-x="-8"
     inkscape:window-y="-8"
     inkscape:window-maximized="1"
     inkscape:current-layer="layer1" /><defs
     id="defs1"><pattern
       inkscape:collect="always"
       xlink:href="#Wave"
       preserveAspectRatio="xMidYMid"
       id="pattern17"
       patternTransform="scale(0.15)"
       x="0"
       y="0" /><pattern
       patternUnits="userSpaceOnUse"
       width="24"
       height="10"
       preserveAspectRatio="xMidYMid"
       id="Wave"
       style="fill:#ffe6d9"
       x="0"
       y="0"
       inkscape:collect="always"
       inkscape:isstock="true"
       inkscape:label="波形"><g
         id="wave_g"
         style="display:inline"><path
           d="M 12,-2 C 9.1666695,-2 7.1679672,-0.56445187 5.4179687,0.68554687 3.6679703,1.9355456 2.1666645,3 0,3 V 5 C 2.8333305,5 4.8320328,3.5644519 6.5820312,2.3144531 8.3320297,1.0644544 9.8333355,0 12,0 14.166665,0 15.667971,1.0644544 17.417969,2.3144531 19.167967,3.5644519 21.166669,5 24,5 V 3 C 21.833335,3 20.332029,1.9355456 18.582031,0.68554687 16.832033,-0.56445189 14.833331,-2 12,-2 Z"
           id="path3" /><path
           d="M 12,3 C 9.1666695,3 7.1679672,4.4355481 5.4179687,5.6855469 3.6679703,6.9355456 2.1666645,8 0,8 v 2 C 2.8333305,10 4.8320328,8.5644519 6.5820312,7.3144531 8.3320297,6.0644544 9.8333355,5 12,5 14.166665,5 15.667971,6.0644544 17.417969,7.3144531 19.167967,8.5644519 21.166669,10 24,10 V 8 C 21.833335,8 20.332029,6.9355456 18.582031,5.6855469 16.832033,4.4355481 14.833331,3 12,3 Z"
           id="path4" /><path
           d="M 12,8 C 9.1666695,8 7.1679672,9.4355481 5.4179687,10.685547 3.6679703,11.935546 2.1666645,13 0,13 v 2 C 2.8333305,15 4.8320328,13.564452 6.5820312,12.314453 8.3320297,11.064454 9.8333355,10 12,10 c 2.166665,0 3.667971,1.064454 5.417969,2.314453 C 19.167967,13.564452 21.166669,15 24,15 V 13 C 21.833335,13 20.332029,11.935546 18.582031,10.685547 16.832033,9.4355481 14.833331,8 12,8 Z"
           id="path16" /></g></pattern><linearGradient
       id="swatch8"
       inkscape:swatch="solid"><stop
         style="stop-color:#ff4800;stop-opacity:1;"
         offset="0"
         id="stop8" /></linearGradient></defs><g
     inkscape:label="图层 1"
     inkscape:groupmode="layer"
     id="layer1"
     transform="translate(-25.743778,-30.299036)"><rect
       style="fill:#ffb300;fill-opacity:1;stroke:none;stroke-width:0.333109;stroke-linecap:round;stroke-linejoin:round"
       id="rect1"
       width="202.98433"
       height="131.10588"
       x="25.743778"
       y="30.299036"
       rx="0"
       ry="0" /><rect
       style="fill:#fff0da;fill-opacity:1;stroke:none;stroke-width:0.341966;stroke-linecap:round;stroke-linejoin:round"
       id="rect2"
       width="200.34273"
       height="128.12782"
       x="27.064579"
       y="31.788065"
       rx="0.82565588"
       ry="0.82565588" /><rect
       style="fill:url(#pattern17);fill-opacity:1;stroke:none;stroke-width:0.341966;stroke-linecap:round;stroke-linejoin:round"
       id="rect8"
       width="200.34273"
       height="128.12782"
       x="27.064579"
       y="31.788065"
       rx="0.82565588"
       ry="0.82565588" /><g
       id="g63"
       transform="matrix(8.5401303,0,0,8.5401303,-468.33388,-331.97296)"
       style="stroke-width:0.187351;stroke-dasharray:none"><path
         style="fill:#f2bbc3;fill-opacity:1;stroke:#f87474;stroke-width:0.0936754;stroke-linecap:round;stroke-linejoin:round;stroke-dasharray:none;stroke-opacity:1;paint-order:markers stroke fill"
         d="m 77.905565,46.565045 1.035373,2.749385 0.327136,-0.72236 0.742708,0.336352 -1.057639,-2.80851 z"
         id="path61"
         inkscape:transform-center-x="-0.6483166"
         inkscape:transform-center-y="1.557556" /><path
         style="fill:#f2bbc3;fill-opacity:1;stroke:#f87474;stroke-width:0.0936754;stroke-linecap:round;stroke-linejoin:round;stroke-dasharray:none;stroke-opacity:1;paint-order:markers stroke fill"
         d="m 77.505851,46.577026 -0.592109,2.87759 0.662227,-0.436208 0.448495,0.680882 0.604842,-2.939472 z"
         id="path62"
         inkscape:transform-center-x="0.29261991"
         inkscape:transform-center-y="1.688155" /><path
         sodipodi:type="star"
         style="fill:#ffdbad;fill-opacity:1;stroke:#ff4d07;stroke-width:0.568437;stroke-linecap:round;stroke-linejoin:round;stroke-dasharray:none;stroke-opacity:1;paint-order:markers stroke fill"
         id="path63"
         inkscape:flatsided="false"
         sodipodi:sides="11"
         sodipodi:cx="190.63248"
         sodipodi:cy="306.46408"
         sodipodi:r1="9.9750633"
         sodipodi:r2="7.2939081"
         sodipodi:arg1="1.0471976"
         sodipodi:arg2="1.3327969"
         inkscape:rounded="0"
         inkscape:randomized="0"
         d="m 195.62001,315.10274 -3.26793,-1.55035 -2.19424,2.87546 -1.91097,-3.07102 -3.4005,1.2327 0.0527,-3.61665 -3.52713,-0.80144 1.99965,-3.01403 -2.53392,-2.58112 3.31171,-1.45447 -0.73621,-3.54132 3.57234,0.56687 1.29525,-3.37717 2.69877,2.40823 2.91546,-2.14079 0.96836,3.485 3.61005,-0.22473 -1.0695,3.4553 3.15846,1.76268 -2.7678,2.32857 1.7041,3.19046 -3.58734,0.46253 z"
         transform="matrix(0.16479468,0,0,0.16479468,46.843113,-4.4549027)"
         inkscape:transform-center-x="-0.027334828"
         inkscape:transform-center-y="-0.054517816" /><text
         xml:space="preserve"
         style="font-style:normal;font-variant:normal;font-weight:normal;font-stretch:normal;font-size:0.206541px;line-height:1.02;font-family:'Sarasa Gothic SC';-inkscape-font-specification:'Sarasa Gothic SC, Normal';font-variant-ligatures:normal;font-variant-caps:normal;font-variant-numeric:normal;font-variant-east-asian:normal;text-align:start;letter-spacing:0.00433737px;word-spacing:0px;writing-mode:lr-tb;direction:ltr;text-anchor:start;fill:#c33300;fill-opacity:1;stroke:none;stroke-width:0.187351;stroke-linecap:round;stroke-linejoin:round;stroke-dasharray:none;stroke-dashoffset:0;stroke-opacity:1;paint-order:markers stroke fill"
         id="text6"
         transform="rotate(-156.18483,78.267366,46.056488)"><textPath
           xlink:href="#path20"
           startOffset="50%"
           id="textPath20"
           style="font-style:normal;font-variant:normal;font-weight:normal;font-stretch:normal;font-size:0.206541px;line-height:1.02;font-family:'Sarasa Gothic SC';-inkscape-font-specification:'Sarasa Gothic SC, Normal';font-variant-ligatures:normal;font-variant-caps:normal;font-variant-numeric:normal;font-variant-east-asian:normal;text-align:center;letter-spacing:0.00433737px;word-spacing:0px;text-anchor:middle;fill:#c33300;fill-opacity:1;stroke:none;stroke-width:0.187351;stroke-opacity:1">WDP 信托·WDP TRUST AGENCY·LE AGENCE FIDUCIAIRE DE WDP·</textPath></text><path
         id="path20"
         style="fill:none;stroke:none;stroke-width:0.0503973;stroke-linecap:round;stroke-linejoin:round;paint-order:markers stroke fill"
         d="m 78.269463,44.930302 c -0.629982,0 -1.140683,0.510701 -1.140683,1.140683 0,0.629982 0.510701,1.140683 1.140683,1.140683 0.629982,0 1.140682,-0.510701 1.140682,-1.140683 0,-0.629982 -0.5107,-1.140683 -1.140682,-1.140683 z"
         sodipodi:nodetypes="sssss" /><path
         style="fill:none;fill-opacity:1;stroke:#ff5d30;stroke-width:0.351283;stroke-linecap:round;stroke-linejoin:round;stroke-dasharray:none;stroke-dashoffset:0;stroke-opacity:1;paint-order:markers stroke fill"
         d="m 77.576376,46.160322 0.594207,0.457083 0.685624,-1.005582"
         id="path21" /></g><text
       xml:space="preserve"
       style="font-size:7.94686px;line-height:1.62;font-family:'Sarasa UI SC';-inkscape-font-specification:'Sarasa UI SC, Normal';text-align:center;letter-spacing:-0.132749px;word-spacing:-0.00812748px;writing-mode:tb-rl;direction:ltr;text-anchor:middle;fill:#ff4800;fill-opacity:1;stroke:#ffcd35;stroke-width:0.921541;stroke-linecap:round;stroke-linejoin:round;stroke-dasharray:none;stroke-opacity:1"
       x="109.25124"
       y="67.065025"
       id="text2"
       transform="scale(1.1658205,0.85776498)"><tspan
         sodipodi:role="line"
         id="tspan2"
         style="font-style:normal;font-variant:normal;font-weight:900;font-stretch:normal;font-size:17.3386px;font-family:'Source Han Serif SC';-inkscape-font-specification:'Source Han Serif SC, Heavy';font-variant-ligatures:normal;font-variant-caps:normal;font-variant-numeric:normal;font-variant-east-asian:normal;writing-mode:lr-tb;fill:#ff4800;fill-opacity:1;stroke:#ffcd35;stroke-width:0.921541;stroke-dasharray:none;stroke-opacity:1;paint-order:markers stroke fill"
         x="109.18487"
         y="67.065025">证   书</tspan></text><text
       xml:space="preserve"
       style="font-style:normal;font-variant:normal;font-weight:600;font-stretch:normal;font-size:6.35px;line-height:1.62;font-family:'Source Han Serif SC';-inkscape-font-specification:'Source Han Serif SC, Semi-Bold';font-variant-ligatures:normal;font-variant-caps:normal;font-variant-numeric:normal;font-variant-east-asian:normal;text-align:center;letter-spacing:0px;word-spacing:0px;writing-mode:lr-tb;direction:ltr;text-anchor:middle;fill:#000000;fill-opacity:1;stroke:none;stroke-width:0.899999;stroke-linecap:round;stroke-linejoin:round;stroke-dasharray:none;stroke-opacity:1;paint-order:markers stroke fill"
       x="45.992947"
       y="75.221375"
       id="text3"><tspan
         sodipodi:role="line"
         id="tspan3"
         style="font-style:normal;font-variant:normal;font-weight:600;font-stretch:normal;font-size:6.35px;font-family:'Source Han Serif SC';-inkscape-font-specification:'Source Han Serif SC, Semi-Bold';font-variant-ligatures:normal;font-variant-caps:normal;font-variant-numeric:normal;font-variant-east-asian:normal;text-align:start;letter-spacing:0px;word-spacing:0px;text-anchor:start;fill:#000000;fill-opacity:1;stroke:none;stroke-width:0.9;stroke-opacity:1"
         x="45.992947"
         y="75.221375">兹证明 Hans 先生本人签名如下：</tspan></text><text
       xml:space="preserve"
       style="font-style:normal;font-variant:normal;font-weight:600;font-stretch:normal;font-size:6.35px;line-height:1.62;font-family:'Source Han Serif SC';-inkscape-font-specification:'Source Han Serif SC, Semi-Bold';font-variant-ligatures:normal;font-variant-caps:normal;font-variant-numeric:normal;font-variant-east-asian:normal;text-align:center;letter-spacing:0px;word-spacing:0px;writing-mode:lr-tb;direction:ltr;text-anchor:middle;white-space:pre;inline-size:123.354;display:inline;fill:#000000;fill-opacity:1;stroke:none;stroke-width:0.899999;stroke-linecap:round;stroke-linejoin:round;stroke-dasharray:none;stroke-opacity:1;paint-order:markers stroke fill"
       x="71.978249"
       y="134.54218"
       id="text4"
       transform="translate(35.711215,-17.407435)"><tspan
         x="71.978249"
         y="134.54218"
         id="tspan13"><tspan
           style="text-align:start;text-anchor:start;stroke-width:0.9"
           id="tspan4">凡与上述图样一致之签名，均系 </tspan><tspan
           style="text-align:start;text-anchor:start;stroke-width:0.9"
           id="tspan11">Hans </tspan><tspan
           style="text-align:start;text-anchor:start;stroke-width:0.9"
           id="tspan12">先生</tspan></tspan><tspan
         x="71.978249"
         y="144.82917"
         id="tspan15"><tspan
           style="text-align:start;text-anchor:start;stroke-width:0.9"
           id="tspan14">亲笔所签。</tspan></tspan></text><text
       xml:space="preserve"
       style="font-style:normal;font-variant:normal;font-weight:600;font-stretch:normal;font-size:6.35px;line-height:1.62;font-family:'Source Han Serif SC';-inkscape-font-specification:'Source Han Serif SC, Semi-Bold';font-variant-ligatures:normal;font-variant-caps:normal;font-variant-numeric:normal;font-variant-east-asian:normal;text-align:start;letter-spacing:0px;word-spacing:0px;writing-mode:lr-tb;direction:ltr;text-anchor:start;fill:#000000;fill-opacity:1;stroke:none;stroke-width:0.899999;stroke-linecap:round;stroke-linejoin:round;stroke-dasharray:none;stroke-opacity:1;paint-order:markers stroke fill"
       x="166.60132"
       y="133.42183"
       id="text5"><tspan
         sodipodi:role="line"
         id="tspan5"
         style="letter-spacing:0px;word-spacing:0px;stroke-width:0.9"
         x="166.60132"
         y="133.42183">友好的信用大户</tspan></text><rect
       style="fill:none;fill-opacity:1;stroke:#ff9358;stroke-width:0.398509;stroke-linecap:round;stroke-linejoin:round;stroke-dasharray:0.398509, 1.19553;stroke-dashoffset:0;stroke-opacity:1;paint-order:markers stroke fill"
       id="rect5"
       width="195.79332"
       height="123.65949"
       x="29.339367"
       y="34.022297"
       rx="4.6712179"
       ry="4.6712179" /><path
       style="fill:#000000;stroke-width:0.256552"
       d="m 146.57478,105.09044 c -0.224,-0.005 -0.83491,-0.0301 -1.35759,-0.0562 -0.52267,-0.0261 -1.27959,-0.0707 -1.68203,-0.0992 -0.59146,-0.0419 -0.74386,-0.0745 -0.79495,-0.16997 -0.042,-0.0783 -0.0353,-0.15629 0.0196,-0.23133 0.076,-0.10396 0.2129,-0.10695 1.67738,-0.0362 0.94152,0.0455 2.30353,0.0588 3.32554,0.0323 0.952,-0.0245 2.09746,-0.0746 2.54547,-0.11132 0.448,-0.0367 1.19255,-0.12719 1.65456,-0.20121 0.46199,-0.0741 1.20897,-0.22771 1.65993,-0.34156 0.45097,-0.11386 1.05043,-0.29609 1.33214,-0.40497 0.28171,-0.10891 0.66789,-0.30307 0.85818,-0.43152 0.20329,-0.13723 0.38275,-0.32231 0.43512,-0.44874 0.0614,-0.14826 0.0696,-0.27126 0.0262,-0.3955 -0.0346,-0.0992 -0.20789,-0.27753 -0.38504,-0.39635 -0.17716,-0.11883 -0.49737,-0.28209 -0.71157,-0.3628 -0.21421,-0.0807 -0.7102,-0.22024 -1.1022,-0.31005 -0.39201,-0.0898 -1.14037,-0.22395 -1.66305,-0.29809 -0.52267,-0.0741 -1.54595,-0.18372 -2.27396,-0.24353 -0.74593,-0.0613 -2.4939,-0.12443 -4.00488,-0.14469 -1.47468,-0.0198 -4.33069,-0.002 -6.34672,0.0401 -2.01601,0.0418 -4.47494,0.10704 -5.46428,0.14487 -0.98935,0.0378 -2.85263,0.13008 -4.14064,0.20501 -1.28802,0.0749 -2.67784,0.16649 -3.08851,0.20346 -0.45207,0.0407 -0.83293,0.1127 -0.96528,0.18248 -0.18537,0.0977 -0.25373,0.10255 -0.44954,0.0317 -0.19316,-0.0698 -0.5575,-0.0502 -2.22665,0.12022 -1.09763,0.11204 -3.43636,0.3708 -5.19718,0.57501 -1.76082,0.2042 -3.74558,0.42104 -4.41057,0.48186 -0.92805,0.0849 -1.49308,0.18022 -2.43091,0.41026 -0.672,0.16482 -1.6342,0.3741 -2.13821,0.46505 -0.53276,0.0961 -1.3568,0.1849 -1.9685,0.21202 -0.65812,0.0292 -1.38173,0.0166 -1.93229,-0.0338 -0.48409,-0.0443 -1.18388,-0.14131 -1.55507,-0.21573 -0.37119,-0.0744 -0.9984,-0.24309 -1.39379,-0.37485 -0.3954,-0.13174 -1.09021,-0.41669 -1.54406,-0.63319 -0.45385,-0.21651 -1.116894,-0.56534 -1.473457,-0.77519 -0.356552,-0.20984 -0.830003,-0.53276 -1.052106,-0.71759 -0.275165,-0.229 -0.462664,-0.45636 -0.588545,-0.71364 -0.141257,-0.288714 -0.175205,-0.436298 -0.144247,-0.627076 0.02231,-0.137225 0.149491,-0.407753 0.282698,-0.601178 0.133218,-0.193421 0.436984,-0.538703 0.675026,-0.767285 0.242815,-0.233167 0.493944,-0.415608 0.572065,-0.415608 0.07659,0 0.171583,0.06043 0.21112,0.134305 0.06233,0.116521 0.01184,0.190671 -0.381219,0.560003 -0.249209,0.234135 -0.540118,0.5615 -0.646471,0.727476 -0.106377,0.165977 -0.193365,0.378155 -0.193365,0.471507 0,0.09335 0.082,0.287984 0.182117,0.432512 0.106032,0.153054 0.453292,0.443184 0.831521,0.694804 0.357173,0.2376 1.122863,0.6613 1.701543,0.94156 0.57867,0.28025 1.32704,0.59982 1.66304,0.71016 0.336,0.11034 0.90187,0.26357 1.25748,0.34051 0.35561,0.0769 1.05816,0.17611 1.56122,0.22037 0.61176,0.0538 1.25185,0.0619 1.93286,0.0244 l 1.01819,-0.0561 -1.15395,-0.084 c -0.63467,-0.0461 -1.39832,-0.13441 -1.69699,-0.19611 -0.29867,-0.0617 -0.71995,-0.19098 -0.93617,-0.2873 -0.21624,-0.0963 -0.46825,-0.26436 -0.56002,-0.37343 -0.10453,-0.12417 -0.16685,-0.28322 -0.16685,-0.42546 0,-0.14635 0.0636,-0.30274 0.17876,-0.4396 0.0983,-0.11685 0.35652,-0.30219 0.57381,-0.41187 0.21727,-0.10969 0.66374,-0.2778 0.99215,-0.37359 0.32841,-0.0958 1.02475,-0.2463 1.54742,-0.33447 0.52267,-0.08817 1.34741,-0.197143 1.83274,-0.242165 0.48534,-0.04502 1.81409,-0.0799 2.95275,-0.07751 1.13868,0.0023 2.71889,0.04115 3.51158,0.08611 l 1.44125,0.08177 0.28967,-0.189536 c 0.15932,-0.104249 0.53974,-0.383711 0.84537,-0.621035 0.30562,-0.237321 0.79436,-0.668795 1.08606,-0.958826 0.29171,-0.290035 0.71063,-0.763838 0.93093,-1.052895 0.2203,-0.289059 0.38283,-0.543264 0.3612,-0.564901 -0.0216,-0.02163 -0.49207,0.02345 -1.0454,0.100166 -0.55334,0.07673 -1.31151,0.178101 -1.68485,0.225266 -0.42269,0.05341 -1.43429,0.08348 -2.68123,0.07971 -1.73057,-0.0052 -2.1117,-0.02573 -2.80721,-0.150983 -0.44261,-0.07972 -1.08025,-0.237236 -1.41696,-0.350047 -0.33671,-0.112817 -0.9416,-0.373594 -1.34419,-0.579521 -0.49438,-0.252888 -0.82136,-0.471402 -1.00741,-0.673238 -0.15149,-0.164352 -0.29505,-0.376925 -0.31901,-0.472383 -0.0239,-0.09545 -0.026,-0.219445 -0.005,-0.27553 0.0215,-0.05609 0.079,-0.101972 0.12769,-0.101972 0.0486,0 0.33222,0.198866 0.63002,0.441926 0.29779,0.243059 0.80401,0.578066 1.12491,0.744455 0.32091,0.166391 0.85559,0.393699 1.18819,0.50513 0.33259,0.111426 0.8795,0.253457 1.21534,0.315615 0.41189,0.07623 1.14709,0.124204 2.25902,0.147394 1.01556,0.02119 1.97977,0.0037 2.51154,-0.04548 0.47471,-0.04393 1.30604,-0.140624 1.84738,-0.21488 0.54133,-0.07426 1.17535,-0.167441 1.40893,-0.207076 l 0.42468,-0.07206 0.68425,-1.197812 c 0.37634,-0.658799 1.12754,-2.098915 1.66934,-3.200256 0.5418,-1.101343 1.22659,-2.545713 1.52175,-3.209713 0.29518,-0.663999 0.64341,-1.419243 0.77388,-1.678319 0.13047,-0.259076 0.23723,-0.487466 0.23723,-0.507535 0,-0.02007 -0.20619,0.0673 -0.45819,0.194138 -0.25201,0.126843 -0.72289,0.324007 -1.04642,0.438141 -0.32352,0.114139 -0.82289,0.255989 -1.10972,0.315235 -0.28682,0.05925 -0.84686,0.126043 -1.24451,0.148439 -0.39767,0.0224 -1.03582,0.0064 -1.41814,-0.03555 -0.50703,-0.05564 -0.89822,-0.151011 -1.44579,-0.352502 -0.41288,-0.151928 -0.96287,-0.320472 -1.2222,-0.374545 -0.27621,-0.05759 -0.59112,-0.07995 -0.76028,-0.05398 -0.15883,0.02438 -0.40003,0.100075 -0.53602,0.168204 -0.13599,0.06813 -0.36016,0.254746 -0.49817,0.414701 -0.13799,0.159956 -0.32037,0.428284 -0.4053,0.596286 -0.0849,0.168001 -0.19022,0.41618 -0.234,0.551506 -0.0438,0.135327 -0.10144,0.486603 -0.12806,0.780613 -0.0267,0.29401 -0.079,0.534563 -0.11632,0.534563 -0.0378,0 -0.0769,-0.239977 -0.0884,-0.543034 -0.0115,-0.298669 0.0165,-0.680491 0.0618,-0.848492 0.0453,-0.168001 0.17066,-0.483398 0.27868,-0.700882 0.10799,-0.217483 0.35515,-0.557232 0.54919,-0.754997 0.25203,-0.256857 0.46915,-0.402896 0.76008,-0.511228 0.34309,-0.12775 0.49436,-0.145766 0.95976,-0.1143 0.41316,0.02793 0.78973,0.118786 1.49335,0.360287 l 0.94086,0.322932 1.12377,0.02689 c 0.84718,0.02026 1.26942,-4.1e-4 1.71564,-0.08402 0.32553,-0.061 0.8584,-0.204909 1.18414,-0.319798 0.32573,-0.114887 0.77552,-0.300438 0.99952,-0.41233 0.22401,-0.111897 0.57816,-0.306275 0.78703,-0.431961 0.25794,-0.155216 0.50501,-0.392053 0.77023,-0.738313 0.21475,-0.280386 0.55271,-0.658071 0.75099,-0.839303 0.1983,-0.18123 0.46723,-0.380138 0.59763,-0.442016 0.1304,-0.06188 0.33068,-0.112506 0.44506,-0.112506 0.13848,0 0.23222,0.04536 0.28062,0.135759 0.0482,0.09013 0.0504,0.177335 0.007,0.259462 -0.0365,0.06804 -0.2747,0.320379 -0.52952,0.560761 -0.25481,0.240382 -0.66137,0.588381 -0.90347,0.77333 -0.24207,0.184951 -0.47678,0.383157 -0.52155,0.440459 -0.0447,0.05731 -0.26344,0.470736 -0.48592,0.918739 -0.22249,0.448004 -0.68201,1.471285 -1.02116,2.273959 -0.33914,0.802674 -1.03977,2.329959 -1.55696,3.393967 -0.51719,1.064008 -1.15608,2.316382 -1.41976,2.783052 -0.26368,0.466671 -0.4523,0.858465 -0.41914,0.87065 0.0331,0.01219 0.71001,-0.104329 1.50412,-0.258925 0.79411,-0.154595 2.13112,-0.432102 2.97113,-0.616686 0.84,-0.184581 1.58953,-0.36228 1.6656,-0.394882 0.10201,-0.0437 0.26041,-0.386881 0.60295,-1.306093 0.25554,-0.685747 0.96733,-2.529734 1.58177,-4.097747 0.61443,-1.568013 1.2547,-3.186935 1.42282,-3.597605 0.16812,-0.410671 0.46161,-1.046534 0.65221,-1.413031 0.29889,-0.574739 0.33504,-0.684781 0.26286,-0.800344 -0.046,-0.07369 -0.0648,-0.16453 -0.0418,-0.201865 0.023,-0.03733 0.10811,-0.04775 0.18898,-0.02315 0.0808,0.0246 0.20391,0.09457 0.27345,0.155491 0.10476,0.09179 0.11999,0.174676 0.0888,0.484096 -0.0207,0.205335 -0.14405,0.648248 -0.27405,0.984251 -0.13,0.336003 -0.65426,1.680013 -1.16503,2.986691 -0.51075,1.306677 -1.22664,3.154692 -1.59085,4.1067 -0.36421,0.952008 -0.72604,1.903711 -0.80406,2.114893 l -0.14185,0.383968 1.13365,-0.297545 c 0.62352,-0.163652 1.38699,-0.371452 1.69663,-0.461779 0.47175,-0.137622 0.62023,-0.218089 0.91637,-0.496607 0.19437,-0.182806 0.55194,-0.470952 0.79462,-0.640324 0.24266,-0.169371 0.57984,-0.387014 0.74926,-0.483651 0.16943,-0.09664 0.49683,-0.2393 0.72756,-0.317028 0.25456,-0.08576 0.59329,-0.141324 0.8615,-0.141324 0.24952,0 0.56195,0.048 0.71748,0.11023 0.16604,0.06644 0.31491,0.186453 0.37471,0.302085 0.0545,0.105526 0.0993,0.221573 0.0993,0.257897 0,0.03632 -0.0772,0.15778 -0.17154,0.269903 -0.12723,0.151203 -0.33325,0.257004 -0.79758,0.409601 -0.34433,0.11315 -1.21724,0.373942 -1.9398,0.579522 -0.72257,0.205583 -1.35915,0.41146 -1.41464,0.457503 -0.0554,0.04605 -0.23878,0.276979 -0.40734,0.513189 -0.16856,0.236213 -0.34679,0.563463 -0.39608,0.727227 -0.0725,0.240731 -0.0731,0.320261 -0.003,0.415291 0.068,0.09298 0.15557,0.110597 0.41919,0.08433 0.18327,-0.01826 0.57605,-0.134912 0.87284,-0.259222 0.29678,-0.124311 0.77111,-0.380996 1.05405,-0.570413 0.28293,-0.189417 0.68834,-0.49457 0.90091,-0.678117 0.21257,-0.183548 0.51145,-0.511868 0.66417,-0.729596 0.15273,-0.217727 0.33485,-0.426466 0.40472,-0.463858 0.0699,-0.0374 0.14213,-0.06799 0.16059,-0.06799 0.0184,0 0.0815,0.048 0.14022,0.106665 0.0587,0.05867 0.10661,0.146878 0.10661,0.19602 0,0.04914 -0.11305,0.253148 -0.25131,0.453337 -0.13822,0.200193 -0.32077,0.531987 -0.40566,0.737321 -0.0849,0.205335 -0.15508,0.516246 -0.15597,0.690914 -0.001,0.206668 0.0376,0.356787 0.11064,0.429843 0.0827,0.08266 0.1766,0.100879 0.35636,0.06907 0.13426,-0.02376 0.40325,-0.122287 0.59776,-0.218961 0.19451,-0.09668 0.67247,-0.415156 1.06215,-0.707732 0.38967,-0.292577 0.83748,-0.67766 0.99516,-0.855734 0.15768,-0.178076 0.48822,-0.606381 0.73453,-0.951792 0.2463,-0.345409 0.50371,-0.645754 0.57202,-0.667431 0.0683,-0.02168 0.16854,-0.0026 0.22274,0.04239 0.0542,0.04499 0.0986,0.194239 0.0986,0.331668 0,0.137427 -0.10672,0.566647 -0.23706,0.953823 -0.13039,0.387175 -0.22713,0.713893 -0.21499,0.726044 0.0122,0.01213 0.12631,-0.107722 0.25366,-0.266373 0.12738,-0.158652 0.44512,-0.513391 0.70611,-0.78831 0.26099,-0.274917 0.60267,-0.588011 0.75928,-0.695763 0.17672,-0.121593 0.37218,-0.195913 0.51523,-0.195913 0.15316,0 0.28001,0.05271 0.37808,0.157103 0.10373,0.11039 0.1476,0.242822 0.1476,0.445411 0,0.158573 -0.0792,0.563593 -0.176,0.900048 -0.0968,0.336455 -0.15691,0.630823 -0.13358,0.654151 0.0234,0.02332 0.18652,0.0045 0.36266,-0.04197 0.17614,-0.04641 0.52824,-0.221933 0.78244,-0.390037 0.2542,-0.168103 0.93195,-0.764757 1.50612,-1.325898 0.80438,-0.786139 1.07835,-1.015154 1.19393,-0.998017 0.0824,0.01224 0.18204,0.07341 0.22124,0.135934 0.0565,0.09009 0.0115,0.198804 -0.21635,0.523685 -0.15818,0.225494 -0.36363,0.576073 -0.45655,0.779061 -0.0929,0.20299 -0.18724,0.564658 -0.20956,0.803711 -0.0305,0.325811 -0.0138,0.486414 0.0664,0.641423 0.0588,0.113737 0.21488,0.301569 0.34682,0.417415 0.13195,0.115849 0.4466,0.280747 0.69923,0.366443 0.45359,0.153862 0.49969,0.155813 3.6836,0.155813 3.03076,0 3.24825,0.008 3.62378,0.134082 0.21972,0.07374 0.487,0.215821 0.59394,0.315722 0.13302,0.124258 0.19444,0.248021 0.19444,0.391786 0,0.146426 -0.0751,0.293207 -0.24747,0.484075 -0.13611,0.150659 -0.43847,0.380731 -0.67189,0.511269 -0.23343,0.130541 -0.74061,0.356471 -1.12708,0.502069 -0.38647,0.145598 -1.08449,0.372211 -1.55116,0.503583 -0.46668,0.131372 -1.32196,0.350409 -1.90062,0.486746 -0.57867,0.136336 -1.70986,0.365117 -2.51376,0.508398 -0.80388,0.143282 -2.11735,0.354019 -2.9188,0.468302 -0.80146,0.114289 -1.7932,0.25022 -2.20387,0.30208 -0.7057,0.08911 -0.54738,0.09472 2.88488,0.102007 2.49011,0.0053 4.06891,0.03969 5.02307,0.109428 0.76533,0.0559 1.80389,0.15001 2.3079,0.20904 0.504,0.059 1.20655,0.16665 1.56122,0.23917 0.35466,0.0725 0.88922,0.19608 1.18789,0.27458 0.29867,0.0785 0.73551,0.23281 0.97076,0.34292 0.23525,0.1101 0.53462,0.29406 0.66529,0.40878 0.13066,0.11473 0.28182,0.29417 0.33592,0.39878 0.054,0.1046 0.0983,0.3249 0.0983,0.48954 0,0.20756 -0.0521,0.37621 -0.17008,0.55 -0.0935,0.13786 -0.25392,0.32578 -0.35637,0.4176 -0.10247,0.0918 -0.4001,0.2707 -0.66143,0.39751 -0.26133,0.12682 -0.76551,0.32247 -1.1204,0.43479 -0.35487,0.11236 -1.02687,0.28294 -1.49334,0.37914 -0.46646,0.0961 -1.21466,0.22216 -1.66266,0.27993 -0.44801,0.0577 -1.62401,0.1334 -2.61335,0.16807 -0.98935,0.0346 -1.98208,0.0591 -2.20608,0.0542 z m -38.36297,-2.84791 c 0.32987,0.005 1.20042,-0.0223 1.93456,-0.0615 0.73413,-0.0393 1.51104,-0.11514 1.72646,-0.16864 0.21542,-0.0535 0.82634,-0.26827 1.35759,-0.47727 0.53125,-0.20899 1.37769,-0.58366 1.88099,-0.83257 l 0.91508,-0.45259 -0.57569,-0.0593 c -0.31662,-0.0327 -1.84333,-0.0627 -3.39267,-0.0668 -2.57097,-0.007 -2.91481,0.006 -3.937,0.14546 -0.61601,0.0841 -1.44462,0.22628 -1.84136,0.31592 -0.39674,0.0897 -0.95074,0.2585 -1.23111,0.37522 -0.28038,0.11672 -0.56326,0.27132 -0.62864,0.34357 -0.10246,0.11324 -0.10591,0.14708 -0.0246,0.24547 0.0519,0.0628 0.2164,0.16802 0.36574,0.23389 0.14933,0.0659 0.52213,0.17031 0.82845,0.23207 0.30631,0.0618 0.88669,0.13594 1.28971,0.16484 0.40303,0.0289 1.00267,0.057 1.33254,0.0624 z m 6.45967,-0.43302 c 0.18667,-0.0203 1.94305,-0.21774 3.90307,-0.43874 1.96001,-0.221 4.20512,-0.46507 4.98914,-0.54238 0.784,-0.0773 1.47127,-0.15154 1.52728,-0.16497 0.056,-0.0134 -0.40219,-0.0288 -1.01819,-0.0341 -0.61601,-0.005 -1.76148,-0.0381 -2.54548,-0.0729 -0.78401,-0.0348 -2.0694,-0.10042 -2.85644,-0.14586 l -1.43095,-0.0826 -0.40178,0.23892 c -0.22098,0.1314 -0.64614,0.37111 -0.94481,0.53269 -0.29867,0.16158 -0.77214,0.39572 -1.05213,0.52032 l -0.5091,0.22654 z m 9.78836,-1.67189 0.48887,0.0105 -0.11397,-0.307437 c -0.085,-0.229148 -0.0953,-0.337182 -0.0408,-0.424245 0.0403,-0.06424 0.1691,-0.126367 0.2864,-0.138045 0.17058,-0.01699 0.22547,0.01023 0.27422,0.13576 0.0335,0.08634 0.11477,0.286811 0.1805,0.445479 0.0702,0.169308 0.16436,0.288448 0.22802,0.288388 0.0773,-7e-5 0.17985,-0.210112 0.3564,-0.729704 0.13636,-0.40128 0.57368,-1.580298 0.97183,-2.620036 0.39813,-1.039737 0.71205,-1.902254 0.69761,-1.916704 -0.0145,-0.01444 -0.65018,0.111575 -1.41272,0.280052 -0.76254,0.168478 -2.08913,0.439684 -2.94798,0.602685 -0.85884,0.162997 -1.6704,0.315253 -1.80343,0.338345 -0.21424,0.03718 -0.28958,0.113714 -0.65871,0.669167 -0.22923,0.344949 -0.64498,0.890075 -0.92386,1.211391 -0.27889,0.321317 -0.77673,0.810048 -1.1063,1.086069 -0.32959,0.276024 -0.69082,0.569619 -0.80275,0.652437 l -0.2035,0.150579 0.28621,0.0021 c 0.15741,0.0013 0.81414,0.03417 1.45941,0.0733 0.64526,0.03914 1.87576,0.09551 2.73443,0.125289 0.85867,0.0298 1.78122,0.0589 2.0501,0.0646 z m 4.64501,-0.0151 c 1.3204,-0.0258 3.05744,-0.0773 3.86012,-0.11452 0.80268,-0.0372 2.13141,-0.113105 2.95275,-0.168678 0.82135,-0.05557 1.99735,-0.14733 2.61336,-0.203908 0.61601,-0.05657 1.77673,-0.179822 2.57941,-0.273882 0.80268,-0.09406 2.08559,-0.262229 2.85093,-0.373711 0.76535,-0.111483 1.9719,-0.308547 2.68123,-0.437922 0.70935,-0.129373 1.7479,-0.339217 2.30791,-0.46632 0.56,-0.127102 1.30837,-0.311524 1.66304,-0.409827 0.35466,-0.0983 0.98086,-0.287318 1.39153,-0.420032 0.41066,-0.132715 1.00425,-0.361153 1.3191,-0.507641 0.31482,-0.146492 0.67374,-0.343626 0.79758,-0.438081 0.12383,-0.09445 0.22515,-0.199871 0.22515,-0.234263 0,-0.03439 -0.16683,-0.111034 -0.37076,-0.170312 -0.32022,-0.09309 -0.80364,-0.104916 -3.54669,-0.08675 -2.51805,0.01668 -3.25327,0.0018 -3.54927,-0.07196 -0.20534,-0.05115 -0.52607,-0.167811 -0.71274,-0.259254 -0.18667,-0.09144 -0.44134,-0.263414 -0.56595,-0.382162 -0.12461,-0.118745 -0.2908,-0.338084 -0.36932,-0.487418 -0.10742,-0.204172 -0.14228,-0.392101 -0.14081,-0.757664 l 0.002,-0.486148 -0.50565,0.425471 c -0.2781,0.234009 -0.66261,0.520211 -0.85447,0.636002 -0.19184,0.115792 -0.53129,0.257753 -0.75432,0.315469 -0.31261,0.08089 -0.45642,0.08814 -0.62768,0.03163 -0.12219,-0.04033 -0.26807,-0.13887 -0.32419,-0.218986 -0.0561,-0.08012 -0.102,-0.285872 -0.102,-0.45723 0,-0.171356 0.0914,-0.582181 0.20327,-0.912937 0.11178,-0.33076 0.19165,-0.613013 0.17744,-0.627228 -0.0143,-0.01422 -0.21758,0.151401 -0.45192,0.368039 -0.23435,0.216637 -0.74076,0.779356 -1.12538,1.250487 -0.4655,0.570223 -0.78229,0.895985 -0.94753,0.9744 -0.19288,0.09153 -0.28381,0.101593 -0.40777,0.0451 -0.0877,-0.03997 -0.17735,-0.143618 -0.19911,-0.230309 -0.0219,-0.08685 0.0329,-0.385026 0.12173,-0.664131 l 0.16128,-0.506512 -0.3753,0.367197 c -0.20641,0.201958 -0.67195,0.587971 -1.03452,0.857804 -0.36258,0.269836 -0.82794,0.57316 -1.03416,0.674052 -0.22265,0.10893 -0.53506,0.196501 -0.76909,0.215583 -0.31589,0.02576 -0.43721,0.0049 -0.61106,-0.104663 -0.11932,-0.07525 -0.26712,-0.213415 -0.32847,-0.307044 -0.063,-0.09614 -0.1163,-0.328055 -0.12248,-0.532853 l -0.0115,-0.362619 -0.38073,0.279491 c -0.2094,0.153721 -0.62997,0.409156 -0.93459,0.567639 -0.30462,0.15848 -0.72607,0.347399 -0.93657,0.419819 -0.21049,0.07243 -0.54886,0.131675 -0.75192,0.131675 -0.21993,0 -0.44521,-0.0449 -0.55715,-0.111023 -0.10339,-0.06107 -0.24173,-0.20208 -0.30748,-0.313378 -0.0889,-0.150583 -0.1096,-0.285816 -0.0808,-0.528542 0.0213,-0.179402 0.11614,-0.479131 0.21087,-0.666068 0.0948,-0.186937 0.20336,-0.359124 0.2414,-0.382635 0.0381,-0.02353 0.0691,-0.06861 0.0691,-0.100201 0,-0.0316 -0.26728,0.0169 -0.59395,0.107802 -0.32667,0.09089 -0.97577,0.260254 -1.44244,0.37636 -0.46666,0.116105 -0.87624,0.23613 -0.91017,0.266726 -0.0339,0.0306 -0.27302,0.614352 -0.53134,1.297237 -0.25833,0.682885 -0.6933,1.83725 -0.9666,2.565257 -0.27331,0.728007 -0.51889,1.397176 -0.54572,1.487042 l -0.0488,0.1634 z m 4.64073,-7.333343 c 0.0746,-0.0198 0.60029,-0.174099 1.16804,-0.342852 0.56774,-0.168752 1.15774,-0.357028 1.3111,-0.418389 0.20512,-0.08207 0.25882,-0.131586 0.20314,-0.187274 -0.0419,-0.04185 -0.29713,-0.07571 -0.57082,-0.07571 -0.45527,0 -0.54647,0.02585 -1.13359,0.321381 -0.35116,0.17676 -0.74538,0.415317 -0.87605,0.530126 -0.16754,0.14721 -0.19756,0.198124 -0.10177,0.172714 z"
       id="path7" /><text
       xml:space="preserve"
       style="font-style:normal;font-variant:normal;font-weight:300;font-stretch:normal;font-size:3.88056px;line-height:1.12;font-family:'Sarasa Gothic SC';-inkscape-font-specification:'Sarasa Gothic SC, Light';font-variant-ligatures:normal;font-variant-caps:normal;font-variant-numeric:normal;font-variant-east-asian:normal;text-align:center;letter-spacing:0px;word-spacing:-0.0079375px;writing-mode:lr-tb;direction:ltr;text-anchor:middle;fill:#000000;fill-opacity:1;stroke:none;stroke-width:1.6;stroke-linecap:round;stroke-linejoin:round;stroke-dasharray:none;stroke-dashoffset:0;stroke-opacity:1;paint-order:markers stroke fill"
       x="31.396463"
       y="146.65987"
       id="text17"><tspan
         sodipodi:role="line"
         id="tspan17"
         style="font-style:normal;font-variant:normal;font-weight:300;font-stretch:normal;font-size:3.88056px;line-height:1.12;font-family:'Sarasa Gothic SC';-inkscape-font-specification:'Sarasa Gothic SC, Light';font-variant-ligatures:normal;font-variant-caps:normal;font-variant-numeric:normal;font-variant-east-asian:normal;text-align:start;letter-spacing:0px;text-anchor:start;fill:#000000;fill-opacity:1;stroke-width:1.6"
         x="31.396463"
         y="146.65987">有效期限：</tspan><tspan
         sodipodi:role="line"
         style="font-style:normal;font-variant:normal;font-weight:300;font-stretch:normal;font-size:3.88056px;line-height:1.12;font-family:'Sarasa Gothic SC';-inkscape-font-specification:'Sarasa Gothic SC, Light';font-variant-ligatures:normal;font-variant-caps:normal;font-variant-numeric:normal;font-variant-east-asian:normal;text-align:start;letter-spacing:0px;text-anchor:start;fill:#000000;fill-opacity:1;stroke-width:1.6"
         x="31.396463"
         y="151.00609"
         id="tspan18"> 2025 年 4 月  1  日至</tspan><tspan
         sodipodi:role="line"
         style="font-style:normal;font-variant:normal;font-weight:300;font-stretch:normal;font-size:3.88056px;line-height:1.12;font-family:'Sarasa Gothic SC';-inkscape-font-specification:'Sarasa Gothic SC, Light';font-variant-ligatures:normal;font-variant-caps:normal;font-variant-numeric:normal;font-variant-east-asian:normal;text-align:start;letter-spacing:0px;text-anchor:start;fill:#000000;fill-opacity:1;stroke-width:1.6"
         x="31.396463"
         y="155.35233"
         id="tspan19"> 2026 年 3 月 31 日</tspan></text><path
       style="fill:#000000"
       d="m 195.37685,158.01613 0.0172,-0.0279 h 0.0123 0.0123 v 0.0279 0.0279 h -0.0295 -0.0295 z m 0.11067,-0.029 -0.0168,-0.0272 0.0896,-0.0763 0.0896,-0.0763 0.0169,-0.0139 0.0169,-0.0139 0.0563,-0.13924 0.0563,-0.13925 0.0602,-0.009 0.0602,-0.009 -0.005,0.17476 -0.005,0.17477 -0.0831,0.0428 -0.0831,0.0428 -0.0283,0.0314 -0.0283,0.0314 -0.0894,0.0165 -0.0894,0.0164 z m 0.66554,-0.65255 -0.0171,-0.0446 0.0495,-0.0547 0.0495,-0.0547 h 0.0653 0.0653 l -4.8e-4,0.0209 -4.8e-4,0.0209 -0.0622,0.0576 -0.0622,0.0576 -0.035,0.0207 -0.035,0.0207 z m 0.32414,-0.27886 -0.0344,-0.0414 0.0185,-0.0737 0.0185,-0.0737 0.0612,-0.0511 0.0612,-0.0511 0.0305,-9.2e-4 0.0305,-9.3e-4 0.044,-0.0487 0.044,-0.0487 0.009,-0.1114 0.009,-0.1114 0.1237,-0.0139 0.1237,-0.0139 0.0248,-0.0975 0.0248,-0.0975 0.0583,-0.0627 0.0583,-0.0627 h 0.0255 0.0255 l 0.0811,-0.0765 0.081,-0.0765 v -0.0573 -0.0573 l 0.086,-0.11688 0.086,-0.11688 h 0.0236 0.0236 l 0.0159,-0.0502 0.0159,-0.0502 0.11052,-0.0682 0.11052,-0.0682 7.5e-4,-0.093 7.5e-4,-0.093 0.0627,-0.0537 0.0627,-0.0537 0.0909,-0.0401 0.0909,-0.0401 0.015,-0.05 0.0149,-0.05 0.0403,-0.0789 0.0404,-0.0788 v -0.043 -0.043 l 0.14011,-0.13576 0.14011,-0.13575 0.0971,-0.16562 0.0971,-0.16562 0.097,-0.10287 0.097,-0.10287 v -0.0239 -0.024 l 0.0584,-0.0583 0.0584,-0.0584 0.092,-0.1714 0.092,-0.1714 0.11417,-0.0784 0.11418,-0.0784 v -0.0782 -0.0782 l 0.0565,-0.1219 0.0566,-0.1219 0.034,-0.0556 0.034,-0.0556 0.0766,-0.0916 0.0766,-0.0916 v -0.0561 -0.0561 l 0.0455,-0.0891 0.0455,-0.0891 0.038,-0.0223 0.038,-0.0223 v -0.0908 -0.0908 l 0.0836,-0.0618 0.0835,-0.0618 v -0.0515 -0.0514 l 0.041,-0.0341 0.041,-0.0341 0.0178,-0.095 0.0178,-0.095 0.0481,-0.0944 0.0481,-0.0944 -0.0119,-0.0808 -0.0119,-0.0808 -0.11346,-0.0492 -0.11346,-0.0491 -0.12788,-0.0413 -0.12788,-0.0413 -0.0557,-0.0227 -0.0557,-0.0227 -0.1671,-0.0641 -0.1671,-0.0641 -0.14149,-0.0789 -0.1415,-0.0789 h -0.11794 -0.11794 l -0.0603,-0.0323 -0.0603,-0.0323 -0.0513,-0.0652 -0.0513,-0.0652 h -0.0574 -0.0574 l -0.11462,-0.0332 -0.11463,-0.0332 -0.17691,-0.10605 -0.1769,-0.10604 h -0.058 -0.058 l -0.0575,-0.05 -0.0575,-0.05 -0.1114,-0.0369 -0.1114,-0.0369 -0.0602,-0.0549 -0.0602,-0.0549 -0.19045,-0.0508 -0.19045,-0.0508 -0.10613,-0.0452 -0.10612,-0.0452 -0.11667,-0.129 -0.11668,-0.12901 -0.38989,-0.38527 -0.38989,-0.38526 -0.0279,-0.0305 -0.0279,-0.0305 -0.19494,-0.20469 -0.19495,-0.20469 -0.0588,-0.078 -0.0588,-0.078 -0.0207,-0.0696 -0.0207,-0.0696 -0.0448,-0.0696 -0.0448,-0.0696 -0.0776,-0.16264 -0.0776,-0.16263 v -0.0236 -0.0236 l -0.15939,-0.29415 -0.15939,-0.29415 h -0.0216 -0.0216 l -1.7e-4,0.0348 -1.8e-4,0.0348 -0.0834,0.0474 -0.0834,0.0474 -0.031,0.0779 -0.031,0.0779 -0.0386,0.0739 -0.0386,0.0739 v 0.0488 0.0488 l -0.0656,0.0862 -0.0656,0.0862 -0.15878,0.32547 -0.15878,0.32546 -0.11261,0.12013 -0.11261,0.12012 -0.0526,0.11468 -0.0526,0.11468 -0.0421,0.0349 -0.0421,0.0349 v 0.0284 0.0284 l -0.13229,0.1554 -0.13228,0.15539 -0.0937,0.0888 -0.0937,0.0888 0.0185,0.0299 0.0185,0.0299 -0.17546,0.19231 -0.17546,0.19232 -0.0862,0.12138 -0.0862,0.12138 -0.067,0.032 -0.067,0.032 -0.0889,0.0334 -0.0889,0.0334 -0.018,0.082 -0.018,0.082 -0.0738,0.0685 -0.0738,0.0685 h -0.11808 -0.11808 l -0.0575,0.11275 -0.0575,0.11276 -0.0405,0.0155 -0.0405,0.0155 v 0.0356 0.0356 l -0.0766,0.0503 -0.0766,0.0503 -0.33419,-0.007 -0.33419,-0.007 -0.14918,-0.043 -0.14919,-0.043 -0.17196,-0.16265 -0.17197,-0.16264 -0.0529,-0.14706 -0.0529,-0.14707 -0.002,-0.2514 -0.002,-0.2514 0.12365,-0.002 0.12365,-0.002 0.0286,-0.0453 0.0286,-0.0453 -0.0617,-0.0657 -0.0617,-0.0657 v -0.0185 -0.0185 l 0.0696,0.0317 0.0696,0.0317 v 0.0266 0.0266 l 0.0561,-0.0147 0.0561,-0.0147 0.0275,0.0514 0.0275,0.0514 v 0.0311 0.0311 l -0.0836,0.0291 -0.0836,0.0291 v 0.0251 0.0251 h 0.0293 0.0293 l 0.0291,0.0836 0.0291,0.0836 h 0.023 0.023 l 0.0344,0.10443 0.0344,0.10444 0.0583,0.0902 0.0583,0.0902 0.14791,0.0753 0.14792,0.0753 0.0139,0.0224 0.0139,0.0224 h 0.0534 0.0534 l 0.0438,-0.0668 0.0438,-0.0668 0.0779,-0.0323 0.0779,-0.0323 0.071,0.0178 0.071,0.0178 0.16663,-0.16243 0.16663,-0.16242 0.0851,-0.0766 0.0852,-0.0766 h 0.0431 0.0431 l 0.082,-0.16014 0.082,-0.16013 0.20123,-0.1671 0.20123,-0.16709 0.0878,-0.0901 0.0878,-0.0901 0.10732,-0.21626 0.10733,-0.21626 0.0362,-0.11927 0.0362,-0.11926 0.0788,-0.0663 0.0788,-0.0663 0.0685,-0.14078 0.0685,-0.14078 0.0418,-0.0145 0.0418,-0.0145 0.0766,-0.071 0.0766,-0.0711 v -0.10863 -0.10862 l 0.0278,-0.0172 0.0279,-0.0172 v -0.063 -0.063 l 0.0689,-0.0599 0.0689,-0.0599 0.019,-0.0774 0.019,-0.0774 0.10011,-0.15343 0.10011,-0.15343 0.0313,-0.0694 0.0313,-0.0694 0.0313,-0.0779 0.0313,-0.0779 v -0.0506 -0.0506 l -0.17406,-0.0145 -0.17406,-0.0145 -0.18209,-0.0594 -0.18208,-0.0594 -0.16603,-0.006 -0.16603,-0.006 -0.009,-0.0905 -0.009,-0.0905 0.0784,-0.0278 0.0784,-0.0278 0.0477,-0.0274 0.0477,-0.0274 0.37609,-0.0145 0.37609,-0.0145 0.11352,0.0391 0.11352,0.0391 0.0374,-0.0598 0.0374,-0.0598 0.0182,-0.10364 0.0182,-0.10363 0.0476,-0.0356 0.0476,-0.0356 0.0462,-0.0835 0.0462,-0.0836 0.0201,-0.1114 0.0201,-0.1114 0.0192,-0.0279 0.0192,-0.0279 0.0326,-0.11139 0.0326,-0.1114 0.0429,-0.21892 0.0429,-0.21892 0.044,-0.0851 0.044,-0.0851 -0.0143,-0.12711 -0.0143,-0.12711 0.053,-0.10389 0.053,-0.10389 v -0.0325 -0.0326 l -0.2576,0.019 -0.25761,0.019 -0.0448,0.0524 -0.0448,0.0525 -0.2476,0.10133 -0.24761,0.10133 -0.32723,0.0993 -0.32723,0.0992 v 0.0383 0.0383 l -0.0894,0.0543 -0.0893,0.0543 -0.18218,0.0536 -0.18217,0.0536 -0.0737,0.0168 -0.0737,0.0168 -0.11423,0.0954 -0.11424,0.0954 -0.17751,0.019 -0.17752,0.019 -0.0553,-0.0296 -0.0553,-0.0296 -0.0981,0.0159 -0.0982,0.0159 -0.11464,-0.11126 -0.11464,-0.11125 -0.004,-0.052 -0.004,-0.052 -0.005,-0.11715 -0.005,-0.11715 0.0574,-0.11952 0.0574,-0.11953 0.0836,-0.0243 0.0836,-0.0243 0.0719,-0.0372 0.072,-0.0372 0.0812,0.0214 0.0812,0.0215 0.0418,0.12398 0.0418,0.12398 0.0235,0.036 0.0235,0.036 0.0879,-0.0187 0.0879,-0.0187 0.0425,-0.0374 0.0425,-0.0374 0.12459,-0.0197 0.1246,-0.0197 0.1114,-0.0567 0.11139,-0.0567 0.0139,-0.0154 0.0139,-0.0154 0.10538,-0.0487 0.10538,-0.0487 h 0.027 0.027 l 0.14433,-0.0696 0.14432,-0.0696 h 0.0399 0.0399 l 0.0951,-0.0836 0.0952,-0.0836 h 0.0931 0.0931 l 0.0975,-0.0407 0.0975,-0.0407 0.0164,-0.0428 0.0164,-0.0428 h 0.0853 0.0854 l 0.13936,-0.0706 0.13937,-0.0706 0.0254,0.0157 0.0254,0.0157 0.1054,-0.0565 0.1054,-0.0565 h 0.10053 0.10053 l 0.0495,-0.0547 0.0495,-0.0547 -0.0155,-0.0405 -0.0155,-0.0405 0.0419,-0.0161 0.0419,-0.0161 -0.0179,-0.0563 -0.0179,-0.0563 0.0324,-0.0981 0.0324,-0.0981 0.0143,-0.18692 0.0143,-0.18692 0.007,-0.8494 0.007,-0.84941 -0.038,-0.0939 -0.038,-0.0939 v -0.082 -0.082 l -0.028,-0.0524 -0.028,-0.0524 -0.004,-0.0781 -0.004,-0.0781 -0.0543,-0.11883 -0.0544,-0.11883 -0.0148,-0.11052 -0.0148,-0.11051 -0.0382,-0.0317 -0.0382,-0.0317 v -0.0341 -0.0341 l -0.051,-0.0462 -0.051,-0.0462 -0.12528,0.0172 -0.12528,0.0172 -0.0882,-0.0456 -0.0882,-0.0456 v -0.0271 -0.0271 l -0.0627,-4.2e-4 -0.0627,-4.3e-4 -0.033,-0.021 -0.033,-0.021 0.0158,-0.11782 0.0158,-0.11782 h 0.0626 0.0625 l 0.0347,-0.0418 0.0347,-0.0418 h 0.0548 0.0549 l 0.074,-0.0579 0.074,-0.0579 0.0141,-0.0744 0.0141,-0.0744 0.0709,-0.008 0.0709,-0.008 0.16406,0.0988 0.16405,0.0988 h 0.0173 0.0173 l 0.0628,0.085 0.0628,0.0849 0.0115,0.0613 0.0115,0.0613 0.0519,0.0427 0.0519,0.0427 0.0153,0.0687 0.0153,0.0687 0.0892,0.27849 0.0892,0.2785 0.0519,0.38989 0.0519,0.38989 0.0465,0.19008 0.0465,0.19008 -0.0321,0.0704 -0.0321,0.0704 0.0171,0.0914 0.0172,0.0914 0.11434,0.0183 0.11433,0.0183 0.12684,0.13549 0.12684,0.13549 0.0975,0.0202 0.0975,0.0202 0.097,0.0659 0.097,0.0659 h 0.0389 0.0389 l 0.13567,0.0975 0.13568,0.0975 h 0.0308 0.0308 l 0.12423,0.13228 0.12424,0.13228 0.10502,0.13925 0.10502,0.13925 0.0882,0.1671 0.0882,0.16709 -0.084,0.0696 -0.084,0.0696 -5e-4,0.0696 -5e-4,0.0696 -0.0782,0.0943 -0.0782,0.0943 -0.14004,-0.0465 -0.14004,-0.0465 -0.1361,0.0314 -0.13609,0.0314 -0.13925,0.023 -0.13925,0.023 -0.27415,0.0445 -0.27416,0.0445 -0.0512,0.0274 -0.0512,0.0274 h -0.0659 -0.0659 l -0.0334,0.0334 -0.0334,0.0334 v 0.0489 0.0489 l -0.0696,0.10259 -0.0696,0.1026 v 0.14832 0.14833 l -0.0836,0.0855 -0.0836,0.0855 v 0.0282 0.0282 l -0.0975,0.20819 -0.0975,0.2082 v 0.0545 0.0545 l -0.0585,0.18857 -0.0585,0.18857 -0.079,0.18102 -0.079,0.18102 -0.0179,0.0836 -0.0179,0.0836 -0.0303,0.0836 -0.0302,0.0836 -0.0274,0.0357 -0.0274,0.0358 -0.006,0.0826 -0.007,0.0826 h 0.0214 0.0214 l 0.0151,0.0578 0.0151,0.0578 0.0574,0.015 0.0575,0.015 -0.0134,0.0216 -0.0134,0.0216 0.0673,0.0441 0.0673,0.0441 0.0199,0.0634 0.0198,0.0634 0.0753,0.1114 0.0753,0.1114 0.03,0.0883 0.0301,0.0883 0.051,0.0546 0.051,0.0546 0.0519,0.066 0.0519,0.066 0.0539,0.11836 0.0539,0.11836 h 0.0255 0.0255 l 0.0288,0.10701 0.0288,0.10701 0.0558,0.0643 0.0558,0.0643 v 0.0217 0.0217 l 0.0543,0.0172 0.0543,0.0172 0.0186,0.0587 0.0186,0.0587 0.12204,0.12736 0.12204,0.12735 v 0.0334 0.0334 l 0.0487,0.0155 0.0487,0.0155 0.11633,0.1047 0.11634,0.1047 0.0438,0.0359 0.0438,0.0359 v 0.0546 0.0546 h 0.0279 0.0279 l 0.0512,0.0487 0.0512,0.0487 0.0532,0.034 0.0533,0.034 0.1174,0.0546 0.11741,0.0546 0.0441,0.0368 0.0441,0.0368 0.14828,0.13925 0.14828,0.13924 0.13483,0.0696 0.13482,0.0696 0.3136,0.18798 0.31359,0.18799 h 0.0371 0.0371 l 0.0541,0.0409 0.0541,0.0409 0.0619,8.9e-4 0.0619,8.9e-4 0.13303,0.0597 0.13303,0.0597 0.15317,0.0751 0.15317,0.0751 0.19614,0.10237 0.19613,0.10238 0.0583,0.0112 0.0583,0.0112 0.0519,0.027 0.0519,0.027 0.15562,0.0448 0.15562,0.0448 h 0.0429 0.0429 l 0.0347,0.0418 0.0347,0.0418 h 0.0792 0.0791 l 0.0288,-0.0539 0.0288,-0.0539 v -0.0547 -0.0547 l 0.0836,-0.16839 0.0836,-0.16839 v -0.0339 -0.0339 l 0.0688,-0.11738 0.0688,-0.11739 0.0407,-0.12178 0.0407,-0.12178 0.0426,-0.1671 0.0426,-0.16709 0.0125,-0.10076 0.0125,-0.10076 0.0732,-0.15472 0.0732,-0.15472 -0.007,-0.0968 -0.007,-0.0968 0.0449,-0.10726 0.0449,-0.10726 0.0212,-0.0557 0.0212,-0.0557 0.006,-0.10305 0.006,-0.10305 0.0582,-0.1556 0.0582,-0.15561 4.8e-4,-0.10339 4.8e-4,-0.10339 0.057,-0.20887 0.057,-0.20887 0.0239,-0.19494 0.0239,-0.19495 0.0464,-0.23672 0.0464,-0.23672 0.005,-0.27849 0.005,-0.2785 0.0188,-0.0289 0.0188,-0.0289 0.006,-0.30527 0.006,-0.30527 -0.0131,-0.12835 -0.0132,-0.12834 -0.1191,-0.13826 -0.11909,-0.13826 -0.15738,-0.10791 -0.15738,-0.1079 -0.15415,-0.18248 -0.15416,-0.18248 -0.0503,-0.21643 -0.0503,-0.21643 0.0304,-0.0871 0.0304,-0.0871 v -0.0669 -0.0669 l 0.0905,-0.0373 0.0905,-0.0373 0.14185,-0.019 0.14186,-0.019 0.17536,0.0318 0.17537,0.0318 0.0948,0.0746 0.0948,0.0746 0.0926,0.13925 0.0926,0.13925 0.0209,0.0696 0.0209,0.0696 0.0374,0.0428 0.0374,0.0428 0.0401,0.16608 0.0401,0.16608 0.0438,0.11986 0.0438,0.11987 -0.0312,0.05 -0.0312,0.05 0.0185,0.0738 0.0185,0.0738 h 0.044 0.044 l 0.0878,0.0379 0.0878,0.0379 0.25372,0.0609 0.25372,0.0609 0.23364,-0.0303 0.23364,-0.0303 0.33907,-0.0386 0.33907,-0.0386 0.0508,-0.0261 0.0508,-0.0261 0.27849,-0.0622 0.2785,-0.0622 0.0835,-0.0363 0.0836,-0.0363 0.12532,-0.0183 0.12533,-0.0183 0.22279,-0.0981 0.2228,-0.0981 0.0453,-0.0239 0.0453,-0.0239 0.10121,-0.019 0.10121,-0.019 0.0153,-0.0247 0.0153,-0.0247 h 0.0627 0.0627 l 0.0541,-0.0409 0.0541,-0.0409 0.0557,-10e-4 0.0557,-0.001 0.0798,-0.0416 0.0798,-0.0416 0.0455,-8.9e-4 0.0456,-8.9e-4 0.0541,-0.0409 0.0541,-0.0409 h 0.053 0.053 l 0.0739,-0.0382 0.0739,-0.0382 0.12099,-0.0593 0.12099,-0.0593 h 0.0493 0.0493 l 0.0708,-0.0557 0.0708,-0.0557 0.0513,-3.3e-4 0.0513,-3.4e-4 0.1212,-0.0693 0.1212,-0.0693 h 0.0755 0.0755 l 0.0748,-0.0781 0.0748,-0.0781 v -0.0602 -0.0602 l -0.0611,-0.0327 -0.0611,-0.0327 -0.25224,0.0174 -0.25225,0.0174 -0.13925,0.0452 -0.13924,0.0452 -0.0557,0.009 -0.0557,0.009 -0.031,0.002 -0.031,0.002 -0.10006,0.0795 -0.10007,0.0795 -0.14352,0.017 -0.14353,0.017 -0.13168,0.0845 -0.13168,0.0845 -0.0393,0.001 -0.0393,0.001 -0.15317,0.0824 -0.15318,0.0824 h -0.05 l -0.05,1e-5 -0.0693,0.0693 -0.0693,0.0693 -0.0756,0.0165 -0.0756,0.0165 -0.0836,0.0288 -0.0835,0.0288 -0.15318,0.0703 -0.15317,0.0703 -0.13925,0.0135 -0.13924,0.0135 -0.0366,0.0292 -0.0366,0.0292 -0.14348,0.0486 -0.14348,0.0486 -0.25378,0.002 -0.25378,0.002 -0.119,-0.0575 -0.119,-0.0575 0.0111,-0.095 0.0111,-0.095 -0.0266,-0.009 -0.0266,-0.009 0.0171,-0.0682 0.0171,-0.0682 0.0966,-0.052 0.0966,-0.052 -0.0118,-0.0316 -0.0118,-0.0316 0.0906,-0.0913 0.0905,-0.0913 0.16821,-0.13154 0.16821,-0.13154 0.10032,-0.0792 0.10032,-0.0792 0.0735,-0.13504 0.0735,-0.13503 0.0556,-0.0176 0.0556,-0.0176 0.0473,-0.0745 0.0473,-0.0745 0.028,-0.0196 0.028,-0.0195 0.0817,-0.064 0.0817,-0.064 0.0859,-0.0897 0.0859,-0.0898 0.0975,-0.0714 0.0975,-0.0714 0.15317,-0.1486 0.15318,-0.1486 0.1063,-0.0718 0.1063,-0.0718 0.17981,-0.16151 0.1798,-0.16151 0.22911,-0.22436 0.2291,-0.22437 0.0515,-0.0593 0.0515,-0.0593 -0.0166,-0.0269 -0.0166,-0.0269 -0.13232,0.0402 -0.13232,0.0402 -0.0519,-0.0133 -0.0519,-0.0132 -0.0455,0.0239 -0.0455,0.0239 -0.19494,0.057 -0.19495,0.057 -0.1671,0.0177 -0.16709,0.0177 -0.0748,0.0359 -0.0748,0.0358 -0.2455,0.0756 -0.24549,0.0756 -0.0836,0.0762 -0.0836,0.0762 -0.0975,0.044 -0.0975,0.044 -0.15317,0.0594 -0.15317,0.0594 -0.25065,0.0684 -0.25064,0.0684 -0.19495,0.0436 -0.19495,0.0436 -0.0557,0.0356 -0.0557,0.0357 -0.0557,-0.0219 -0.0557,-0.0218 -0.10149,-0.002 -0.10149,-0.002 -0.0819,-0.0766 -0.0819,-0.0766 -0.0194,-0.12147 -0.0194,-0.12148 0.0285,-0.0344 0.0285,-0.0344 0.11156,-0.0503 0.11156,-0.0503 v -0.0229 -0.0229 l 0.0796,-0.0412 0.0796,-0.0412 0.033,-0.0779 0.033,-0.0779 0.0985,-0.0696 0.0985,-0.0696 0.0949,-0.0911 0.0949,-0.0911 0.0842,-0.0169 0.0842,-0.0168 0.0438,-0.0923 0.0438,-0.0923 0.19421,-0.18962 0.1942,-0.18963 0.054,-0.0586 0.054,-0.0586 v -0.0413 -0.0413 l 0.0696,-0.0317 0.0696,-0.0317 v -0.0251 -0.0251 l 0.0811,-0.0336 0.0811,-0.0336 0.0178,-0.0709 0.0178,-0.0709 -0.062,-0.066 -0.062,-0.066 h -0.0631 -0.0631 l -0.0156,-0.0252 -0.0156,-0.0252 -0.0558,0.0146 -0.0558,0.0146 -0.0423,-0.0351 -0.0423,-0.0351 -0.18141,0.0169 -0.18141,0.0169 -0.0755,0.0386 -0.0755,0.0386 -0.0879,0.0459 -0.0878,0.0459 h -0.0571 -0.0571 l -0.071,-0.0711 -0.0711,-0.0711 -0.0555,-0.10885 -0.0555,-0.10886 v -0.0301 -0.0301 l 0.0348,-0.0431 0.0348,-0.0431 0.11139,-0.10855 0.1114,-0.10854 0.0332,-3.5e-4 0.0332,-3.5e-4 0.0402,-0.0573 0.0402,-0.0573 0.17725,-0.003 0.17725,-0.003 0.15686,0.0159 0.15685,0.0159 0.0938,0.0416 0.0938,0.0416 0.13925,0.035 0.13924,0.035 0.0265,0.0237 0.0265,0.0237 h 0.0845 0.0845 l 0.14011,0.0734 0.14011,0.0734 0.091,0.1186 0.091,0.1186 0.0162,0.13666 0.0162,0.13666 -0.0981,0.15337 -0.0981,0.15336 -0.10029,0.0959 -0.10029,0.0959 -0.13205,0.12879 -0.13206,0.12878 -0.15665,0.12631 -0.15665,0.1263 -0.0801,0.0404 -0.0801,0.0404 -0.0761,0.0182 -0.0761,0.0182 -0.0423,0.0818 -0.0423,0.0818 v 0.0849 0.0849 h 0.0427 0.0427 l 0.1374,-0.0696 0.13739,-0.0696 h 0.057 0.057 l 0.0484,-0.0244 0.0484,-0.0244 0.11139,-0.035 0.1114,-0.0351 0.0739,-0.0519 0.0739,-0.0519 h 0.0687 0.0686 l 0.17436,-0.0557 0.17435,-0.0557 h 0.0411 0.0411 l 0.13861,-0.0696 0.13862,-0.0696 h 0.0478 0.0478 l 0.0298,-0.0298 0.0298,-0.0298 0.1638,-0.027 0.1638,-0.027 0.18102,-0.0272 0.18102,-0.0272 0.2858,-0.0121 0.2858,-0.0121 0.0276,-0.017 0.0276,-0.0171 0.11951,0.0179 0.1195,0.0179 0.0893,0.078 0.0894,0.078 0.0417,0.0998 0.0417,0.0998 v 0.0384 0.0384 l -0.2182,0.22657 -0.2182,0.22657 -0.10821,0.0452 -0.1082,0.0452 -0.14007,0.12602 -0.14007,0.12601 -0.14188,0.0801 -0.14188,0.0801 -0.11381,0.11814 -0.11381,0.11814 -0.0682,0.0624 -0.0682,0.0624 -0.11247,0.0639 -0.11247,0.0639 -0.15679,0.13535 -0.15679,0.13536 -0.10306,0.0747 -0.10306,0.0747 -0.2283,0.24407 -0.22829,0.24408 -0.11982,0.0769 -0.11983,0.0769 -0.0992,0.10863 -0.0992,0.10864 -0.0577,0.0417 -0.0577,0.0417 -0.0159,0.0875 -0.0159,0.0875 0.0708,0.0135 0.0708,0.0135 0.18265,-0.0662 0.18265,-0.0662 0.0307,-0.0237 0.0307,-0.0237 0.15317,-0.0486 0.15317,-0.0486 0.0788,-0.039 0.0788,-0.039 h 0.0409 0.0409 l 0.0891,-0.048 0.0891,-0.048 0.0429,-0.004 0.0429,-0.004 0.0964,-0.0417 0.0964,-0.0417 0.13426,-0.0324 0.13426,-0.0324 0.0305,0.0188 0.0305,0.0188 0.0581,-0.0687 0.058,-0.0686 0.23672,-0.0642 0.23672,-0.0642 0.1114,-0.0384 0.11139,-0.0384 0.18102,-0.0308 0.18102,-0.0308 0.0696,0.003 0.0696,0.002 0.2228,0.0449 0.22279,0.0449 0.17353,0.17102 0.17354,0.17101 5.2e-4,0.0698 5.3e-4,0.0698 -0.0863,0.0382 -0.0863,0.0382 0.0164,0.082 0.0164,0.082 -0.04,0.0774 -0.0401,0.0774 -0.0956,0.0807 -0.0956,0.0807 -0.1503,0.12078 -0.15029,0.12077 -0.15238,0.054 -0.15237,0.054 -0.18102,0.0421 -0.18103,0.042 -0.19962,0.0686 -0.19962,0.0687 h -0.0904 -0.0904 l -0.15562,0.044 -0.15562,0.044 -0.13924,0.0454 -0.13925,0.0454 -0.13925,0.0184 -0.13924,0.0184 -0.2785,0.1037 -0.27849,0.1037 -0.19495,0.0538 -0.19494,0.0538 -0.20888,0.0162 -0.20887,0.0162 -0.20887,0.0506 -0.20887,0.0506 -0.22279,0.0175 -0.2228,0.0175 -0.0418,0.0107 -0.0418,0.0107 -0.27849,0.016 -0.27849,0.016 -0.13671,-0.042 -0.13672,-0.042 h -0.12862 -0.12862 l -0.0581,0.0407 -0.0581,0.0407 -0.0344,0.083 -0.0344,0.083 0.0118,0.16183 0.0118,0.16183 -0.0233,0.33955 -0.0233,0.33954 -0.0652,0.27594 -0.0652,0.27594 0.0131,0.0895 0.0131,0.0895 -0.0417,0.10264 -0.0417,0.10265 -0.0334,0.12532 -0.0334,0.12533 -0.0271,0.13924 -0.0271,0.13925 -0.0205,0.15317 -0.0206,0.15317 -0.0457,0.0696 -0.0457,0.0696 -0.0196,0.1114 -0.0196,0.11139 -0.0521,0.10967 -0.0521,0.10967 v 0.1212 0.1212 l -0.0605,0.11725 -0.0605,0.11725 0.005,0.0725 0.005,0.0725 -0.0701,0.10331 -0.0701,0.1033 -0.0267,0.18855 -0.0267,0.18854 -0.0367,0.0673 -0.0367,0.0673 -0.0592,0.0941 -0.0592,0.0941 0.0151,0.0932 0.0151,0.0932 -0.0473,0.0912 -0.0473,0.0913 -0.0393,0.0696 -0.0393,0.0696 -4.1e-4,0.05 -4.1e-4,0.05 -0.0842,0.0474 -0.0842,0.0474 0.008,0.0547 0.008,0.0547 0.0975,0.0236 0.0975,0.0236 0.12532,0.0276 0.12532,0.0276 0.13925,0.023 0.13925,0.023 0.15598,0.0318 0.15598,0.0318 0.38708,0.007 0.38708,0.007 0.0672,0.0371 0.0671,0.0371 0.17691,-0.0181 0.17691,-0.0181 0.0282,0.0742 0.0282,0.0742 -0.0432,0.0659 -0.0432,0.0659 h -0.0497 -0.0497 l -0.0541,-0.0409 -0.0541,-0.0409 -0.0975,-7e-4 -0.0975,-7.1e-4 -0.0827,0.0545 -0.0827,0.0545 -0.0565,-0.012 -0.0565,-0.012 -0.26737,-0.0143 -0.26736,-0.0143 -0.1643,-0.0403 -0.1643,-0.0403 -0.20887,-0.0187 -0.20888,-0.0187 -0.22279,0.004 -0.2228,0.004 -0.0894,0.10292 -0.0894,0.10293 -0.0568,0.11805 -0.0567,0.11806 v 0.0573 0.0573 l -0.1156,0.21452 -0.1156,0.21452 -0.0306,0.0279 -0.0306,0.0279 -0.0766,0.11776 -0.0766,0.11777 v 0.0401 0.0401 l -0.0519,0.12067 -0.0519,0.12067 -0.12493,0.13925 -0.12494,0.13924 -0.0947,0.1772 -0.0947,0.17719 -0.1313,0.14307 -0.13129,0.14308 -0.0323,0.0943 -0.0323,0.0943 -0.0679,0.10003 -0.0679,0.10004 -0.022,0.0145 -0.022,0.0145 -0.0333,0.0632 -0.0333,0.0632 -0.11412,0.1526 -0.11413,0.1526 h -0.0252 -0.0252 l -0.0683,0.0737 -0.0683,0.0737 v 0.05 0.05 l -0.13925,0.15912 -0.13925,0.15913 v 0.0326 0.0326 l -0.0644,0.0606 -0.0645,0.0606 h -0.026 -0.0261 l -0.0766,0.096 -0.0766,0.096 v 0.0378 0.0378 l -0.0858,0.11663 -0.0858,0.11664 -0.0909,0.0431 -0.0909,0.0431 -0.093,0.12412 -0.093,0.12412 -0.0931,0.0627 -0.0931,0.0628 -0.0162,0.0624 -0.0162,0.0624 -0.0916,0.0769 -0.0917,0.0769 -0.11482,0.0788 -0.11482,0.0788 -0.0379,0.0906 -0.0378,0.0906 -0.0768,0.0604 -0.0768,0.0604 h -0.0207 -0.0207 z m 5.3374,-12.9016 -0.0159,-0.0766 -0.0335,-0.23072 -0.0335,-0.23072 -0.12194,-0.0823 -0.12194,-0.0823 -0.066,-0.0166 -0.066,-0.0166 -0.0207,0.065 -0.0207,0.065 0.003,0.0851 0.003,0.0851 0.0498,0.11072 0.0498,0.11071 0.1114,0.0977 0.1114,0.0977 0.0696,0.0461 0.0696,0.0461 0.0241,0.001 0.0241,0.001 z m 2.94365,-0.57787 0.016,-0.0418 h -0.015 -0.015 l -0.0418,0.0418 -0.0418,0.0418 h 0.0408 0.0408 z m -8.74086,-0.67358 0.0835,-0.0157 0.0301,-0.0238 0.0301,-0.0238 0.31645,-0.0278 0.31645,-0.0278 0.0344,-0.0354 0.0344,-0.0354 -0.0159,-0.0806 -0.0159,-0.0806 -0.11435,-0.11284 -0.11435,-0.11285 -0.0486,-0.0711 -0.0486,-0.0711 -1.9e-4,-0.10469 -1.8e-4,-0.10469 -0.13228,-0.0854 -0.13229,-0.0854 -0.15317,-0.17625 -0.15317,-0.17626 -0.0389,-0.003 -0.0389,-0.003 0.016,0.24711 0.016,0.24711 -0.0259,0.0259 -0.0259,0.0259 -0.0247,0.19648 -0.0247,0.19648 0.014,0.0735 0.0141,0.0735 -0.045,0.1376 -0.045,0.1376 v 0.0379 0.0379 l 0.0348,0.0352 0.0348,0.0352 0.0696,-0.0173 0.0696,-0.0173 z m -7.054,10.95843 -0.085,-0.092 -0.19713,-0.23037 -0.19714,-0.23038 v -0.0357 -0.0357 l -0.0782,-0.12381 -0.0782,-0.12381 -0.079,-0.24369 -0.079,-0.24368 h -0.025 -0.025 l 0.006,-0.0348 0.006,-0.0348 -0.0371,-0.0836 -0.0371,-0.0836 -0.066,-0.14621 -0.066,-0.14621 h -0.0215 -0.0215 l -0.0355,-0.17406 -0.0355,-0.17406 -0.10237,-0.15269 -0.10237,-0.1527 -0.0458,-0.0513 -0.0458,-0.0513 -0.0594,-0.16286 -0.0594,-0.16286 -0.11263,-0.13447 -0.11263,-0.13447 -0.0677,-0.13136 -0.0677,-0.13136 v -0.0384 -0.0384 l -0.0557,-0.0504 -0.0557,-0.0504 v -0.0349 -0.0349 l -0.11336,-0.21841 -0.11335,-0.21841 -0.0659,-0.0696 -0.0659,-0.0696 -0.0585,-0.1369 -0.0585,-0.1369 -0.0374,-0.0302 -0.0374,-0.0302 -0.0191,-0.0819 -0.0191,-0.0819 -0.0813,-0.10269 -0.0813,-0.10269 -0.0613,-0.16353 -0.0613,-0.16354 -0.0644,-0.0787 -0.0644,-0.0787 v -0.0362 -0.0362 l -0.0414,-0.0344 -0.0414,-0.0343 -0.0983,-0.19652 -0.0983,-0.19651 -0.0333,-0.0401 -0.0333,-0.0401 -0.0345,-0.0597 -0.0345,-0.0597 -0.0484,-0.1114 -0.0484,-0.1114 -0.15227,-0.29241 -0.15227,-0.29242 -0.0343,-0.0642 -0.0343,-0.0642 -0.0519,-0.0393 -0.0519,-0.0393 -0.0348,-8.9e-4 -0.0348,-8.8e-4 v 0.0427 0.0428 l -0.0415,0.0634 -0.0415,0.0634 0.004,0.1097 0.004,0.1097 -0.0224,0.20887 -0.0224,0.20887 -0.0248,0.0483 -0.0248,0.0483 -0.0121,0.24413 -0.0121,0.24414 -0.0466,0.29595 -0.0466,0.29595 0.0189,0.1009 0.0189,0.10091 h 0.0248 0.0248 l 0.009,-0.0905 0.009,-0.0905 0.0579,-0.008 0.0579,-0.008 0.11802,0.12802 0.11801,0.12803 -0.011,0.0334 -0.011,0.0334 -0.0585,0.009 -0.0585,0.009 -0.0328,0.0395 -0.0328,0.0395 0.0308,0.0883 0.0308,0.0883 v 0.0764 0.0764 l -0.0394,0.0151 -0.0394,0.0151 0.0153,0.11382 0.0153,0.11382 -0.0434,0.0481 -0.0434,0.0481 -0.0392,0.11413 -0.0392,0.11412 -0.0927,0.11538 -0.0927,0.11539 -0.12543,0.0977 -0.12544,0.0977 h -0.0382 -0.0382 l -0.0756,-0.0483 -0.0756,-0.0482 -0.0393,-0.0534 -0.0393,-0.0534 -0.063,-0.12442 -0.063,-0.12442 0.0116,-0.0315 0.0116,-0.0315 0.0142,-0.15317 0.0142,-0.15317 0.0174,-0.12484 0.0174,-0.12485 0.0452,-0.0349 0.0452,-0.0349 -0.0575,-0.0491 -0.0575,-0.0491 0.004,-0.0279 0.004,-0.0279 0.10109,-0.20887 0.10109,-0.20887 0.0176,-0.29242 0.0176,-0.29242 0.0166,-0.0418 0.0166,-0.0418 0.0502,-0.27849 0.0502,-0.2785 0.03,-0.29242 0.03,-0.29241 0.029,-0.059 0.029,-0.059 -0.008,-0.30305 -0.008,-0.30304 0.0266,-0.12532 0.0266,-0.12532 -0.01,-0.0627 -0.01,-0.0627 h -0.18047 -0.18047 l -0.0891,0.0454 -0.0891,0.0454 -0.13086,0.0952 -0.13086,0.0952 -0.0593,0.0114 -0.0594,0.0114 -0.0535,0.017 -0.0535,0.017 -0.0282,0.0527 -0.0282,0.0527 -0.11799,0.0575 -0.11799,0.0575 -0.16709,0.0962 -0.1671,0.0962 -0.0627,0.0329 -0.0627,0.0329 v 0.0199 0.0199 l -0.0802,0.016 -0.0802,0.016 -0.0484,0.0501 -0.0484,0.0501 -0.12903,0.0751 -0.12903,0.0751 -0.22846,0.11415 -0.22846,0.11415 -0.11966,0.0203 -0.11965,0.0203 -0.023,0.11073 -0.023,0.11073 -0.0525,0.2228 -0.0525,0.2228 -0.008,0.0668 -0.008,0.0668 -0.0557,0.0307 -0.0557,0.0307 -0.0205,0.0279 -0.0205,0.0279 -4.2e-4,0.0817 -4.3e-4,0.0818 -0.0597,0.0635 -0.0596,0.0635 10e-4,0.0776 0.001,0.0776 0.0195,0.0746 0.0195,0.0746 -0.11223,0.0573 -0.11223,0.0573 -0.0178,0.0562 -0.0178,0.0562 0.0168,0.0528 0.0168,0.0528 -0.0427,0.0427 -0.0427,0.0427 v 0.0203 0.0203 l -0.0696,0.0913 -0.0696,0.0913 v 0.0177 0.0177 l -0.0879,0.13034 -0.0879,0.13034 -0.0628,0.0557 -0.0628,0.0557 -0.0184,0.0634 -0.0184,0.0634 -0.0711,0.10856 -0.0711,0.10856 -0.0661,0.0166 -0.0661,0.0166 v 0.0391 0.0391 l -0.0958,0.0316 -0.0958,0.0316 -0.0871,-0.045 -0.0871,-0.045 -0.15991,-0.16241 -0.15991,-0.16241 -0.0848,0.0357 -0.0849,0.0357 -0.0598,0.0839 -0.0598,0.084 v 0.0435 0.0435 l -0.0469,0.0984 -0.0469,0.0984 h -0.0372 -0.0372 l -0.10429,-0.0658 -0.10429,-0.0658 -0.041,-0.0494 -0.041,-0.0494 -0.12572,-0.0566 -0.12572,-0.0566 -0.38989,0.004 -0.38989,0.004 -0.12532,0.0266 -0.12532,0.0266 -0.1114,0.0323 -0.1114,0.0323 -0.24342,0.0394 -0.24342,0.0394 -0.16039,0.0728 -0.1604,0.0728 -0.0975,0.0217 -0.0975,0.0217 -0.15317,0.0607 -0.15317,0.0607 -0.12532,0.0355 -0.12533,0.0355 -0.10062,0.057 -0.10062,0.057 -0.0525,0.0289 -0.0526,0.0289 -0.1671,0.0542 -0.16709,0.0542 -0.1671,0.0721 -0.16709,0.0721 -0.10482,6.6e-4 -0.10481,6.6e-4 -0.0543,0.0339 -0.0543,0.0339 -0.10546,-0.0598 -0.10546,-0.0598 -0.0262,-0.0713 -0.0262,-0.0713 0.0473,-0.0993 0.0473,-0.0993 0.0996,-0.0416 0.0996,-0.0416 -0.0156,-0.0407 -0.0156,-0.0407 0.0706,0.0177 0.0706,0.0177 0.0146,-0.056 0.0146,-0.056 0.17164,-0.0338 0.17163,-0.0338 0.23672,-0.0113 0.23672,-0.0113 0.0382,-0.0556 0.0382,-0.0556 h 0.0937 0.0937 l 0.13269,-0.0309 0.13268,-0.0309 0.13925,-0.0637 0.13924,-0.0637 0.0696,-0.0204 0.0696,-0.0204 0.0739,-0.0521 0.0739,-0.052 h 0.0444 0.0444 v -0.0279 -0.0279 h 0.0292 0.0292 l 0.11528,-0.0557 0.11529,-0.0557 h 0.0655 0.0655 l 0.11483,-0.0586 0.11484,-0.0586 0.29483,-0.0257 0.29484,-0.0257 0.25064,0.003 0.25065,0.003 0.22918,5e-5 0.22917,5e-5 0.10502,-0.0537 0.10501,-0.0537 0.0975,-0.0371 0.0975,-0.0371 0.13801,0.005 0.13801,0.005 0.0277,0.0277 0.0277,0.0277 h 0.0434 0.0434 l 0.0326,-0.0523 0.0326,-0.0522 -0.002,-0.27312 -0.002,-0.27312 0.0765,-0.061 0.0765,-0.061 -0.048,-0.0733 -0.048,-0.0733 0.027,-0.0347 0.027,-0.0347 0.0482,-0.20887 0.0482,-0.20887 0.0395,-0.15971 0.0395,-0.15972 v -0.0922 -0.0922 l 0.0564,-0.26326 0.0564,-0.26327 0.0597,-0.13924 0.0597,-0.13925 0.0233,-0.12532 0.0233,-0.12533 0.0183,-0.11139 0.0183,-0.1114 0.0486,-0.0696 0.0486,-0.0696 0.0176,-0.1114 0.0176,-0.11139 0.0529,-0.1671 0.0529,-0.1671 0.0574,-0.18298 0.0574,-0.18298 v -0.0479 -0.0479 l 0.1671,-0.32745 0.1671,-0.32745 v -0.0326 -0.0326 l 0.0581,-0.10528 0.0581,-0.10529 0.0521,-0.0537 0.0521,-0.0538 0.0716,0.0326 0.0716,0.0326 0.0159,0.0415 0.0159,0.0415 -0.11418,0.14341 -0.11418,0.1434 v 0.035 0.035 l -0.0416,0.0798 -0.0416,0.0798 -1.7e-4,0.0603 -1.7e-4,0.0604 -0.0536,0.12506 -0.0536,0.12506 -0.0196,0.13485 -0.0196,0.13486 -0.0284,0.0557 -0.0284,0.0557 -0.0774,0.0891 -0.0774,0.0891 0.003,0.14764 0.003,0.14764 -0.0524,0.0835 -0.0524,0.0836 -0.0426,0.0506 -0.0426,0.0506 -0.005,0.22159 -0.005,0.22158 -0.0315,0.038 -0.0315,0.0379 -0.0431,0.19114 -0.0431,0.19113 -0.0352,0.25115 -0.0352,0.25114 -0.032,0.0599 -0.032,0.0599 0.0171,0.0854 0.0171,0.0854 -0.0459,0.0968 -0.0459,0.0968 -0.003,0.32851 -0.003,0.32851 0.0452,0.0874 0.0452,0.0874 0.0121,0.22776 0.0121,0.22775 0.0172,0.0172 0.0172,0.0172 0.0381,-0.054 0.0381,-0.054 0.10047,-0.10305 0.10048,-0.10306 v -0.0644 -0.0644 l 0.0557,-0.10393 0.0557,-0.10392 v -0.0389 -0.0389 l 0.0692,-0.0656 0.0691,-0.0656 4.8e-4,-0.0941 4.8e-4,-0.0941 0.0992,-0.10976 0.0991,-0.10975 -0.009,-0.0597 -0.009,-0.0597 0.0627,-0.0625 0.0627,-0.0624 v -0.11102 -0.11102 l 0.024,-0.0148 0.024,-0.0148 0.037,-0.133 0.037,-0.133 0.0364,-0.0368 0.0364,-0.0368 8.9e-4,-0.11637 8.8e-4,-0.11637 0.0409,-0.0541 0.0409,-0.0541 0.001,-0.0713 0.001,-0.0713 0.0409,-0.1114 0.0409,-0.1114 0.0305,-0.30634 0.0305,-0.30635 0.0945,-0.19327 0.0945,-0.19327 v -0.0365 -0.0365 h 0.0172 0.0172 l 0.0922,0.0766 0.0922,0.0766 0.0625,0.0439 0.0625,0.0439 -0.0179,0.0466 -0.0179,0.0466 h -0.0844 -0.0844 v 0.0826 0.0826 l 0.0864,0.0984 0.0864,0.0984 h 0.0182 0.0182 l 0.0385,-0.0905 0.0385,-0.0905 0.0852,-0.0905 0.0852,-0.0905 h 0.0342 0.0342 l 0.0874,-0.0735 0.0874,-0.0735 0.0576,-0.12257 0.0576,-0.12258 0.0819,-0.0424 0.0819,-0.0424 0.19414,-0.1584 0.19413,-0.1584 0.14505,-0.15096 0.14505,-0.15096 0.2305,-0.22993 0.23051,-0.22994 -0.004,-0.35711 -0.004,-0.35711 0.031,-0.0784 0.0311,-0.0784 v -0.10935 -0.10935 l 0.0547,-0.0342 0.0547,-0.0342 -0.016,-0.0635 -0.016,-0.0635 h 0.0398 0.0398 l 0.058,-0.0627 0.058,-0.0627 0.0844,-0.0744 0.0844,-0.0745 0.0426,-0.0823 0.0426,-0.0823 0.14722,-0.10777 0.14722,-0.10778 0.0531,-0.0146 0.0531,-0.0145 0.0215,-0.0412 0.0215,-0.0411 0.0162,-0.0418 0.0162,-0.0418 0.0534,-0.0836 0.0534,-0.0836 0.002,-0.061 0.002,-0.061 0.0281,-0.0174 0.0281,-0.0174 -0.005,-0.18618 -0.005,-0.18618 0.0216,-0.0776 0.0216,-0.0776 -0.0453,-0.05 -0.0453,-0.05 0.0145,-0.0145 0.0145,-0.0145 -0.0421,-0.0807 -0.0421,-0.0807 -1.7e-4,-0.12797 -1.7e-4,-0.12797 0.0557,-0.0504 0.0557,-0.0504 v -0.0811 -0.0811 l 0.0288,-0.0539 0.0288,-0.0539 0.0756,2.7e-4 0.0756,2.7e-4 0.14569,0.0678 0.1457,0.0678 0.0534,0.0877 0.0534,0.0877 0.002,0.15319 0.002,0.15319 0.0164,0.0517 0.0164,0.0517 -0.046,0.0702 -0.046,0.0702 0.005,0.10515 0.005,0.10515 0.002,0.16257 0.002,0.16257 0.11323,-0.0187 0.11324,-0.0187 0.15317,-1.6e-4 0.15317,-1.5e-4 0.20718,0.0267 0.20719,0.0267 0.0799,0.0894 0.0799,0.0894 -0.009,0.0604 -0.009,0.0604 -0.0598,0.009 -0.0598,0.009 -0.0492,0.0543 -0.0492,0.0543 -0.0303,0.0515 -0.0303,0.0515 -0.0764,0.11459 -0.0764,0.11458 -0.0767,0.0404 -0.0767,0.0404 -0.15222,0.15532 -0.15222,0.15531 h -0.0338 -0.0338 l -0.0438,0.0438 -0.0438,0.0438 v 0.0378 0.0378 l 0.1244,0.13429 0.12439,0.13429 0.17747,0.18798 0.17747,0.18799 h 0.0639 0.0638 l 0.0868,0.0545 0.0868,0.0545 0.10804,0.11259 0.10804,0.11258 h 0.0396 0.0395 l 0.0878,0.0454 0.0878,0.0454 0.0382,0.0382 0.0382,0.0382 0.0607,0.002 0.0607,0.002 0.0418,0.01 0.0418,0.01 0.18102,0.0395 0.18103,0.0395 0.11795,0.0606 0.11795,0.0606 0.0393,0.0623 0.0393,0.0623 0.0183,0.0615 0.0183,0.0615 -0.0711,0.0618 -0.0711,0.0619 -0.001,0.0298 -0.001,0.0298 -0.0822,0.0961 -0.0822,0.0961 -0.18116,0.0115 -0.18115,0.0115 -0.13943,-0.0456 -0.13942,-0.0456 -0.36476,-0.0238 -0.36475,-0.0238 -0.0877,0.0282 -0.0877,0.0282 -0.0729,0.0373 -0.0729,0.0373 -0.14991,0.0406 -0.1499,0.0406 -0.20887,0.0814 -0.20887,0.0814 -0.0627,0.0916 -0.0627,0.0917 v 0.0866 0.0866 l -0.0253,0.0883 -0.0253,0.0883 0.0671,0.091 0.0671,0.091 v 0.10187 0.10187 l 0.0695,0.0946 0.0695,0.0946 0.0601,0.12533 0.0601,0.12532 0.0642,0.0975 0.0642,0.0975 0.04,0.11365 0.04,0.11365 0.101,0.10915 0.101,0.10915 0.0177,0.0696 0.0177,0.0696 0.0808,0.1671 0.0808,0.1671 0.0192,0.0309 0.0192,0.0309 0.0545,0.0805 0.0545,0.0805 0.0659,0.0812 0.0659,0.0812 0.12324,0.25173 0.12323,0.25173 v 0.051 0.0509 l 0.21284,0.31207 0.21283,0.31207 0.0384,0.11169 0.0384,0.11169 0.11082,0.12308 0.11083,0.12309 1e-4,0.0579 1.1e-4,0.0579 0.0626,0.0956 0.0626,0.0957 0.0418,0.0597 0.0418,0.0597 0.0835,0.11942 0.0835,0.11942 0.0557,0.061 0.0557,0.061 0.0551,0.10289 0.0551,0.10288 h 0.0361 0.0361 l 0.0261,0.0687 0.0261,0.0687 0.0567,0.0354 0.0567,0.0354 v 0.0224 0.0224 l 0.1427,0.17147 0.1427,0.17148 0.0779,0.0779 0.0779,0.0779 0.0636,0.007 0.0636,0.007 10e-4,-0.32026 0.001,-0.32027 -0.03,-0.24189 -0.03,-0.24189 0.0161,-0.21763 0.0161,-0.21762 -0.0166,-0.15318 -0.0166,-0.15317 0.0235,-0.0469 0.0235,-0.0469 v -0.21208 -0.21209 l -0.0426,-0.0824 -0.0426,-0.0824 0.0317,-0.0593 0.0317,-0.0592 -0.0172,-0.29557 -0.0172,-0.29558 -0.004,-0.12532 -0.004,-0.12532 0.0215,-0.14395 0.0215,-0.14394 -0.0496,-0.13792 -0.0496,-0.13792 0.0317,-0.12572 0.0316,-0.12572 -0.0256,-0.28865 -0.0256,-0.28865 -0.0176,-0.40382 -0.0176,-0.40382 -0.0398,-0.70581 -0.0398,-0.70581 -0.0139,-0.0224 -0.0138,-0.0224 -0.0175,-0.42753 -0.0175,-0.42752 -0.0405,-0.0796 -0.0405,-0.0796 0.0477,-0.1761 0.0477,-0.17609 -0.0447,-0.22158 -0.0447,-0.22158 0.041,-0.21399 0.0409,-0.21399 -0.029,-0.0543 -0.029,-0.0543 0.0204,-0.033 0.0204,-0.033 0.004,-1.01778 0.004,-1.01777 0.0555,-0.1114 0.0555,-0.1114 -0.0247,-0.12532 -0.0247,-0.12532 -0.005,-0.25759 -0.005,-0.25759 -0.0219,-2e-5 -0.0219,-1e-5 0.008,-0.0732 0.008,-0.0732 -0.10305,-0.0542 -0.10305,-0.0541 -0.23731,-0.0112 -0.23731,-0.0112 -0.0495,-0.0251 -0.0495,-0.0251 -0.11139,-0.0571 -0.1114,-0.0571 -0.33419,-0.0251 -0.3342,-0.0251 -0.36144,0.0532 -0.36144,0.0532 -0.1677,0.0705 -0.16769,0.0705 -0.0771,0.0548 -0.0771,0.0548 -0.16601,0.0651 -0.16602,0.0651 -0.0833,0.0593 -0.0833,0.0593 -0.0486,0.0822 -0.0486,0.0822 -0.0288,3e-4 -0.0288,3e-4 -0.11139,0.10417 -0.1114,0.10416 -0.10482,0.0484 -0.10482,0.0484 -0.10492,0.0168 -0.10493,0.0168 -0.0387,-0.0723 -0.0387,-0.0723 0.0605,-0.0644 0.0605,-0.0644 v -0.0599 -0.0599 l 0.0791,-0.0915 0.0791,-0.0915 0.0532,-0.0673 0.0532,-0.0674 0.10798,-0.12063 0.10799,-0.12064 0.0313,-2.7e-4 0.0313,-2.7e-4 0.14226,-0.0662 0.14226,-0.0662 0.12718,-0.13272 0.12717,-0.13272 0.16224,-0.0363 0.16223,-0.0363 0.22279,-0.0721 0.2228,-0.0721 0.0836,-0.0288 0.0835,-0.0288 0.1671,-0.0176 0.1671,-0.0176 0.16709,0.003 0.1671,0.003 0.1671,0.0307 0.16709,0.0307 0.0418,0.004 0.0418,0.004 0.0418,0.0352 0.0418,0.0352 0.13925,0.0175 0.13924,0.0175 0.20887,0.0229 0.20887,0.0229 0.14531,0.0571 0.14531,0.0571 0.0757,0.0595 0.0757,0.0595 0.0756,-0.0166 0.0756,-0.0166 0.10192,0.0895 0.10191,0.0895 0.0888,0.0444 0.0888,0.0444 0.0376,0.0792 0.0376,0.0792 -0.0423,0.168 -0.0423,0.16801 0.0133,0.0348 0.0134,0.0348 -0.0434,0.16761 -0.0434,0.1676 v 0.22663 0.22663 l -0.0418,0.1 -0.0418,0.1 v 0.27693 0.27692 l -0.0318,0.0595 -0.0318,0.0595 -0.0105,0.69755 -0.0105,0.69756 -0.006,0.34812 -0.006,0.34812 0.004,0.15317 0.004,0.15317 -8e-5,0.13925 -8e-5,0.13924 0.0128,0.76586 0.0128,0.76586 0.0279,0.13492 0.0279,0.13492 0.004,0.3225 0.004,0.32249 0.0121,0.0196 0.0121,0.0196 0.0283,0.66483 0.0284,0.66483 0.0125,0.2228 0.0125,0.22279 0.0157,0.47344 0.0157,0.47344 0.0136,0.57092 0.0136,0.57091 0.0421,0.83548 0.0421,0.83548 0.0127,0.41775 0.0127,0.41774 0.0421,0.36154 0.0421,0.36154 0.0568,0.0768 0.0568,0.0768 0.0167,0.0836 0.0167,0.0836 -0.0745,0.0977 -0.0745,0.0977 h -0.0401 -0.0401 l -0.0491,0.10443 -0.0491,0.10444 -0.0589,0.008 -0.0589,0.008 z m -6.66184,-7.76448 v -0.0279 h 0.0849 0.0849 l 0.0753,-0.0389 0.0753,-0.0389 0.053,-0.0585 0.053,-0.0585 h 0.0401 0.0401 l 0.0875,-0.0627 0.0875,-0.0627 0.0662,-0.0348 0.0662,-0.0348 h 0.0332 0.0332 l 0.0944,-0.0696 0.0944,-0.0696 0.0433,-1.6e-4 0.0433,-1.5e-4 0.10577,-0.0294 0.10576,-0.0294 0.0247,-0.065 0.0247,-0.065 0.16375,-0.019 0.16376,-0.019 0.04,-0.0247 0.04,-0.0247 -0.005,-0.12151 -0.005,-0.12151 -0.0879,-0.13027 -0.0879,-0.13026 -0.0518,-0.0277 -0.0518,-0.0277 h -0.0566 -0.0566 l -0.0298,0.0557 -0.0298,0.0557 h -0.0821 -0.0821 l -0.11885,0.1235 -0.11885,0.1235 -0.1223,0.14107 -0.12229,0.14107 h -0.0264 -0.0264 l -0.0538,0.0627 -0.0538,0.0627 -0.0418,0.0763 -0.0418,0.0763 -0.10387,0.053 -0.10386,0.053 -0.18273,0.19789 -0.18273,0.19789 h 0.0504 0.0504 z m 2.25538,-1.40375 -4.3e-4,-0.0583 -0.025,-0.0394 -0.025,-0.0395 0.0303,-0.0719 0.0303,-0.072 0.006,-0.12532 0.006,-0.12533 0.0206,-0.0627 0.0206,-0.0627 h -0.0563 -0.0563 l 0.0139,0.0533 0.0139,0.0533 -0.0594,0.0318 -0.0594,0.0318 -0.0487,-0.008 -0.0487,-0.008 -0.0755,0.0594 -0.0756,0.0594 v 0.0316 0.0316 l 0.0987,0.20113 0.0987,0.20114 0.0456,0.0346 0.0456,0.0346 0.0507,-0.0459 0.0507,-0.0459 z m 0.91474,0.0271 0.17631,-0.0437 h 0.10003 0.10002 l 0.10609,-0.0487 0.1061,-0.0487 0.0159,-0.0473 0.0159,-0.0473 -0.0471,-0.0919 -0.0471,-0.0919 -0.0176,-0.0139 -0.0176,-0.0139 -0.034,-0.0696 -0.034,-0.0696 -0.0258,-0.0418 -0.0258,-0.0418 -0.0583,-0.13281 -0.0583,-0.13281 -0.0692,-0.0601 -0.0691,-0.0601 -0.0583,-0.12048 -0.0583,-0.12049 -0.0714,-0.0179 -0.0714,-0.0179 -0.0366,0.05 -0.0365,0.05 0.0154,0.025 0.0154,0.025 -0.0324,0.0391 -0.0324,0.0391 -0.0352,0.15134 -0.0352,0.15133 0.0374,0.0714 0.0374,0.0714 -0.0835,0.12379 -0.0835,0.12378 0.0181,0.21443 0.0181,0.21442 0.0584,0.0233 0.0584,0.0233 0.0418,-0.01 0.0418,-0.01 z m -0.9618,-1.19245 0.0488,-0.0766 0.0481,-4.2e-4 0.0481,-4.3e-4 0.0392,-0.0249 0.0393,-0.0248 -0.0347,-0.0837 -0.0347,-0.0837 -0.005,-0.11406 -0.005,-0.11407 -0.0279,0.004 -0.0279,0.004 -0.0279,0.009 -0.0279,0.009 -0.13511,0.0496 -0.13512,0.0496 -0.0373,0.10929 -0.0373,0.10928 0.0272,0.0508 0.0272,0.0508 -0.0298,0.0557 -0.0298,0.0557 h -0.0556 -0.0556 l -0.0156,0.0407 -0.0156,0.0407 0.0477,0.1435 0.0477,0.1435 0.15743,-0.16335 0.15743,-0.16336 z m -12.13663,7.43618 -0.0836,-0.03 -0.10391,-0.0653 -0.10391,-0.0653 -0.0168,-0.0766 -0.0168,-0.0766 -0.0252,-0.0798 -0.0252,-0.0798 0.0152,-0.0246 0.0152,-0.0247 0.061,-1.8e-4 0.061,-1.8e-4 0.0725,-0.0486 0.0725,-0.0486 0.10203,-0.10884 0.10202,-0.10884 0.0687,0.0645 0.0687,0.0645 0.0174,0.0548 0.0174,0.0548 -0.0365,0.0225 -0.0365,0.0225 -0.0779,-0.0156 -0.0779,-0.0156 v 0.0311 0.0311 l 0.0877,0.0838 0.0877,0.0838 h 0.0345 0.0345 l 0.0658,-0.035 0.0658,-0.035 0.0624,-0.0545 0.0624,-0.0545 0.0755,-0.11948 0.0755,-0.11948 0.105,-0.0728 0.10499,-0.0728 0.0956,0.0179 0.0956,0.0179 0.0166,0.0433 0.0166,0.0433 v 0.0679 0.0679 l -0.0659,0.10389 -0.0659,0.10388 -0.14097,0.11836 -0.14098,0.11836 h -0.0131 -0.0131 l -0.14485,0.0975 -0.14484,0.0975 h -0.13481 -0.1348 l -0.0172,0.0278 -0.0172,0.0279 -0.0192,-0.002 -0.0192,-0.002 z m -1.93995,-0.0359 -0.074,-0.0402 -0.0616,-0.0996 -0.0616,-0.0996 -0.024,-0.10275 -0.024,-0.10275 0.0397,-0.13925 0.0397,-0.13925 0.0485,-0.27849 0.0485,-0.27849 -0.007,-0.049 -0.007,-0.049 0.0962,-0.20161 0.0962,-0.20161 0.0186,-0.0879 0.0186,-0.0879 -0.0295,-0.0182 -0.0295,-0.0182 v -0.0534 -0.0534 l 0.0696,-0.0456 0.0696,-0.0456 v -0.0815 -0.0815 l 0.0569,-0.077 0.0569,-0.077 0.0428,-0.16381 0.0428,-0.1638 0.0813,-0.1611 0.0813,-0.16109 v -0.0853 -0.0853 l 0.0383,-0.0617 0.0383,-0.0617 0.0334,-0.18102 0.0334,-0.18102 0.0717,-0.10494 0.0717,-0.10495 0.0585,-0.0126 0.0585,-0.0126 0.0418,-0.004 0.0418,-0.004 0.0487,0.003 0.0487,0.003 v 0.0366 0.0366 l -0.0843,0.0807 -0.0843,0.0807 0.0122,0.0319 0.0122,0.0319 -0.0531,0.0806 -0.0531,0.0806 -1.8e-4,0.12085 -1.8e-4,0.12086 -0.0622,0.0504 -0.0622,0.0504 0.0498,0.1044 0.0498,0.10439 -0.087,0.0898 -0.0871,0.0898 0.004,0.19156 0.004,0.19155 -0.0475,0.15317 -0.0475,0.15318 -0.008,0.15246 -0.008,0.15247 -0.0305,0.0102 -0.0305,0.0102 -0.0413,0.0413 -0.0413,0.0413 v 0.13561 0.13562 l 0.0262,0.0162 0.0262,0.0162 0.0477,-0.10043 0.0476,-0.10044 0.0639,-0.0243 0.0639,-0.0243 0.0144,-0.0918 0.0144,-0.0918 0.0337,-0.20421 0.0337,-0.20421 0.0787,-0.099 0.0787,-0.099 v -0.0988 -0.0988 l 0.0603,-0.12716 0.0603,-0.12715 0.0506,-0.0732 0.0506,-0.0732 0.0404,-0.15507 0.0404,-0.15508 0.0994,-0.20175 0.0994,-0.20175 v -0.0327 -0.0327 l 0.0615,-0.0782 0.0615,-0.0782 -0.007,-0.0868 -0.007,-0.0868 0.0561,-0.0508 0.0561,-0.0508 0.0185,-0.12312 0.0185,-0.12312 0.0479,-0.0591 0.0479,-0.0591 0.0324,0.02 0.0324,0.02 v 0.12551 0.12551 l 0.0291,0.0544 0.0291,0.0544 -0.0361,0.075 -0.0361,0.075 -0.086,0.0175 -0.086,0.0175 -0.0324,0.02 -0.0324,0.02 v 0.0369 0.0369 l 0.0593,0.0155 0.0593,0.0155 -0.0192,0.0783 -0.0192,0.0783 -0.025,0.17352 -0.025,0.17351 -0.0638,0.11173 -0.0638,0.11172 -0.0246,2.2e-4 -0.0246,2.1e-4 -0.051,0.0588 -0.051,0.0588 -0.0187,0.16505 -0.0187,0.16506 -0.0492,0.0344 -0.0492,0.0345 -0.0156,0.16643 -0.0156,0.16643 -0.018,0.13925 -0.018,0.13924 -0.0271,0.0334 -0.0271,0.0335 -0.12305,0.0184 -0.12304,0.0185 v 0.17622 0.17621 l 0.0279,0.0172 0.0278,0.0172 -1.4e-4,0.0889 -1.4e-4,0.0889 -0.0686,0.1114 -0.0686,0.11139 -8.7e-4,0.078 -8.7e-4,0.078 -0.0523,0.10299 -0.0523,0.10299 -0.0428,0.0975 -0.0428,0.0975 -0.0438,0.13617 -0.0438,0.13617 -0.13962,0.14762 -0.13961,0.14762 v 0.0239 0.0239 l -0.0925,0.0334 -0.0925,0.0334 -0.0119,-0.001 -0.0119,-0.001 z m 4.56023,-0.82896 -0.0533,-0.0396 0.0175,-0.0456 0.0175,-0.0456 0.15194,-0.0745 0.15193,-0.0745 0.0336,-0.0627 0.0336,-0.0627 0.12875,-0.0909 0.12874,-0.0909 0.16271,-0.1342 0.16271,-0.1342 0.067,-0.0138 0.0671,-0.0138 0.0688,-0.0143 0.0688,-0.0143 0.0565,-0.0606 0.0565,-0.0606 v -0.0476 -0.0476 l 0.0984,-0.0864 0.0984,-0.0864 h 0.0235 0.0235 l 0.11164,-0.14621 0.11163,-0.14621 0.10056,-0.1114 0.10056,-0.11139 -0.009,-0.0279 -0.009,-0.0279 -0.12279,0.003 -0.12279,0.003 -0.19495,0.034 -0.19494,0.034 -0.13925,0.0573 -0.13925,0.0573 -0.21385,0.0725 -0.21386,0.0725 -0.0646,0.0606 -0.0646,0.0606 -0.15317,0.0586 -0.15317,0.0586 -0.0557,0.0254 -0.0557,0.0254 -0.1114,0.0155 -0.11139,0.0155 -0.15725,0.0166 -0.15724,0.0166 -0.0586,-0.0314 -0.0586,-0.0314 v -0.0356 -0.0356 l 0.0781,-0.0748 0.0781,-0.0748 h 0.0186 0.0186 l 0.15522,-0.0735 0.15522,-0.0735 0.0412,-0.0797 0.0412,-0.0797 h 0.0407 0.0407 l 0.21622,-0.11134 0.21622,-0.11134 0.0391,-6e-5 0.0391,-6e-5 0.0871,-0.0664 0.0871,-0.0664 0.18014,-0.0576 0.18014,-0.0576 0.12532,-0.0399 0.12532,-0.0399 0.0975,-0.0339 0.0975,-0.0339 0.1114,-0.0545 0.1114,-0.0545 0.31422,-0.0309 0.31423,-0.0309 0.14774,0.0466 0.14773,0.0466 h 0.0456 0.0456 l 0.0455,0.0695 0.0455,0.0695 -0.0182,0.0968 -0.0182,0.0968 -0.0647,0.0774 -0.0647,0.0774 -0.0216,0.0696 -0.0217,0.0696 -0.14826,0.19494 -0.14825,0.19495 -0.11936,0.10344 -0.11936,0.10343 -0.0975,0.0803 -0.0975,0.0803 -0.30894,0.17138 -0.30894,0.17139 h -0.0334 -0.0334 l -0.1311,0.1203 -0.13109,0.12031 -0.17194,0.13034 -0.17195,0.13034 h -0.026 -0.026 l -0.12228,0.10712 -0.12228,0.10712 -0.0836,0.0202 -0.0836,0.0202 -0.0836,0.0138 -0.0835,0.0138 z m -1.52016,-0.17991 6e-5,-0.0487 0.0774,-0.0905 0.0774,-0.0905 h 0.0297 0.0297 l 0.047,-0.0519 0.0469,-0.0519 0.0116,-0.0601 0.0116,-0.0601 0.0516,-0.076 0.0516,-0.076 0.0329,-0.0766 0.0329,-0.0766 0.0772,-1.4e-4 0.0772,-1.4e-4 0.1114,-0.0686 0.1114,-0.0686 0.0465,-8.7e-4 0.0465,-8.7e-4 0.0856,0.0487 0.0856,0.0487 1.8e-4,0.0174 1.8e-4,0.0174 -0.0789,0.0158 -0.0789,0.0158 -0.35755,0.35317 -0.35755,0.35317 -0.0918,0.0383 -0.0918,0.0383 h -0.0427 -0.0427 z m -0.7111,-0.0452 -0.0104,-0.0314 -0.005,-0.0418 -0.005,-0.0418 0.003,-0.0597 0.003,-0.0597 0.0378,-0.0145 0.0378,-0.0145 0.0647,0.0324 0.0647,0.0324 0.0201,0.0754 0.0201,0.0754 -0.0321,0.0253 -0.0321,0.0253 -0.0788,0.0142 -0.0788,0.0142 z m 0.3838,-0.5753 -0.0627,-0.0252 v -0.0125 -0.0125 l 0.0169,-0.0441 0.0169,-0.044 h 0.0408 0.0408 l 0.0397,0.0397 0.0397,0.0397 -0.0168,0.0438 -0.0168,0.0438 -0.0179,-0.002 -0.0179,-0.002 z m 0.1787,-0.40759 -0.0186,-0.0186 v -0.0501 -0.0501 l 0.0512,-0.0274 0.0512,-0.0274 0.0602,0.0157 0.0602,0.0157 v 0.0634 0.0634 l -0.044,0.0169 -0.044,0.0169 h -0.0488 -0.0488 z m 0.9406,-1.05311 -0.0541,-0.0412 0.028,-0.0214 0.028,-0.0214 0.22959,-0.25807 0.22958,-0.25807 -2.9e-4,-0.0483 -3e-4,-0.0483 -0.0972,-0.0944 -0.0972,-0.0944 v -0.17647 -0.17647 l 0.0696,-0.0456 0.0696,-0.0456 v -0.0258 -0.0258 l 0.0609,-0.0824 0.0609,-0.0824 h 0.0552 0.0552 l 0.044,-0.039 0.044,-0.039 0.15318,-0.083 0.15317,-0.083 -0.007,-0.13261 -0.007,-0.13261 0.0312,-0.0376 0.0312,-0.0376 0.0222,0.0137 0.0222,0.0137 0.0449,-0.0172 0.0449,-0.0172 0.14117,-0.28225 0.14118,-0.28226 0.0671,-0.0712 0.0671,-0.0711 v -0.0181 -0.0181 l 0.0697,-0.0779 0.0697,-0.0778 0.10032,-0.1114 0.10031,-0.1114 0.0667,-0.10567 0.0667,-0.10567 v -0.0266 -0.0266 h -0.10076 -0.10076 l -0.0947,0.0831 -0.0947,0.0832 -0.0761,0.0179 -0.0761,0.0179 -0.0696,0.0626 -0.0696,0.0626 -0.0608,0.0312 -0.0608,0.0313 h -0.0595 -0.0595 l -0.13034,0.0884 -0.13034,0.0884 -0.0787,0.0648 -0.0787,0.0648 h -0.0969 -0.0969 l -0.1307,0.0316 -0.13069,0.0316 -0.0264,0.0241 -0.0265,0.0241 h -0.12777 -0.12776 l -0.0895,-0.0766 -0.0895,-0.0766 -0.004,-0.0557 -0.004,-0.0557 0.004,-0.0878 0.004,-0.0878 0.1222,-0.13498 0.12221,-0.13498 0.15629,0.003 0.15629,0.003 0.0905,0.004 0.0905,0.004 0.0418,0.0266 0.0418,0.0266 -0.0328,0.053 -0.0328,0.053 0.0314,0.0314 0.0314,0.0314 h 0.0319 0.0319 l 0.053,-0.0588 0.0531,-0.0588 0.18263,-0.0921 0.18262,-0.0921 0.0369,-0.0444 0.0369,-0.0444 0.12467,-0.0551 0.12467,-0.0551 0.0905,-0.0795 0.0905,-0.0795 0.16212,-0.019 0.16212,-0.0191 0.0928,-0.0574 0.0928,-0.0573 0.0287,-0.0536 0.0287,-0.0536 0.10324,-0.0649 0.10324,-0.0649 0.11139,-0.0355 0.1114,-0.0355 0.0696,-0.0631 0.0696,-0.0631 0.0891,-0.045 0.0891,-0.045 h 0.0557 0.0557 l 0.12671,0.0855 0.12672,0.0855 v 0.008 0.008 l -0.0326,0.0947 -0.0326,0.0947 -0.10596,0.14413 -0.10595,0.14412 -0.0509,0.0161 -0.0509,0.0162 -0.16227,0.19481 -0.16228,0.1948 h -0.0179 -0.0179 l -0.12107,0.16014 -0.12106,0.16013 -0.11094,0.0696 -0.11093,0.0696 -0.13165,0.15317 -0.13165,0.15317 -0.21811,0.28699 -0.21812,0.28698 -0.0929,0.0388 -0.0929,0.0388 -2.7e-4,0.078 -2.7e-4,0.078 -0.0972,0.12228 -0.0972,0.12228 v 0.036 0.036 l -0.0802,0.0571 -0.0802,0.0571 -0.0144,0.0552 -0.0144,0.0552 0.0329,0.0273 0.0329,0.0273 0.0408,-0.0258 0.0408,-0.0258 0.0479,-4.3e-4 0.0479,-4.2e-4 0.16096,-0.0728 0.16096,-0.0728 0.0887,-0.0665 0.0887,-0.0665 h 0.0248 0.0248 l 0.2068,-0.15128 0.2068,-0.15128 0.0696,-0.0533 0.0696,-0.0533 0.18454,-0.0169 0.18453,-0.0169 0.0443,0.0334 0.0443,0.0334 0.0184,0.11836 0.0184,0.11836 h -0.0344 -0.0344 l -0.15097,0.15587 -0.15098,0.15588 -0.13148,0.0882 -0.13148,0.0883 -0.0802,0.041 -0.0802,0.041 -0.11472,0.0994 -0.11473,0.0994 -0.10168,0.0471 -0.10168,0.0471 h -0.0309 -0.0309 l -0.15982,0.10743 -0.15981,0.10743 -0.19495,0.0992 -0.19495,0.0992 -0.10713,0.051 -0.10714,0.051 -0.06,0.0593 -0.06,0.0593 -0.12159,0.14262 -0.12159,0.14262 h -0.0471 -0.0472 z m -2.90862,-1.27819 v -0.0941 l 0.045,-0.0374 0.045,-0.0374 -0.0152,-0.14705 -0.0152,-0.14705 h 0.0685 0.0685 l 0.0151,0.0487 0.0151,0.0487 0.0383,0.0885 0.0383,0.0885 -0.0537,0.0683 -0.0537,0.0683 -0.0277,0.0729 -0.0277,0.0729 h -0.0703 -0.0703 z m 21.32339,-0.10266 -0.0403,-0.0575 0.0317,-0.0846 0.0317,-0.0846 0.0758,-0.0393 0.0758,-0.0393 0.0306,-0.0571 0.0305,-0.0571 0.0745,0.009 0.0745,0.009 0.009,0.0475 0.009,0.0475 -0.0923,0.0238 -0.0923,0.0238 -0.009,0.0931 -0.009,0.0931 -0.0429,0.0655 -0.0429,0.0655 h -0.037 -0.037 z m -20.36593,-0.28931 -0.0155,-0.0404 0.018,-0.0292 0.018,-0.0292 h 0.0524 0.0524 l 0.0172,-0.0279 0.0172,-0.0279 h 0.0411 0.0411 l -0.0298,0.0557 -0.0298,0.0557 h -0.0378 -0.0378 l -0.016,0.0418 -0.016,0.0418 h -0.0296 -0.0296 z m 0.26791,-0.38928 v -0.0437 h 0.0719 0.072 l -0.0115,0.0348 -0.0115,0.0348 -0.0605,0.009 -0.0605,0.009 z m -1.00197,-0.0983 -0.0292,-0.0546 0.0173,-0.16126 0.0173,-0.16126 0.0387,-0.11932 0.0387,-0.11932 0.0165,-0.20059 0.0165,-0.20059 0.025,-0.0467 0.025,-0.0467 0.0158,-0.21653 0.0158,-0.21654 0.0183,-0.0295 0.0183,-0.0295 0.005,-0.29241 0.005,-0.29242 0.0185,-0.21284 0.0185,-0.21284 -0.0679,-0.16313 -0.0679,-0.16313 -0.0195,-0.1882 -0.0195,-0.1882 -0.0498,-0.0266 -0.0497,-0.0266 -0.17777,0.0322 -0.17776,0.0322 -0.064,0.0672 -0.064,0.0672 -0.0613,-0.0164 -0.0613,-0.0164 -0.0487,-3.8e-4 -0.0487,-3.8e-4 v -0.0223 -0.0223 l 0.14226,-0.15962 0.14227,-0.15961 0.0906,-0.0379 0.0906,-0.0378 0.12222,0.0271 0.12222,0.0271 0.11078,0.0152 0.11079,0.0152 0.15715,0.1606 0.15715,0.1606 0.0156,0.0795 0.0157,0.0796 0.045,0.15317 0.045,0.15317 0.008,0.20169 0.008,0.2017 0.0148,0.0148 0.0148,0.0148 0.15836,-0.0412 0.15836,-0.0412 0.0873,-0.0778 0.0873,-0.0778 0.0787,-0.0797 0.0787,-0.0797 0.0946,0.0449 0.0946,0.0449 h 0.0636 0.0636 l 0.0618,-0.0581 0.0618,-0.0581 0.0541,0.0289 0.0541,0.0289 0.0321,-0.0321 0.0321,-0.0321 7.7e-4,-0.0292 7.6e-4,-0.0292 0.0986,-0.0696 0.0986,-0.0696 0.0787,-0.0627 0.0787,-0.0627 h 0.0773 0.0773 l 0.044,-0.0372 0.044,-0.0372 0.0975,-0.0376 0.0975,-0.0376 0.16567,-0.10627 0.16567,-0.10627 h 0.0739 0.0739 l 0.0866,-0.0302 0.0866,-0.0302 0.0169,-0.0534 0.0169,-0.0534 h 0.0569 0.0569 l 0.12919,-0.10732 0.12918,-0.10733 0.0608,-0.0319 0.0608,-0.0319 h 0.0585 0.0585 l 0.20093,-0.10639 0.20092,-0.10638 0.0557,-0.0172 0.0557,-0.0172 0.0696,-0.0421 0.0696,-0.0421 0.0975,-0.0416 0.0975,-0.0416 0.15317,-0.0458 0.15318,-0.0458 0.0696,-0.0279 0.0696,-0.0279 0.10299,-0.0532 0.10299,-0.0532 h 0.0519 0.0519 l 0.11844,-0.0572 0.11845,-0.0572 0.14439,-0.0157 0.14439,-0.0157 0.0617,-0.0385 0.0617,-0.0385 0.13327,-0.0454 0.13328,-0.0454 0.21636,-0.0518 0.21636,-0.0518 0.0717,-0.047 0.0717,-0.047 0.21326,-0.0945 0.21325,-0.0945 0.10794,-0.0398 0.10794,-0.0398 h 0.26245 0.26245 l 0.0752,0.0393 0.0752,0.0393 0.0735,0.0791 0.0735,0.0791 0.019,0.0628 0.019,0.0628 -0.0431,0.0165 -0.0431,0.0165 -0.11626,0.17129 -0.11626,0.1713 -0.0305,0.0214 -0.0305,0.0215 -0.19495,-0.0166 -0.19494,-0.0165 -0.1671,0.047 -0.16709,0.047 -0.12306,0.0341 -0.12306,0.0341 -0.0223,0.0601 -0.0222,0.0602 h -0.0685 -0.0686 l -0.22476,0.14306 -0.22476,0.14306 v 0.025 0.025 l -0.12954,0.0555 -0.12954,0.0555 -0.0942,0.0827 -0.0942,0.0827 h -0.058 -0.058 l -0.11017,0.11018 -0.11018,0.11017 -0.0606,0.0169 -0.0606,0.0169 -0.0696,0.029 -0.0696,0.029 -0.0975,0.0455 -0.0975,0.0455 -0.0139,0.017 -0.0139,0.017 -0.0627,0.033 -0.0627,0.033 v 0.0408 0.0408 h -0.0667 -0.0666 l -0.016,0.0418 -0.016,0.0418 h -0.0291 -0.0291 l -0.0823,0.0905 -0.0823,0.0905 -8.2e-4,0.0746 -8.1e-4,0.0746 -0.0743,0.0585 -0.0743,0.0585 -0.0301,-0.0101 -0.0301,-0.0101 0.009,-0.0903 0.009,-0.0903 0.0414,-0.099 0.0414,-0.099 0.14137,-0.14948 0.14137,-0.14947 h 0.0343 0.0343 l 0.0365,-0.0439 0.0365,-0.0439 0.1331,-0.0675 0.13311,-0.0675 h 0.0454 0.0454 l 0.0785,-0.0559 0.0785,-0.0559 0.0615,-0.12696 0.0615,-0.12697 0.10803,-0.0715 0.10802,-0.0715 -1.9e-4,-0.0172 -1.9e-4,-0.0172 -0.0975,-0.0664 -0.0975,-0.0664 -0.11812,0.0167 -0.11812,0.0167 -0.23672,0.10015 -0.23672,0.10015 -0.13925,0.0658 -0.13925,0.0658 -0.10168,0.0439 -0.10168,0.0439 h -0.0272 -0.0272 l -0.1635,0.0743 -0.1635,0.0743 -0.0835,0.0614 -0.0836,0.0614 -0.1211,0.0152 -0.1211,0.0152 -0.0624,0.0587 -0.0624,0.0587 -0.0948,0.0272 -0.0948,0.0272 h -0.0904 -0.0903 l -0.0664,0.10444 -0.0664,0.10444 -0.0523,0.0461 -0.0524,0.0462 -0.11512,0.0306 -0.11511,0.0306 -0.0342,0.0412 -0.0342,0.0412 -0.4045,0.20007 -0.4045,0.20006 -0.12307,0.10652 -0.12308,0.10653 -0.0751,0.0162 -0.0751,0.0162 -0.1114,0.0592 -0.11139,0.0592 -0.0944,0.064 -0.0944,0.064 h -0.0344 -0.0343 l -0.13583,0.058 -0.13582,0.058 -0.0975,0.0427 -0.0975,0.0427 -0.0481,0.0594 -0.0481,0.0594 -6.2e-4,0.11796 -6.2e-4,0.11797 -0.0267,0.11875 -0.0267,0.11876 -0.045,0.20888 -0.045,0.20887 -0.0824,0.0858 -0.0824,0.0858 -0.0121,0.16488 -0.0121,0.16489 -0.0387,0.10727 -0.0387,0.10728 -0.0388,0.0246 -0.0388,0.0246 -0.0478,4.3e-4 -0.0478,4.2e-4 z m 1.09248,-0.20221 -0.0627,-0.0302 v -0.0462 -0.0462 l 0.0827,-0.0793 0.0827,-0.0793 0.0168,0.0532 0.0168,0.0532 0.0258,0.0484 0.0258,0.0484 v 0.0392 0.0392 l -0.044,0.0169 -0.044,0.0169 -0.0186,-0.002 -0.0186,-0.002 z m 8.91468,-0.0475 -0.0876,-0.0534 -0.0376,-0.10659 -0.0376,-0.10659 -1.1e-4,-0.58 -1.1e-4,-0.58 -0.0541,-0.0396 -0.0541,-0.0396 h -0.0643 -0.0643 l 4.2e-4,-0.0209 4.3e-4,-0.0209 0.0245,-0.0387 0.0245,-0.0387 0.10562,-0.0172 0.10562,-0.0172 0.0243,-0.0937 0.0243,-0.0937 -0.0152,-0.0397 -0.0152,-0.0397 -0.0932,0.0175 -0.0932,0.0175 -0.0464,-0.0709 -0.0464,-0.0709 v -0.0405 -0.0405 l 0.0812,-0.0178 0.0812,-0.0178 0.0177,-0.0461 0.0177,-0.0462 -0.0181,-0.2933 -0.0181,-0.29331 -0.0391,-0.1572 -0.0391,-0.15719 v -0.0831 -0.0831 l -0.0348,-0.0274 -0.0348,-0.0274 -0.0761,-0.0182 -0.0761,-0.0182 -0.098,-0.086 -0.098,-0.086 9.9e-4,-0.0598 9.9e-4,-0.0598 0.0338,-0.0599 0.0338,-0.0599 0.15242,-0.11419 0.15242,-0.11419 h 0.0585 0.0584 l 0.1299,0.0443 0.1299,0.0443 0.07,0.0831 0.07,0.0831 -0.003,0.17198 -0.003,0.17199 0.0345,0.13925 0.0345,0.13924 -0.004,0.0981 -0.004,0.0981 0.1272,0.0376 0.1272,0.0376 0.0544,0.0453 0.0544,0.0453 -0.0347,0.0589 -0.0347,0.0589 -0.0619,0.11262 -0.0619,0.11262 -0.0185,0.12092 -0.0185,0.12091 -0.0256,0.0326 -0.0256,0.0326 0.007,0.13453 0.007,0.13454 -0.0197,0.13924 -0.0197,0.13925 -0.0138,0.13925 -0.0138,0.13924 -0.0247,0.52965 -0.0247,0.52965 0.0146,0.0763 0.0146,0.0763 -0.0345,0.0833 -0.0345,0.0833 -0.0314,-1e-4 -0.0314,-1.1e-4 z m -8.7164,-0.42675 0.0168,-0.0627 3.8e-4,-0.0209 3.8e-4,-0.0209 h 0.0418 0.0418 v 0.0395 0.0395 l -0.0169,0.044 -0.0169,0.044 h -0.042 -0.042 z m 2.06682,-0.73501 -0.0153,-0.0399 0.0343,-0.0115 0.0343,-0.0115 0.0557,-0.008 0.0557,-0.008 v 0.0398 0.0398 l -0.0747,0.02 -0.0747,0.02 z m -6.23762,-0.0262 -0.0169,-0.044 v -0.0902 -0.0902 l 0.0698,-0.0607 0.0698,-0.0607 h 0.0487 0.0487 l 0.034,-0.0766 0.034,-0.0766 0.11519,-0.13925 0.11519,-0.13924 0.14918,-0.10133 0.14918,-0.10134 0.0699,-0.083 0.0699,-0.083 0.0911,-0.0374 0.0911,-0.0374 0.0368,-0.0289 0.0368,-0.0289 0.0467,-0.0487 0.0467,-0.0487 0.0487,-0.0557 0.0487,-0.0557 h 0.0587 0.0587 l 0.0548,-0.0696 0.0548,-0.0696 0.11889,-0.0697 0.11889,-0.0697 0.12972,0.0178 0.12972,0.0178 -0.002,0.0589 -0.002,0.0589 -0.16482,0.1329 -0.16483,0.1329 -0.07,-0.0176 -0.07,-0.0176 -8.2e-4,0.0935 -8.2e-4,0.0935 -0.0827,0.091 -0.0827,0.091 -0.11171,0.0582 -0.11171,0.0582 -0.0484,0.0597 -0.0484,0.0597 -0.11139,0.0821 -0.1114,0.0822 -0.16621,0.15456 -0.16621,0.15457 -0.0968,0.0931 -0.0968,0.0932 -0.055,0.0106 -0.055,0.0106 -0.0734,0.0703 -0.0734,0.0703 h -0.0721 -0.0721 z m 4.50862,-0.0673 -0.0172,-0.0279 h 0.0434 0.0434 v 0.0279 0.0279 h -0.0262 -0.0262 z m 2.18618,-0.61269 v -0.0279 h 0.0262 0.0262 l 0.0172,0.0279 0.0172,0.0279 h -0.0434 -0.0434 z m 0.1114,-0.0262 v -0.0262 l 0.0281,-0.0174 0.0281,-0.0174 0.0559,0.0177 0.0559,0.0177 -0.016,0.0258 -0.016,0.0258 h -0.068 -0.068 z m 0.26921,-0.1873 -0.0186,-0.0186 v -0.0643 -0.0643 l 0.0822,-0.0425 0.0822,-0.0425 h 0.071 0.071 v 0.0792 0.0792 l -0.0509,0.0461 -0.0509,0.0461 h -0.0837 -0.0837 z m 6.28097,-1.01743 -0.0334,-0.0334 v -0.0362 -0.0362 h 0.0244 0.0244 l 0.0356,0.043 0.0357,0.043 -0.0267,0.0267 -0.0267,0.0267 z m -7.98683,-0.0324 -0.0146,-0.038 0.059,-0.11329 0.0591,-0.11328 0.037,-0.0307 0.037,-0.0307 0.0437,0.0437 0.0437,0.0437 -0.0287,0.0756 -0.0287,0.0756 -0.0587,0.0627 -0.0587,0.0627 h -0.0378 -0.0378 z m 8.42685,-0.40848 v -0.0548 h 0.0418 0.0418 v 0.0388 0.0388 l -0.0418,0.016 -0.0418,0.016 z m -11.01096,-0.18844 -0.0137,-0.0222 0.022,-0.0356 0.022,-0.0356 0.0943,0.009 0.0943,0.009 0.009,0.0487 0.009,0.0487 h -0.11179 -0.1118 z m 10.98242,-0.0492 -0.0272,-0.0714 v -0.0522 -0.0522 l 0.0271,-0.0167 0.0271,-0.0168 0.0279,-0.10326 0.0279,-0.10326 0.12695,-0.13226 0.12696,-0.13227 0.0756,-0.048 0.0756,-0.0481 0.14908,-0.12603 0.14908,-0.12603 0.0237,-0.0612 0.0237,-0.0612 0.099,-0.0186 0.099,-0.0186 0.0153,-0.0247 0.0153,-0.0247 h 0.0554 0.0554 l 0.0824,-0.0426 0.0824,-0.0426 0.0555,0.0297 0.0554,0.0297 v 0.0493 0.0493 l -0.0905,0.085 -0.0905,0.085 -0.0487,0.0171 -0.0487,0.0171 v 0.0259 0.0259 l -0.11225,0.0585 -0.11226,0.0585 h -0.0665 -0.0665 l -0.044,0.0169 -0.0441,0.0169 v 0.13943 0.13944 l -0.0602,0.10706 -0.0602,0.10707 -0.0721,0.026 -0.0721,0.026 -0.0605,0.0578 -0.0605,0.0578 -0.0177,0.0558 -0.0177,0.0558 -0.10283,0.0286 -0.10284,0.0286 -0.0355,1.5e-4 -0.0355,1.6e-4 z m -7.63005,-0.26275 v -0.0279 h 0.0295 0.0295 l -0.0172,0.0279 -0.0172,0.0279 h -0.0123 -0.0123 z m -3.02084,-0.0544 -0.0164,-0.0265 0.12615,-0.11628 0.12614,-0.11627 2.6e-4,-0.0313 2.5e-4,-0.0313 0.25735,-0.24399 0.25736,-0.24399 0.0644,-0.0624 0.0644,-0.0624 0.11658,-0.13179 0.11659,-0.1318 0.0836,-0.1106 0.0835,-0.11059 0.0304,-0.001 0.0304,-10e-4 0.10882,-0.13046 0.10882,-0.13046 0.0591,-0.0575 0.0591,-0.0575 0.029,-0.0548 0.029,-0.0548 -0.0369,-0.0713 -0.0369,-0.0713 -0.19282,-0.18089 -0.19282,-0.18089 -0.18323,-0.11938 -0.18323,-0.11938 -0.0888,-0.0112 -0.0888,-0.0112 -0.0544,-0.0173 -0.0544,-0.0173 0.009,-0.0454 0.009,-0.0454 0.0694,-0.0337 0.0694,-0.0337 0.23023,-0.0333 0.23023,-0.0333 0.10396,0.0722 0.10397,0.0722 0.1671,0.12932 0.16709,0.12932 0.24369,0.24496 0.24368,0.24496 v 0.0827 0.0827 l -0.0378,0.0314 -0.0378,0.0314 -0.0754,0.11824 -0.0754,0.11824 -0.12864,0.0975 -0.12865,0.0975 -0.0436,0.0447 -0.0436,0.0447 -0.22163,0.16259 -0.22162,0.16259 -0.11257,0.0595 -0.11257,0.0595 -0.11965,0.15099 -0.11965,0.15099 -0.0765,0.0836 -0.0765,0.0836 -0.16587,0.15515 -0.16587,0.15516 -0.0948,0.0468 -0.0948,0.0468 h -0.0498 -0.0498 z m 3.98715,-0.71527 -0.0194,-0.0194 v -0.0344 -0.0344 l 0.0807,-0.0515 0.0807,-0.0515 0.14579,-0.12532 0.1458,-0.12532 0.045,-0.0444 0.045,-0.0444 0.0474,-0.0879 0.0474,-0.0879 h 0.0727 0.0727 l 0.0539,-0.0288 0.0539,-0.0288 v -0.12232 -0.12232 l 0.0734,-0.0577 0.0734,-0.0577 h 0.0372 0.0372 l 0.11299,-0.0589 0.11298,-0.0589 0.0269,-0.0503 0.0269,-0.0503 -0.0176,-0.13453 -0.0176,-0.13454 -0.0418,-0.0828 -0.0418,-0.0828 -10e-4,-0.48808 -0.001,-0.48809 0.0494,-0.0751 0.0494,-0.0751 -0.009,-0.10588 -0.009,-0.10588 0.1114,-0.009 0.11139,-0.009 0.0912,0.0488 0.0912,0.0488 0.0156,0.0623 0.0156,0.0623 -0.0295,0.0552 -0.0295,0.0552 0.0168,0.41389 0.0168,0.41389 0.0661,0.19284 0.0661,0.19284 v 0.05 0.05 l 0.0583,0.11193 0.0583,0.11193 -0.0583,0.12037 -0.0583,0.12037 -0.0793,0.076 -0.0793,0.076 -0.14056,0.0755 -0.14057,0.0755 -0.27451,0.1717 -0.27451,0.1717 -0.0975,0.0418 -0.0975,0.0418 -0.15317,0.0617 -0.15317,0.0617 -0.0819,0.0799 -0.0819,0.0799 h -0.0621 -0.062 l -0.0386,0.0148 -0.0385,0.0148 z m 8.04762,-0.4743 -0.0186,-0.0186 v -0.0371 -0.0371 h 0.0253 0.0253 l 0.12894,-0.12532 0.12895,-0.12532 h 0.0503 0.0503 l 0.0519,0.0573 0.0519,0.0573 -0.0285,0.0452 -0.0285,0.0452 -0.0457,0.0288 -0.0457,0.0288 -0.11124,-0.0297 -0.11125,-0.0297 -0.0292,0.0292 -0.0292,0.0292 v 0.0501 0.0501 h -0.0232 -0.0232 z"
       id="path1" /></g></svg>
