<?xml version="1.0" encoding="UTF-8" standalone="no"?>
<!-- Created with Inkscape (http://www.inkscape.org/) -->

<svg
   width="297mm"
   height="210mm"
   viewBox="0 0 297 210"
   version="1.1"
   id="svg1"
   xml:space="preserve"
   inkscape:version="1.4 (86a8ad7, 2024-10-11)"
   sodipodi:docname="Certificate.svg"
   inkscape:export-filename="Certificate.png"
   inkscape:export-xdpi="300"
   inkscape:export-ydpi="300"
   xmlns:inkscape="http://www.inkscape.org/namespaces/inkscape"
   xmlns:sodipodi="http://sodipodi.sourceforge.net/DTD/sodipodi-0.dtd"
   xmlns:xlink="http://www.w3.org/1999/xlink"
   xmlns="http://www.w3.org/2000/svg"
   xmlns:svg="http://www.w3.org/2000/svg"><sodipodi:namedview
     id="namedview1"
     pagecolor="#505050"
     bordercolor="#eeeeee"
     borderopacity="1"
     inkscape:showpageshadow="0"
     inkscape:pageopacity="0"
     inkscape:pagecheckerboard="0"
     inkscape:deskcolor="#d1d1d1"
     inkscape:document-units="mm"
     inkscape:zoom="1.6285978"
     inkscape:cx="471.57131"
     inkscape:cy="401.26543"
     inkscape:window-width="1920"
     inkscape:window-height="1009"
     inkscape:window-x="-8"
     inkscape:window-y="-8"
     inkscape:window-maximized="1"
     inkscape:current-layer="layer1" /><defs
     id="defs1"><pattern
       inkscape:collect="always"
       xlink:href="#Wave"
       preserveAspectRatio="xMidYMid"
       id="pattern17"
       patternTransform="scale(0.15)"
       x="0"
       y="0" /><pattern
       patternUnits="userSpaceOnUse"
       width="24"
       height="10"
       preserveAspectRatio="xMidYMid"
       id="Wave"
       style="fill:#ffe6d9"
       x="0"
       y="0"
       inkscape:collect="always"
       inkscape:isstock="true"
       inkscape:label="波形"><g
         id="wave_g"
         style="display:inline"><path
           d="M 12,-2 C 9.1666695,-2 7.1679672,-0.56445187 5.4179687,0.68554687 3.6679703,1.9355456 2.1666645,3 0,3 V 5 C 2.8333305,5 4.8320328,3.5644519 6.5820312,2.3144531 8.3320297,1.0644544 9.8333355,0 12,0 14.166665,0 15.667971,1.0644544 17.417969,2.3144531 19.167967,3.5644519 21.166669,5 24,5 V 3 C 21.833335,3 20.332029,1.9355456 18.582031,0.68554687 16.832033,-0.56445189 14.833331,-2 12,-2 Z"
           id="path3" /><path
           d="M 12,3 C 9.1666695,3 7.1679672,4.4355481 5.4179687,5.6855469 3.6679703,6.9355456 2.1666645,8 0,8 v 2 C 2.8333305,10 4.8320328,8.5644519 6.5820312,7.3144531 8.3320297,6.0644544 9.8333355,5 12,5 14.166665,5 15.667971,6.0644544 17.417969,7.3144531 19.167967,8.5644519 21.166669,10 24,10 V 8 C 21.833335,8 20.332029,6.9355456 18.582031,5.6855469 16.832033,4.4355481 14.833331,3 12,3 Z"
           id="path4" /><path
           d="M 12,8 C 9.1666695,8 7.1679672,9.4355481 5.4179687,10.685547 3.6679703,11.935546 2.1666645,13 0,13 v 2 C 2.8333305,15 4.8320328,13.564452 6.5820312,12.314453 8.3320297,11.064454 9.8333355,10 12,10 c 2.166665,0 3.667971,1.064454 5.417969,2.314453 C 19.167967,13.564452 21.166669,15 24,15 V 13 C 21.833335,13 20.332029,11.935546 18.582031,10.685547 16.832033,9.4355481 14.833331,8 12,8 Z"
           id="path16" /></g></pattern><linearGradient
       id="swatch8"
       inkscape:swatch="solid"><stop
         style="stop-color:#ff4800;stop-opacity:1;"
         offset="0"
         id="stop8" /></linearGradient></defs><g
     inkscape:label="图层 1"
     inkscape:groupmode="layer"
     id="layer1"><rect
       style="fill:#ffb300;fill-opacity:1;stroke:none;stroke-width:0.333109;stroke-linecap:round;stroke-linejoin:round"
       id="rect1"
       width="202.98433"
       height="131.10588"
       x="25.743778"
       y="30.299036"
       rx="0"
       ry="0" /><rect
       style="fill:#fff0da;fill-opacity:1;stroke:none;stroke-width:0.341966;stroke-linecap:round;stroke-linejoin:round"
       id="rect2"
       width="200.34273"
       height="128.12782"
       x="27.064579"
       y="31.788065"
       rx="0.82565588"
       ry="0.82565588" /><rect
       style="fill:url(#pattern17);fill-opacity:1;stroke:none;stroke-width:0.341966;stroke-linecap:round;stroke-linejoin:round"
       id="rect8"
       width="200.34273"
       height="128.12782"
       x="27.064579"
       y="31.788065"
       rx="0.82565588"
       ry="0.82565588" /><g
       id="g63"
       transform="matrix(8.5401303,0,0,8.5401303,-468.33388,-331.97296)"
       style="stroke-width:0.187351;stroke-dasharray:none"><path
         style="fill:#f2bbc3;fill-opacity:1;stroke:#f87474;stroke-width:0.09367539;stroke-linecap:round;stroke-linejoin:round;stroke-dasharray:none;stroke-opacity:1;paint-order:markers stroke fill"
         d="m 77.905565,46.565045 1.035373,2.749385 0.327136,-0.72236 0.742708,0.336352 -1.057639,-2.80851 z"
         id="path61"
         inkscape:transform-center-x="-0.6483166"
         inkscape:transform-center-y="1.557556" /><path
         style="fill:#f2bbc3;fill-opacity:1;stroke:#f87474;stroke-width:0.09367539;stroke-linecap:round;stroke-linejoin:round;stroke-dasharray:none;stroke-opacity:1;paint-order:markers stroke fill"
         d="m 77.505851,46.577026 -0.592109,2.87759 0.662227,-0.436208 0.448495,0.680882 0.604842,-2.939472 z"
         id="path62"
         inkscape:transform-center-x="0.29261991"
         inkscape:transform-center-y="1.688155" /><path
         sodipodi:type="star"
         style="fill:#ffdbad;fill-opacity:1;stroke:#ff4d07;stroke-width:0.56843695;stroke-linecap:round;stroke-linejoin:round;stroke-dasharray:none;stroke-opacity:1;paint-order:markers stroke fill"
         id="path63"
         inkscape:flatsided="false"
         sodipodi:sides="11"
         sodipodi:cx="190.63248"
         sodipodi:cy="306.46408"
         sodipodi:r1="9.9750633"
         sodipodi:r2="7.2939081"
         sodipodi:arg1="1.0471976"
         sodipodi:arg2="1.3327969"
         inkscape:rounded="0"
         inkscape:randomized="0"
         d="m 195.62001,315.10274 -3.26793,-1.55035 -2.19424,2.87546 -1.91097,-3.07102 -3.4005,1.2327 0.0527,-3.61665 -3.52713,-0.80144 1.99965,-3.01403 -2.53392,-2.58112 3.31171,-1.45447 -0.73621,-3.54132 3.57234,0.56687 1.29525,-3.37717 2.69877,2.40823 2.91546,-2.14079 0.96836,3.485 3.61005,-0.22473 -1.0695,3.4553 3.15846,1.76268 -2.7678,2.32857 1.7041,3.19046 -3.58734,0.46253 z"
         transform="matrix(0.16479468,0,0,0.16479468,46.843113,-4.4549027)"
         inkscape:transform-center-x="-0.027334828"
         inkscape:transform-center-y="-0.054517816" /><text
         xml:space="preserve"
         style="font-style:normal;font-variant:normal;font-weight:normal;font-stretch:normal;font-size:0.206541px;line-height:1.02;font-family:'Sarasa Gothic SC';-inkscape-font-specification:'Sarasa Gothic SC, Normal';font-variant-ligatures:normal;font-variant-caps:normal;font-variant-numeric:normal;font-variant-east-asian:normal;text-align:start;letter-spacing:0.00433737px;word-spacing:0px;writing-mode:lr-tb;direction:ltr;text-anchor:start;fill:#c33300;fill-opacity:1;stroke:none;stroke-width:0.187351;stroke-linecap:round;stroke-linejoin:round;stroke-dasharray:none;stroke-dashoffset:0;stroke-opacity:1;paint-order:markers stroke fill"
         id="text6"
         transform="rotate(-156.18483,78.267366,46.056488)"><textPath
           xlink:href="#path20"
           startOffset="50%"
           id="textPath20"
           style="font-style:normal;font-variant:normal;font-weight:normal;font-stretch:normal;font-size:0.206541px;line-height:1.02;font-family:'Sarasa Gothic SC';-inkscape-font-specification:'Sarasa Gothic SC, Normal';font-variant-ligatures:normal;font-variant-caps:normal;font-variant-numeric:normal;font-variant-east-asian:normal;text-align:center;letter-spacing:0.00433737px;word-spacing:0px;text-anchor:middle;fill:#c33300;fill-opacity:1;stroke:none;stroke-width:0.187351;stroke-opacity:1">WDP 信托·WDP TRUST AGENCY·LE AGENCE FIDUCIAIRE DE WDP·</textPath></text><path
         id="path20"
         style="fill:none;stroke:none;stroke-width:0.0503973;stroke-linecap:round;stroke-linejoin:round;paint-order:markers stroke fill"
         d="m 78.269463,44.930302 c -0.629982,0 -1.140683,0.510701 -1.140683,1.140683 0,0.629982 0.510701,1.140683 1.140683,1.140683 0.629982,0 1.140682,-0.510701 1.140682,-1.140683 0,-0.629982 -0.5107,-1.140683 -1.140682,-1.140683 z"
         sodipodi:nodetypes="sssss" /><path
         style="fill:none;fill-opacity:1;stroke:#ff5d30;stroke-width:0.351283;stroke-linecap:round;stroke-linejoin:round;stroke-dasharray:none;stroke-dashoffset:0;stroke-opacity:1;paint-order:markers stroke fill"
         d="m 77.576376,46.160322 0.594207,0.457083 0.685624,-1.005582"
         id="path21" /></g><text
       xml:space="preserve"
       style="font-size:7.94686px;line-height:1.62;font-family:'Sarasa UI SC';-inkscape-font-specification:'Sarasa UI SC, Normal';text-align:center;letter-spacing:-0.132749px;word-spacing:-0.00812748px;writing-mode:tb-rl;direction:ltr;text-anchor:middle;fill:#ff4800;fill-opacity:1;stroke:#ffcd35;stroke-width:0.921541;stroke-linecap:round;stroke-linejoin:round;stroke-dasharray:none;stroke-opacity:1"
       x="109.25124"
       y="67.065025"
       id="text2"
       transform="scale(1.1658205,0.85776498)"><tspan
         sodipodi:role="line"
         id="tspan2"
         style="font-style:normal;font-variant:normal;font-weight:900;font-stretch:normal;font-size:17.3386px;font-family:'Source Han Serif SC';-inkscape-font-specification:'Source Han Serif SC, Heavy';font-variant-ligatures:normal;font-variant-caps:normal;font-variant-numeric:normal;font-variant-east-asian:normal;writing-mode:lr-tb;fill:#ff4800;fill-opacity:1;stroke:#ffcd35;stroke-width:0.921541;stroke-dasharray:none;stroke-opacity:1;paint-order:markers stroke fill"
         x="109.18486"
         y="67.065025">证   书</tspan></text><text
       xml:space="preserve"
       style="font-style:normal;font-variant:normal;font-weight:600;font-stretch:normal;font-size:6.35px;line-height:1.62;font-family:'Source Han Serif SC';-inkscape-font-specification:'Source Han Serif SC, Semi-Bold';font-variant-ligatures:normal;font-variant-caps:normal;font-variant-numeric:normal;font-variant-east-asian:normal;text-align:center;letter-spacing:0px;word-spacing:0px;writing-mode:lr-tb;direction:ltr;text-anchor:middle;fill:#000000;fill-opacity:1;stroke:none;stroke-width:0.899999;stroke-linecap:round;stroke-linejoin:round;stroke-dasharray:none;stroke-opacity:1;paint-order:markers stroke fill"
       x="45.992947"
       y="75.221375"
       id="text3"><tspan
         sodipodi:role="line"
         id="tspan3"
         style="font-style:normal;font-variant:normal;font-weight:600;font-stretch:normal;font-size:6.35px;font-family:'Source Han Serif SC';-inkscape-font-specification:'Source Han Serif SC, Semi-Bold';font-variant-ligatures:normal;font-variant-caps:normal;font-variant-numeric:normal;font-variant-east-asian:normal;text-align:start;letter-spacing:0px;word-spacing:0px;text-anchor:start;fill:#000000;fill-opacity:1;stroke:none;stroke-width:0.9;stroke-opacity:1"
         x="45.992947"
         y="75.221375">兹证明 Hans 先生本人签名如下：</tspan></text><text
       xml:space="preserve"
       style="font-style:normal;font-variant:normal;font-weight:600;font-stretch:normal;font-size:6.35px;line-height:1.62;font-family:'Source Han Serif SC';-inkscape-font-specification:'Source Han Serif SC, Semi-Bold';font-variant-ligatures:normal;font-variant-caps:normal;font-variant-numeric:normal;font-variant-east-asian:normal;text-align:center;letter-spacing:0px;word-spacing:0px;writing-mode:lr-tb;direction:ltr;text-anchor:middle;white-space:pre;inline-size:123.354;display:inline;fill:#000000;fill-opacity:1;stroke:none;stroke-width:0.899999;stroke-linecap:round;stroke-linejoin:round;stroke-dasharray:none;stroke-opacity:1;paint-order:markers stroke fill"
       x="71.978249"
       y="134.54218"
       id="text4"
       transform="translate(35.711215,-17.407435)"><tspan
         x="71.978249"
         y="134.54218"
         id="tspan8"><tspan
           style="text-align:start;text-anchor:start;stroke-width:0.9"
           id="tspan1">凡与上述图样一致之签名，均系 </tspan><tspan
           style="text-align:start;text-anchor:start;stroke-width:0.9"
           id="tspan6">Hans </tspan><tspan
           style="text-align:start;text-anchor:start;stroke-width:0.9"
           id="tspan7">先生</tspan></tspan><tspan
         x="71.978249"
         y="144.82917"
         id="tspan10"><tspan
           style="text-align:start;text-anchor:start;stroke-width:0.9"
           id="tspan9">亲笔所签。</tspan></tspan></text><text
       xml:space="preserve"
       style="font-style:normal;font-variant:normal;font-weight:600;font-stretch:normal;font-size:6.35px;line-height:1.62;font-family:'Source Han Serif SC';-inkscape-font-specification:'Source Han Serif SC, Semi-Bold';font-variant-ligatures:normal;font-variant-caps:normal;font-variant-numeric:normal;font-variant-east-asian:normal;text-align:start;letter-spacing:0px;word-spacing:0px;writing-mode:lr-tb;direction:ltr;text-anchor:start;fill:#000000;fill-opacity:1;stroke:none;stroke-width:0.899999;stroke-linecap:round;stroke-linejoin:round;stroke-dasharray:none;stroke-opacity:1;paint-order:markers stroke fill"
       x="166.60132"
       y="133.42183"
       id="text5"><tspan
         sodipodi:role="line"
         id="tspan5"
         style="letter-spacing:0px;word-spacing:0px;stroke-width:0.9"
         x="166.60132"
         y="133.42183">友好的信用大户</tspan></text><path
       style="fill:#000000;stroke-width:0.175437"
       d="m 204.51315,153.80314 -0.0581,-0.007 -0.11883,-0.0185 -0.11882,-0.0185 0.0174,-0.28787 0.0174,-0.28788 0.0898,-0.37957 0.0898,-0.37957 v -0.1041 -0.10411 l 0.0619,-0.0733 0.062,-0.0733 0.0533,-0.35818 0.0533,-0.35818 -0.0285,-0.0743 -0.0285,-0.0743 0.0492,-0.10129 0.0493,-0.1013 0.0472,-0.23209 0.0472,-0.23209 0.0336,-0.2785 0.0337,-0.27851 0.008,-0.13925 0.008,-0.13926 0.0553,-0.25529 0.0553,-0.2553 0.0191,-0.453 0.0191,-0.45302 0.0261,-0.0423 0.0261,-0.0423 0.0693,-1.12933 0.0693,-1.12933 0.0439,-0.11602 0.0439,-0.11601 0.0264,-0.7659 0.0264,-0.76589 0.0484,-0.39455 0.0484,-0.39455 -5.2e-4,-0.11601 -5.2e-4,-0.11602 0.0653,-0.35461 0.0653,-0.35461 0.11562,-0.20697 0.11561,-0.20695 0.0543,-0.21594 0.0543,-0.21592 h 0.0901 0.09 l -0.0249,0.0404 -0.0249,0.0404 0.11629,0.13368 0.11628,0.13368 0.0264,0.10183 0.0264,0.10184 -0.0364,0.059 -0.0364,0.059 -0.0385,0.21058 -0.0385,0.21057 -0.066,0.53382 -0.066,0.53379 -0.0701,0.62308 -0.0701,0.62308 0.0231,0.0375 0.0232,0.0375 -0.0478,0.17501 -0.0478,0.17503 -0.0747,1.22967 -0.0747,1.22969 -0.0166,0.0268 -0.0166,0.0268 -0.0234,0.20566 -0.0234,0.20565 -0.0288,0.31045 -0.0288,0.31044 -0.0662,0.055 -0.0662,0.055 3.5e-4,0.0756 3.5e-4,0.0756 0.0673,0.129 0.0673,0.12899 -0.10678,0.20082 -0.10679,0.20081 -0.0316,0.37783 -0.0316,0.37781 -0.0454,0.11923 -0.0454,0.11922 v 0.1996 0.1996 l -0.0864,0.11066 -0.0864,0.11067 -0.0293,0.0935 -0.0293,0.0935 -0.0266,0.23139 -0.0266,0.23139 -0.0685,0.10572 -0.0685,0.10571 0.0273,0.0442 0.0273,0.0442 -0.10129,0.13693 -0.1013,0.13694 0.024,0.0914 0.0239,0.0914 -0.0641,0.24692 -0.0641,0.24691 v 0.19877 0.19877 z m 1.35771,-10.71556 h 0.0618 l -0.0309,-0.0309 -0.0309,-0.0309 -0.0309,0.0309 -0.0309,0.0309 z m -28.38443,9.16203 -0.13926,0.0205 -0.20776,-0.0352 -0.20777,-0.0352 -0.0834,0.0218 -0.0834,0.0218 -0.11508,-0.12405 -0.11508,-0.12404 5.3e-4,-0.1021 5.3e-4,-0.1021 0.17353,-0.0745 0.17353,-0.0745 0.59436,0.007 0.59437,0.007 0.0495,-0.0597 0.0495,-0.0597 h 0.19286 0.19287 l 0.22625,-0.19909 0.22624,-0.19909 0.0121,-0.11428 0.012,-0.11428 0.004,-0.0348 0.004,-0.0348 h 0.0721 0.0721 l 0.11508,-0.26012 0.11508,-0.26013 0.0276,-0.20077 0.0276,-0.20076 -0.0304,-0.12096 -0.0304,-0.12097 -0.11347,-0.0431 -0.11348,-0.0431 -0.0665,-0.15928 -0.0665,-0.15929 -0.17844,-0.028 -0.17846,-0.028 -0.32492,-0.007 -0.32492,-0.007 -0.20469,0.0571 -0.20468,0.0571 -0.10505,0.0688 -0.10504,0.0688 -0.20091,-0.057 -0.20092,-0.057 -0.0673,-0.0614 -0.0673,-0.0614 0.13114,-0.13684 0.13114,-0.13684 0.37719,-0.12163 0.3772,-0.12151 0.0992,-0.049 0.0992,-0.049 0.34179,0.0253 0.34177,0.0253 0.18528,0.034 0.18527,0.034 0.0617,0.0617 0.0617,0.0617 0.12445,0.0292 0.12445,0.0292 0.15482,0.14496 0.15482,0.14498 0.0668,0.12752 0.0668,0.12753 0.0533,0.35986 0.0532,0.35988 0.001,0.16248 0.001,0.16249 -0.10959,0.23206 -0.1096,0.23207 -0.0783,0.0929 -0.0783,0.0929 -0.0605,0.16246 -0.0605,0.16247 -0.21391,0.20027 -0.21392,0.20028 -0.18311,-0.023 -0.18311,-0.023 -0.0954,0.05 -0.0954,0.0502 -0.13288,0.11066 -0.13287,0.11067 -0.0852,-0.027 -0.0852,-0.027 -0.1408,0.0728 -0.14081,0.0728 -0.12847,-0.003 -0.12846,-0.003 z m -1.92924,-0.24982 h -0.0844 l -0.0286,-0.0464 -0.0286,-0.0464 h -0.0874 -0.0874 l -0.0274,-0.0444 -0.0274,-0.0444 0.0446,-0.35872 0.0446,-0.35871 -0.0662,-0.0945 -0.0662,-0.0945 v -0.11976 -0.11976 l -0.12538,-0.25282 -0.12539,-0.2528 -0.0603,-0.0613 -0.0603,-0.0613 v -0.0858 -0.0858 l -0.0282,-0.0735 -0.0282,-0.0735 h -0.0586 -0.0586 l -0.0272,-0.22049 -0.0272,-0.22048 0.13786,-0.12766 0.13784,-0.12766 h 0.0583 0.0584 l 0.0739,0.15086 0.0739,0.15085 0.10892,0.2553 0.10893,0.25531 0.0815,0.12097 0.0815,0.12096 0.0313,0.20399 0.0313,0.204 0.0644,0.12766 0.0644,0.12766 h 0.0423 0.0423 l -0.0254,0.15656 -0.0254,0.15655 0.0496,0.0306 0.0496,0.0306 -0.0252,0.31176 -0.0252,0.31174 -0.0482,0.12766 -0.0482,0.12766 z m -2.52095,-0.84156 -0.0523,-0.007 -0.14969,-0.0714 -0.14968,-0.0715 -0.005,-0.0966 -0.005,-0.0966 -0.0107,-0.62664 -0.0107,-0.62664 -0.0339,-0.36725 -0.0339,-0.36725 -0.0329,-0.0505 -0.0329,-0.0505 -0.0107,-0.25529 -0.0107,-0.2553 -0.0285,-0.37135 -0.0285,-0.37133 -0.0355,-0.0464 -0.0355,-0.0464 -0.0321,-0.65684 -0.0321,-0.65684 0.0534,-0.0331 0.0534,-0.033 -0.0151,-0.29315 -0.0151,-0.29316 0.0349,-0.0349 0.0349,-0.0349 -0.0284,-0.1516 -0.0285,-0.1516 0.0743,-0.14896 0.0743,-0.14896 v -0.10317 -0.10317 l 0.0696,-0.0578 0.0696,-0.0578 v -0.0612 -0.0611 l 0.0514,-0.0317 0.0514,-0.0317 -0.0313,0.0986 -0.0313,0.0986 0.12511,0.0476 0.12512,0.0476 -0.0335,0.19615 -0.0335,0.19616 -0.0148,0.16247 -0.0149,0.16246 -0.0254,0.60343 -0.0254,0.60343 0.0488,0.41776 0.0488,0.41776 0.0435,0.44097 0.0435,0.44097 0.005,0.42936 0.005,0.42936 h 0.0357 0.0357 l -0.0147,0.30034 -0.0148,0.30033 0.0351,0.29149 0.0351,0.2915 -0.0411,0.11039 -0.0411,0.1104 0.0978,0.16588 0.0978,0.16587 -0.0274,0.13711 -0.0274,0.1371 -0.0518,0.0625 -0.0518,0.0625 z m 10.83451,-1.80425 h -0.1298 l -0.0637,-0.0772 -0.0637,-0.0772 0.009,-0.31729 0.009,-0.31729 0.0665,-0.12779 0.0665,-0.12779 0.0827,-0.25531 0.0827,-0.25529 0.0856,-0.12324 0.0856,-0.12324 5.4e-4,-0.13208 5.5e-4,-0.13207 0.0736,-0.25529 0.0736,-0.25531 0.0407,-0.20888 0.0407,-0.20887 0.0496,-0.32493 0.0496,-0.32493 0.0529,-0.23208 0.0529,-0.23209 -0.003,-0.32493 -0.003,-0.32492 0.0699,-0.0795 0.0699,-0.0795 -0.028,-0.0727 -0.028,-0.0728 0.0653,-0.31194 0.0653,-0.31194 -0.0346,-0.48738 -0.0347,-0.48739 0.0448,-0.13926 0.0448,-0.13925 0.0454,-0.0581 0.0454,-0.0581 h 0.064 0.064 v 0.0696 0.0696 h 0.0938 0.0938 l 0.0541,0.11869 0.0541,0.11869 -0.0549,0.86871 -0.0549,0.86871 -0.0677,0.50954 -0.0677,0.50953 -0.0451,0.13926 -0.0451,0.13925 -0.0779,0.48738 -0.0779,0.48738 -0.064,0.12364 -0.064,0.12364 -0.023,0.20127 -0.023,0.20126 -0.0476,0.19685 -0.0476,0.19686 0.009,0.0352 0.0107,0.0352 -0.0835,0.32493 -0.0835,0.32492 -0.11214,0.35812 -0.11214,0.35812 v 0.0662 0.0662 l -0.0735,0.0282 -0.0735,0.0282 z m 3.47944,-0.15774 -0.0696,0.005 -0.12579,-0.0197 -0.12579,-0.0195 0.009,-0.54251 0.009,-0.54251 -0.0107,-0.46417 -0.0107,-0.46417 0.0107,-0.46418 0.0107,-0.46419 0.0341,-0.0524 0.0341,-0.0525 0.031,-0.40453 0.031,-0.40453 -0.0652,-0.0412 -0.0652,-0.0413 -0.0875,-6.9e-4 -0.0875,-7.1e-4 -0.1112,-0.1199 -0.1112,-0.1199 0.0304,-0.16169 0.0304,-0.1617 0.19153,0.0316 0.19153,0.0316 0.0558,0.045 0.0558,0.045 0.0923,-0.0293 0.0923,-0.0293 0.1187,-0.21246 0.11869,-0.21246 v -0.0205 -0.0205 l -0.089,0.0282 -0.089,0.0282 -0.0268,-0.0434 -0.0268,-0.0434 0.0733,-0.17553 0.0733,-0.17554 -0.0252,-0.18912 -0.025,-0.18913 -0.0306,-0.17523 -0.0307,-0.17525 0.0973,-0.22613 0.0973,-0.22613 0.0274,-0.34132 0.0274,-0.34131 0.0662,-0.17407 0.0662,-0.17407 0.0806,-0.19727 0.0806,-0.19728 0.19268,-0.25529 0.19268,-0.25531 0.0996,-0.0898 0.0995,-0.0898 0.16308,-0.0134 0.16308,-0.0134 0.0273,0.0709 0.0272,0.0709 -0.0526,0.0526 -0.0526,0.0526 v 0.0844 0.0844 l -0.11602,0.18383 -0.11602,0.18382 v 0.0254 0.0254 l -0.16246,0.34236 -0.16246,0.34235 v 0.0996 0.0996 l -0.0648,0.12538 -0.0648,0.12539 -0.009,0.11601 -0.009,0.11602 0.005,0.0478 0.005,0.0478 0.52219,-0.007 0.52221,-0.007 0.0431,0.0253 0.0431,0.0253 0.54696,0.004 0.54697,0.004 0.26211,0.22868 0.26211,0.22867 -0.0241,0.1793 -0.0241,0.1793 -0.06,0.0723 -0.0599,0.0724 -0.28584,0.13506 -0.28585,0.13506 -0.11776,0.10919 -0.11789,0.10919 -0.33266,-0.0158 -0.33267,-0.0158 -0.11094,0.0727 -0.11093,0.0727 -0.0484,-0.03 -0.0484,-0.03 v -0.10813 -0.10812 l 0.0818,-0.10089 0.0818,-0.1009 0.19813,-0.0266 0.19811,-0.0266 0.0892,-0.12525 0.0893,-0.12525 0.14341,0.021 0.1434,0.021 0.091,-0.0824 0.091,-0.0823 v -0.0339 -0.0339 l -0.10437,-0.0339 -0.10438,-0.0339 -0.6191,0.005 -0.61909,0.005 -0.0392,0.0242 -0.0392,0.0242 -0.0273,-0.0442 -0.0273,-0.0442 -0.16122,0.0262 -0.16122,0.0262 -0.0669,-0.0555 -0.0669,-0.0555 -0.0934,0.0934 -0.0934,0.0934 -0.0225,0.15346 -0.0225,0.15344 -0.0507,0.32493 -0.0507,0.32491 -0.007,0.1974 -0.007,0.19739 0.0264,0.0264 0.0264,0.0264 0.39229,0.0242 0.3923,0.0242 0.18074,-0.0913 0.18074,-0.0913 0.11602,0.0511 0.11602,0.0511 0.05,0.0648 0.05,0.0648 0.0891,-0.0478 0.0891,-0.0478 0.21815,-0.0327 0.21814,-0.0328 0.11013,0.11883 0.11013,0.11883 0.10116,-0.0265 0.10116,-0.0265 v 0.0549 0.0549 l -0.0523,0.10143 -0.0523,0.10144 -0.18573,0.18151 -0.18574,0.18151 -0.0862,-0.0538 -0.0862,-0.0539 h -0.18357 -0.18356 l -0.0274,-0.0444 -0.0274,-0.0444 -0.0595,0.0229 -0.0596,0.0229 -0.13114,-0.0681 -0.13114,-0.0681 -0.0994,0.0652 -0.0993,0.0652 -0.17369,-0.0282 -0.17369,-0.0282 -0.0249,-0.0401 -0.0249,-0.0401 h -0.12953 -0.12953 l -0.14179,0.0494 -0.14181,0.0494 -0.047,0.12458 -0.047,0.12458 -0.0285,0.55702 -0.0284,0.55701 -0.0193,0.48739 -0.0193,0.48738 -0.0499,0.46419 -0.0499,0.46417 -0.0107,0.18528 -0.0107,0.18529 z m 14.19386,-0.63947 -0.0597,-0.008 -0.19728,-0.0178 -0.19727,-0.0178 v -0.0597 -0.0597 l -0.22049,-0.10598 -0.22048,-0.10598 -0.11214,-0.0522 -0.11213,-0.0522 -0.12793,-0.12765 -0.12793,-0.12766 h -0.0413 -0.0414 l -0.14838,-0.19802 -0.14837,-0.19802 -0.0923,-0.0577 -0.0923,-0.0577 v -0.0946 -0.0946 l -0.10585,-0.10223 -0.10585,-0.10224 -0.0562,-0.129 -0.0562,-0.12899 -0.0691,-0.0265 -0.069,-0.0265 -0.10491,-0.21 -0.10491,-0.20998 -0.0585,-0.0225 -0.0586,-0.0225 -0.14588,-0.30566 -0.14588,-0.30566 -0.21322,-0.22318 -0.21322,-0.22318 h -0.0767 -0.0767 l -0.0309,-0.1649 -0.0309,-0.16491 -0.0787,-0.0278 -0.0787,-0.0278 -0.0858,-0.074 -0.0858,-0.074 -0.1112,0.13901 -0.1112,0.13901 -1.7e-4,0.0488 -1.7e-4,0.0488 -0.18567,0.38394 -0.18568,0.38395 v 0.0831 0.0831 l -0.0867,0.11066 -0.0867,0.11067 -0.14375,0.27851 -0.14374,0.2785 -0.1454,0.13925 -0.14539,0.13926 -0.0632,0.12137 -0.0632,0.12137 -0.33855,0.31387 -0.33857,0.31389 -0.18566,0.0903 -0.18567,0.0903 -0.1306,-0.0498 -0.1306,-0.0498 0.0146,-0.15055 0.0146,-0.15057 0.12485,-0.0596 0.12484,-0.0595 0.0276,-0.087 0.0276,-0.087 0.10276,-0.0273 0.10277,-0.0273 0.18567,-0.23008 0.18567,-0.23007 0.10571,-0.15341 0.10571,-0.15341 0.11723,-0.1798 0.11722,-0.1798 0.11842,-0.29598 0.11843,-0.29598 h 0.0439 0.0439 l 0.0673,-0.16098 0.0673,-0.16097 v -0.10156 -0.10157 l 0.11896,-0.15594 0.11896,-0.15595 -0.0276,-0.087 -0.0276,-0.087 0.0955,-0.1619 0.0955,-0.1619 0.11482,-0.29304 0.11481,-0.29305 v -0.14438 -0.14437 l 0.0404,-0.0442 0.0404,-0.044 0.0294,-0.12485 0.0294,-0.12485 -0.0401,-0.0247 -0.0402,-0.0248 -0.0336,0.0336 -0.0336,0.0336 -0.10063,0.004 -0.10063,0.004 -0.5185,0.0357 -0.51852,0.0357 -0.0733,-0.14179 -0.0733,-0.14178 v -0.10678 -0.10678 l 0.21386,-0.11348 0.21386,-0.11347 0.48757,0.008 0.48756,0.008 0.0597,0.0495 0.0597,0.0495 0.14519,-0.17578 0.14518,-0.17576 0.0448,-0.18568 0.0448,-0.18567 0.0933,-0.33555 0.0933,-0.33556 v -0.0851 -0.0851 l 0.0929,-0.19214 0.0929,-0.19215 v -0.11588 -0.11588 l 0.14298,-0.39518 0.14299,-0.39517 0.13168,-0.1817 0.13167,-0.18172 0.0961,-0.18829 0.0961,-0.18828 0.0491,-0.0304 0.0491,-0.0304 0.0676,0.0561 0.0676,0.0561 -0.001,0.26122 -0.001,0.26122 -0.0918,0.20234 -0.0918,0.20234 -5.4e-4,0.0761 -5.2e-4,0.0761 -0.16196,0.45738 -0.16194,0.45738 v 0.10196 0.10197 l -0.0392,0.044 -0.0392,0.0442 -0.0585,0.34813 -0.0585,0.34813 -0.0648,0.17501 -0.0648,0.17501 v 0.0891 0.0891 l 0.0484,0.03 0.0484,0.03 0.11307,-0.0741 0.11308,-0.0741 0.19159,0.0431 0.19161,0.0431 0.19229,-0.0694 0.19229,-0.0695 0.22581,0.0253 0.2258,0.0253 0.12833,-0.0664 0.12833,-0.0664 0.028,-0.0729 0.028,-0.0729 0.13932,0.072 0.13932,0.072 0.12846,0.001 0.12847,0.001 0.14522,0.009 0.14523,0.009 0.0278,0.29879 0.0278,0.29878 -0.0186,0.0186 -0.0186,0.0186 -0.17775,0.0452 -0.17774,0.0452 -0.23209,-0.005 -0.23209,-0.005 -0.0392,-0.0388 -0.0392,-0.0388 -0.1651,0.0456 -0.1651,0.0456 -0.10491,-0.0562 -0.10491,-0.0562 -0.22463,0.0522 -0.22462,0.0522 -0.32493,-0.005 -0.32493,-0.005 -0.14223,0.0329 -0.14225,0.0329 -0.0582,0.0931 -0.0582,0.0931 -0.0392,0.2411 -0.0392,0.24112 -0.12525,0.26451 -0.12525,0.26453 0.0277,0.0721 0.0277,0.0721 0.0903,-0.0483 0.0903,-0.0484 0.16391,0.10438 0.16391,0.10437 0.028,0.0812 0.028,0.0812 h 0.0377 0.0377 l 0.19126,0.18562 0.19128,0.18562 v 0.0234 0.0234 l 0.30156,0.35953 0.30156,0.35953 1.6e-4,0.053 1.5e-4,0.053 0.0696,0.0268 0.0696,0.0268 v 0.0678 0.0677 l 0.16246,0.17226 0.16245,0.17226 7.1e-4,0.0747 7e-4,0.0747 0.13482,0.16246 0.13481,0.16246 0.0965,0.0977 0.0965,0.0977 v 0.0732 0.0732 l 0.0917,0.029 0.0917,0.029 0.0593,0.12217 0.0593,0.12217 0.20887,0.12954 0.20888,0.12966 0.0696,0.0318 0.0696,0.0319 0.10919,0.0838 0.10919,0.0838 0.16039,0.0301 0.16039,0.0301 0.0723,0.1104 0.0724,0.11039 h 0.0875 0.0875 v 0.0608 0.0608 l -0.0581,0.0701 -0.0581,0.0701 -0.12605,0.078 -0.12605,0.078 z m -30.6001,-0.68816 h -0.065 l -0.0674,-0.22985 -0.0674,-0.22985 0.017,-0.42386 0.017,-0.42387 -0.0474,-0.0884 -0.0474,-0.0884 0.066,-0.10491 0.066,-0.10491 0.05,-0.29525 0.05,-0.29526 0.0508,-0.0613 0.0508,-0.0613 0.0439,-0.3101 0.0439,-0.31009 0.0862,-0.12244 0.0862,-0.12244 0.0344,-0.11602 0.0345,-0.11601 0.061,-0.13926 0.061,-0.13925 0.12351,-0.30172 0.12351,-0.30172 0.0929,-0.25529 0.0929,-0.2553 0.0608,-0.13925 0.0607,-0.13926 0.14999,-0.32492 0.15001,-0.32492 0.10424,-0.20888 0.10424,-0.20889 0.16929,-0.33974 0.16927,-0.33974 0.34717,-0.34717 0.34717,-0.34716 v -0.087 -0.087 l 0.11762,-0.13972 0.11762,-0.13971 0.15488,-0.0511 0.15487,-0.0511 0.1985,0.0446 0.19849,0.0446 0.0383,0.0614 0.0383,0.0614 h 0.0969 0.0969 l 0.0785,0.13073 0.0786,0.13074 -0.0915,0.0676 -0.0915,0.0676 -0.0587,-0.0226 -0.0587,-0.0226 -0.23577,-0.0313 -0.23577,-0.0313 -0.26555,0.2733 -0.26557,0.27329 -0.22612,0.41775 -0.2261,0.41777 -0.13815,0.25529 -0.13814,0.2553 -0.12712,0.25529 -0.12713,0.25531 -0.10424,0.30171 -0.10424,0.30172 -0.0447,0.0559 -0.0447,0.0559 -0.089,0.1744 -0.089,0.1744 v 0.0431 0.0431 l -0.0864,0.19075 -0.0864,0.19075 -0.0587,0.16247 -0.0588,0.16246 -0.12792,0.34813 -0.12793,0.34813 -0.14471,0.34291 -0.14472,0.34292 v 0.10397 0.10397 l -0.0595,0.0494 -0.0596,0.0494 0.008,0.26653 0.008,0.26652 -0.0668,0.18875 -0.0668,0.18876 0.0309,0.29003 0.0309,0.29002 -0.0761,0.11615 -0.0761,0.11615 z m 5.73016,-0.0541 -0.0696,-0.007 -0.12659,-0.0193 -0.12659,-0.0193 -0.0913,-0.11601 -0.0913,-0.11602 0.0233,-0.0609 0.0233,-0.0607 0.14813,-0.0707 0.14813,-0.0707 0.11602,-0.0505 0.11601,-0.0505 0.39456,-0.14445 0.39455,-0.14446 0.39455,-0.0654 0.39455,-0.0654 0.3608,-0.004 0.36079,-0.004 0.21943,0.11454 0.21943,0.11455 0.0143,0.16631 0.0143,0.16633 -0.0507,0.0949 -0.0507,0.0947 h -0.25481 -0.25482 l -0.048,0.12632 -0.048,0.12632 -0.0969,-0.15292 -0.0969,-0.15293 -0.3298,0.0225 -0.3298,0.0225 -0.34561,0.0524 -0.34563,0.0525 -0.0492,0.0409 -0.0493,0.041 -0.20851,0.0725 -0.20852,0.0725 z m 13.88371,-0.13167 h -0.0446 l -0.0729,-0.0729 -0.0729,-0.0729 v -0.0446 -0.0446 l 0.0654,-0.15649 0.0654,-0.1565 0.0978,-0.031 0.0978,-0.031 0.0961,-0.19391 0.0961,-0.1939 0.13301,-0.11601 0.13301,-0.11602 0.16527,-0.30171 0.16528,-0.30172 0.0759,-0.16245 0.0759,-0.16247 0.0224,-0.47379 0.0223,-0.47379 -0.0772,-0.23598 -0.0772,-0.23598 0.0242,-0.0392 0.0242,-0.0392 -0.0496,-0.15619 -0.0496,-0.1562 -0.0379,-0.0929 -0.0379,-0.0929 -0.0493,-0.13924 -0.0492,-0.13926 -0.0312,-0.17915 -0.0312,-0.17917 -0.12766,-0.11374 -0.12766,-0.11374 -0.0285,-0.1713 -0.0285,-0.17128 -0.18412,-0.20887 -0.18411,-0.20888 -0.18746,-0.23125 -0.18746,-0.23123 v -0.0376 -0.0376 l -0.0812,-0.084 -0.0812,-0.084 -0.0913,-0.0491 -0.0911,-0.0491 -0.0518,-0.15504 -0.0516,-0.15505 -0.11949,-0.0585 -0.1195,-0.0583 -0.13315,-0.15169 -0.13314,-0.15171 -0.26513,-0.14961 -0.26511,-0.14962 h -0.0863 -0.0863 l -0.0864,-0.0954 -0.0865,-0.0954 -0.11802,0.032 -0.11803,0.032 -0.16246,0.0363 -0.16246,0.0363 -0.37134,0.13388 -0.37134,0.13388 -0.15087,0.0802 -0.15085,0.0802 v 0.0396 0.0396 l -0.12765,0.0491 -0.12766,0.0491 -0.16247,0.0318 -0.16246,0.0318 -0.12766,0.0902 -0.12766,0.0902 v -0.0226 -0.0226 l 0.17562,-0.33105 0.17562,-0.33102 0.11454,-0.0661 0.11455,-0.0661 0.16305,-0.0824 0.16305,-0.0824 0.14583,-0.10438 0.14582,-0.10437 h 0.0347 0.0347 l 0.25992,-0.12766 0.25993,-0.12766 h 0.44769 0.4477 l 0.0898,0.0812 0.0898,0.0812 h 0.14558 0.14556 l 0.0474,0.0884 0.0472,0.0884 0.22253,0.13692 0.22253,0.13693 0.0973,-0.036 0.0973,-0.036 v 0.10665 0.10665 l 0.20307,0.21928 0.20308,0.2193 0.21796,0.20946 0.21797,0.20947 0.0296,0.1345 0.0296,0.13449 0.16172,0.12338 0.1617,0.12338 0.0886,0.17354 0.0886,0.17356 0.038,0.0159 0.038,0.0159 0.14446,0.21613 0.14445,0.21612 0.0309,0.0971 0.0308,0.0971 h 0.0392 0.0392 l 0.0309,0.183 0.0309,0.18301 0.0612,0.0507 0.0611,0.0507 0.03,0.1724 0.03,0.17242 0.0633,0.13925 0.0633,0.13926 0.0583,0.25529 0.0583,0.2553 0.009,0.34814 0.009,0.34813 -0.064,0.3098 -0.0638,0.30982 0.0246,0.0641 0.0246,0.0641 -0.1339,0.18483 -0.13389,0.18484 -0.0588,0.17821 -0.0587,0.17822 -0.129,0.19139 -0.12899,0.1914 -0.0499,0.18569 -0.0499,0.18569 -0.10464,0.0464 -0.10464,0.0464 -0.13521,0.20236 -0.13521,0.20235 -0.1545,0.0645 -0.1545,0.0645 z m -11.67887,-1.91038 -0.18566,0.0352 -0.20889,-0.0806 -0.20887,-0.0806 -0.0854,0.0248 -0.0854,0.0248 -0.35558,0.009 -0.3556,0.0107 -0.13924,-0.0785 -0.13926,-0.0786 -0.18567,-0.0585 -0.18567,-0.0585 -0.12766,-0.0895 -0.12766,-0.0895 v -0.084 -0.084 l 0.0581,-0.0458 0.0581,-0.0456 0.1294,-0.0309 0.1294,-0.0309 0.19359,0.0522 0.1936,0.0522 0.28045,0.0151 0.28045,0.0151 0.18566,0.0195 0.18567,0.0195 0.13926,-0.0806 0.13925,-0.0806 0.19028,-0.031 0.19029,-0.031 0.18791,0.0979 0.18792,0.0979 0.0296,0.15782 0.0296,0.15779 -0.0689,0.16492 -0.0689,0.16491 -0.0372,0.001 -0.0372,10e-4 z m 28.35786,-0.20859 -0.0962,0.0312 -0.17071,-0.19599 -0.17072,-0.19597 0.0273,-0.0946 0.0273,-0.0946 0.0931,-0.0806 0.0933,-0.0806 0.18812,-0.0506 0.1881,-0.0506 0.0975,0.0317 0.0976,0.0317 0.50918,0.015 0.50917,0.015 0.12606,-0.0744 0.12605,-0.0744 0.0727,0.0603 0.0727,0.0603 0.0696,-0.0578 0.0696,-0.0578 v -0.22805 -0.22803 l 0.0749,-0.11441 0.0749,-0.11441 h 0.17994 0.17994 l 0.0579,-0.0929 0.0579,-0.0929 h 0.0516 0.0517 l 0.11842,-0.10972 0.11843,-0.10973 0.14365,-0.10224 0.14365,-0.10223 0.003,-0.078 0.003,-0.078 0.0881,-0.13924 0.088,-0.13926 0.0765,-0.136 0.0765,-0.13601 0.003,-0.46742 0.003,-0.46743 -0.12043,-0.17559 -0.12043,-0.17561 -0.015,-0.0333 -0.015,-0.0333 -0.24042,-0.11079 -0.24042,-0.1108 -0.20442,0.023 -0.20441,0.023 -0.0815,-0.0596 -0.0815,-0.0595 -0.21637,0.0161 -0.21638,0.0161 -0.46418,0.0301 -0.46417,0.0301 -0.13926,0.009 -0.13925,0.009 -0.0575,0.0364 -0.0575,0.0364 -0.56915,0.0253 -0.56915,0.0253 -0.0803,0.0714 -0.0803,0.0715 -0.0296,-0.0771 -0.0296,-0.0771 -0.16113,0.0107 -0.16111,0.0107 -0.0842,-0.1116 -0.0842,-0.1116 -0.028,-0.16506 -0.028,-0.16506 0.12083,-0.10625 0.12083,-0.10625 0.0534,0.0401 0.0534,0.0402 0.34813,0.0145 0.34813,0.0144 0.12766,-10e-4 0.12766,-0.001 0.33653,-0.008 0.33652,-0.008 0.0602,-0.0499 0.0602,-0.0499 0.14861,-0.0179 0.14862,-0.0179 0.48737,-0.009 0.48739,-0.009 0.0549,-0.0356 0.0549,-0.0356 0.0322,0.0522 0.0323,0.0522 0.18502,-0.0296 0.18503,-0.0296 0.0645,0.0535 0.0645,0.0535 0.0732,-0.0607 0.0732,-0.0608 0.0401,0.065 0.0401,0.065 0.21862,0.0143 0.21863,0.0143 0.0796,0.0918 0.0796,0.0918 0.0642,7e-4 0.0642,7.1e-4 0.1941,0.20103 0.19408,0.20102 0.0961,0.17095 0.0961,0.17096 v 0.15177 0.15178 l 0.0578,0.0578 0.0578,0.0578 -0.0153,0.42124 -0.0153,0.42124 -0.16483,0.34246 -0.16483,0.34244 -0.28386,0.27966 -0.28386,0.27966 -0.24016,0.11869 -0.24014,0.1187 -0.0253,0.066 -0.0253,0.066 h -0.0677 -0.0677 l -0.0729,0.0729 -0.0729,0.0729 v 0.0609 0.0609 l 0.13605,-0.007 0.13605,-0.007 0.0309,-0.0309 0.0309,-0.0309 0.0668,0.0257 0.0668,0.0257 0.0918,-0.0831 0.0918,-0.0831 0.0573,0.0736 0.0573,0.0736 0.0909,0.0158 0.0909,0.0158 0.0323,0.11575 0.0323,0.11575 0.005,0.25804 0.005,0.25803 -0.0581,0.0739 -0.0581,0.0739 -0.1005,0.0298 -0.10049,0.0298 -0.0298,-0.0483 -0.0298,-0.0483 -0.14812,-1.8e-4 -0.14811,-1.7e-4 -0.15653,-0.0954 -0.15652,-0.0954 -0.0988,0.0887 -0.0988,0.0887 -0.0879,0.0312 -0.0879,0.0312 -0.0745,-0.066 -0.0745,-0.066 -0.23046,0.0357 -0.23048,0.0359 -0.0752,-0.047 -0.0752,-0.047 -0.3674,0.0566 -0.3674,0.0565 -0.2785,0.012 -0.2785,0.0121 z m -31.78121,-1.29714 -0.26696,0.012 -0.29005,-0.11575 -0.29006,-0.11562 -0.0341,-0.0508 -0.0341,-0.0508 -7.2e-4,-0.14199 -7.2e-4,-0.14199 0.0581,-0.0701 0.0581,-0.0701 0.13167,-0.0816 0.13168,-0.0818 0.008,0.0154 0.008,0.0153 0.0515,0.0929 0.0514,0.0929 0.22525,0.0324 0.22525,0.0324 0.0579,-0.048 0.0579,-0.048 0.13314,0.0292 0.13315,0.0292 0.13571,-0.0529 0.13572,-0.0529 0.23208,-0.0385 0.23209,-0.0385 0.37135,-0.12271 0.37133,-0.12271 0.34815,-0.13274 0.34813,-0.13274 0.41775,-0.0929 0.41777,-0.0929 0.20887,-0.0273 0.20888,-0.0273 0.20913,-0.015 0.20912,-0.015 0.20863,-0.0925 0.20865,-0.0925 0.0637,-0.0772 0.0637,-0.0772 h 0.064 0.064 v 0.0492 0.0493 l 0.20234,-0.0304 0.20234,-0.0304 0.029,0.10865 0.0292,0.10879 6.5e-4,0.21791 6.2e-4,0.2179 -0.10437,0.11709 -0.10438,0.11708 -0.25008,-0.0902 -0.25009,-0.0902 -0.0359,0.0222 -0.0359,0.0222 -0.36385,0.0626 -0.36387,0.0626 -0.13925,10e-4 -0.13926,0.001 -0.48512,0.12484 -0.4851,0.12485 -0.12552,0.0894 -0.12551,0.0894 h -0.0531 -0.0531 l -0.14748,0.0763 -0.14746,0.0763 -0.23317,0.0611 -0.23317,0.0611 -0.62666,0.16736 -0.62663,0.16738 z m 2.67548,-2.4568 -0.31974,0.0178 -0.16245,-0.0316 -0.16246,-0.0316 -0.0147,-0.1033 -0.0147,-0.10331 0.1467,-0.0892 0.1467,-0.0893 0.2017,-0.0565 0.20171,-0.0565 0.0771,-0.16248 0.0771,-0.16248 -0.0818,-0.1812 -0.0818,-0.18119 -0.14345,-0.0889 -0.14344,-0.0888 -0.13635,-0.14251 -0.13633,-0.1425 h -0.0522 -0.0522 l -0.11307,-0.15086 -0.11308,-0.15085 -0.0571,-0.10772 -0.0571,-0.10772 0.0739,-0.11281 0.0739,-0.1128 0.14552,7e-4 0.14552,7e-4 0.20724,0.21455 0.20724,0.21454 0.11976,0.0515 0.11976,0.0515 0.16973,0.18876 0.16972,0.18876 0.16676,0.29503 0.16677,0.29503 -0.0137,0.27717 -0.0136,0.27717 -0.21407,0.18116 -0.21408,0.18116 z m 27.94867,-1.32183 h -0.0231 v -0.0232 -0.0231 h 0.0231 0.0232 v 0.0231 0.0232 z m 3.76575,-1.58199 -0.0523,-0.004 -0.15086,-0.066 -0.15086,-0.066 v -0.0463 -0.0463 h -0.068 -0.068 l -0.0496,-0.0929 -0.0496,-0.0929 h -0.0658 -0.0658 l -0.0733,-0.15453 -0.0733,-0.15454 -0.18414,-0.17981 -0.18414,-0.17982 v -0.0925 -0.0925 l -0.11642,-0.1215 -0.11642,-0.12151 -0.0649,-0.25028 -0.0649,-0.2503 0.13716,-0.19934 0.13715,-0.19936 h 0.089 0.089 l 0.11776,0.17324 0.11775,0.17323 v 0.0794 0.0794 l 0.0435,0.0269 0.0435,0.0269 0.0725,0.14547 0.0725,0.14545 v 0.0879 0.0879 l 0.11601,0.10758 0.11602,0.10759 v 0.0367 0.0367 l 0.11843,0.15524 0.11842,0.15525 h 0.0688 0.0688 l 0.0285,0.0743 0.0285,0.0743 0.10865,0.10866 0.10866,0.10866 -0.0292,0.15357 -0.0292,0.15358 -0.0455,0.0581 -0.0456,0.0581 z"
       id="path5" /><rect
       style="fill:none;fill-opacity:1;stroke:#ff9358;stroke-width:0.398509;stroke-linecap:round;stroke-linejoin:round;stroke-dasharray:0.398509, 1.19553;stroke-dashoffset:0;stroke-opacity:1;paint-order:markers stroke fill"
       id="rect5"
       width="195.79332"
       height="123.65949"
       x="29.339367"
       y="34.022297"
       rx="4.6712179"
       ry="4.6712179" /><path
       style="fill:#000000;stroke-width:0.256552"
       d="m 146.57478,105.09044 c -0.224,-0.005 -0.83491,-0.0301 -1.35759,-0.0562 -0.52267,-0.0261 -1.27959,-0.0707 -1.68203,-0.0992 -0.59146,-0.0419 -0.74386,-0.0745 -0.79495,-0.16997 -0.042,-0.0783 -0.0353,-0.15629 0.0196,-0.23133 0.076,-0.10396 0.2129,-0.10695 1.67738,-0.0362 0.94152,0.0455 2.30353,0.0588 3.32554,0.0323 0.952,-0.0245 2.09746,-0.0746 2.54547,-0.11132 0.448,-0.0367 1.19255,-0.12719 1.65456,-0.20121 0.46199,-0.0741 1.20897,-0.22771 1.65993,-0.34156 0.45097,-0.11386 1.05043,-0.29609 1.33214,-0.40497 0.28171,-0.10891 0.66789,-0.30307 0.85818,-0.43152 0.20329,-0.13723 0.38275,-0.32231 0.43512,-0.44874 0.0614,-0.14826 0.0696,-0.27126 0.0262,-0.3955 -0.0346,-0.0992 -0.20789,-0.27753 -0.38504,-0.39635 -0.17716,-0.11883 -0.49737,-0.28209 -0.71157,-0.3628 -0.21421,-0.0807 -0.7102,-0.22024 -1.1022,-0.31005 -0.39201,-0.0898 -1.14037,-0.22395 -1.66305,-0.29809 -0.52267,-0.0741 -1.54595,-0.18372 -2.27396,-0.24353 -0.74593,-0.0613 -2.4939,-0.12443 -4.00488,-0.14469 -1.47468,-0.0198 -4.33069,-0.002 -6.34672,0.0401 -2.01601,0.0418 -4.47494,0.10704 -5.46428,0.14487 -0.98935,0.0378 -2.85263,0.13008 -4.14064,0.20501 -1.28802,0.0749 -2.67784,0.16649 -3.08851,0.20346 -0.45207,0.0407 -0.83293,0.1127 -0.96528,0.18248 -0.18537,0.0977 -0.25373,0.10255 -0.44954,0.0317 -0.19316,-0.0698 -0.5575,-0.0502 -2.22665,0.12022 -1.09763,0.11204 -3.43636,0.3708 -5.19718,0.57501 -1.76082,0.2042 -3.74558,0.42104 -4.41057,0.48186 -0.92805,0.0849 -1.49308,0.18022 -2.43091,0.41026 -0.672,0.16482 -1.6342,0.3741 -2.13821,0.46505 -0.53276,0.0961 -1.3568,0.1849 -1.9685,0.21202 -0.65812,0.0292 -1.38173,0.0166 -1.93229,-0.0338 -0.48409,-0.0443 -1.18388,-0.14131 -1.55507,-0.21573 -0.37119,-0.0744 -0.9984,-0.24309 -1.39379,-0.37485 -0.3954,-0.13174 -1.09021,-0.41669 -1.54406,-0.63319 -0.45385,-0.21651 -1.116894,-0.56534 -1.473457,-0.77519 -0.356552,-0.20984 -0.830003,-0.53276 -1.052106,-0.71759 -0.275165,-0.229 -0.462664,-0.45636 -0.588545,-0.71364 -0.141257,-0.288714 -0.175205,-0.436298 -0.144247,-0.627076 0.02231,-0.137225 0.149491,-0.407753 0.282698,-0.601178 0.133218,-0.193421 0.436984,-0.538703 0.675026,-0.767285 0.242815,-0.233167 0.493944,-0.415608 0.572065,-0.415608 0.07659,0 0.171583,0.06043 0.21112,0.134305 0.06233,0.116521 0.01184,0.190671 -0.381219,0.560003 -0.249209,0.234135 -0.540118,0.5615 -0.646471,0.727476 -0.106377,0.165977 -0.193365,0.378155 -0.193365,0.471507 0,0.09335 0.082,0.287984 0.182117,0.432512 0.106032,0.153054 0.453292,0.443184 0.831521,0.694804 0.357173,0.2376 1.122863,0.6613 1.701543,0.94156 0.57867,0.28025 1.32704,0.59982 1.66304,0.71016 0.336,0.11034 0.90187,0.26357 1.25748,0.34051 0.35561,0.0769 1.05816,0.17611 1.56122,0.22037 0.61176,0.0538 1.25185,0.0619 1.93286,0.0244 l 1.01819,-0.0561 -1.15395,-0.084 c -0.63467,-0.0461 -1.39832,-0.13441 -1.69699,-0.19611 -0.29867,-0.0617 -0.71995,-0.19098 -0.93617,-0.2873 -0.21624,-0.0963 -0.46825,-0.26436 -0.56002,-0.37343 -0.10453,-0.12417 -0.16685,-0.28322 -0.16685,-0.42546 0,-0.14635 0.0636,-0.30274 0.17876,-0.4396 0.0983,-0.11685 0.35652,-0.30219 0.57381,-0.41187 0.21727,-0.10969 0.66374,-0.2778 0.99215,-0.37359 0.32841,-0.0958 1.02475,-0.2463 1.54742,-0.33447 0.52267,-0.08817 1.34741,-0.197143 1.83274,-0.242165 0.48534,-0.04502 1.81409,-0.0799 2.95275,-0.07751 1.13868,0.0023 2.71889,0.04115 3.51158,0.08611 l 1.44125,0.08177 0.28967,-0.189536 c 0.15932,-0.104249 0.53974,-0.383711 0.84537,-0.621035 0.30562,-0.237321 0.79436,-0.668795 1.08606,-0.958826 0.29171,-0.290035 0.71063,-0.763838 0.93093,-1.052895 0.2203,-0.289059 0.38283,-0.543264 0.3612,-0.564901 -0.0216,-0.02163 -0.49207,0.02345 -1.0454,0.100166 -0.55334,0.07673 -1.31151,0.178101 -1.68485,0.225266 -0.42269,0.05341 -1.43429,0.08348 -2.68123,0.07971 -1.73057,-0.0052 -2.1117,-0.02573 -2.80721,-0.150983 -0.44261,-0.07972 -1.08025,-0.237236 -1.41696,-0.350047 -0.33671,-0.112817 -0.9416,-0.373594 -1.34419,-0.579521 -0.49438,-0.252888 -0.82136,-0.471402 -1.00741,-0.673238 -0.15149,-0.164352 -0.29505,-0.376925 -0.31901,-0.472383 -0.0239,-0.09545 -0.026,-0.219445 -0.005,-0.27553 0.0215,-0.05609 0.079,-0.101972 0.12769,-0.101972 0.0486,0 0.33222,0.198866 0.63002,0.441926 0.29779,0.243059 0.80401,0.578066 1.12491,0.744455 0.32091,0.166391 0.85559,0.393699 1.18819,0.50513 0.33259,0.111426 0.8795,0.253457 1.21534,0.315615 0.41189,0.07623 1.14709,0.124204 2.25902,0.147394 1.01556,0.02119 1.97977,0.0037 2.51154,-0.04548 0.47471,-0.04393 1.30604,-0.140624 1.84738,-0.21488 0.54133,-0.07426 1.17535,-0.167441 1.40893,-0.207076 l 0.42468,-0.07206 0.68425,-1.197812 c 0.37634,-0.658799 1.12754,-2.098915 1.66934,-3.200256 0.5418,-1.101343 1.22659,-2.545713 1.52175,-3.209713 0.29518,-0.663999 0.64341,-1.419243 0.77388,-1.678319 0.13047,-0.259076 0.23723,-0.487466 0.23723,-0.507535 0,-0.02007 -0.20619,0.0673 -0.45819,0.194138 -0.25201,0.126843 -0.72289,0.324007 -1.04642,0.438141 -0.32352,0.114139 -0.82289,0.255989 -1.10972,0.315235 -0.28682,0.05925 -0.84686,0.126043 -1.24451,0.148439 -0.39767,0.0224 -1.03582,0.0064 -1.41814,-0.03555 -0.50703,-0.05564 -0.89822,-0.151011 -1.44579,-0.352502 -0.41288,-0.151928 -0.96287,-0.320472 -1.2222,-0.374545 -0.27621,-0.05759 -0.59112,-0.07995 -0.76028,-0.05398 -0.15883,0.02438 -0.40003,0.100075 -0.53602,0.168204 -0.13599,0.06813 -0.36016,0.254746 -0.49817,0.414701 -0.13799,0.159956 -0.32037,0.428284 -0.4053,0.596286 -0.0849,0.168001 -0.19022,0.41618 -0.234,0.551506 -0.0438,0.135327 -0.10144,0.486603 -0.12806,0.780613 -0.0267,0.29401 -0.079,0.534563 -0.11632,0.534563 -0.0378,0 -0.0769,-0.239977 -0.0884,-0.543034 -0.0115,-0.298669 0.0165,-0.680491 0.0618,-0.848492 0.0453,-0.168001 0.17066,-0.483398 0.27868,-0.700882 0.10799,-0.217483 0.35515,-0.557232 0.54919,-0.754997 0.25203,-0.256857 0.46915,-0.402896 0.76008,-0.511228 0.34309,-0.12775 0.49436,-0.145766 0.95976,-0.1143 0.41316,0.02793 0.78973,0.118786 1.49335,0.360287 l 0.94086,0.322932 1.12377,0.02689 c 0.84718,0.02026 1.26942,-4.1e-4 1.71564,-0.08402 0.32553,-0.061 0.8584,-0.204909 1.18414,-0.319798 0.32573,-0.114887 0.77552,-0.300438 0.99952,-0.41233 0.22401,-0.111897 0.57816,-0.306275 0.78703,-0.431961 0.25794,-0.155216 0.50501,-0.392053 0.77023,-0.738313 0.21475,-0.280386 0.55271,-0.658071 0.75099,-0.839303 0.1983,-0.18123 0.46723,-0.380138 0.59763,-0.442016 0.1304,-0.06188 0.33068,-0.112506 0.44506,-0.112506 0.13848,0 0.23222,0.04536 0.28062,0.135759 0.0482,0.09013 0.0504,0.177335 0.007,0.259462 -0.0365,0.06804 -0.2747,0.320379 -0.52952,0.560761 -0.25481,0.240382 -0.66137,0.588381 -0.90347,0.77333 -0.24207,0.184951 -0.47678,0.383157 -0.52155,0.440459 -0.0447,0.05731 -0.26344,0.470736 -0.48592,0.918739 -0.22249,0.448004 -0.68201,1.471285 -1.02116,2.273959 -0.33914,0.802674 -1.03977,2.329959 -1.55696,3.393967 -0.51719,1.064008 -1.15608,2.316382 -1.41976,2.783052 -0.26368,0.466671 -0.4523,0.858465 -0.41914,0.87065 0.0331,0.01219 0.71001,-0.104329 1.50412,-0.258925 0.79411,-0.154595 2.13112,-0.432102 2.97113,-0.616686 0.84,-0.184581 1.58953,-0.36228 1.6656,-0.394882 0.10201,-0.0437 0.26041,-0.386881 0.60295,-1.306093 0.25554,-0.685747 0.96733,-2.529734 1.58177,-4.097747 0.61443,-1.568013 1.2547,-3.186935 1.42282,-3.597605 0.16812,-0.410671 0.46161,-1.046534 0.65221,-1.413031 0.29889,-0.574739 0.33504,-0.684781 0.26286,-0.800344 -0.046,-0.07369 -0.0648,-0.16453 -0.0418,-0.201865 0.023,-0.03733 0.10811,-0.04775 0.18898,-0.02315 0.0808,0.0246 0.20391,0.09457 0.27345,0.155491 0.10476,0.09179 0.11999,0.174676 0.0888,0.484096 -0.0207,0.205335 -0.14405,0.648248 -0.27405,0.984251 -0.13,0.336003 -0.65426,1.680013 -1.16503,2.986691 -0.51075,1.306677 -1.22664,3.154692 -1.59085,4.1067 -0.36421,0.952008 -0.72604,1.903711 -0.80406,2.114893 l -0.14185,0.383968 1.13365,-0.297545 c 0.62352,-0.163652 1.38699,-0.371452 1.69663,-0.461779 0.47175,-0.137622 0.62023,-0.218089 0.91637,-0.496607 0.19437,-0.182806 0.55194,-0.470952 0.79462,-0.640324 0.24266,-0.169371 0.57984,-0.387014 0.74926,-0.483651 0.16943,-0.09664 0.49683,-0.2393 0.72756,-0.317028 0.25456,-0.08576 0.59329,-0.141324 0.8615,-0.141324 0.24952,0 0.56195,0.048 0.71748,0.11023 0.16604,0.06644 0.31491,0.186453 0.37471,0.302085 0.0545,0.105526 0.0993,0.221573 0.0993,0.257897 0,0.03632 -0.0772,0.15778 -0.17154,0.269903 -0.12723,0.151203 -0.33325,0.257004 -0.79758,0.409601 -0.34433,0.11315 -1.21724,0.373942 -1.9398,0.579522 -0.72257,0.205583 -1.35915,0.41146 -1.41464,0.457503 -0.0554,0.04605 -0.23878,0.276979 -0.40734,0.513189 -0.16856,0.236213 -0.34679,0.563463 -0.39608,0.727227 -0.0725,0.240731 -0.0731,0.320261 -0.003,0.415291 0.068,0.09298 0.15557,0.110597 0.41919,0.08433 0.18327,-0.01826 0.57605,-0.134912 0.87284,-0.259222 0.29678,-0.124311 0.77111,-0.380996 1.05405,-0.570413 0.28293,-0.189417 0.68834,-0.49457 0.90091,-0.678117 0.21257,-0.183548 0.51145,-0.511868 0.66417,-0.729596 0.15273,-0.217727 0.33485,-0.426466 0.40472,-0.463858 0.0699,-0.0374 0.14213,-0.06799 0.16059,-0.06799 0.0184,0 0.0815,0.048 0.14022,0.106665 0.0587,0.05867 0.10661,0.146878 0.10661,0.19602 0,0.04914 -0.11305,0.253148 -0.25131,0.453337 -0.13822,0.200193 -0.32077,0.531987 -0.40566,0.737321 -0.0849,0.205335 -0.15508,0.516246 -0.15597,0.690914 -0.001,0.206668 0.0376,0.356787 0.11064,0.429843 0.0827,0.08266 0.1766,0.100879 0.35636,0.06907 0.13426,-0.02376 0.40325,-0.122287 0.59776,-0.218961 0.19451,-0.09668 0.67247,-0.415156 1.06215,-0.707732 0.38967,-0.292577 0.83748,-0.67766 0.99516,-0.855734 0.15768,-0.178076 0.48822,-0.606381 0.73453,-0.951792 0.2463,-0.345409 0.50371,-0.645754 0.57202,-0.667431 0.0683,-0.02168 0.16854,-0.0026 0.22274,0.04239 0.0542,0.04499 0.0986,0.194239 0.0986,0.331668 0,0.137427 -0.10672,0.566647 -0.23706,0.953823 -0.13039,0.387175 -0.22713,0.713893 -0.21499,0.726044 0.0122,0.01213 0.12631,-0.107722 0.25366,-0.266373 0.12738,-0.158652 0.44512,-0.513391 0.70611,-0.78831 0.26099,-0.274917 0.60267,-0.588011 0.75928,-0.695763 0.17672,-0.121593 0.37218,-0.195913 0.51523,-0.195913 0.15316,0 0.28001,0.05271 0.37808,0.157103 0.10373,0.11039 0.1476,0.242822 0.1476,0.445411 0,0.158573 -0.0792,0.563593 -0.176,0.900048 -0.0968,0.336455 -0.15691,0.630823 -0.13358,0.654151 0.0234,0.02332 0.18652,0.0045 0.36266,-0.04197 0.17614,-0.04641 0.52824,-0.221933 0.78244,-0.390037 0.2542,-0.168103 0.93195,-0.764757 1.50612,-1.325898 0.80438,-0.786139 1.07835,-1.015154 1.19393,-0.998017 0.0824,0.01224 0.18204,0.07341 0.22124,0.135934 0.0565,0.09009 0.0115,0.198804 -0.21635,0.523685 -0.15818,0.225494 -0.36363,0.576073 -0.45655,0.779061 -0.0929,0.20299 -0.18724,0.564658 -0.20956,0.803711 -0.0305,0.325811 -0.0138,0.486414 0.0664,0.641423 0.0588,0.113737 0.21488,0.301569 0.34682,0.417415 0.13195,0.115849 0.4466,0.280747 0.69923,0.366443 0.45359,0.153862 0.49969,0.155813 3.6836,0.155813 3.03076,0 3.24825,0.008 3.62378,0.134082 0.21972,0.07374 0.487,0.215821 0.59394,0.315722 0.13302,0.124258 0.19444,0.248021 0.19444,0.391786 0,0.146426 -0.0751,0.293207 -0.24747,0.484075 -0.13611,0.150659 -0.43847,0.380731 -0.67189,0.511269 -0.23343,0.130541 -0.74061,0.356471 -1.12708,0.502069 -0.38647,0.145598 -1.08449,0.372211 -1.55116,0.503583 -0.46668,0.131372 -1.32196,0.350409 -1.90062,0.486746 -0.57867,0.136336 -1.70986,0.365117 -2.51376,0.508398 -0.80388,0.143282 -2.11735,0.354019 -2.9188,0.468302 -0.80146,0.114289 -1.7932,0.25022 -2.20387,0.30208 -0.7057,0.08911 -0.54738,0.09472 2.88488,0.102007 2.49011,0.0053 4.06891,0.03969 5.02307,0.109428 0.76533,0.0559 1.80389,0.15001 2.3079,0.20904 0.504,0.059 1.20655,0.16665 1.56122,0.23917 0.35466,0.0725 0.88922,0.19608 1.18789,0.27458 0.29867,0.0785 0.73551,0.23281 0.97076,0.34292 0.23525,0.1101 0.53462,0.29406 0.66529,0.40878 0.13066,0.11473 0.28182,0.29417 0.33592,0.39878 0.054,0.1046 0.0983,0.3249 0.0983,0.48954 0,0.20756 -0.0521,0.37621 -0.17008,0.55 -0.0935,0.13786 -0.25392,0.32578 -0.35637,0.4176 -0.10247,0.0918 -0.4001,0.2707 -0.66143,0.39751 -0.26133,0.12682 -0.76551,0.32247 -1.1204,0.43479 -0.35487,0.11236 -1.02687,0.28294 -1.49334,0.37914 -0.46646,0.0961 -1.21466,0.22216 -1.66266,0.27993 -0.44801,0.0577 -1.62401,0.1334 -2.61335,0.16807 -0.98935,0.0346 -1.98208,0.0591 -2.20608,0.0542 z m -38.36297,-2.84791 c 0.32987,0.005 1.20042,-0.0223 1.93456,-0.0615 0.73413,-0.0393 1.51104,-0.11514 1.72646,-0.16864 0.21542,-0.0535 0.82634,-0.26827 1.35759,-0.47727 0.53125,-0.20899 1.37769,-0.58366 1.88099,-0.83257 l 0.91508,-0.45259 -0.57569,-0.0593 c -0.31662,-0.0327 -1.84333,-0.0627 -3.39267,-0.0668 -2.57097,-0.007 -2.91481,0.006 -3.937,0.14546 -0.61601,0.0841 -1.44462,0.22628 -1.84136,0.31592 -0.39674,0.0897 -0.95074,0.2585 -1.23111,0.37522 -0.28038,0.11672 -0.56326,0.27132 -0.62864,0.34357 -0.10246,0.11324 -0.10591,0.14708 -0.0246,0.24547 0.0519,0.0628 0.2164,0.16802 0.36574,0.23389 0.14933,0.0659 0.52213,0.17031 0.82845,0.23207 0.30631,0.0618 0.88669,0.13594 1.28971,0.16484 0.40303,0.0289 1.00267,0.057 1.33254,0.0624 z m 6.45967,-0.43302 c 0.18667,-0.0203 1.94305,-0.21774 3.90307,-0.43874 1.96001,-0.221 4.20512,-0.46507 4.98914,-0.54238 0.784,-0.0773 1.47127,-0.15154 1.52728,-0.16497 0.056,-0.0134 -0.40219,-0.0288 -1.01819,-0.0341 -0.61601,-0.005 -1.76148,-0.0381 -2.54548,-0.0729 -0.78401,-0.0348 -2.0694,-0.10042 -2.85644,-0.14586 l -1.43095,-0.0826 -0.40178,0.23892 c -0.22098,0.1314 -0.64614,0.37111 -0.94481,0.53269 -0.29867,0.16158 -0.77214,0.39572 -1.05213,0.52032 l -0.5091,0.22654 z m 9.78836,-1.67189 0.48887,0.0105 -0.11397,-0.307437 c -0.085,-0.229148 -0.0953,-0.337182 -0.0408,-0.424245 0.0403,-0.06424 0.1691,-0.126367 0.2864,-0.138045 0.17058,-0.01699 0.22547,0.01023 0.27422,0.13576 0.0335,0.08634 0.11477,0.286811 0.1805,0.445479 0.0702,0.169308 0.16436,0.288448 0.22802,0.288388 0.0773,-7e-5 0.17985,-0.210112 0.3564,-0.729704 0.13636,-0.40128 0.57368,-1.580298 0.97183,-2.620036 0.39813,-1.039737 0.71205,-1.902254 0.69761,-1.916704 -0.0145,-0.01444 -0.65018,0.111575 -1.41272,0.280052 -0.76254,0.168478 -2.08913,0.439684 -2.94798,0.602685 -0.85884,0.162997 -1.6704,0.315253 -1.80343,0.338345 -0.21424,0.03718 -0.28958,0.113714 -0.65871,0.669167 -0.22923,0.344949 -0.64498,0.890075 -0.92386,1.211391 -0.27889,0.321317 -0.77673,0.810048 -1.1063,1.086069 -0.32959,0.276024 -0.69082,0.569619 -0.80275,0.652437 l -0.2035,0.150579 0.28621,0.0021 c 0.15741,0.0013 0.81414,0.03417 1.45941,0.0733 0.64526,0.03914 1.87576,0.09551 2.73443,0.125289 0.85867,0.0298 1.78122,0.0589 2.0501,0.0646 z m 4.64501,-0.0151 c 1.3204,-0.0258 3.05744,-0.0773 3.86012,-0.11452 0.80268,-0.0372 2.13141,-0.113105 2.95275,-0.168678 0.82135,-0.05557 1.99735,-0.14733 2.61336,-0.203908 0.61601,-0.05657 1.77673,-0.179822 2.57941,-0.273882 0.80268,-0.09406 2.08559,-0.262229 2.85093,-0.373711 0.76535,-0.111483 1.9719,-0.308547 2.68123,-0.437922 0.70935,-0.129373 1.7479,-0.339217 2.30791,-0.46632 0.56,-0.127102 1.30837,-0.311524 1.66304,-0.409827 0.35466,-0.0983 0.98086,-0.287318 1.39153,-0.420032 0.41066,-0.132715 1.00425,-0.361153 1.3191,-0.507641 0.31482,-0.146492 0.67374,-0.343626 0.79758,-0.438081 0.12383,-0.09445 0.22515,-0.199871 0.22515,-0.234263 0,-0.03439 -0.16683,-0.111034 -0.37076,-0.170312 -0.32022,-0.09309 -0.80364,-0.104916 -3.54669,-0.08675 -2.51805,0.01668 -3.25327,0.0018 -3.54927,-0.07196 -0.20534,-0.05115 -0.52607,-0.167811 -0.71274,-0.259254 -0.18667,-0.09144 -0.44134,-0.263414 -0.56595,-0.382162 -0.12461,-0.118745 -0.2908,-0.338084 -0.36932,-0.487418 -0.10742,-0.204172 -0.14228,-0.392101 -0.14081,-0.757664 l 0.002,-0.486148 -0.50565,0.425471 c -0.2781,0.234009 -0.66261,0.520211 -0.85447,0.636002 -0.19184,0.115792 -0.53129,0.257753 -0.75432,0.315469 -0.31261,0.08089 -0.45642,0.08814 -0.62768,0.03163 -0.12219,-0.04033 -0.26807,-0.13887 -0.32419,-0.218986 -0.0561,-0.08012 -0.102,-0.285872 -0.102,-0.45723 0,-0.171356 0.0914,-0.582181 0.20327,-0.912937 0.11178,-0.33076 0.19165,-0.613013 0.17744,-0.627228 -0.0143,-0.01422 -0.21758,0.151401 -0.45192,0.368039 -0.23435,0.216637 -0.74076,0.779356 -1.12538,1.250487 -0.4655,0.570223 -0.78229,0.895985 -0.94753,0.9744 -0.19288,0.09153 -0.28381,0.101593 -0.40777,0.0451 -0.0877,-0.03997 -0.17735,-0.143618 -0.19911,-0.230309 -0.0219,-0.08685 0.0329,-0.385026 0.12173,-0.664131 l 0.16128,-0.506512 -0.3753,0.367197 c -0.20641,0.201958 -0.67195,0.587971 -1.03452,0.857804 -0.36258,0.269836 -0.82794,0.57316 -1.03416,0.674052 -0.22265,0.10893 -0.53506,0.196501 -0.76909,0.215583 -0.31589,0.02576 -0.43721,0.0049 -0.61106,-0.104663 -0.11932,-0.07525 -0.26712,-0.213415 -0.32847,-0.307044 -0.063,-0.09614 -0.1163,-0.328055 -0.12248,-0.532853 l -0.0115,-0.362619 -0.38073,0.279491 c -0.2094,0.153721 -0.62997,0.409156 -0.93459,0.567639 -0.30462,0.15848 -0.72607,0.347399 -0.93657,0.419819 -0.21049,0.07243 -0.54886,0.131675 -0.75192,0.131675 -0.21993,0 -0.44521,-0.0449 -0.55715,-0.111023 -0.10339,-0.06107 -0.24173,-0.20208 -0.30748,-0.313378 -0.0889,-0.150583 -0.1096,-0.285816 -0.0808,-0.528542 0.0213,-0.179402 0.11614,-0.479131 0.21087,-0.666068 0.0948,-0.186937 0.20336,-0.359124 0.2414,-0.382635 0.0381,-0.02353 0.0691,-0.06861 0.0691,-0.100201 0,-0.0316 -0.26728,0.0169 -0.59395,0.107802 -0.32667,0.09089 -0.97577,0.260254 -1.44244,0.37636 -0.46666,0.116105 -0.87624,0.23613 -0.91017,0.266726 -0.0339,0.0306 -0.27302,0.614352 -0.53134,1.297237 -0.25833,0.682885 -0.6933,1.83725 -0.9666,2.565257 -0.27331,0.728007 -0.51889,1.397176 -0.54572,1.487042 l -0.0488,0.1634 z m 4.64073,-7.333343 c 0.0746,-0.0198 0.60029,-0.174099 1.16804,-0.342852 0.56774,-0.168752 1.15774,-0.357028 1.3111,-0.418389 0.20512,-0.08207 0.25882,-0.131586 0.20314,-0.187274 -0.0419,-0.04185 -0.29713,-0.07571 -0.57082,-0.07571 -0.45527,0 -0.54647,0.02585 -1.13359,0.321381 -0.35116,0.17676 -0.74538,0.415317 -0.87605,0.530126 -0.16754,0.14721 -0.19756,0.198124 -0.10177,0.172714 z"
       id="path7" /><text
       xml:space="preserve"
       style="font-style:normal;font-variant:normal;font-weight:300;font-stretch:normal;font-size:3.88056px;line-height:1.12;font-family:'Sarasa Gothic SC';-inkscape-font-specification:'Sarasa Gothic SC, Light';font-variant-ligatures:normal;font-variant-caps:normal;font-variant-numeric:normal;font-variant-east-asian:normal;text-align:center;letter-spacing:0px;word-spacing:-0.0079375px;writing-mode:lr-tb;direction:ltr;text-anchor:middle;fill:#000000;fill-opacity:1;stroke:none;stroke-width:1.6;stroke-linecap:round;stroke-linejoin:round;stroke-dasharray:none;stroke-dashoffset:0;stroke-opacity:1;paint-order:markers stroke fill"
       x="31.396463"
       y="146.65987"
       id="text17"><tspan
         sodipodi:role="line"
         id="tspan17"
         style="font-style:normal;font-variant:normal;font-weight:300;font-stretch:normal;font-size:3.88056px;line-height:1.12;font-family:'Sarasa Gothic SC';-inkscape-font-specification:'Sarasa Gothic SC, Light';font-variant-ligatures:normal;font-variant-caps:normal;font-variant-numeric:normal;font-variant-east-asian:normal;text-align:start;letter-spacing:0px;text-anchor:start;fill:#000000;fill-opacity:1;stroke-width:1.6"
         x="31.396463"
         y="146.65987">有效期限：</tspan><tspan
         sodipodi:role="line"
         style="font-style:normal;font-variant:normal;font-weight:300;font-stretch:normal;font-size:3.88056px;line-height:1.12;font-family:'Sarasa Gothic SC';-inkscape-font-specification:'Sarasa Gothic SC, Light';font-variant-ligatures:normal;font-variant-caps:normal;font-variant-numeric:normal;font-variant-east-asian:normal;text-align:start;letter-spacing:0px;text-anchor:start;fill:#000000;fill-opacity:1;stroke-width:1.6"
         x="31.396463"
         y="151.00609"
         id="tspan18"> 2024 年 10 月  1  日至</tspan><tspan
         sodipodi:role="line"
         style="font-style:normal;font-variant:normal;font-weight:300;font-stretch:normal;font-size:3.88056px;line-height:1.12;font-family:'Sarasa Gothic SC';-inkscape-font-specification:'Sarasa Gothic SC, Light';font-variant-ligatures:normal;font-variant-caps:normal;font-variant-numeric:normal;font-variant-east-asian:normal;text-align:start;letter-spacing:0px;text-anchor:start;fill:#000000;fill-opacity:1;stroke-width:1.6"
         x="31.396463"
         y="155.35233"
         id="tspan19"> 2024 年 12 月 31 日</tspan></text></g></svg>
