<?xml version="1.0" encoding="UTF-8" standalone="no"?>
<!-- Created with Inkscape (http://www.inkscape.org/) -->

<svg
   width="450"
   height="360"
   viewBox="0 0 119.0625 95.249994"
   version="1.1"
   id="svg1"
   xml:space="preserve"
   inkscape:version="1.4 (86a8ad7, 2024-10-11)"
   sodipodi:docname="QQ_group.svg"
   inkscape:export-filename="QQ_group.png"
   inkscape:export-xdpi="96"
   inkscape:export-ydpi="96"
   xmlns:inkscape="http://www.inkscape.org/namespaces/inkscape"
   xmlns:sodipodi="http://sodipodi.sourceforge.net/DTD/sodipodi-0.dtd"
   xmlns:xlink="http://www.w3.org/1999/xlink"
   xmlns="http://www.w3.org/2000/svg"
   xmlns:svg="http://www.w3.org/2000/svg"><sodipodi:namedview
     id="namedview1"
     pagecolor="#ffffff"
     bordercolor="#000000"
     borderopacity="0.25"
     inkscape:showpageshadow="2"
     inkscape:pageopacity="0.0"
     inkscape:pagecheckerboard="true"
     inkscape:deskcolor="#d1d1d1"
     inkscape:document-units="mm"
     inkscape:export-bgcolor="#ffffffff"
     inkscape:zoom="2.0000001"
     inkscape:cx="183.49999"
     inkscape:cy="202.99999"
     inkscape:window-width="2560"
     inkscape:window-height="1387"
     inkscape:window-x="-8"
     inkscape:window-y="-8"
     inkscape:window-maximized="1"
     inkscape:current-layer="layer1"
     showguides="false"
     showgrid="false" /><defs
     id="defs1"><radialGradient
       inkscape:collect="always"
       xlink:href="#linearGradient5"
       id="radialGradient586"
       gradientUnits="userSpaceOnUse"
       cx="105"
       cy="148.5"
       fx="105"
       fy="148.5"
       r="57.982555"
       gradientTransform="matrix(0.19485973,0,0,0.19485973,566.4675,145.35312)" /><linearGradient
       id="linearGradient5"
       inkscape:collect="always"><stop
         style="stop-color:#0074d9;stop-opacity:1;"
         offset="0"
         id="stop5" /><stop
         style="stop-color:#0074d9;stop-opacity:0;"
         offset="1"
         id="stop6" /></linearGradient></defs><g
     inkscape:label="Layer 1"
     inkscape:groupmode="layer"
     id="layer1"
     transform="translate(-1.7784431,-1.0670658)"><rect
       style="fill:#ffffff;fill-opacity:1;stroke:none;stroke-width:0.712858;stroke-linecap:round;stroke-linejoin:round;stroke-opacity:1;paint-order:markers stroke fill"
       id="rect552"
       width="93.357246"
       height="25.278706"
       x="14.631066"
       y="66.226372"
       rx="0.89234489"
       ry="0.89234489" /><rect
       style="fill:#ffffff;fill-opacity:1;stroke:none;stroke-width:0.634093;stroke-linecap:round;stroke-linejoin:round;stroke-opacity:1;paint-order:markers stroke fill"
       id="rect551"
       width="56.258228"
       height="56.258228"
       x="33.180569"
       y="7.6139469"
       rx="2.0714302"
       ry="2.0714302" /><g
       id="g5"
       transform="matrix(0.47570425,0,0,0.47570427,56.687767,24.159473)"
       style="display:inline"><path
         id="rect1-8"
         style="stroke-width:0.264583"
         d="m -44.523707,-29.889432 v 2.646262 2.645175 2.646262 2.646261 2.645175 2.646262 2.645175 h 2.646262 2.645175 2.646262 2.645175 2.646262 2.646261 2.645175 v -2.645175 -2.646262 -2.645175 -2.646261 -2.646262 -2.645175 -2.646262 h -2.645175 -2.646261 -2.646262 -2.645175 -2.646262 -2.645175 z m 29.104533,0 v 2.646262 h -2.646262 -2.645175 v 2.645175 h -2.646262 v 2.646262 2.646261 2.645175 2.646262 2.645175 2.6462614 h 2.646262 2.645175 V -11.36886 h -2.645175 v -2.645175 h 2.645175 v 2.645175 h 2.646262 v -2.645175 -2.646262 h 2.645175 v 2.646262 2.645175 h 2.646261 v -2.645175 -2.646262 h 2.6462621 2.6451753 2.6462616 2.64517525 2.64626155 v -2.645175 H 0.45513625 -2.190039 -4.8363006 -7.4814759 -10.127738 v -2.646261 h -2.646261 v 2.646261 h -2.645175 -2.646262 v 2.645175 h -2.645175 v -2.645175 -2.646261 h 2.645175 v -2.646262 h 2.646262 v 2.646262 h 2.645175 v -2.646262 h 2.646261 2.6462621 v -2.645175 h -2.6462621 v -2.646262 h -2.646261 z m 7.9376981,2.646262 h 2.6451753 v -2.646262 h -2.6451753 z m 10.5828737,7.937698 h 2.6462617 v 2.645175 h 2.6451752 v 2.646262 2.645175 2.6462614 h 2.6462613 2.645176 v 2.6462615 h 2.646261 v -2.6462615 h 2.646262 v 2.6462615 h 2.645175 v 2.6451751 h 2.646262 v -2.6451751 h 2.645175 2.646262 V -8.7225986 H 26.913407 24.268232 21.62197 v -2.6462614 -2.645175 h 2.646262 v 2.645175 h 2.645175 v -2.645175 h 2.646262 v -2.646262 h 2.646261 v -2.645175 -2.646261 h 2.645176 2.646261 2.645175 v -2.646262 h -2.645175 -2.646261 v -2.645175 h 2.646261 2.645175 2.646262 v -2.646262 H 40.142542 37.497367 34.851106 32.20593 29.559669 v 2.646262 h 2.646261 v 2.645175 h -2.646261 v 2.646262 h -2.646262 v 2.646261 H 24.268232 21.62197 v 2.645175 h -2.645175 v 2.646262 2.645175 h -2.646262 v -2.645175 h -2.646261 v 2.645175 h -2.645176 v -2.645175 -2.646262 h 2.645176 v -2.645175 h 2.646261 2.646262 2.645175 v -2.646261 h -2.645175 v -2.646262 h -2.646262 v 2.646262 h -2.646261 -2.645176 v 2.646261 H 8.3928347 v -2.646261 H 5.7476595 3.1013978 Z m 5.2914369,-2.646261 h 2.6462613 v -2.646262 -2.645175 -2.646262 H 8.3928347 5.7476595 v 2.646262 h 2.6451752 v 2.645175 z M 5.7476595,-27.24317 H 3.1013978 v 2.645175 h 2.6462617 z m 10.5828735,2.645175 v -2.645175 h -2.646261 v 2.645175 z m 0,-2.645175 h 2.646262 v -2.646262 h -2.646262 z m 10.582874,5.291437 v -2.646262 h -2.645175 v 2.646262 z m 0,-2.646262 h 2.646262 v -2.645175 h -2.646262 z m 2.646262,10.58396 v 2.645175 2.6462614 h 2.646261 v -2.6462614 -2.645175 z m 2.646261,5.2914364 v 2.6462615 2.6451751 h -2.646261 -2.646262 v 2.64626153 H 24.268232 V 1.8602747 H 21.62197 v 2.6462615 h -2.645175 v 2.6462615 h 2.645175 v 2.6451752 h 2.646262 V 7.1527977 4.5065362 h 2.645175 v 2.6462615 h 2.646262 2.646261 v 2.6451752 h 2.645176 V 7.1527977 h 2.646261 V 4.5065362 H 34.851106 32.20593 29.559669 V 1.8602747 -0.78490047 h 2.646261 2.645176 V 1.8602747 h 2.646261 v 2.6462615 h 2.645175 V 1.8602747 h 2.646262 v -2.64517517 h 2.646262 V -3.431162 -6.0763371 h -2.646262 v -2.6462615 -2.6462614 -2.645175 h -2.646262 v 2.645175 h -2.645175 v 2.6462614 h 2.645175 v 2.6462615 h -2.645175 -2.646261 v -2.6462615 z m 5.291437,-2.6462614 v -2.645175 -2.646262 h 2.645175 2.646262 v -2.645175 h -2.646262 -2.645175 -2.646261 v 2.645175 2.646262 2.645175 z m 7.937699,5.2925229 h 2.645175 v 2.6451751 h 2.646261 2.645176 v -2.6451751 h 2.646261 v 2.6451751 h 2.646262 V -6.0763371 -8.7225986 H 56.017939 53.371678 50.726502 48.080241 45.435066 Z M 32.20593,9.7979729 h -2.646261 v 2.6462611 h 2.646261 z m -10.58396,0 h -2.645175 v 2.6462611 h 2.645175 z m 0,2.6462611 v 2.646262 2.645175 h -2.645175 v 2.646262 2.645175 h 2.645175 2.646262 v -2.645175 h 2.645175 2.646262 v 2.645175 h 2.646261 v -2.645175 -2.646262 h -2.646261 -2.646262 v -2.645175 -2.646262 h -2.645175 z m 7.937699,10.582874 h -2.646262 -2.645175 v 2.646261 h 2.645175 2.646262 z m 0,2.646261 v 2.646262 h 2.646261 2.645176 V 25.673369 H 32.20593 Z m 5.291437,0 h 2.646261 2.645175 v 2.646262 2.645175 2.646261 h 2.646262 2.646262 2.645175 v 2.645176 2.646261 2.646261 h -2.645175 v -2.646261 h -2.646262 -2.646262 v 2.646261 h -2.645175 v 2.645176 2.646261 2.645175 h 2.645175 v -2.645175 h 2.646262 2.646262 v -2.646261 h 2.645175 v 2.646261 h -2.645175 v 2.645175 h -2.646262 -2.646262 v 2.646262 2.646261 h -2.645175 v 2.645175 h 2.645175 v 2.646262 2.645175 h -2.645175 -2.646261 v -2.645175 h 2.646261 V 57.423075 H 34.851106 V 54.7779 H 32.20593 v 2.645175 h -2.646261 v 2.646262 h -2.646262 v 2.645175 h 2.646262 v 2.646262 h -2.646262 v 2.646261 h 2.646262 v 2.645175 h 2.646261 v 2.646262 h 2.645176 V 70.65221 h 2.646261 v 2.646262 h -2.646261 v 2.645175 h 2.646261 2.645175 2.646262 2.646262 v 2.646261 h 2.645175 2.646261 2.645176 v -2.646261 -2.645175 h 2.646261 V 70.65221 h -2.646261 -2.645176 v -2.645175 h 2.645176 2.646261 v 2.645175 h 2.646262 v -2.645175 -2.646261 h -2.646262 v -2.646262 -2.645175 h -2.646261 v -2.646262 h 2.646261 2.646262 V 54.7779 h -2.646262 v -2.646261 h 2.646262 v -2.646262 h 2.645175 2.646262 v -2.645175 h -2.646262 v -2.646261 h 2.646262 v -2.645176 h -2.646262 -2.645175 v 2.645176 h -2.646262 v -2.645176 h -2.646261 -2.645176 v -2.646261 h 2.645176 2.646261 v -2.646261 h -2.646261 -2.645176 v -2.645176 h 2.645176 2.646261 v -2.646261 h -2.646261 -2.645176 -2.646261 v -2.645175 h 2.646261 2.645176 v -2.646262 h -2.645176 v -2.646261 h -2.646261 v 2.646261 h -2.645175 -2.646262 v -2.646261 h -2.646262 -2.645175 -2.646261 z m 13.229135,-2.646261 v -2.645175 -2.646262 h 2.646261 v 2.646262 2.645175 h 2.645176 v 2.646261 h 2.646261 v -2.646261 -2.645175 -2.646262 h -2.646261 v -2.645175 h -2.645176 v -2.646262 h -2.646261 v 2.646262 h -2.645175 v 2.645175 2.646262 2.645175 z m -2.645175,-7.936612 v -2.646262 h -2.646262 v 2.646262 z m -2.646262,0 h -2.646262 v 2.645175 h 2.646262 z m 2.646262,-2.646262 h 2.645175 V 9.7979729 h -2.645175 z m 0,-2.6462611 V 7.1527977 h -2.646262 -2.646262 v 2.6451752 h 2.646262 z m 0,-2.6451752 h 2.645175 V 4.5065362 h -2.645175 z m 2.645175,-2.6462615 h 2.646261 V 1.8602747 h -2.646261 z m 2.646261,-2.6462615 h 2.645176 v 2.6462615 h -2.645176 v 2.6462615 h 2.645176 v 2.6451752 h 2.646261 V 7.1527977 h 2.646262 V 4.5065362 h 2.645175 V 1.8602747 h -2.645175 -2.646262 v -2.64517517 h -2.646261 -2.645176 z m 10.582874,2.6462615 v 2.6462615 h 2.646262 V 4.5065362 Z m -7.937698,5.2914367 h -2.645176 v 2.6462611 h 2.645176 z m 2.646261,7.9376981 h 2.646262 2.645175 2.646262 V 15.090496 12.444234 9.7979729 h -2.646262 v 2.6462611 h -2.645175 -2.646262 v 2.646262 z m 0,15.875396 v 2.645176 h 2.646262 v 2.646261 h 2.645175 2.646262 v -2.646261 -2.645176 h -2.646262 v -2.646261 h -2.645175 v 2.646261 z M 34.851106,75.943647 H 32.20593 29.559669 V 73.298472 70.65221 H 26.913407 V 68.007035 H 24.268232 21.62197 v 2.645175 2.646262 h 2.646262 v 2.645175 H 21.62197 v -2.645175 h -2.645175 v 2.645175 2.646261 h 2.645175 2.646262 2.645175 2.646262 2.646261 2.645176 z M 26.913407,65.360774 v -2.646262 h -2.645175 v 2.646262 z m 2.646262,-7.937699 V 54.7779 52.131639 h 2.646261 2.645176 V 49.485377 46.840202 44.193941 H 32.20593 29.559669 v -2.645176 h 2.646261 2.645176 2.646261 v -2.646261 h 2.645175 V 36.256243 33.611067 H 37.497367 34.851106 32.20593 v -2.646261 h -2.646261 v 2.646261 h -2.646262 v -2.646261 h -2.645175 v 2.646261 H 21.62197 v -2.646261 h -2.645175 v 2.646261 2.645176 h -2.646262 v 2.646261 h 2.646262 2.645175 v -2.646261 h 2.646262 2.645175 2.646262 v 2.646261 h -2.646262 -2.645175 v 2.646261 2.645176 H 21.62197 18.976795 16.330533 13.684272 v -2.645176 h -2.645176 v -2.646261 h 2.645176 V 36.256243 H 11.039096 8.3928347 v -2.645176 h 2.6462613 2.645176 v 2.645176 h 2.646261 v -2.645176 -2.646261 -2.645175 h 2.646262 v -2.646262 h -2.646262 -2.646261 v -2.646261 h 2.646261 v -2.645175 h -2.646261 v -2.646262 h 2.646261 v -2.645175 -2.646262 h -2.646261 v 2.646262 h -2.645176 v 2.645175 H 8.3928347 v 2.646262 2.645175 h 2.6462613 v 2.646261 H 8.3928347 v 2.646262 2.645175 H 5.7476595 3.1013978 v 2.646261 H 0.45513625 V 30.964806 H -2.190039 -4.8363006 -7.4814759 v 2.646261 2.645176 h 2.6451753 v 2.646261 h -2.6451753 v 2.646261 H -4.8363006 -2.190039 0.45513625 3.1013978 V 38.902504 H 0.45513625 -2.190039 V 36.256243 H 0.45513625 3.1013978 v 2.646261 h 2.6462617 2.6451752 v 2.646261 2.645176 H 5.7476595 v 2.646261 h 2.6451752 2.6462613 v 2.645175 h 2.645176 v -2.645175 h 2.646261 2.646262 2.645175 2.646262 v 2.645175 2.646262 2.646261 H 21.62197 v 2.645175 h 2.646262 2.645175 z M 11.039096,49.485377 H 8.3928347 v 2.646262 h 2.6462613 z m 0,2.646262 V 54.7779 h 2.645176 v -2.646261 z m 2.645176,2.646261 v 2.645175 h 2.646261 v 2.646262 h 2.646262 V 57.423075 54.7779 52.131639 h 2.645175 v -2.646262 h -2.645175 -2.646262 v 2.646262 2.646261 z m 2.646261,5.291437 h -2.646261 v 2.645175 h 2.646261 z M -7.4814759,38.902504 v -2.646261 h -2.6462621 v 2.646261 z M 0.45513625,30.964806 H 3.1013978 V 28.319631 H 5.7476595 V 25.673369 H 3.1013978 0.45513625 -2.190039 v 2.646262 H 0.45513625 Z M 5.7476595,25.673369 H 8.3928347 V 23.027108 H 5.7476595 Z m 0,-2.646261 V 20.381933 H 3.1013978 v -2.646262 h 2.6462617 2.6451752 v -2.645175 h 2.6462613 v -2.646262 h 2.645176 V 9.7979729 H 11.039096 8.3928347 V 7.1527977 H 5.7476595 v 2.6451752 2.6462611 2.646262 H 3.1013978 V 12.444234 H 0.45513625 v 2.646262 2.645175 2.646262 H -2.190039 v 2.645175 H 0.45513625 3.1013978 Z M 0.45513625,12.444234 V 9.7979729 H 3.1013978 V 7.1527977 H 0.45513625 -2.190039 V 9.7979729 12.444234 Z M -2.190039,7.1527977 V 4.5065362 1.8602747 h -2.6462616 v -2.64517517 h -2.6451753 -2.6462621 -2.646261 -2.645175 V 1.8602747 h 2.645175 2.646261 v 2.6462615 h 2.6462621 v 2.6462615 h 2.6451753 z m -5.2914369,0 h -2.6462621 v 2.6451752 2.6462611 2.646262 h -2.646261 v 2.645175 h 2.646261 2.6462621 v 2.646262 2.645175 2.646261 h -2.6462621 -2.646261 v 2.646262 h -2.645175 -2.646262 -2.645175 -2.646262 v -2.646262 -2.646261 -2.645175 h -2.646262 v 2.645175 h -2.645175 -2.646261 v 2.646261 h 2.646261 2.645175 v 2.646262 h -2.645175 -2.646261 -2.646262 v -2.646262 h -2.645175 v 2.646262 h -2.646262 v 2.645175 h 2.646262 2.645175 v 2.646261 h 2.646262 v 2.645176 h -2.646262 v 2.646261 2.646261 h 2.646262 v 2.645176 h 2.646261 v -2.645176 h 2.645175 2.646262 v -2.646261 h -2.646262 -2.645175 v -2.646261 h 2.645175 v -2.645176 h -2.645175 v -2.646261 h 2.645175 v 2.646261 h 2.646262 v 2.645176 h 2.646262 2.645175 2.646262 v -2.645176 h -2.646262 -2.645175 v -2.646261 h 2.645175 2.646262 2.645175 2.646261 v -2.645175 h 2.6462621 2.6451753 v -2.646262 -2.646261 -2.645175 -2.646262 -2.645175 h -2.6451753 v -2.646262 h 2.6451753 V 9.7979729 H -7.4814759 Z M -23.356873,41.548765 v 2.645176 h 2.646262 v 2.646261 h 2.645175 2.646262 v -2.646261 -2.645176 h -2.646262 -2.645175 z m 7.937699,0 h 2.645175 v -2.646261 h -2.645175 z m 2.645175,0 v 2.645176 2.646261 2.645175 h -2.645175 -2.646262 v 2.646262 h 2.646262 2.645175 V 54.7779 h -2.645175 -2.646262 v -2.646261 h -2.645175 v 2.646261 2.645175 h 2.645175 2.646262 v 2.646262 2.645175 h -2.646262 v -2.645175 h -2.645175 v 2.645175 h -2.646262 v 2.646262 2.646261 2.645175 2.646262 h 2.646262 2.645175 v 2.645175 h 2.646262 v 2.646261 h 2.645175 2.646261 v -2.646261 h -2.646261 v -2.645175 h -2.645175 V 70.65221 h -2.646262 v -2.645175 h 2.646262 v 2.645175 h 2.645175 v -2.645175 -2.646261 -2.646262 -2.645175 -2.646262 h 2.646261 V 54.7779 52.131639 h 2.6462621 v -2.646262 h -2.6462621 v -2.645175 h 2.6462621 v -2.646261 h -2.6462621 v -2.645176 z m 5.2925231,5.291437 v 2.645175 h 2.6451753 v -2.645175 z m 2.6451753,0 h 2.6462616 v 2.645175 2.646262 H 0.45513625 V 49.485377 46.840202 44.193941 H -2.190039 -4.8363006 Z m 2.6462616,5.291437 H -4.8363006 V 54.7779 h 2.6462616 z m 0,2.646261 v 2.645175 H 0.45513625 3.1013978 V 54.7779 H 0.45513625 Z m 5.2914368,2.645175 v 2.646262 2.645175 h 2.6462617 v -2.645175 h 2.6451752 v 2.645175 H 5.7476595 v 2.646262 H 3.1013978 v 2.646261 h 2.6462617 2.6451752 v 2.645175 h 2.6462613 v -2.645175 h 2.645176 2.646261 2.646262 V 65.360774 H 16.330533 13.684272 11.039096 V 62.714512 60.069337 57.423075 H 8.3928347 5.7476595 Z M 11.039096,70.65221 v 2.646262 2.645175 h 2.645176 2.646261 V 73.298472 H 13.684272 V 70.65221 Z M 3.1013978,68.007035 H 0.45513625 -2.190039 -4.8363006 V 70.65221 H -2.190039 0.45513625 3.1013978 Z m 0,2.645175 v 2.646262 H 5.7476595 V 70.65221 Z m 2.6462617,2.646262 v 2.645175 2.646261 h 2.6451752 v -2.646261 -2.645175 z m -2.6462617,0 H 0.45513625 v 2.645175 H 3.1013978 Z M 0.45513625,75.943647 H -2.190039 -4.8363006 v 2.646261 h 2.6462616 2.64517525 z m -5.29143685,0 V 73.298472 70.65221 h -2.6451753 v 2.646262 2.645175 z M -7.4814759,70.65221 v -2.645175 -2.646261 h -2.6462621 v 2.646261 2.645175 z M -4.8363006,54.7779 h -2.6451753 v 2.645175 h 2.6451753 z m -15.8743104,5.291437 v -2.646262 h -2.646262 v 2.646262 z m 0,-13.229135 h -2.646262 v 2.645175 h 2.646262 z m -2.646262,0 v -2.646261 h -2.646262 -2.645175 v 2.646261 h 2.645175 z m -5.291437,0 h -2.646261 -2.646262 v 2.645175 h 2.646262 v 2.646262 h -2.646262 V 54.7779 h 2.646262 2.646261 v -2.646261 h 2.645175 v -2.646262 h -2.645175 z m 0,7.937698 v 2.645175 h 2.645175 V 54.7779 Z m -5.292523,0 h -2.645175 v 2.645175 h 2.645175 z m 0,-7.937698 v -2.646261 h -2.645175 -2.646262 v 2.646261 h 2.646262 z m -5.291437,0 h -2.645175 v -2.646261 h 2.645175 v -2.645176 h -2.645175 -2.646262 v 2.645176 2.646261 2.645175 2.646262 2.646261 2.645175 h 2.646262 V 54.7779 52.131639 49.485377 h 2.645175 z m 0,2.645175 v 2.646262 h 2.646262 v -2.646262 z m 5.291437,-13.229134 v -2.645176 h -2.645175 -2.646262 -2.645175 v -2.646261 -2.645175 h -2.646262 v 2.645175 2.646261 2.645176 h 2.646262 2.645175 v 2.646261 h 2.646262 v -2.646261 z m -7.936612,-7.936612 h 2.645175 v -2.646262 h -2.645175 z m 2.645175,-2.646262 h 2.646262 v -2.646261 -2.645175 h -2.646262 v -2.646262 h -2.645175 v 2.646262 h -2.646262 v 2.645175 h 2.646262 2.645175 z m -2.645175,-7.937698 v -2.645175 h -2.646262 v 2.645175 z m 0,-2.645175 h 2.645175 2.646262 v 2.645175 h 2.645175 v 2.646262 2.645175 h 2.646262 v -2.645175 h 2.646261 2.645175 v -2.646262 h -2.645175 v -2.645175 h 2.645175 2.646262 v 2.645175 2.646262 h 2.646262 2.645175 v -2.646262 h 2.646262 v -2.645175 h -2.646262 -2.645175 v -2.646262 h 2.645175 2.646262 V 9.7979729 h -2.646262 V 7.1527977 h -2.645175 v 2.6451752 h -2.646262 -2.646262 V 12.444234 H -28.64831 V 9.7979729 h -2.646261 -2.646262 v 2.6462611 h 2.646262 v 2.646262 h -2.646262 v -2.646262 h -2.645175 -2.646262 -2.645175 z m 7.936612,-5.2925231 V 7.1527977 4.5065362 1.8602747 -0.78490047 h 2.646262 V -3.431162 h -2.646262 v -2.6451751 h 2.646262 2.646261 2.645175 v -2.6462615 h -2.645175 -2.646261 -2.646262 -2.645175 -2.646262 v 2.6462615 h 2.646262 v 2.6451751 h -2.646262 -2.645175 v -2.6451751 -2.6462615 h -2.646262 v 2.6462615 2.6451751 2.64626153 2.64517517 h 2.646262 v -2.64517517 h 2.645175 V 1.8602747 h -2.645175 v 2.6462615 h -2.646262 v 2.6462615 2.6451752 h 2.646262 2.645175 V 7.1527977 4.5065362 h 2.646262 v 2.6462615 2.6451752 z m 5.292523,0 h 2.645175 V 7.1527977 h -2.645175 z m 0,-2.6451752 V 4.5065362 h 2.645175 V 1.8602747 h -2.645175 -2.646261 v 2.6462615 2.6462615 z m 2.645175,-5.292523 h 2.646262 v 2.6462615 h -2.646262 v 2.6462615 h 2.646262 2.646262 V 4.5065362 1.8602747 -0.78490047 h 2.645175 2.646262 V -3.431162 h 2.645175 v -2.6451751 h 2.646261 v 2.6451751 h 2.6462621 2.6451753 v -2.6451751 -2.6462615 h -2.6451753 -2.6462621 -2.646261 -2.645175 v 2.6462615 h -2.646262 v 2.6451751 h -2.645175 v -2.6451751 h -2.646262 v 2.6451751 h -2.646262 -2.645175 v 2.64626153 h 2.645175 z m 10.583961,7.9376982 h 2.645175 V 7.1527977 h 2.646261 V 4.5065362 h -2.646261 -2.645175 v 2.6462615 z m 0,-5.2914367 V 1.8602747 h -2.646262 v 2.6462615 z m 0,13.2291348 v 2.646262 2.645175 h -2.646262 -2.645175 v 2.646261 h 2.645175 2.646262 2.645175 v -2.646261 h 2.646261 v -2.645175 h -2.646261 V 17.735671 Z M -2.190039,1.8602747 H 0.45513625 V -0.78490047 -3.431162 H -2.190039 v 2.64626153 z M 0.45513625,-3.431162 H 3.1013978 v 2.64626153 H 5.7476595 V -3.431162 h 2.6451752 2.6462613 v 2.64626153 2.64517517 h 2.645176 v -2.64517517 h 2.646261 V -3.431162 H 13.684272 V -6.0763371 H 11.039096 8.3928347 V -8.7225986 H 5.7476595 v 2.6462615 H 3.1013978 V -8.7225986 H 0.45513625 v 2.6462615 z m 0,-5.2914366 V -11.36886 -14.014035 H -2.190039 v 2.645175 2.6462614 z M 16.330533,-3.431162 h 2.646262 v -2.6451751 h -2.646262 z m 0,2.64626153 V 1.8602747 4.5065362 h 2.646262 V 1.8602747 -0.78490047 Z m 0,5.29143667 H 13.684272 11.039096 8.3928347 v 2.6462615 h 2.6462613 2.645176 v 2.6451752 h 2.646261 V 7.1527977 Z M 5.7476595,-0.78490047 V 1.8602747 H 8.3928347 V -0.78490047 Z M 0.45513625,1.8602747 V 4.5065362 H 3.1013978 V 1.8602747 Z M 13.684272,38.902504 v 2.646261 h 2.646261 v -2.646261 z m 7.937698,-7.937698 h 2.646262 V 28.319631 H 21.62197 Z m 5.291437,0 h 2.646262 V 28.319631 H 26.913407 Z M 5.7476595,-16.660297 H 3.1013978 v 2.646262 2.645175 h 2.6462617 v -2.645175 z M 45.435066,-29.889432 v 2.646262 2.645175 2.646262 2.646261 2.645175 2.646262 2.645175 h 2.645175 2.646261 2.645176 2.646261 2.646262 2.645175 2.646262 v -2.645175 -2.646262 -2.645175 -2.646261 -2.646262 -2.645175 -2.646262 h -2.646262 -2.645175 -2.646262 -2.646261 -2.645176 -2.646261 z m -87.312511,2.646262 h 2.645175 2.646262 2.645175 2.646262 2.646261 v 2.645175 2.646262 2.646261 2.645175 2.646262 h -2.646261 -2.646262 -2.645175 -2.646262 -2.645175 v -2.646262 -2.645175 -2.646261 -2.646262 z m 89.957686,0 h 2.646261 2.645176 2.646261 2.646262 2.645175 v 2.645175 2.646262 2.646261 2.645175 2.646262 h -2.645175 -2.646262 -2.646261 -2.645176 -2.646261 v -2.646262 -2.645175 -2.646261 -2.646262 z m -87.312511,2.645175 v 2.646262 2.646261 2.645175 h 2.646262 2.645175 2.646262 v -2.645175 -2.646261 -2.646262 h -2.646262 -2.645175 z m 34.3959694,0 v 2.646262 h 2.6462616 2.64517525 v -2.646262 H -2.190039 Z m 55.5628026,0 v 2.646262 2.646261 2.645175 h 2.645176 2.646261 2.646262 v -2.645175 -2.646261 -2.646262 h -2.646262 -2.646261 z m -58.2079779,10.58396 v 2.645175 h 2.6451753 v -2.645175 z m 68.7908519,7.9376979 v 2.6451751 h 2.646262 V -6.0763371 Z M 37.497367,-3.431162 h 2.645175 v 2.64626153 h -2.645175 z m -2.646261,18.521658 v 2.645175 2.646262 h 2.646261 v -2.646262 -2.645175 z m 23.813095,7.936612 v 2.646261 2.646262 h 2.645175 2.646262 v -2.646262 h -2.646262 v -2.646261 z m -47.625105,5.292523 h 2.645176 v 2.645175 h -2.645176 z m 31.749708,0 h 2.646262 v 2.645175 H 42.788804 Z M 32.20593,36.256243 h 2.645176 v 2.646261 H 32.20593 Z m 18.520572,7.937698 h 2.645176 v 2.646261 h -2.645176 z m -21.166833,2.646261 h 2.646261 v 2.645175 h -2.646261 z m 18.520572,5.291437 h 2.646261 V 54.7779 h -2.646261 z m 13.229135,0 v 2.646261 2.645175 2.646262 h 2.646262 V 57.423075 54.7779 52.131639 Z m -18.520572,5.291436 h 2.646262 2.645175 2.646261 v 2.646262 2.645175 2.646262 h -2.646261 -2.645175 -2.646262 v -2.646262 -2.645175 z m -87.312511,2.646262 v 2.645175 2.646262 2.646261 2.645175 2.646262 2.645175 2.646261 h 2.646262 2.645175 2.646262 2.645175 2.646262 2.646261 2.645175 V 75.943647 73.298472 70.65221 68.007035 65.360774 62.714512 60.069337 h -2.645175 -2.646261 -2.646262 -2.645175 -2.646262 -2.645175 z m 37.0422311,0 v 2.645175 h 2.6451753 2.6462616 v 2.646262 H 0.45513625 V 62.714512 60.069337 H -2.190039 -4.8363006 Z m 52.9165419,0 v 2.645175 h 2.645175 v -2.645175 z m -87.312511,2.645175 h 2.645175 2.646262 2.645175 2.646262 2.646261 v 2.646262 2.646261 2.645175 2.646262 2.645175 h -2.646261 -2.646262 -2.645175 -2.646262 -2.645175 V 73.298472 70.65221 68.007035 65.360774 Z m 103.186821,0 v 2.646262 2.646261 h 2.646262 V 65.360774 62.714512 Z M -39.23227,65.360774 v 2.646261 2.645175 2.646262 h 2.646262 2.645175 2.646262 V 70.65221 68.007035 65.360774 h -2.646262 -2.645175 z m 71.4382,0 h 2.645176 2.646261 2.645175 v 2.646261 h 2.646262 v 2.645175 2.646262 H 40.142542 V 70.65221 68.007035 H 37.497367 34.851106 32.20593 Z m 13.229136,2.646261 h 2.645175 v 2.645175 h -2.645175 z m 2.645175,5.291437 h 2.646261 v 2.645175 h -2.646261 z m 10.58396,0 v 2.645175 h 2.645175 v -2.645175 z m 0,2.645175 h -2.646262 v 2.646261 h 2.646262 z m -82.021074,0 v 2.646261 h 2.646262 v -2.646261 z" /></g><g
       id="g586"
       transform="matrix(0.94371093,0,0,0.94371093,-492.58044,-128.73611)"><circle
         style="fill:url(#radialGradient586);stroke-width:0.210132;stroke-linecap:square"
         id="circle133"
         cx="586.92773"
         cy="174.28978"
         r="11.298466" /><circle
         style="fill:#0074d9;fill-opacity:1;stroke:#dcefff;stroke-width:1.06767;stroke-linecap:square;stroke-dasharray:none;stroke-opacity:1"
         id="circle134"
         cx="586.92773"
         cy="174.28978"
         r="8.9839478" /><g
         id="g585"
         transform="matrix(0.19485973,0,0,0.19485973,567.95609,159.25988)"><path
           id="path134"
           style="color:#000000;fill:#ffffff;stroke-linecap:square;-inkscape-stroke:none"
           d="m 71.721305,55.185779 c -1.091122,0 -1.980758,0.889119 -1.980758,1.980241 v 34.340022 c 0,1.091122 0.889636,1.982308 1.980758,1.982308 h 51.276965 c 1.09112,0 1.98231,-0.891186 1.98231,-1.982308 V 57.16602 c 0,-1.091122 -0.89119,-1.980241 -1.98231,-1.980241 z m -0.371037,1.44539 52.367342,32.999536 c -0.1829,0.370629 -0.55873,0.623218 -1.00614,0.623218 H 72.010176 c -0.630336,0 -1.127063,-0.496727 -1.127063,-1.127063 V 57.544808 c 0,-0.381458 0.183835,-0.711118 0.467155,-0.913639 z m -0.867647,33.505448 c 0.328976,0.495595 0.890555,0.82424 1.527555,0.824239 h 50.701294 c 0.63494,0 1.19555,-0.326155 1.52497,-0.819071 v 1.364257 c 0,0.692312 -0.54586,1.238168 -1.23817,1.238168 H 71.721305 c -0.69231,0 -1.238684,-0.545856 -1.238684,-1.238168 z" /><rect
           style="fill:none;fill-opacity:1;stroke:#ffffff;stroke-width:0.731029;stroke-linecap:square;stroke-dasharray:none;stroke-opacity:1"
           id="rect584"
           width="68.566505"
           height="3.1464603"
           x="63.077312"
           y="95.566048"
           ry="1.2287005" /><path
           style="font-weight:bold;font-size:26.4885px;line-height:1;font-family:Inter;-inkscape-font-specification:'Inter Bold';letter-spacing:0px;fill:#ffffff;stroke-width:3.31211;stroke-linecap:square"
           d="m 79.657152,67.032435 h -4.185861 l 0.376258,13.488817 h 3.442752 z m -2.088227,19.508931 c 1.204023,0 2.248136,-1.006488 2.257543,-2.257543 -0.0094,-1.232242 -1.05352,-2.23873 -2.257543,-2.23873 -1.241649,0 -2.266949,1.006488 -2.257543,2.23873 -0.0094,1.251055 1.015894,2.257543 2.257543,2.257543 z"
           id="path584"
           aria-label="!" /><path
           style="font-weight:bold;font-size:26.4885px;line-height:1;font-family:Inter;-inkscape-font-specification:'Inter Bold';letter-spacing:0px;fill:#0074d9;fill-opacity:1;stroke-width:3.31211;stroke-linecap:square"
           d="m 111.9077,72.569089 h 3.56503 V 72.24927 c 0.0188,-1.834253 0.67727,-2.690238 2.16348,-3.583849 1.759,-1.044113 2.90659,-2.426858 2.90659,-4.637368 0,-3.29225 -2.65262,-5.211161 -6.38697,-5.211161 -3.41453,0 -6.19883,1.787221 -6.28349,5.549792 h 3.83782 c 0.0564,-1.533248 1.19462,-2.351607 2.42686,-2.351607 1.26987,0 2.29517,0.846578 2.29517,2.154072 0,1.232242 -0.89361,2.050601 -2.0506,2.784303 -1.58028,0.997081 -2.46449,2.003569 -2.47389,5.295818 z m 1.85306,6.020114 c 1.20403,0 2.24814,-1.006488 2.25755,-2.257543 -0.009,-1.232242 -1.05352,-2.23873 -2.25755,-2.23873 -1.24165,0 -2.26695,1.006488 -2.25754,2.23873 -0.009,1.251055 1.01589,2.257543 2.25754,2.257543 z"
           id="path585"
           aria-label="?" /></g></g><g
       id="g6"
       transform="translate(0,-0.40888524)"><path
         style="font-weight:bold;font-size:5.83805px;line-height:1.5;font-family:'Sarasa UI SC';-inkscape-font-specification:'Sarasa UI SC';letter-spacing:0px;text-orientation:upright;fill:#0074d9;stroke-width:1.37356;stroke-linecap:round;stroke-linejoin:round;paint-order:markers stroke fill"
         d="m 18.467151,69.13267 h 0.683052 v 1.039173 h 0.659699 v 0.648024 h -0.659699 v 0.887383 l 0.659699,-0.157627 0.08757,0.642185 -0.74727,0.192656 V 73.8323 q 0,0.251036 -0.05838,0.39115 -0.05254,0.140113 -0.198493,0.221846 -0.145952,0.07589 -0.367798,0.09925 -0.216007,0.02335 -0.525424,0.02335 -0.01751,-0.134276 -0.07589,-0.321093 -0.05838,-0.186818 -0.122599,-0.315255 0.175142,0.0058 0.332769,0.0058 0.163465,0 0.221846,0 0.110923,0 0.110923,-0.110923 V 72.55373 L 17.79578,72.717196 17.614801,72.04582 18.467156,71.864841 V 70.819867 H 17.69069 v -0.648024 h 0.776461 z m 1.453674,0.496234 h 2.907349 v 4.903962 h -0.671376 v -0.332769 h -2.276839 v -0.648023 h 2.276839 v -1.401132 h -2.09586 v -0.68889 h 2.09586 V 70.27109 h -2.235973 z m 5.814698,3.158385 h 2.084184 v 0.618834 h -2.084184 z m 0.396987,-2.533713 0.653862,0.04087 q -0.02335,0.315255 -0.05838,0.665538 -0.03503,0.350283 -0.07589,0.671376 h 0.869869 q 0.0467,-0.396988 0.08757,-0.817327 0.0467,-0.426178 0.07589,-0.782299 h -1.833148 v -0.63051 h 1.949909 l 0.110923,-0.02919 0.490396,0.0467 q -0.02919,0.490396 -0.09341,1.080039 -0.05838,0.583805 -0.122599,1.132582 h 0.648023 q 0,0 -0.0058,0.105084 -0.0058,0.105085 -0.01751,0.169304 -0.05838,0.770622 -0.122599,1.261019 -0.06422,0.490396 -0.145951,0.758946 -0.07589,0.26855 -0.18098,0.379473 -0.105084,0.116761 -0.216007,0.169304 -0.105085,0.05254 -0.251037,0.07006 -0.122599,0.01168 -0.309416,0.01168 -0.18098,0.0058 -0.39115,0 -0.0058,-0.140114 -0.05838,-0.321093 -0.05254,-0.175142 -0.128437,-0.303579 0.180979,0.01751 0.338607,0.02335 0.157627,0 0.23936,0 0.07006,0 0.116761,-0.01168 0.05254,-0.01751 0.09341,-0.06422 0.09925,-0.09341 0.180979,-0.472882 0.08173,-0.379474 0.145951,-1.179286 l -2.014127,-0.0058 h -0.186817 q 0.04087,-0.256875 0.08173,-0.589643 0.04087,-0.338607 0.07589,-0.700566 0.03503,-0.36196 0.05254,-0.677214 z m -2.592094,-0.893222 h 2.107536 v 0.630509 h -0.829003 q -0.05838,0.303579 -0.140113,0.60132 -0.07589,0.29774 -0.175142,0.583805 h 1.015821 v 2.691341 H 24.48618 v 0.437853 h -0.589643 v -1.833147 q -0.110923,0.169303 -0.23936,0.32693 -0.01168,-0.09341 -0.05254,-0.245198 -0.04087,-0.157627 -0.09341,-0.321092 -0.05254,-0.163466 -0.09925,-0.262713 0.274388,-0.361959 0.455368,-0.875707 0.186818,-0.519587 0.297741,-1.103392 h -0.624672 z m 0.945764,2.428629 v 1.471188 h 0.432016 v -1.471188 z m 7.90472,-2.019965 h 2.12505 v 4.652925 H 33.815384 V 74.054146 H 33.062276 V 74.46281 H 32.3909 Z m 0.671376,3.613752 h 0.753108 V 70.446231 H 33.062276 Z M 30.11406,69.185213 h 0.68889 l -0.0058,0.963278 h 1.266857 q 0,0 0,0.06422 0,0.05838 0,0.134276 0,0.07589 -0.0058,0.122599 -0.01751,0.934088 -0.04087,1.587949 -0.01751,0.653862 -0.04671,1.080039 -0.02335,0.42034 -0.07006,0.6597 -0.04671,0.23936 -0.116761,0.338607 -0.09925,0.145951 -0.204332,0.21017 -0.105085,0.06422 -0.251036,0.09341 -0.128437,0.02335 -0.315255,0.02335 -0.186818,0.0058 -0.391149,0 -0.0058,-0.15179 -0.05838,-0.356121 -0.05254,-0.198494 -0.140113,-0.344445 0.175142,0.01168 0.321093,0.01751 0.151789,0.0058 0.227684,0.0058 0.06422,0 0.110923,-0.02335 0.0467,-0.02335 0.08757,-0.08757 0.05838,-0.08173 0.09341,-0.373635 0.04087,-0.297741 0.06422,-0.893222 0.02919,-0.595481 0.0467,-1.576273 H 30.77966 q -0.02919,0.782298 -0.122599,1.477026 -0.09341,0.68889 -0.309417,1.266857 -0.210169,0.572129 -0.589643,1.009983 -0.07589,-0.128437 -0.227684,-0.286065 -0.151789,-0.151789 -0.286064,-0.227684 0.332769,-0.373635 0.50791,-0.864031 0.18098,-0.490396 0.256874,-1.085877 0.07589,-0.601319 0.09341,-1.290209 h -0.683052 v -0.683052 h 0.68889 z m 6.43353,0.554614 0.437854,-0.607157 q 0.467044,0.338607 0.793975,0.729756 0.326931,0.385312 0.572129,0.799813 0.251036,0.414502 0.472882,0.834841 0.221846,0.414502 0.467044,0.817327 0.251036,0.396988 0.577967,0.758947 0.332769,0.356121 0.805651,0.653861 -0.05254,0.09341 -0.128437,0.245199 -0.07006,0.145951 -0.128438,0.29774 -0.05838,0.157627 -0.08173,0.262712 -0.44953,-0.251036 -0.788137,-0.589643 -0.332769,-0.338607 -0.589643,-0.729756 -0.256874,-0.396987 -0.47872,-0.817327 -0.221846,-0.42034 -0.443692,-0.829003 -0.344445,1.004145 -0.89906,1.745577 -0.548776,0.735594 -1.342751,1.202638 -0.06422,-0.07589 -0.18098,-0.186817 -0.116761,-0.105085 -0.245198,-0.216008 -0.122599,-0.105085 -0.216008,-0.169304 0.939927,-0.467044 1.494541,-1.301885 0.560453,-0.834841 0.817327,-1.996613 -0.186817,-0.262712 -0.414501,-0.490396 -0.227684,-0.233522 -0.502073,-0.414502 z m 8.92638,4.705469 -0.484558,0.151789 -1.161772,-2.75556 1.161772,-2.755559 0.484558,0.151789 -1.103392,2.60377 z m 1.009982,0 -0.490396,0.151789 -1.155934,-2.75556 1.155934,-2.755559 0.490396,0.151789 -1.109229,2.60377 z m 2.627124,-2.732208 0.683052,0.140113 q -0.128438,0.560453 -0.338607,1.085878 -0.21017,0.519586 -0.461206,0.881545 -0.06422,-0.05838 -0.175142,-0.128437 -0.105085,-0.0759 -0.221846,-0.140113 -0.110923,-0.07006 -0.198493,-0.110923 0.251036,-0.309417 0.432015,-0.776461 0.18098,-0.467044 0.280227,-0.951602 z m 1.868176,0.15179 0.624671,-0.21017 q 0.151789,0.29774 0.280226,0.642185 0.128437,0.344445 0.221846,0.677214 0.09925,0.326931 0.140113,0.589643 l -0.671375,0.233522 q -0.02919,-0.262712 -0.122599,-0.595481 -0.08757,-0.338607 -0.21017,-0.68889 -0.122599,-0.350283 -0.262712,-0.648023 z m -1.704711,-2.743884 0.68889,0.157627 q -0.05838,0.216008 -0.128437,0.437854 -0.07006,0.221846 -0.151789,0.432016 h 2.019965 l 0.110923,-0.02335 0.496234,0.09341 q -0.05254,0.356121 -0.122599,0.735595 -0.07006,0.373635 -0.134275,0.636347 l -0.595481,-0.110927 q 0.02335,-0.134275 0.0467,-0.309416 0.02335,-0.18098 0.0467,-0.373636 h -0.782299 v 3.006596 q 0,0.251036 -0.05254,0.402826 -0.05254,0.157627 -0.216007,0.245198 -0.15179,0.08173 -0.367798,0.105085 -0.210169,0.02919 -0.496234,0.02919 -0.02335,-0.15179 -0.09341,-0.356121 -0.06422,-0.204332 -0.145951,-0.344445 0.186818,0.0058 0.350283,0.0058 0.169304,0 0.227684,0 0.09925,0 0.09925,-0.09925 v -2.99492 h -0.67721 q -0.128437,0.256875 -0.26855,0.484559 -0.134275,0.227683 -0.286065,0.414501 -0.05838,-0.06422 -0.163465,-0.151789 -0.105085,-0.08757 -0.216008,-0.169304 -0.105085,-0.08757 -0.186817,-0.140113 0.332768,-0.373635 0.589643,-0.939926 0.262712,-0.566291 0.408663,-1.173448 z m -1.249343,0 0.6597,0.21017 q -0.110923,0.303578 -0.251036,0.607157 -0.140113,0.303579 -0.303579,0.595481 v 4.039931 h -0.665537 v -3.000758 q -0.09341,0.128437 -0.198494,0.251036 -0.09925,0.116761 -0.198494,0.221846 -0.02919,-0.08757 -0.09925,-0.227684 -0.06422,-0.140113 -0.140113,-0.280226 -0.07589,-0.140113 -0.134275,-0.221846 0.26855,-0.262712 0.513748,-0.612995 0.251037,-0.356121 0.461206,-0.758947 0.21017,-0.408663 0.356121,-0.823165 z m 8.038992,-0.02335 h 0.671376 v 0.951602 h 1.074201 v 1.652168 h 0.251036 v 0.648022 H 57.02163 q 0.186818,0.513748 0.484559,0.945764 0.303578,0.426177 0.71808,0.683052 -0.128437,0.09925 -0.280227,0.274388 -0.145951,0.180979 -0.227684,0.321093 -0.379473,-0.274389 -0.665537,-0.683052 -0.280227,-0.414502 -0.484558,-0.916574 -0.116761,0.44953 -0.356122,0.864031 -0.23936,0.408664 -0.659699,0.747271 -0.07589,-0.09925 -0.221846,-0.23936 -0.145951,-0.140113 -0.26855,-0.227684 v 0.06422 h -0.542939 v -0.286064 l -1.687196,0.251036 v -2.060832 h 0.5371 v 1.441999 l 0.262712,-0.02919 v -1.728062 h -0.934088 v -0.612996 h 0.934088 V 70.32947 H 53.43123 q -0.15179,0.426178 -0.321093,0.723919 -0.08757,-0.06422 -0.251036,-0.157628 -0.157627,-0.09925 -0.262712,-0.151789 0.192655,-0.303579 0.332768,-0.74727 0.145952,-0.443692 0.221846,-0.89906 l 0.583805,0.116761 q -0.02335,0.128437 -0.05254,0.256874 -0.02919,0.122599 -0.06422,0.245198 h 1.395294 v 0.612995 h -0.764784 v 0.829003 h 0.864031 v 0.612996 h -0.864031 v 1.663844 l 0.26855,-0.02919 v -1.325238 h 0.542939 v 1.973261 q 0.437853,-0.356121 0.648023,-0.788137 0.21017,-0.437853 0.286065,-0.916573 H 55.22935 v -0.648024 h 0.829003 l 0.0058,-0.426178 v -0.577966 h -0.71808 v -0.648024 h 0.71808 z m 1.085878,2.60377 V 70.69727 h -0.414502 v 0.577966 l -0.0058,0.426178 z m 1.838986,-2.090022 0.44953,-0.455368 q 0.163465,0.122599 0.350283,0.280227 0.186818,0.151789 0.356121,0.309416 0.175142,0.15179 0.280226,0.280227 l -0.472882,0.50791 q -0.09925,-0.128437 -0.262712,-0.291902 -0.163465,-0.163466 -0.350283,-0.326931 -0.180979,-0.169304 -0.350283,-0.303579 z m -0.44953,1.290209 h 1.564598 v 2.259326 l 0.595481,-0.42034 q 0.02919,0.151789 0.09925,0.344445 0.07006,0.192656 0.122599,0.303579 -0.443692,0.321092 -0.723918,0.525424 -0.274389,0.204332 -0.432016,0.326931 -0.157628,0.122599 -0.233522,0.192655 -0.0759,0.07006 -0.116761,0.1226 -0.02335,-0.09341 -0.08757,-0.216008 -0.05838,-0.122599 -0.128437,-0.245198 -0.07006,-0.116761 -0.128437,-0.192656 0.09925,-0.06422 0.21017,-0.204332 0.110923,-0.140113 0.110923,-0.338607 v -1.763091 h -0.852356 z m 3.321851,-1.774767 h 0.753108 v 1.815632 h 1.34859 v 0.729756 h -1.34859 v 2.913187 h -0.753108 v -2.913187 h -1.401132 v -0.729756 h 1.401132 z m 2.743884,0.44953 0.472882,-0.408664 q 0.151789,0.134276 0.315255,0.303579 0.169303,0.163465 0.321093,0.326931 0.151789,0.157627 0.245198,0.286064 l -0.502073,0.467044 q -0.08757,-0.134275 -0.233522,-0.303578 -0.140113,-0.175142 -0.303578,-0.350283 -0.163466,-0.175142 -0.315255,-0.321093 z m -0.245198,1.313561 h 1.366104 v 2.171755 l 0.426177,-0.373635 q 0.0467,0.140113 0.122599,0.309416 0.08173,0.169304 0.140114,0.262712 -0.379474,0.338607 -0.618834,0.554615 -0.23936,0.21017 -0.379473,0.332769 -0.134275,0.128437 -0.204332,0.192656 -0.06422,0.07006 -0.09925,0.122599 -0.03503,-0.06422 -0.110922,-0.15179 -0.0759,-0.08757 -0.157628,-0.169303 -0.08173,-0.0759 -0.145951,-0.116761 0.110923,-0.09925 0.233522,-0.297741 0.122599,-0.204331 0.122599,-0.467044 v -1.739738 h -0.694728 z m 2.06667,-1.552921 h 3.08249 v 2.387762 h -1.173448 v 0.332769 h 1.43616 v 0.636348 h -1.109229 q 0.251036,0.32693 0.583805,0.624671 0.332769,0.29774 0.665537,0.484558 -0.110922,0.09341 -0.256874,0.251036 -0.140113,0.15179 -0.221846,0.286065 -0.286064,-0.204332 -0.572128,-0.513749 -0.286065,-0.315254 -0.525425,-0.671375 v 1.424484 h -0.68889 v -1.401132 q -0.251036,0.373635 -0.566291,0.68889 -0.315254,0.315254 -0.659699,0.519586 -0.0759,-0.116761 -0.21017,-0.280226 -0.134275,-0.157628 -0.245198,-0.251036 0.385311,-0.18098 0.74727,-0.490397 0.361959,-0.315254 0.612995,-0.671375 l -1.173448,-0.0058 v -0.63051 h 1.494541 v -0.332769 h -1.220152 z m 0.630509,1.459512 v 0.379474 h 0.618833 v -0.379474 z m 1.255181,0 v 0.379474 h 0.531262 V 70.796514 Z M 67.05724,69.885779 v 0.373635 h 0.618833 v -0.373635 z m 1.255181,0 v 0.373635 h 0.531262 v -0.373635 z m 2.848969,4.559517 1.103392,-2.603771 -1.103392,-2.60377 0.484558,-0.151789 1.161772,2.755559 -1.161772,2.75556 z m -1.009983,0 1.10923,-2.603771 -1.10923,-2.60377 0.490397,-0.151789 1.155934,2.755559 -1.155934,2.75556 z m 7.408487,-3.870628 0.68889,0.262713 q -0.204332,0.256874 -0.472882,0.513748 -0.262713,0.251036 -0.542939,0.472882 -0.280226,0.216008 -0.542939,0.379473 -0.06422,-0.07006 -0.169303,-0.169303 -0.09925,-0.09925 -0.204332,-0.192656 -0.105085,-0.09341 -0.186817,-0.151789 0.26855,-0.134275 0.531262,-0.309417 0.26855,-0.180979 0.502072,-0.385311 0.233522,-0.21017 0.396988,-0.42034 z m 1.751415,0.36196 0.548776,-0.396988 q 0.256875,0.169304 0.542939,0.39115 0.286064,0.216007 0.542939,0.437853 0.262712,0.216008 0.426177,0.402826 l -0.601319,0.461206 Q 80.630708,72.045857 80.38551,71.818173 80.140312,71.584651 79.854247,71.356967 79.574021,71.123445 79.311309,70.936628 Z m -1.301885,0.677213 q 0.26855,0.642186 0.753108,1.126744 0.502072,-0.484558 0.758947,-1.155934 l 0.706404,0.204332 q -0.175142,0.408663 -0.408664,0.753108 -0.227684,0.344445 -0.519586,0.63051 0.846517,0.554614 2.130888,0.74727 -0.110923,0.110923 -0.23936,0.297741 -0.122599,0.192655 -0.186818,0.332768 -1.371942,-0.262712 -2.253487,-0.922411 -0.461206,0.32693 -1.027497,0.560452 -0.560453,0.233522 -1.208476,0.39115 -0.04087,-0.08173 -0.116761,-0.198494 -0.0759,-0.116761 -0.157628,-0.233522 -0.08173,-0.116761 -0.151789,-0.192656 0.636348,-0.122599 1.173448,-0.315254 0.542939,-0.192656 0.974955,-0.47872 -0.262713,-0.286065 -0.478721,-0.624672 -0.210169,-0.338607 -0.379473,-0.729756 z m 0.163465,-2.352734 0.665538,-0.233522 q 0.116761,0.186818 0.23936,0.414502 0.128437,0.221846 0.186817,0.391149 l -0.01751,0.0058 h 2.078346 v 0.683052 h -5.14916 v -0.683052 h 2.282677 q -0.05838,-0.140113 -0.134275,-0.291902 -0.07589,-0.157628 -0.151789,-0.286065 z m 6.795491,2.720532 h 0.612995 v 2.346896 H 84.96838 Z m -0.992468,0 h 0.630509 v 0.560452 q 0,0.315255 -0.05838,0.677214 -0.05254,0.356121 -0.245198,0.700566 -0.186817,0.344445 -0.583805,0.630509 -0.07589,-0.105084 -0.227684,-0.245198 -0.145951,-0.134275 -0.262712,-0.210169 0.338607,-0.233522 0.496234,-0.502073 0.157628,-0.274388 0.204332,-0.548776 0.0467,-0.280227 0.0467,-0.525425 z m 1.967422,0 h 0.642186 v 1.751414 q 0,0.140114 0.02335,0.163466 0.01168,0.02919 0.05838,0.02919 0.01751,0 0.04087,0 0.02919,0 0.05254,0 0.05254,0 0.0759,-0.01751 0.02335,-0.03503 0.04087,-0.151789 0.01168,-0.07006 0.01168,-0.216008 0.0058,-0.151789 0.01168,-0.350283 0.08173,0.07589 0.216007,0.145951 0.140114,0.07006 0.256875,0.116761 -0.0058,0.198494 -0.02919,0.396987 -0.01751,0.198494 -0.0467,0.286065 -0.06422,0.192656 -0.192656,0.262712 -0.05838,0.04087 -0.151789,0.05838 -0.08757,0.02335 -0.169303,0.02335 -0.07006,0 -0.157628,0 -0.08173,0 -0.145951,0 -0.105085,0 -0.216008,-0.03503 -0.105085,-0.03503 -0.180979,-0.110923 -0.0759,-0.0759 -0.110923,-0.204332 -0.02919,-0.122599 -0.02919,-0.414502 z m -3.853113,-2.300192 0.385312,-0.513749 q 0.180979,0.0759 0.385311,0.186818 0.204332,0.105085 0.385311,0.221846 0.186818,0.116761 0.303579,0.227684 l -0.408664,0.566291 q -0.105085,-0.110923 -0.286064,-0.233522 -0.175142,-0.128437 -0.379473,-0.245198 -0.198494,-0.122599 -0.385312,-0.21017 z m -0.23936,1.61714 0.367798,-0.531263 q 0.186817,0.07006 0.396987,0.169304 0.21017,0.09925 0.402825,0.210169 0.192656,0.105085 0.315255,0.204332 l -0.391149,0.583805 q -0.110923,-0.105085 -0.297741,-0.221846 -0.186817,-0.116761 -0.396987,-0.227684 -0.204332,-0.110923 -0.396988,-0.186817 z m 0.105085,2.743883 q 0.157628,-0.221846 0.344445,-0.519586 0.192656,-0.303579 0.39115,-0.642186 0.198493,-0.344445 0.373635,-0.683052 l 0.513748,0.467044 q -0.233522,0.461206 -0.502072,0.939926 -0.262712,0.47872 -0.531263,0.910736 z m 2.924863,-4.798877 0.648024,-0.151789 q 0.08173,0.163465 0.157627,0.356121 0.0759,0.192655 0.128437,0.356121 h 1.389456 v 0.624671 h -0.805651 q 0.163466,0.18098 0.332769,0.39115 0.175142,0.210169 0.326931,0.414501 0.151789,0.198494 0.245198,0.356121 l -0.560453,0.361959 q -0.08757,-0.163465 -0.23936,-0.379473 -0.6597,0.0467 -1.109229,0.08173 -0.44953,0.03503 -0.741433,0.05838 -0.286064,0.02335 -0.455368,0.04671 -0.169303,0.01751 -0.26855,0.04087 -0.09341,0.01751 -0.157627,0.04087 -0.01168,-0.08757 -0.04087,-0.210169 -0.02919,-0.1226 -0.06422,-0.245199 -0.03503,-0.122599 -0.05838,-0.192655 0.09925,-0.02335 0.233522,-0.06422 0.140114,-0.04087 0.233522,-0.122599 0.06422,-0.06422 0.198494,-0.227684 0.140113,-0.169303 0.286065,-0.350283 H 83.56141 v -0.62468 h 1.523731 q -0.04087,-0.140113 -0.09341,-0.286065 -0.05254,-0.145951 -0.110922,-0.274388 z m 0.922412,1.424484 0.396988,-0.23936 h -0.858194 q -0.128437,0.163466 -0.262712,0.338607 -0.128437,0.169304 -0.256874,0.326931 l 1.272695,-0.07006 z m 7.326759,1.266857 q 0,0.572129 -0.18098,1.004145 -0.180979,0.426177 -0.496234,0.706404 l 0.612995,0.764784 h -0.840679 l -0.344445,-0.420339 q -0.344445,0.128437 -0.741432,0.128437 -0.566291,0 -1.015821,-0.256874 -0.44953,-0.256875 -0.712242,-0.741433 -0.262712,-0.490396 -0.262712,-1.185124 0,-0.694728 0.262712,-1.179286 0.262712,-0.490396 0.712242,-0.741432 0.44953,-0.256875 1.015821,-0.256875 0.566291,0 1.015821,0.256875 0.449529,0.251036 0.712242,0.741432 0.262712,0.484558 0.262712,1.179286 z m -2.300192,0.648024 h 0.758947 l 0.315254,0.402825 q 0.15179,-0.175141 0.233522,-0.437854 0.08173,-0.262712 0.08173,-0.612995 0,-0.671376 -0.29774,-1.027497 -0.291903,-0.356121 -0.782299,-0.356121 -0.490396,0 -0.788137,0.356121 -0.291902,0.356121 -0.291902,1.027497 0,0.677214 0.291902,1.033335 0.297741,0.356121 0.788137,0.356121 0.122599,0 0.233522,-0.02335 z m 6.865538,-0.648024 q 0,0.572129 -0.18098,1.004145 -0.180979,0.426177 -0.496234,0.706404 l 0.612995,0.764784 h -0.840679 l -0.344445,-0.420339 q -0.344445,0.128437 -0.741432,0.128437 -0.566291,0 -1.015821,-0.256874 -0.44953,-0.256875 -0.712242,-0.741433 -0.262712,-0.490396 -0.262712,-1.185124 0,-0.694728 0.262712,-1.179286 0.262712,-0.490396 0.712242,-0.741432 0.44953,-0.256875 1.015821,-0.256875 0.56629,0 1.01582,0.256875 0.44953,0.251036 0.712242,0.741432 0.262713,0.484558 0.262713,1.179286 z m -2.300192,0.648024 h 0.758946 l 0.315255,0.402825 q 0.151789,-0.175141 0.233522,-0.437854 0.08173,-0.262712 0.08173,-0.612995 0,-0.671376 -0.297741,-1.027497 -0.291902,-0.356121 -0.782298,-0.356121 -0.490397,0 -0.788137,0.356121 -0.291903,0.356121 -0.291903,1.027497 0,0.677214 0.291903,1.033335 0.29774,0.356121 0.788137,0.356121 0.122599,0 0.233522,-0.02335 z m 8.739566,-3.491154 0.67721,0.157627 q -0.11092,0.262712 -0.22184,0.525425 -0.11093,0.256874 -0.21017,0.449529 h 0.50791 v 0.63051 h -0.94577 v 0.531262 h 0.83484 v 0.642186 h -0.83484 v 0.612995 h 1.06253 V 73.2952 h -1.06253 v 1.284371 h -0.67137 V 73.2952 h -0.99247 v -0.653862 h 0.99247 v -0.612995 h -0.79398 v -0.642186 h 0.79398 v -0.531262 h -0.86403 v -0.63051 h 0.35028 q -0.0409,-0.198493 -0.13428,-0.443691 -0.0934,-0.245198 -0.21017,-0.44953 l 0.56046,-0.192656 q 0.13427,0.216008 0.24519,0.484558 0.11093,0.262713 0.15179,0.467044 l -0.36779,0.134275 h 1.27269 l -0.48456,-0.122599 q 0.0934,-0.204331 0.19266,-0.490396 0.0992,-0.286064 0.15179,-0.519586 z m -2.72053,1.827309 h -0.46121 l -0.0525,0.367798 h 0.51375 z M 99.843731,69.37203 h 2.212619 v 0.963278 h 0.28607 v 0.583805 h -0.28607 v 0.951603 h -1.28437 q -0.0292,0.116761 -0.0642,0.227683 -0.035,0.110923 -0.0759,0.221846 h 1.52957 v 1.979099 h -1.40697 v 0.286065 h -0.63051 v -1.313561 q -0.0525,0.06422 -0.10509,0.128437 -0.05254,0.05838 -0.116758,0.122599 -0.03503,-0.07006 -0.116761,-0.169304 -0.08173,-0.105085 -0.175142,-0.21017 -0.08757,-0.105084 -0.157627,-0.163465 0.221846,-0.216008 0.379473,-0.496234 0.157628,-0.280227 0.268555,-0.612995 h -0.286069 v -0.583805 h 0.426179 l 0.0642,-0.367798 h -0.782301 v -0.583805 h 0.840681 l 0.0233,-0.379473 h -0.542939 z m 1.570439,0.963278 v -0.379473 h -0.3678 l -0.0292,0.379473 z m -0.6597,2.586257 v 0.77646 h 0.72975 v -0.77646 z"
         id="text1"
         aria-label="扫码加入《你缺计课》交流 QQ 群" /><g
         id="text3"
         style="font-size:5.64444px;line-height:1.1;font-family:'LXGW Neo XiHei';-inkscape-font-specification:'LXGW Neo XiHei';text-align:center;letter-spacing:0px;text-anchor:middle;fill:#7eabdf;stroke-width:1.5875;stroke-linecap:round;stroke-linejoin:round"
         aria-label="1 群（交流群）：1858831033&#10;2 群（直流群）：1050412745"><path
           style="font-weight:bold;font-family:'Sarasa UI SC';-inkscape-font-specification:'Sarasa UI SC Bold';text-align:start;text-anchor:start"
           d="m 22.444802,78.197639 v 4.103508 h -0.869243 v -3.279419 h -0.02258 l -0.942622,0.587021 v -0.767643 l 1.021644,-0.643467 z m 7.083777,-0.69991 0.654755,0.1524 q -0.107245,0.254 -0.214489,0.507999 -0.107244,0.248356 -0.2032,0.434622 h 0.491066 v 0.6096 h -0.914399 v 0.513644 h 0.807155 v 0.620888 h -0.807155 v 0.592666 H 30.3696 v 0.632178 h -1.027288 v 1.241777 h -0.649111 v -1.241777 h -0.959554 v -0.632178 h 0.959554 v -0.592666 h -0.767643 v -0.620888 h 0.767643 V 79.20235 h -0.835377 v -0.6096 h 0.338667 q -0.03951,-0.191911 -0.129822,-0.428977 -0.09031,-0.237067 -0.2032,-0.434622 l 0.541866,-0.186267 q 0.129822,0.208845 0.237066,0.468489 0.107245,0.254 0.146756,0.451555 l -0.3556,0.129822 h 1.230488 l -0.468488,-0.118533 q 0.09031,-0.197555 0.186266,-0.474133 0.09596,-0.276578 0.146756,-0.502355 z m -2.63031,1.76671 h -0.44591 l -0.0508,0.355599 h 0.49671 z m -1.518354,-1.495777 h 2.139243 v 0.931333 h 0.276577 v 0.564444 h -0.276577 v 0.920043 h -1.241777 q -0.02822,0.112889 -0.06209,0.220134 -0.03387,0.107244 -0.07338,0.214488 h 1.478843 v 1.913466 h -1.36031 v 0.276577 h -0.6096 v -1.269999 q -0.0508,0.06209 -0.1016,0.124178 -0.0508,0.05644 -0.112889,0.118533 -0.03387,-0.06773 -0.112888,-0.163689 -0.07902,-0.1016 -0.169334,-0.2032 -0.08467,-0.1016 -0.152399,-0.158044 0.214488,-0.208844 0.366888,-0.479777 0.1524,-0.270934 0.259644,-0.592667 h -0.276577 v -0.564444 h 0.412044 l 0.06209,-0.355599 h -0.756355 v -0.564444 h 0.812799 l 0.02258,-0.366889 h -0.524933 z m 1.518354,0.931333 V 78.333106 H 26.54267 l -0.02822,0.366889 z m -0.637821,2.500487 v 0.75071 h 0.705555 v -0.75071 z m 8.015105,-1.044222 q 0,-0.603955 0.1524,-1.10631 0.1524,-0.502355 0.400755,-0.903111 0.254,-0.400755 0.5588,-0.69991 l 0.536221,0.237066 q -0.282222,0.3048 -0.513644,0.671689 -0.225777,0.366888 -0.361244,0.812799 -0.135466,0.445911 -0.135466,0.987777 0,0.541866 0.135466,0.987777 0.135467,0.445911 0.361244,0.8128 0.231422,0.366888 0.513644,0.671688 l -0.536221,0.237066 q -0.3048,-0.299155 -0.5588,-0.69991 -0.248355,-0.400755 -0.400755,-0.903111 -0.1524,-0.502355 -0.1524,-1.10631 z m 3.57293,-1.224843 0.666044,0.253999 q -0.197556,0.248356 -0.4572,0.496711 -0.254,0.242711 -0.524933,0.4572 -0.270933,0.208844 -0.524933,0.366888 -0.06209,-0.06773 -0.163688,-0.163688 -0.09596,-0.09596 -0.197556,-0.186267 -0.1016,-0.09031 -0.180622,-0.146755 0.259644,-0.129822 0.513644,-0.299156 0.259644,-0.174977 0.485422,-0.372533 0.225778,-0.203199 0.383822,-0.406399 z m 1.693332,0.349955 0.530577,-0.383822 q 0.248356,0.163689 0.524933,0.378178 0.276578,0.208844 0.524933,0.423333 0.254,0.208844 0.412044,0.389466 l -0.581377,0.445911 q -0.135467,-0.180622 -0.372533,-0.400756 -0.237066,-0.225777 -0.513644,-0.44591 -0.270933,-0.225778 -0.524933,-0.4064 z m -1.25871,0.654755 q 0.259644,0.620888 0.728133,1.089377 0.485421,-0.468489 0.733777,-1.117599 l 0.682977,0.197555 q -0.169333,0.395111 -0.395111,0.728133 -0.220133,0.333022 -0.502355,0.6096 0.818444,0.536221 2.060221,0.722488 -0.107245,0.107244 -0.231422,0.287866 -0.118534,0.186267 -0.180622,0.321733 -1.326444,-0.253999 -2.178754,-0.891821 -0.445911,0.316089 -0.993422,0.541866 -0.541866,0.225778 -1.168399,0.378178 -0.03951,-0.07902 -0.112889,-0.191911 -0.07338,-0.112889 -0.1524,-0.225778 -0.07902,-0.112889 -0.146755,-0.186266 0.615244,-0.118534 1.134532,-0.3048 0.524933,-0.186267 0.942622,-0.462844 -0.254,-0.276578 -0.462844,-0.603955 -0.2032,-0.327378 -0.366889,-0.705555 z m 0.158044,-2.274709 0.643466,-0.225778 q 0.112889,0.180622 0.231422,0.400755 0.124178,0.214489 0.180622,0.378178 l -0.01693,0.0056 h 2.009421 v 0.6604 h -4.978396 v -0.6604 h 2.206976 q -0.05644,-0.135466 -0.129822,-0.282222 -0.07338,-0.1524 -0.146756,-0.276577 z m 6.570128,2.630309 h 0.592666 v 2.269065 h -0.592666 z m -0.959555,0 h 0.6096 v 0.541866 q 0,0.3048 -0.05644,0.654755 -0.0508,0.344311 -0.237066,0.677333 -0.180622,0.333022 -0.564444,0.609599 -0.07338,-0.101599 -0.220133,-0.237066 -0.141111,-0.129822 -0.254,-0.2032 0.327377,-0.225778 0.479777,-0.485422 0.1524,-0.265288 0.197556,-0.530577 0.04516,-0.270933 0.04516,-0.508 z m 1.902177,0 h 0.620888 v 1.693332 q 0,0.135466 0.02258,0.158044 0.01129,0.02822 0.05644,0.02822 0.01693,0 0.03951,0 0.02822,0 0.0508,0 0.0508,0 0.07338,-0.01693 0.02258,-0.03387 0.03951,-0.146755 0.01129,-0.06773 0.01129,-0.208845 0.0056,-0.146755 0.01129,-0.338666 0.07902,0.07338 0.208844,0.141111 0.135467,0.06773 0.248355,0.112889 -0.0056,0.191911 -0.02822,0.383822 -0.01693,0.191911 -0.04515,0.276577 -0.06209,0.186267 -0.186267,0.254 -0.05644,0.03951 -0.146755,0.05644 -0.08467,0.02258 -0.163689,0.02258 -0.06773,0 -0.1524,0 -0.07902,0 -0.141111,0 -0.1016,0 -0.208844,-0.03387 -0.1016,-0.03387 -0.174978,-0.107245 -0.07338,-0.07338 -0.107244,-0.197555 -0.02822,-0.118534 -0.02822,-0.400756 z m -3.725331,-2.22391 0.372533,-0.49671 q 0.174978,0.07338 0.372533,0.180622 0.197556,0.1016 0.372533,0.214488 0.180622,0.112889 0.293511,0.220134 l -0.395111,0.54751 q -0.1016,-0.107244 -0.276577,-0.225777 -0.169333,-0.124178 -0.366889,-0.237067 -0.191911,-0.118533 -0.372533,-0.2032 z m -0.231422,1.56351 0.3556,-0.513644 q 0.180622,0.06773 0.383822,0.163689 0.2032,0.09595 0.389466,0.2032 0.186267,0.1016 0.3048,0.197555 l -0.378178,0.564444 q -0.107244,-0.1016 -0.287866,-0.214488 -0.180622,-0.112889 -0.383822,-0.220134 -0.197555,-0.107244 -0.383822,-0.180622 z m 0.1016,2.652887 q 0.1524,-0.214489 0.333022,-0.502355 0.186266,-0.293511 0.378177,-0.620888 0.191911,-0.333022 0.361245,-0.6604 l 0.49671,0.451555 q -0.225777,0.445911 -0.485422,0.908755 -0.253999,0.462844 -0.513644,0.880533 z m 2.827864,-4.63973 0.626533,-0.146755 q 0.07902,0.158044 0.1524,0.344311 0.07338,0.186266 0.124178,0.344311 h 1.343377 v 0.603955 h -0.778933 q 0.158044,0.174977 0.321733,0.378177 0.169333,0.2032 0.316089,0.400755 0.146755,0.191911 0.237066,0.344311 l -0.541866,0.349956 q -0.08467,-0.158045 -0.231422,-0.366889 -0.637822,0.04516 -1.072444,0.07902 -0.434622,0.03387 -0.716844,0.05644 -0.276577,0.02258 -0.440266,0.04515 -0.163689,0.01693 -0.259644,0.03951 -0.09031,0.01693 -0.1524,0.03951 -0.01129,-0.08467 -0.03951,-0.2032 -0.02822,-0.118533 -0.06209,-0.237066 -0.03387,-0.118533 -0.05644,-0.186267 0.09596,-0.02258 0.225778,-0.06209 0.135467,-0.03951 0.225778,-0.118533 0.06209,-0.06209 0.191911,-0.220133 0.135466,-0.163689 0.276577,-0.338666 h -0.965199 v -0.603955 h 1.473199 q -0.03951,-0.135467 -0.09031,-0.276578 -0.0508,-0.141111 -0.107245,-0.265289 z m 0.891822,1.377244 0.383822,-0.231422 h -0.829733 q -0.124177,0.158044 -0.254,0.327377 -0.124177,0.163689 -0.248355,0.316089 l 1.230488,-0.06773 z m 6.287908,-1.523999 0.654755,0.1524 q -0.107245,0.254 -0.214489,0.507999 -0.107244,0.248356 -0.2032,0.434622 h 0.491067 v 0.6096 h -0.9144 v 0.513644 h 0.807155 v 0.620888 h -0.807155 v 0.592666 h 1.027288 v 0.632178 h -1.027288 v 1.241777 h -0.64911 v -1.241777 h -0.959555 v -0.632178 h 0.959555 v -0.592666 h -0.767644 v -0.620888 h 0.767644 V 79.20235 h -0.835378 v -0.6096 h 0.338667 q -0.03951,-0.191911 -0.129822,-0.428977 -0.09031,-0.237067 -0.2032,-0.434622 l 0.541866,-0.186267 q 0.129822,0.208845 0.237067,0.468489 0.107244,0.254 0.146755,0.451555 l -0.3556,0.129822 h 1.230488 l -0.468488,-0.118533 q 0.09031,-0.197555 0.186266,-0.474133 0.09596,-0.276578 0.146756,-0.502355 z m -2.630309,1.76671 H 49.03012 l -0.0508,0.355599 h 0.496711 z m -1.518355,-1.495777 h 2.139243 v 0.931333 h 0.276578 v 0.564444 h -0.276578 v 0.920043 h -1.241777 q -0.02822,0.112889 -0.06209,0.220134 -0.03387,0.107244 -0.07338,0.214488 h 1.478843 v 1.913466 h -1.36031 v 0.276577 h -0.6096 v -1.269999 q -0.0508,0.06209 -0.1016,0.124178 -0.0508,0.05644 -0.112888,0.118533 -0.03387,-0.06773 -0.112889,-0.163689 -0.07902,-0.1016 -0.169333,-0.2032 -0.08467,-0.1016 -0.1524,-0.158044 0.214488,-0.208844 0.366888,-0.479777 0.1524,-0.270934 0.259645,-0.592667 h -0.276578 v -0.564444 h 0.412044 l 0.06209,-0.355599 h -0.756355 v -0.564444 h 0.812799 l 0.02258,-0.366889 h -0.524933 z m 1.518355,0.931333 v -0.366889 h -0.3556 l -0.02822,0.366889 z m -0.637822,2.500487 v 0.75071 h 0.705555 v -0.75071 z m 6.175017,-1.044222 q 0,0.603955 -0.1524,1.10631 -0.146755,0.502356 -0.400755,0.903111 -0.254,0.400755 -0.5588,0.69991 l -0.536222,-0.237066 q 0.282222,-0.3048 0.508,-0.671688 0.231422,-0.366889 0.366889,-0.8128 0.135466,-0.445911 0.135466,-0.987777 0,-0.541866 -0.135466,-0.987777 -0.135467,-0.445911 -0.366889,-0.812799 -0.225778,-0.366889 -0.508,-0.671689 l 0.536222,-0.237066 q 0.3048,0.299155 0.5588,0.69991 0.254,0.400756 0.400755,0.903111 0.1524,0.502355 0.1524,1.10631 z m 5.153373,-0.502355 q -0.225777,0 -0.383822,-0.1524 -0.152399,-0.1524 -0.152399,-0.378177 0,-0.231422 0.152399,-0.383822 0.158045,-0.1524 0.383822,-0.1524 0.225778,0 0.378178,0.1524 0.158044,0.1524 0.158044,0.383822 0,0.225777 -0.158044,0.378177 -0.1524,0.1524 -0.378178,0.1524 z m 0,2.692398 q -0.225777,0 -0.383822,-0.1524 -0.152399,-0.1524 -0.152399,-0.378177 0,-0.231422 0.152399,-0.383822 0.158045,-0.1524 0.383822,-0.1524 0.225778,0 0.378178,0.1524 0.158044,0.1524 0.158044,0.383822 0,0.225777 -0.158044,0.378177 -0.1524,0.1524 -0.378178,0.1524 z"
           id="path6" /><path
           style="font-weight:bold;font-family:'Sarasa UI SC';-inkscape-font-specification:'Sarasa UI SC Bold';text-align:start;text-anchor:start"
           d="m 70.168548,82.357592 q -0.462845,0 -0.824089,-0.1524 -0.361244,-0.1524 -0.564444,-0.412044 -0.2032,-0.265289 -0.2032,-0.598311 0,-0.254 0.112889,-0.468488 0.118534,-0.214489 0.321733,-0.3556 0.2032,-0.146756 0.4572,-0.186267 v -0.02822 q -0.327378,-0.06773 -0.536222,-0.321733 -0.2032,-0.254 -0.2032,-0.592666 0,-0.316089 0.186267,-0.564444 0.186266,-0.248355 0.507999,-0.389467 0.327378,-0.146755 0.745067,-0.146755 0.412044,0 0.739421,0.146755 0.327378,0.141112 0.513644,0.389467 0.186267,0.248355 0.186267,0.564444 0,0.338666 -0.208844,0.592666 -0.2032,0.254 -0.524933,0.321733 v 0.02822 q 0.242711,0.03951 0.44591,0.186267 0.2032,0.141111 0.321733,0.3556 0.118534,0.214488 0.118534,0.468488 0,0.333022 -0.208845,0.598311 -0.203199,0.259644 -0.564444,0.412044 -0.355599,0.1524 -0.818443,0.1524 z m 0,-0.637822 q 0.310444,0 0.49671,-0.163689 0.191911,-0.169333 0.191911,-0.428977 0,-0.265289 -0.197555,-0.434622 -0.191911,-0.174978 -0.491066,-0.174978 -0.299156,0 -0.496711,0.174978 -0.191911,0.169333 -0.191911,0.434622 0,0.259644 0.186266,0.428977 0.191911,0.163689 0.502356,0.163689 z m 0,-1.834443 q 0.259644,0 0.423333,-0.1524 0.169333,-0.158044 0.169333,-0.400755 0,-0.237067 -0.169333,-0.383822 -0.163689,-0.1524 -0.423333,-0.1524 -0.265289,0 -0.428978,0.1524 -0.163689,0.146755 -0.163689,0.383822 0,0.242711 0.163689,0.400755 0.169333,0.1524 0.428978,0.1524 z m 3.84386,2.472265 q -0.428977,0 -0.761999,-0.1524 -0.333022,-0.158044 -0.524933,-0.434622 -0.191911,-0.276577 -0.2032,-0.632177 h 0.846666 q 0.01129,0.242711 0.197555,0.389466 0.186267,0.146756 0.445911,0.146756 0.3048,0 0.496711,-0.197556 0.197555,-0.2032 0.197555,-0.524933 0,-0.321733 -0.203199,-0.524933 -0.197556,-0.2032 -0.508,-0.2032 -0.180622,0 -0.349955,0.07338 -0.169334,0.07338 -0.259645,0.2032 l -0.773288,-0.141111 0.191911,-2.161821 h 2.511776 v 0.705555 h -1.794932 l -0.107244,1.032933 h 0.02822 q 0.107244,-0.1524 0.321733,-0.254 0.220133,-0.1016 0.491066,-0.1016 0.372533,0 0.6604,0.174978 0.293511,0.174978 0.462844,0.479777 0.169333,0.3048 0.163689,0.694266 0.0056,0.417689 -0.191911,0.739422 -0.191911,0.321733 -0.536222,0.508 -0.344311,0.180622 -0.801511,0.180622 z m 3.843865,0 q -0.462844,0 -0.824089,-0.1524 -0.361244,-0.1524 -0.564444,-0.412044 -0.203199,-0.265289 -0.203199,-0.598311 0,-0.254 0.112888,-0.468488 0.118534,-0.214489 0.321733,-0.3556 0.2032,-0.146756 0.4572,-0.186267 v -0.02822 q -0.327377,-0.06773 -0.536222,-0.321733 -0.2032,-0.254 -0.2032,-0.592666 0,-0.316089 0.186267,-0.564444 0.186266,-0.248355 0.508,-0.389467 0.327377,-0.146755 0.745066,-0.146755 0.412044,0 0.739421,0.146755 0.327378,0.141112 0.513644,0.389467 0.186267,0.248355 0.186267,0.564444 0,0.338666 -0.208844,0.592666 -0.2032,0.254 -0.524933,0.321733 v 0.02822 q 0.242711,0.03951 0.44591,0.186267 0.2032,0.141111 0.321734,0.3556 0.118533,0.214488 0.118533,0.468488 0,0.333022 -0.208845,0.598311 -0.203199,0.259644 -0.564444,0.412044 -0.355599,0.1524 -0.818443,0.1524 z m 0,-0.637822 q 0.310444,0 0.49671,-0.163689 0.191911,-0.169333 0.191911,-0.428977 0,-0.265289 -0.197555,-0.434622 -0.191911,-0.174978 -0.491066,-0.174978 -0.299156,0 -0.496711,0.174978 -0.191911,0.169333 -0.191911,0.434622 0,0.259644 0.186266,0.428977 0.191911,0.163689 0.502356,0.163689 z m 0,-1.834443 q 0.259644,0 0.423333,-0.1524 0.169333,-0.158044 0.169333,-0.400755 0,-0.237067 -0.169333,-0.383822 -0.163689,-0.1524 -0.423333,-0.1524 -0.265289,0 -0.428978,0.1524 -0.163689,0.146755 -0.163689,0.383822 0,0.242711 0.163689,0.400755 0.169333,0.1524 0.428978,0.1524 z m 3.84386,2.472265 q -0.462844,0 -0.824088,-0.1524 -0.361244,-0.1524 -0.564444,-0.412044 -0.2032,-0.265289 -0.2032,-0.598311 0,-0.254 0.112889,-0.468488 0.118533,-0.214489 0.321733,-0.3556 0.2032,-0.146756 0.4572,-0.186267 v -0.02822 q -0.327378,-0.06773 -0.536222,-0.321733 -0.2032,-0.254 -0.2032,-0.592666 0,-0.316089 0.186267,-0.564444 0.186266,-0.248355 0.507999,-0.389467 0.327378,-0.146755 0.745066,-0.146755 0.412044,0 0.739422,0.146755 0.327377,0.141112 0.513644,0.389467 0.186267,0.248355 0.186267,0.564444 0,0.338666 -0.208845,0.592666 -0.2032,0.254 -0.524933,0.321733 v 0.02822 q 0.242711,0.03951 0.445911,0.186267 0.2032,0.141111 0.321733,0.3556 0.118533,0.214488 0.118533,0.468488 0,0.333022 -0.208844,0.598311 -0.2032,0.259644 -0.564444,0.412044 -0.3556,0.1524 -0.818444,0.1524 z m 0,-0.637822 q 0.310444,0 0.496711,-0.163689 0.191911,-0.169333 0.191911,-0.428977 0,-0.265289 -0.197555,-0.434622 -0.191911,-0.174978 -0.491067,-0.174978 -0.299155,0 -0.49671,0.174978 -0.191911,0.169333 -0.191911,0.434622 0,0.259644 0.186266,0.428977 0.191911,0.163689 0.502355,0.163689 z m 0,-1.834443 q 0.259645,0 0.423333,-0.1524 0.169333,-0.158044 0.169333,-0.400755 0,-0.237067 -0.169333,-0.383822 -0.163688,-0.1524 -0.423333,-0.1524 -0.265288,0 -0.428977,0.1524 -0.163689,0.146755 -0.163689,0.383822 0,0.242711 0.163689,0.400755 0.169333,0.1524 0.428977,0.1524 z m 3.832572,2.472265 q -0.445911,0 -0.795866,-0.1524 -0.349955,-0.158044 -0.553155,-0.428977 -0.197556,-0.276578 -0.2032,-0.637822 h 0.869244 q 0.01693,0.225777 0.208844,0.366888 0.191911,0.135467 0.479777,0.135467 0.299156,0 0.485422,-0.1524 0.191911,-0.1524 0.191911,-0.395111 0,-0.254 -0.2032,-0.406399 -0.203199,-0.158045 -0.553155,-0.158045 h -0.383822 v -0.637821 h 0.383822 q 0.299156,0 0.485422,-0.146756 0.186267,-0.1524 0.180622,-0.395111 0.0056,-0.231422 -0.158044,-0.372533 -0.163689,-0.146755 -0.423333,-0.146755 -0.265289,0 -0.4572,0.141111 -0.186266,0.135466 -0.197555,0.372533 h -0.829733 q 0.0056,-0.3556 0.2032,-0.626533 0.197555,-0.270933 0.530577,-0.423333 0.333022,-0.1524 0.756355,-0.1524 0.423333,0 0.739422,0.1524 0.321733,0.1524 0.496711,0.417689 0.180622,0.259644 0.174977,0.587021 0.0056,0.344311 -0.214488,0.575733 -0.214489,0.225778 -0.5588,0.287867 v 0.03387 q 0.4572,0.05645 0.694266,0.316089 0.237067,0.254 0.231422,0.637822 0.0056,0.349955 -0.197555,0.626533 -0.2032,0.270933 -0.564444,0.428977 -0.3556,0.1524 -0.818444,0.1524 z m 4.634082,-4.159953 v 4.103508 h -0.869244 v -3.279419 h -0.02258 l -0.942622,0.587021 v -0.767643 l 1.021644,-0.643467 z m 3.064932,4.19382 q -0.519289,0 -0.891822,-0.254 -0.366888,-0.254 -0.570088,-0.733778 -0.197555,-0.479777 -0.197555,-1.151465 0.0056,-1.010355 0.44591,-1.557866 0.440267,-0.553155 1.213555,-0.553155 0.513644,0 0.886177,0.248355 0.372533,0.248356 0.570089,0.722489 0.203199,0.468488 0.203199,1.140177 -0.0056,1.015999 -0.44591,1.580443 -0.440267,0.5588 -1.213555,0.5588 z m 0,-0.722489 q 0.349955,0 0.5588,-0.349955 0.214488,-0.3556 0.214488,-1.066799 0,-0.699911 -0.214488,-1.049866 -0.208845,-0.349955 -0.5588,-0.349955 -0.349955,0 -0.564444,0.349955 -0.208844,0.349955 -0.208844,1.049866 -0.0056,0.711199 0.2032,1.066799 0.214488,0.349955 0.570088,0.349955 z m 3.832576,0.688622 q -0.445911,0 -0.795867,-0.1524 -0.349955,-0.158044 -0.553155,-0.428977 -0.197555,-0.276578 -0.2032,-0.637822 h 0.869244 q 0.01693,0.225777 0.208845,0.366888 0.191911,0.135467 0.479777,0.135467 0.299155,0 0.485422,-0.1524 0.191911,-0.1524 0.191911,-0.395111 0,-0.254 -0.2032,-0.406399 -0.2032,-0.158045 -0.553155,-0.158045 h -0.383822 v -0.637821 h 0.383822 q 0.299155,0 0.485422,-0.146756 0.186266,-0.1524 0.180622,-0.395111 0.0056,-0.231422 -0.158045,-0.372533 -0.163688,-0.146755 -0.423333,-0.146755 -0.265288,0 -0.457199,0.141111 -0.186267,0.135466 -0.197556,0.372533 h -0.829732 q 0.0056,-0.3556 0.203199,-0.626533 0.197556,-0.270933 0.530578,-0.423333 0.333022,-0.1524 0.756355,-0.1524 0.423333,0 0.739422,0.1524 0.321733,0.1524 0.49671,0.417689 0.180622,0.259644 0.174978,0.587021 0.0056,0.344311 -0.214489,0.575733 -0.214489,0.225778 -0.558799,0.287867 v 0.03387 q 0.457199,0.05645 0.694266,0.316089 0.237066,0.254 0.231422,0.637822 0.0056,0.349955 -0.197556,0.626533 -0.203199,0.270933 -0.564444,0.428977 -0.355599,0.1524 -0.818443,0.1524 z m 3.843865,0 q -0.44591,0 -0.79587,-0.1524 -0.349952,-0.158044 -0.553152,-0.428977 -0.197556,-0.276578 -0.2032,-0.637822 h 0.869242 q 0.0169,0.225777 0.20885,0.366888 0.19191,0.135467 0.47977,0.135467 0.29916,0 0.48543,-0.1524 0.19191,-0.1524 0.19191,-0.395111 0,-0.254 -0.2032,-0.406399 -0.2032,-0.158045 -0.55316,-0.158045 h -0.38382 v -0.637821 h 0.38382 q 0.29916,0 0.48542,-0.146756 0.18627,-0.1524 0.18063,-0.395111 0.006,-0.231422 -0.15805,-0.372533 -0.16369,-0.146755 -0.42333,-0.146755 -0.26529,0 -0.4572,0.141111 -0.18627,0.135466 -0.19756,0.372533 h -0.82973 q 0.0056,-0.3556 0.2032,-0.626533 0.197555,-0.270933 0.53058,-0.423333 0.33302,-0.1524 0.75635,-0.1524 0.42334,0 0.73942,0.1524 0.32174,0.1524 0.49671,0.417689 0.18063,0.259644 0.17498,0.587021 0.006,0.344311 -0.21449,0.575733 -0.21449,0.225778 -0.5588,0.287867 v 0.03387 q 0.4572,0.05645 0.69427,0.316089 0.23707,0.254 0.23142,0.637822 0.006,0.349955 -0.19755,0.626533 -0.2032,0.270933 -0.56445,0.428977 -0.3556,0.1524 -0.81844,0.1524 z"
           id="path8" /><path
           style="font-weight:bold;font-family:'Sarasa UI SC';-inkscape-font-specification:'Sarasa UI SC Bold';text-align:start;text-anchor:start"
           d="m 20.220893,88.957191 v -0.626533 l 1.46191,-1.349021 q 0.276578,-0.270934 0.423333,-0.468489 0.146755,-0.197555 0.146755,-0.445911 0,-0.270933 -0.180622,-0.423333 -0.174977,-0.158044 -0.44591,-0.158044 -0.282222,0 -0.4572,0.169333 -0.169333,0.169333 -0.163689,0.462844 h -0.824088 q 0,-0.4064 0.180622,-0.69991 0.180622,-0.299156 0.508,-0.4572 0.333022,-0.163689 0.761999,-0.163689 0.440266,0 0.767644,0.158045 0.327377,0.152399 0.508,0.428977 0.186266,0.270933 0.186266,0.626533 0,0.231422 -0.09596,0.457199 -0.09031,0.225778 -0.321734,0.502356 -0.231422,0.276577 -0.654755,0.660399 l -0.59831,0.587022 v 0.02822 h 1.721554 v 0.7112 z m 9.307686,-4.803419 0.654755,0.1524 q -0.107245,0.254 -0.214489,0.508 -0.107244,0.248355 -0.2032,0.434621 h 0.491066 v 0.6096 h -0.914399 v 0.513644 h 0.807155 v 0.620888 h -0.807155 v 0.592667 H 30.3696 v 0.632177 h -1.027288 v 1.241777 h -0.649111 v -1.241777 h -0.959554 v -0.632177 h 0.959554 v -0.592667 h -0.767643 v -0.620888 h 0.767643 v -0.513644 h -0.835377 v -0.6096 h 0.338667 q -0.03951,-0.191911 -0.129822,-0.428977 -0.09031,-0.237067 -0.2032,-0.434622 l 0.541866,-0.186266 q 0.129822,0.208844 0.237066,0.468488 0.107245,0.254 0.146756,0.451555 l -0.3556,0.129822 h 1.230488 L 29.195557,85.13026 q 0.09031,-0.197555 0.186266,-0.474133 0.09596,-0.276577 0.146756,-0.502355 z m -2.63031,1.76671 h -0.44591 l -0.0508,0.3556 h 0.49671 z m -1.518354,-1.495777 h 2.139243 v 0.931333 h 0.276577 v 0.564444 h -0.276577 v 0.920044 h -1.241777 q -0.02822,0.112888 -0.06209,0.220133 -0.03387,0.107244 -0.07338,0.214488 h 1.478843 v 1.913466 h -1.36031 v 0.276577 h -0.6096 v -1.269999 q -0.0508,0.06209 -0.1016,0.124178 -0.0508,0.05644 -0.112889,0.118533 -0.03387,-0.06773 -0.112888,-0.163689 -0.07902,-0.1016 -0.169334,-0.2032 -0.08467,-0.101599 -0.152399,-0.158044 0.214488,-0.208844 0.366888,-0.479777 0.1524,-0.270933 0.259644,-0.592666 h -0.276577 v -0.564444 h 0.412044 l 0.06209,-0.3556 h -0.756355 v -0.564444 h 0.812799 l 0.02258,-0.366889 h -0.524933 z m 1.518354,0.931333 V 84.989149 H 26.54267 l -0.02822,0.366889 z m -0.637821,2.500487 v 0.75071 h 0.705555 v -0.75071 z m 8.015105,-1.044222 q 0,-0.603955 0.1524,-1.10631 0.1524,-0.502355 0.400755,-0.90311 0.254,-0.400756 0.5588,-0.699911 l 0.536221,0.237067 q -0.282222,0.304799 -0.513644,0.671688 -0.225777,0.366889 -0.361244,0.812799 -0.135466,0.445911 -0.135466,0.987777 0,0.541867 0.135466,0.987777 0.135467,0.445911 0.361244,0.8128 0.231422,0.366888 0.513644,0.671688 l -0.536221,0.237067 q -0.3048,-0.299156 -0.5588,-0.699911 -0.248355,-0.400755 -0.400755,-0.90311 -0.1524,-0.502356 -0.1524,-1.106311 z m 2.873019,-1.36031 h 1.326444 l 0.04516,-0.287866 h -1.964265 v -0.603955 h 2.037643 l 0.02822,-0.417689 0.756355,0.07338 -0.05644,0.344311 h 2.127954 v 0.603955 h -2.246487 l -0.06209,0.287866 h 1.732843 v 3.234264 h 0.722488 v 0.6096 h -5.181596 v -0.6096 h 0.733777 z m 0.654755,1.349021 v 0.282222 h 2.381954 v -0.282222 z m 0,-0.49671 h 2.381954 v -0.293511 h -2.381954 z m 0,1.275643 v 0.299156 h 2.381954 v -0.299156 z m 0,1.10631 h 2.381954 v -0.310444 h -2.381954 z m 7.20795,-1.738487 h 0.592666 v 2.269065 h -0.592666 z m -0.959555,0 h 0.6096 v 0.541866 q 0,0.3048 -0.05644,0.654755 -0.0508,0.344311 -0.237066,0.677333 -0.180622,0.333022 -0.564444,0.6096 -0.07338,-0.1016 -0.220133,-0.237067 -0.141111,-0.129822 -0.254,-0.2032 0.327377,-0.225777 0.479777,-0.485422 0.1524,-0.265288 0.197556,-0.530577 0.04516,-0.270933 0.04516,-0.508 z m 1.902177,0 h 0.620888 v 1.693332 q 0,0.135467 0.02258,0.158044 0.01129,0.02822 0.05644,0.02822 0.01693,0 0.03951,0 0.02822,0 0.0508,0 0.0508,0 0.07338,-0.01693 0.02258,-0.03387 0.03951,-0.146755 0.01129,-0.06773 0.01129,-0.208845 0.0056,-0.146755 0.01129,-0.338666 0.07902,0.07338 0.208844,0.141111 0.135467,0.06773 0.248355,0.112889 -0.0056,0.191911 -0.02822,0.383822 -0.01693,0.191911 -0.04515,0.276577 -0.06209,0.186267 -0.186267,0.254 -0.05644,0.03951 -0.146755,0.05645 -0.08467,0.02258 -0.163689,0.02258 -0.06773,0 -0.1524,0 -0.07902,0 -0.141111,0 -0.1016,0 -0.208844,-0.03387 -0.1016,-0.03387 -0.174978,-0.107245 -0.07338,-0.07338 -0.107244,-0.197555 -0.02822,-0.118533 -0.02822,-0.400755 z m -3.725331,-2.22391 0.372533,-0.49671 q 0.174978,0.07338 0.372533,0.180622 0.197556,0.1016 0.372533,0.214489 0.180622,0.112888 0.293511,0.220133 l -0.395111,0.54751 Q 43.142967,85.28266 42.96799,85.164127 42.798657,85.039949 42.601101,84.92706 42.40919,84.808527 42.228568,84.72386 Z m -0.231422,1.56351 0.3556,-0.513644 q 0.180622,0.06773 0.383822,0.163689 0.2032,0.09596 0.389466,0.2032 0.186267,0.1016 0.3048,0.197555 l -0.378178,0.564444 q -0.107244,-0.1016 -0.287866,-0.214488 -0.180622,-0.112889 -0.383822,-0.220134 -0.197555,-0.107244 -0.383822,-0.180622 z m 0.1016,2.652887 q 0.1524,-0.214488 0.333022,-0.502355 0.186266,-0.293511 0.378177,-0.620888 0.191911,-0.333022 0.361245,-0.6604 l 0.49671,0.451555 q -0.225777,0.445911 -0.485422,0.908755 -0.253999,0.462844 -0.513644,0.880533 z m 2.827864,-4.63973 0.626533,-0.146755 q 0.07902,0.158044 0.1524,0.344311 0.07338,0.186266 0.124178,0.344311 h 1.343377 v 0.603955 h -0.778933 q 0.158044,0.174977 0.321733,0.378177 0.169333,0.2032 0.316089,0.400756 0.146755,0.191911 0.237066,0.34431 l -0.541866,0.349956 q -0.08467,-0.158045 -0.231422,-0.366889 -0.637822,0.04516 -1.072444,0.07902 -0.434622,0.03387 -0.716844,0.05644 -0.276577,0.02258 -0.440266,0.04516 -0.163689,0.01693 -0.259644,0.03951 -0.09031,0.01693 -0.1524,0.03951 -0.01129,-0.08467 -0.03951,-0.2032 -0.02822,-0.118533 -0.06209,-0.237066 -0.03387,-0.118533 -0.05644,-0.186267 0.09596,-0.02258 0.225778,-0.06209 0.135467,-0.03951 0.225778,-0.118534 0.06209,-0.06209 0.191911,-0.220133 0.135466,-0.163689 0.276577,-0.338666 h -0.965199 v -0.603955 h 1.473199 q -0.03951,-0.135467 -0.09031,-0.276578 -0.0508,-0.141111 -0.107245,-0.265289 z m 0.891822,1.377244 0.383822,-0.231422 h -0.829733 q -0.124177,0.158044 -0.254,0.327377 -0.124177,0.163689 -0.248355,0.316089 l 1.230488,-0.06773 z m 6.287908,-1.523999 0.654755,0.1524 q -0.107245,0.254 -0.214489,0.508 -0.107244,0.248355 -0.2032,0.434621 h 0.491067 v 0.6096 h -0.9144 v 0.513644 h 0.807155 v 0.620888 h -0.807155 v 0.592667 h 1.027288 v 0.632177 h -1.027288 v 1.241777 h -0.64911 v -1.241777 h -0.959555 v -0.632177 h 0.959555 v -0.592667 h -0.767644 v -0.620888 h 0.767644 v -0.513644 h -0.835378 v -0.6096 h 0.338667 q -0.03951,-0.191911 -0.129822,-0.428977 -0.09031,-0.237067 -0.2032,-0.434622 l 0.541866,-0.186266 q 0.129822,0.208844 0.237067,0.468488 0.107244,0.254 0.146755,0.451555 l -0.3556,0.129822 h 1.230488 L 51.773318,85.13026 q 0.09031,-0.197555 0.186266,-0.474133 0.09596,-0.276577 0.146756,-0.502355 z m -2.630309,1.76671 H 49.03012 l -0.0508,0.3556 h 0.496711 z m -1.518355,-1.495777 h 2.139243 v 0.931333 h 0.276578 v 0.564444 h -0.276578 v 0.920044 h -1.241777 q -0.02822,0.112888 -0.06209,0.220133 -0.03387,0.107244 -0.07338,0.214488 h 1.478843 v 1.913466 h -1.36031 v 0.276577 h -0.6096 v -1.269999 q -0.0508,0.06209 -0.1016,0.124178 -0.0508,0.05644 -0.112888,0.118533 -0.03387,-0.06773 -0.112889,-0.163689 -0.07902,-0.1016 -0.169333,-0.2032 -0.08467,-0.101599 -0.1524,-0.158044 0.214488,-0.208844 0.366888,-0.479777 0.1524,-0.270933 0.259645,-0.592666 h -0.276578 v -0.564444 h 0.412044 l 0.06209,-0.3556 h -0.756355 v -0.564444 h 0.812799 l 0.02258,-0.366889 h -0.524933 z m 1.518355,0.931333 v -0.366889 h -0.3556 l -0.02822,0.366889 z m -0.637822,2.500487 v 0.75071 h 0.705555 v -0.75071 z m 6.175017,-1.044222 q 0,0.603955 -0.1524,1.106311 -0.146755,0.502355 -0.400755,0.90311 -0.254,0.400755 -0.5588,0.699911 l -0.536222,-0.237067 q 0.282222,-0.3048 0.508,-0.671688 0.231422,-0.366889 0.366889,-0.8128 0.135466,-0.44591 0.135466,-0.987777 0,-0.541866 -0.135466,-0.987777 -0.135467,-0.44591 -0.366889,-0.812799 -0.225778,-0.366889 -0.508,-0.671688 l 0.536222,-0.237067 q 0.3048,0.299155 0.5588,0.699911 0.254,0.400755 0.400755,0.90311 0.1524,0.502355 0.1524,1.10631 z m 5.153373,-0.502355 q -0.225777,0 -0.383822,-0.1524 -0.152399,-0.1524 -0.152399,-0.378177 0,-0.231422 0.152399,-0.383822 0.158045,-0.1524 0.383822,-0.1524 0.225778,0 0.378178,0.1524 0.158044,0.1524 0.158044,0.383822 0,0.225777 -0.158044,0.378177 -0.1524,0.1524 -0.378178,0.1524 z m 0,2.692398 q -0.225777,0 -0.383822,-0.1524 -0.152399,-0.1524 -0.152399,-0.378177 0,-0.231422 0.152399,-0.383822 0.158045,-0.1524 0.383822,-0.1524 0.225778,0 0.378178,0.1524 0.158044,0.1524 0.158044,0.383822 0,0.225777 -0.158044,0.378177 -0.1524,0.1524 -0.378178,0.1524 z m 6.937017,-4.148663 v 4.103508 h -0.869244 v -3.27942 h -0.02258 l -0.942621,0.587022 v -0.767644 l 1.021644,-0.643466 z m 3.064932,4.193819 q -0.519289,0 -0.891822,-0.254 -0.366889,-0.254 -0.570088,-0.733777 -0.197556,-0.479778 -0.197556,-1.151466 0.0056,-1.010355 0.445911,-1.557866 0.440266,-0.553155 1.213555,-0.553155 0.513644,0 0.886177,0.248356 0.372533,0.248355 0.570088,0.722488 0.2032,0.468488 0.2032,1.140177 -0.0056,1.015999 -0.445911,1.580443 -0.440266,0.5588 -1.213554,0.5588 z m 0,-0.722489 q 0.349955,0 0.558799,-0.349955 0.214489,-0.3556 0.214489,-1.066799 0,-0.699911 -0.214489,-1.049866 -0.208844,-0.349955 -0.558799,-0.349955 -0.349956,0 -0.564444,0.349955 -0.208845,0.349955 -0.208845,1.049866 -0.0056,0.711199 0.2032,1.066799 0.214489,0.349955 0.570089,0.349955 z m 3.84386,0.688622 q -0.428977,0 -0.761999,-0.1524 -0.333022,-0.158044 -0.524933,-0.434622 -0.191911,-0.276577 -0.2032,-0.632177 h 0.846666 q 0.01129,0.242711 0.197555,0.389466 0.186267,0.146756 0.445911,0.146756 0.3048,0 0.496711,-0.197556 0.197555,-0.2032 0.197555,-0.524933 0,-0.321733 -0.203199,-0.524933 -0.197556,-0.203199 -0.508,-0.203199 -0.180622,0 -0.349955,0.07338 -0.169334,0.07338 -0.259645,0.2032 l -0.773288,-0.141111 0.191911,-2.16182 h 2.511776 v 0.705555 h -1.794932 l -0.107244,1.032932 h 0.02822 q 0.107244,-0.1524 0.321733,-0.254 0.220133,-0.1016 0.491066,-0.1016 0.372533,0 0.6604,0.174978 0.293511,0.174978 0.462844,0.479777 0.169333,0.3048 0.163689,0.694267 0.0056,0.417688 -0.191911,0.739421 -0.191911,0.321733 -0.536222,0.508 -0.344311,0.180622 -0.801511,0.180622 z m 3.843865,0.03387 q -0.519289,0 -0.891822,-0.254 -0.366889,-0.254 -0.570088,-0.733777 -0.197556,-0.479778 -0.197556,-1.151466 0.0056,-1.010355 0.445911,-1.557866 0.440266,-0.553155 1.213555,-0.553155 0.513644,0 0.886177,0.248356 0.372533,0.248355 0.570088,0.722488 0.2032,0.468488 0.2032,1.140177 -0.0056,1.015999 -0.445911,1.580443 -0.440266,0.5588 -1.213554,0.5588 z m 0,-0.722489 q 0.349955,0 0.558799,-0.349955 0.214489,-0.3556 0.214489,-1.066799 0,-0.699911 -0.214489,-1.049866 -0.208844,-0.349955 -0.558799,-0.349955 -0.349956,0 -0.564444,0.349955 -0.208845,0.349955 -0.208845,1.049866 -0.0056,0.711199 0.2032,1.066799 0.214489,0.349955 0.570089,0.349955 z m 2.190039,-0.09031 v -0.682977 l 1.71591,-2.698042 h 1.083733 v 2.686753 h 0.507999 v 0.694266 h -0.507999 v 0.722489 h -0.829733 v -0.722489 z m 1.986843,-0.694266 v -1.744132 h -0.03387 l -1.078088,1.710265 v 0.03387 z m 4.284134,-2.686753 v 4.103508 h -0.869244 v -3.27942 h -0.02258 l -0.942622,0.587022 v -0.767644 l 1.021644,-0.643466 z m 1.619951,4.103508 v -0.626533 l 1.46191,-1.349021 q 0.276577,-0.270934 0.423333,-0.468489 0.146755,-0.197555 0.146755,-0.445911 0,-0.270933 -0.180622,-0.423333 -0.174978,-0.158044 -0.445911,-0.158044 -0.282222,0 -0.457199,0.169333 -0.169334,0.169333 -0.163689,0.462844 h -0.824088 q 0,-0.4064 0.180622,-0.69991 0.180622,-0.299156 0.507999,-0.4572 0.333022,-0.163689 0.762,-0.163689 0.440266,0 0.767644,0.158045 0.327377,0.152399 0.507999,0.428977 0.186267,0.270933 0.186267,0.626533 0,0.231422 -0.09596,0.457199 -0.09031,0.225778 -0.321733,0.502356 -0.231422,0.276577 -0.654755,0.660399 l -0.598311,0.587022 v 0.02822 h 1.721555 v 0.7112 z m 4.109153,0 1.704621,-3.369731 v -0.02822 h -1.986843 v -0.705555 h 2.884309 v 0.716843 l -1.704621,3.386665 z m 3.369724,-0.722489 v -0.682977 l 1.71591,-2.698042 h 1.083732 v 2.686753 h 0.508 v 0.694266 h -0.508 v 0.722489 h -0.829733 v -0.722489 z m 1.986843,-0.694266 v -1.744132 h -0.03387 l -1.078088,1.710265 v 0.03387 z m 3.5052,1.473199 q -0.42897,0 -0.762,-0.1524 -0.333017,-0.158044 -0.524928,-0.434622 -0.191911,-0.276577 -0.2032,-0.632177 h 0.846668 q 0.0113,0.242711 0.19755,0.389466 0.18627,0.146756 0.44591,0.146756 0.3048,0 0.49671,-0.197556 0.19756,-0.2032 0.19756,-0.524933 0,-0.321733 -0.2032,-0.524933 -0.19756,-0.203199 -0.508,-0.203199 -0.18062,0 -0.34995,0.07338 -0.16934,0.07338 -0.25965,0.2032 l -0.773287,-0.141111 0.191911,-2.16182 h 2.511776 v 0.705555 h -1.79493 l -0.10725,1.032932 h 0.0282 q 0.10724,-0.1524 0.32173,-0.254 0.22013,-0.1016 0.49106,-0.1016 0.37254,0 0.6604,0.174978 0.29352,0.174978 0.46285,0.479777 0.16933,0.3048 0.16369,0.694267 0.006,0.417688 -0.19191,0.739421 -0.19191,0.321733 -0.53623,0.508 -0.34431,0.180622 -0.80151,0.180622 z"
           id="path9" /></g></g></g></svg>
