<?xml version="1.0" encoding="UTF-8" standalone="no"?>
<!-- Created with Inkscape (http://www.inkscape.org/) -->

<svg
   width="188.96506mm"
   height="65.24543mm"
   viewBox="0 0 188.96506 65.24543"
   version="1.1"
   id="svg1"
   xml:space="preserve"
   xmlns:xlink="http://www.w3.org/1999/xlink"
   xmlns="http://www.w3.org/2000/svg"
   xmlns:svg="http://www.w3.org/2000/svg"><defs
     id="defs1"><radialGradient
       xlink:href="#linearGradient5"
       id="radialGradient267"
       gradientUnits="userSpaceOnUse"
       cx="105"
       cy="148.5"
       fx="105"
       fy="148.5"
       r="57.982555" /><linearGradient
       id="linearGradient5"><stop
         style="stop-color:#0074d9;stop-opacity:1;"
         offset="0"
         id="stop5" /><stop
         style="stop-color:#0074d9;stop-opacity:0;"
         offset="1"
         id="stop6" /></linearGradient><filter
       style="color-interpolation-filters:sRGB"
       id="filter14"
       x="-0.028233576"
       y="-0.091576036"
       width="1.0564672"
       height="1.1831521"><feFlood
         result="flood"
         in="SourceGraphic"
         flood-opacity="0.603922"
         flood-color="rgb(168,199,242)"
         id="feFlood13" /><feGaussianBlur
         result="blur"
         in="SourceGraphic"
         stdDeviation="2.000000"
         id="feGaussianBlur13" /><feOffset
         result="offset"
         in="blur"
         dx="0.000000"
         dy="0.000000"
         id="feOffset13" /><feComposite
         result="comp1"
         operator="in"
         in="flood"
         in2="offset"
         id="feComposite13" /><feComposite
         result="comp2"
         operator="over"
         in="SourceGraphic"
         in2="comp1"
         id="feComposite14" /></filter></defs><g
     id="layer1"
     transform="translate(-36.581911,-136.84356)"><rect
       style="fill:#ffffff;fill-opacity:1;stroke:#0074d9;stroke-width:0.5;stroke-linecap:round;stroke-linejoin:round;stroke-dasharray:none;stroke-opacity:1;filter:url(#filter14)"
       id="rect3"
       width="178.86505"
       height="55.145432"
       x="41.631912"
       y="141.89355"
       rx="3.5236697"
       ry="3.5236697" /><text
       xml:space="preserve"
       style="font-style:normal;font-variant:normal;font-weight:normal;font-stretch:normal;font-size:3.63499px;line-height:1.3;font-family:'LXGW Neo XiHei';-inkscape-font-specification:'LXGW Neo XiHei';text-align:start;letter-spacing:0px;writing-mode:lr-tb;direction:ltr;text-anchor:start;fill:#515151;fill-opacity:1;stroke:none;stroke-width:2.57598;stroke-linecap:round;stroke-linejoin:round;stroke-dasharray:none;stroke-opacity:1"
       x="132.64305"
       y="182.99353"
       id="text73"><tspan
         id="tspan73"
         style="font-style:normal;font-variant:normal;font-weight:normal;font-stretch:normal;font-family:'Sarasa UI SC';-inkscape-font-specification:'Sarasa UI SC';fill:#515151;fill-opacity:1;stroke-width:2.57598"
         x="132.64305"
         y="182.99353">网页版 · 由</tspan></text><g
       id="g74"
       transform="matrix(0.17837653,0,0,0.17837653,137.31758,168.20716)"><rect
         style="fill:#ffb494;fill-opacity:1;stroke:none;stroke-width:0.668471;stroke-linecap:round;stroke-linejoin:round;stroke-dasharray:none;stroke-opacity:1"
         id="rect73"
         width="24.408638"
         height="24.408638"
         x="102.90819"
         y="-21.038006"
         rx="12.204319"
         ry="12.204319"
         transform="rotate(45)" /><path
         style="fill:none;fill-opacity:1;stroke:#fff5ec;stroke-width:2.62987;stroke-linecap:round;stroke-linejoin:round;stroke-dasharray:none;stroke-opacity:1"
         id="path73"
         d="m 95.189751,74.49121 a 7.5764618,7.5764618 0 0 1 -4.345679,7.526939 7.5764618,7.5764618 0 0 1 -8.559319,-1.509239 7.5764618,7.5764618 0 0 1 -1.509239,-8.559318 7.5764618,7.5764618 0 0 1 7.526938,-4.34568" /><circle
         style="fill:#fff5ec;fill-opacity:1;stroke:none;stroke-width:0.835073;stroke-linecap:round;stroke-linejoin:round;stroke-dasharray:none;stroke-opacity:1"
         id="circle73"
         cx="69.79393"
         cy="-92.999733"
         r="1.3149358"
         transform="rotate(90)" /><path
         style="fill:#474747;fill-opacity:1;stroke:#fff5ec;stroke-width:2.62987;stroke-linecap:round;stroke-linejoin:round;stroke-dasharray:none;stroke-opacity:1"
         d="m 85.460211,77.333455 4.365238,-4.365238"
         id="path74" /><circle
         style="fill:#fff5ec;fill-opacity:0;stroke:none;stroke-width:0.835073;stroke-linecap:round;stroke-linejoin:round;stroke-dasharray:none;stroke-opacity:1"
         id="circle74"
         cx="80.507736"
         cy="-82.285934"
         r="1.3149358"
         transform="rotate(90)" /></g><g
       id="g82"
       transform="matrix(0.35354581,0,0,0.35354581,104.17363,131.4186)"><text
         xml:space="preserve"
         style="font-size:9.93611px;line-height:1.3;font-family:'Noto Mono';-inkscape-font-specification:'Noto Mono';text-align:center;letter-spacing:0px;writing-mode:lr-tb;direction:ltr;text-anchor:middle;fill:#474747;fill-opacity:1;stroke:#ffb494;stroke-width:0.369672;stroke-linecap:round;stroke-linejoin:round;stroke-dasharray:0.369672, 2.21803;stroke-opacity:1"
         x="160.31717"
         y="145.20171"
         id="text81"><tspan
           id="tspan81"
           style="font-style:normal;font-variant:normal;font-weight:bold;font-stretch:normal;font-family:'PT Astra Sans';-inkscape-font-specification:'PT Astra Sans';fill:#474747;fill-opacity:1;stroke:none;stroke-width:0.369672"
           x="160.31717"
           y="145.20171">criwits</tspan></text><text
         xml:space="preserve"
         style="font-size:9.93611px;line-height:1.3;font-family:'Noto Mono';-inkscape-font-specification:'Noto Mono';text-align:center;letter-spacing:0px;writing-mode:lr-tb;direction:ltr;text-anchor:middle;fill:#bbbbbb;fill-opacity:1;stroke:#ffb494;stroke-width:0.369672;stroke-linecap:round;stroke-linejoin:round;stroke-dasharray:0.369672, 2.21803;stroke-opacity:1"
         x="182.42865"
         y="145.20171"
         id="text82"><tspan
           id="tspan82"
           style="font-style:normal;font-variant:normal;font-weight:normal;font-stretch:normal;font-family:'PT Astra Sans';-inkscape-font-specification:'PT Astra Sans';fill:#bbbbbb;fill-opacity:1;stroke:none;stroke-width:0.369672"
           x="182.42865"
           y="145.20171">.top</tspan></text></g><text
       xml:space="preserve"
       style="font-style:normal;font-variant:normal;font-weight:normal;font-stretch:normal;font-size:3.63499px;line-height:1.3;font-family:'LXGW Neo XiHei';-inkscape-font-specification:'LXGW Neo XiHei';text-align:start;letter-spacing:0px;writing-mode:lr-tb;direction:ltr;text-anchor:start;fill:#515151;fill-opacity:1;stroke:none;stroke-width:2.57598;stroke-linecap:round;stroke-linejoin:round;stroke-dasharray:none;stroke-opacity:1"
       x="171.88802"
       y="182.99353"
       id="text83"><tspan
         id="tspan83"
         style="font-style:normal;font-variant:normal;font-weight:normal;font-stretch:normal;font-family:'Sarasa UI SC';-inkscape-font-specification:'Sarasa UI SC';fill:#515151;fill-opacity:1;stroke-width:2.57598"
         x="171.88802"
         y="182.99353">运营</tspan></text><g
       id="g4"
       transform="translate(9.2189596)"><g
         id="g1"
         transform="matrix(0.19004751,0,0,0.19004751,65.030839,141.24422)"><circle
           style="fill:url(#radialGradient267);stroke-width:1.07838;stroke-linecap:square"
           id="circle261"
           cx="105"
           cy="148.5"
           r="57.982555" /><circle
           style="fill:#0074d9;fill-opacity:1;stroke-width:0.857471;stroke-linecap:square"
           id="circle262"
           cx="105"
           cy="148.5"
           r="46.104691" /><g
           id="g264"
           transform="translate(7.6394348,71.368099)"><path
             id="path262"
             style="color:#000000;fill:#ffffff;stroke-linecap:square;-inkscape-stroke:none"
             d="m 71.721305,55.185779 c -1.091122,0 -1.980758,0.889119 -1.980758,1.980241 v 34.340022 c 0,1.091122 0.889636,1.982308 1.980758,1.982308 h 51.276965 c 1.09112,0 1.98231,-0.891186 1.98231,-1.982308 V 57.16602 c 0,-1.091122 -0.89119,-1.980241 -1.98231,-1.980241 z m -0.371037,1.44539 52.367342,32.999536 c -0.1829,0.370629 -0.55873,0.623218 -1.00614,0.623218 H 72.010176 c -0.630336,0 -1.127063,-0.496727 -1.127063,-1.127063 V 57.544808 c 0,-0.381458 0.183835,-0.711118 0.467155,-0.913639 z m -0.867647,33.505448 c 0.328976,0.495595 0.890555,0.82424 1.527555,0.824239 h 50.701294 c 0.63494,0 1.19555,-0.326155 1.52497,-0.819071 v 1.364257 c 0,0.692312 -0.54586,1.238168 -1.23817,1.238168 H 71.721305 c -0.69231,0 -1.238684,-0.545856 -1.238684,-1.238168 z" /><rect
             style="fill:none;fill-opacity:1;stroke:#ffffff;stroke-width:0.731029;stroke-linecap:square;stroke-dasharray:none;stroke-opacity:1"
             id="rect262"
             width="68.566505"
             height="3.1464603"
             x="63.077312"
             y="95.566048"
             ry="1.2287005" /><path
             style="font-weight:bold;font-size:26.4885px;line-height:1;font-family:Inter;-inkscape-font-specification:'Inter Bold';letter-spacing:0px;fill:#ffffff;stroke-width:3.31211;stroke-linecap:square"
             d="m 79.657152,67.032435 h -4.185861 l 0.376258,13.488817 h 3.442752 z m -2.088227,19.508931 c 1.204023,0 2.248136,-1.006488 2.257543,-2.257543 -0.0094,-1.232242 -1.05352,-2.23873 -2.257543,-2.23873 -1.241649,0 -2.266949,1.006488 -2.257543,2.23873 -0.0094,1.251055 1.015894,2.257543 2.257543,2.257543 z"
             id="path263"
             aria-label="!" /><path
             style="font-weight:bold;font-size:26.4885px;line-height:1;font-family:Inter;-inkscape-font-specification:'Inter Bold';letter-spacing:0px;fill:#0074d9;fill-opacity:1;stroke-width:3.31211;stroke-linecap:square"
             d="m 111.9077,72.569089 h 3.56503 V 72.24927 c 0.0188,-1.834253 0.67727,-2.690238 2.16348,-3.583849 1.759,-1.044113 2.90659,-2.426858 2.90659,-4.637368 0,-3.29225 -2.65262,-5.211161 -6.38697,-5.211161 -3.41453,0 -6.19883,1.787221 -6.28349,5.549792 h 3.83782 c 0.0564,-1.533248 1.19462,-2.351607 2.42686,-2.351607 1.26987,0 2.29517,0.846578 2.29517,2.154072 0,1.232242 -0.89361,2.050601 -2.0506,2.784303 -1.58028,0.997081 -2.46449,2.003569 -2.47389,5.295818 z m 1.85306,6.020114 c 1.20403,0 2.24814,-1.006488 2.25755,-2.257543 -0.009,-1.232242 -1.05352,-2.23873 -2.25755,-2.23873 -1.24165,0 -2.26695,1.006488 -2.25754,2.23873 -0.009,1.251055 1.01589,2.257543 2.25754,2.257543 z"
             id="path264"
             aria-label="?" /></g></g><g
         id="g2"
         transform="translate(0,0.62154069)"><text
           xml:space="preserve"
           style="font-style:normal;font-variant:normal;font-weight:normal;font-stretch:normal;font-size:7.18758px;line-height:1.3;font-family:'LXGW Neo XiHei';-inkscape-font-specification:'LXGW Neo XiHei';text-align:start;letter-spacing:0px;writing-mode:lr-tb;direction:ltr;text-anchor:start;fill:#0074d9;fill-opacity:1;stroke:none;stroke-width:5.09356;stroke-linecap:round;stroke-linejoin:round;stroke-dasharray:none;stroke-opacity:1"
           x="97.949394"
           y="168.29858"
           id="text72"><tspan
             id="tspan72"
             style="font-style:normal;font-variant:normal;font-weight:bold;font-stretch:normal;font-family:'Sarasa UI SC';-inkscape-font-specification:'Sarasa UI SC';fill:#0074d9;fill-opacity:1;stroke-width:5.09356"
             x="97.949394"
             y="168.29858">你缺失的那门计算机课</tspan></text><text
           xml:space="preserve"
           style="font-style:normal;font-variant:normal;font-weight:normal;font-stretch:normal;font-size:4.76702px;line-height:1.3;font-family:'LXGW Neo XiHei';-inkscape-font-specification:'LXGW Neo XiHei';text-align:start;letter-spacing:0px;writing-mode:lr-tb;direction:ltr;text-anchor:start;fill:#000000;fill-opacity:1;stroke:none;stroke-width:3.37819;stroke-linecap:round;stroke-linejoin:round;stroke-dasharray:none;stroke-opacity:1"
           x="98.085686"
           y="174.52815"
           id="text1"><tspan
             id="tspan1"
             style="font-style:normal;font-variant:normal;font-weight:normal;font-stretch:normal;font-family:'Sarasa UI SC';-inkscape-font-specification:'Sarasa UI SC';stroke-width:3.37819"
             x="98.085686"
             y="174.52815">https://www.criwits.top/missing</tspan></text></g></g></g></svg>
