<?xml version="1.0" encoding="UTF-8" standalone="no"?>
<!-- Created with Inkscape (http://www.inkscape.org/) -->

<svg
   width="188.96506mm"
   height="65.24543mm"
   viewBox="0 0 188.96506 65.24543"
   version="1.1"
   id="svg1"
   xml:space="preserve"
   sodipodi:docname="Readme_banner.svg"
   inkscape:version="1.4 (86a8ad7, 2024-10-11)"
   xmlns:inkscape="http://www.inkscape.org/namespaces/inkscape"
   xmlns:sodipodi="http://sodipodi.sourceforge.net/DTD/sodipodi-0.dtd"
   xmlns:xlink="http://www.w3.org/1999/xlink"
   xmlns="http://www.w3.org/2000/svg"
   xmlns:svg="http://www.w3.org/2000/svg"><sodipodi:namedview
     id="namedview1"
     pagecolor="#ffffff"
     bordercolor="#000000"
     borderopacity="0.25"
     inkscape:showpageshadow="2"
     inkscape:pageopacity="0.0"
     inkscape:pagecheckerboard="0"
     inkscape:deskcolor="#d1d1d1"
     inkscape:document-units="mm"
     inkscape:zoom="1.698407"
     inkscape:cx="323.53846"
     inkscape:cy="96.266676"
     inkscape:window-width="2560"
     inkscape:window-height="1351"
     inkscape:window-x="-9"
     inkscape:window-y="-9"
     inkscape:window-maximized="1"
     inkscape:current-layer="layer1" /><defs
     id="defs1"><radialGradient
       xlink:href="#linearGradient5"
       id="radialGradient267"
       gradientUnits="userSpaceOnUse"
       cx="105"
       cy="148.5"
       fx="105"
       fy="148.5"
       r="57.982555" /><linearGradient
       id="linearGradient5"><stop
         style="stop-color:#0074d9;stop-opacity:1;"
         offset="0"
         id="stop5" /><stop
         style="stop-color:#0074d9;stop-opacity:0;"
         offset="1"
         id="stop6" /></linearGradient><filter
       style="color-interpolation-filters:sRGB"
       id="filter14"
       x="-0.028233576"
       y="-0.091576036"
       width="1.0564672"
       height="1.1831521"><feFlood
         result="flood"
         in="SourceGraphic"
         flood-opacity="0.603922"
         flood-color="rgb(168,199,242)"
         id="feFlood13" /><feGaussianBlur
         result="blur"
         in="SourceGraphic"
         stdDeviation="2.000000"
         id="feGaussianBlur13" /><feOffset
         result="offset"
         in="blur"
         dx="0.000000"
         dy="0.000000"
         id="feOffset13" /><feComposite
         result="comp1"
         operator="in"
         in="flood"
         in2="offset"
         id="feComposite13" /><feComposite
         result="comp2"
         operator="over"
         in="SourceGraphic"
         in2="comp1"
         id="feComposite14" /></filter></defs><g
     id="layer1"
     transform="translate(-36.581911,-136.84356)"><rect
       style="fill:#ffffff;fill-opacity:1;stroke:#0074d9;stroke-width:0.5;stroke-linecap:round;stroke-linejoin:round;stroke-dasharray:none;stroke-opacity:1;filter:url(#filter14)"
       id="rect3"
       width="178.86505"
       height="55.145432"
       x="41.631912"
       y="141.89355"
       rx="3.5236697"
       ry="3.5236697" /><g
       id="g3"
       transform="matrix(1.2798165,0,0,1.2798165,-38.790659,-50.52775)"><path
         style="font-size:3.63499px;line-height:1.3;font-family:'Sarasa UI SC';-inkscape-font-specification:'Sarasa UI SC';letter-spacing:0px;fill:#515151;stroke-width:2.57598;stroke-linecap:round;stroke-linejoin:round"
         d="m 133.34824,181.04518 0.16721,-0.15267 q 0.10541,0.12359 0.21446,0.26535 0.10905,0.13813 0.21447,0.27989 0.10178,-0.35622 0.16357,-0.77061 l 0.25082,0.0291 q -0.0436,0.26535 -0.10178,0.51617 -0.0582,0.24717 -0.1345,0.47254 0.10905,0.15631 0.19993,0.30171 0.0945,0.14176 0.15994,0.25808 l -0.17812,0.17812 q -0.0509,-0.10178 -0.12359,-0.2181 -0.0727,-0.11996 -0.15994,-0.24718 -0.10541,0.25445 -0.23991,0.47618 -0.13449,0.2181 -0.3017,0.39258 -0.0327,-0.0291 -0.10178,-0.0763 -0.0654,-0.0509 -0.10905,-0.0763 0.19265,-0.18175 0.33805,-0.42529 0.1454,-0.24355 0.24718,-0.53435 -0.12359,-0.17448 -0.25445,-0.34532 -0.12722,-0.17448 -0.25081,-0.32351 z m 1.05051,0.004 0.17812,-0.14176 q 0.10541,0.12359 0.20719,0.25808 0.10178,0.13449 0.19992,0.27262 0.0509,-0.18174 0.0872,-0.37076 0.04,-0.19266 0.0691,-0.39258 l 0.24718,0.0291 q -0.04,0.26899 -0.0982,0.51617 -0.0545,0.24717 -0.12722,0.47254 0.12359,0.18539 0.22173,0.35987 0.10178,0.17448 0.16358,0.31988 l -0.18902,0.15994 q -0.0509,-0.11996 -0.13086,-0.26172 -0.0763,-0.14177 -0.17085,-0.29444 -0.10541,0.26172 -0.24354,0.48346 -0.13813,0.2181 -0.31261,0.39621 -0.0363,-0.0291 -0.10178,-0.0763 -0.0654,-0.0509 -0.11268,-0.0763 0.20356,-0.18538 0.35259,-0.43256 0.14904,-0.25082 0.25808,-0.54889 -0.11631,-0.17811 -0.24354,-0.34896 -0.12722,-0.17447 -0.25445,-0.32351 z m -1.43582,-0.89057 h 3.00614 v 2.76259 q 0,0.13086 -0.04,0.19992 -0.0363,0.0727 -0.12722,0.10542 -0.0872,0.0327 -0.24355,0.04 -0.15267,0.0109 -0.39985,0.007 -0.0145,-0.0545 -0.0472,-0.13449 -0.0291,-0.08 -0.0582,-0.13449 0.18175,0.007 0.33805,0.007 0.15994,0 0.21083,-0.004 0.0509,-0.004 0.0727,-0.0218 0.0218,-0.0182 0.0218,-0.0654 v -2.50087 h -2.45725 v 2.8571 h -0.27626 z m 5.00175,1.15592 h 0.27989 v 0.66157 q 0,0.14904 -0.0363,0.29807 -0.0327,0.14904 -0.12722,0.2908 -0.0945,0.14177 -0.27626,0.27263 -0.17812,0.12722 -0.46528,0.23991 -0.28717,0.11631 -0.71246,0.20719 -0.0254,-0.0436 -0.0763,-0.11269 -0.0473,-0.0654 -0.0909,-0.10904 0.40348,-0.08 0.67611,-0.17812 0.27262,-0.0981 0.4362,-0.20719 0.16721,-0.11269 0.25081,-0.22901 0.0836,-0.11995 0.11269,-0.23991 0.0291,-0.11995 0.0291,-0.23627 z m 0.29443,1.27952 0.15994,-0.18538 q 0.20719,0.0909 0.44347,0.21083 0.23627,0.11632 0.4471,0.23627 0.21447,0.11996 0.35623,0.22174 l -0.17084,0.21809 q -0.13086,-0.10178 -0.34169,-0.229 -0.21083,-0.12359 -0.44711,-0.24718 -0.23627,-0.12722 -0.4471,-0.22537 z m -1.35949,-1.76297 h 0.84332 q 0.0436,-0.0981 0.0872,-0.21446 0.0473,-0.11632 0.08,-0.22174 h -1.36312 v -0.25445 h 3.12973 v 0.25445 h -1.454 q -0.0472,0.11269 -0.10178,0.22901 -0.0545,0.11268 -0.10541,0.20719 h 1.31223 v 1.69027 h -0.28717 v -1.43582 h -1.86111 v 1.44309 h -0.2799 z m 3.39509,-0.81787 h 0.25081 v 0.93419 h 0.39258 v -1.01416 h 0.25081 v 1.01416 h 0.31988 v 0.24355 h -0.96327 v 0.26535 l -0.004,0.26172 h 0.74518 v 1.56304 h -0.25082 v -1.31586 h -0.50163 q -0.0182,0.35986 -0.0872,0.70519 -0.0691,0.34532 -0.229,0.62521 -0.0327,-0.04 -0.0909,-0.0909 -0.0582,-0.0509 -0.10542,-0.0763 0.11996,-0.23263 0.17812,-0.51616 0.0582,-0.28353 0.0763,-0.5816 0.0182,-0.29807 0.0182,-0.5707 z m 2.71533,1.23953 h -0.78516 q 0.0618,0.29443 0.15631,0.56342 0.0981,0.26536 0.23264,0.49436 0.13449,-0.2181 0.23627,-0.48345 0.10178,-0.26536 0.15994,-0.57433 z m -1.34131,-1.06505 q 0.26899,-0.0218 0.54888,-0.0545 0.2799,-0.0327 0.53435,-0.0727 0.25445,-0.0436 0.4362,-0.0909 l 0.17084,0.23264 q -0.19265,0.0472 -0.43256,0.0872 -0.23628,0.0363 -0.49073,0.0654 -0.25445,0.0291 -0.50526,0.0509 v 0.59614 h 1.1632 l 0.0436,-0.0109 0.16357,0.0436 q -0.0654,0.47255 -0.20356,0.85059 -0.13449,0.3744 -0.32715,0.66157 0.26536,0.34896 0.6434,0.52707 -0.0473,0.0363 -0.10178,0.10178 -0.0545,0.0654 -0.0836,0.11632 -0.35986,-0.19266 -0.61795,-0.53434 -0.1454,0.17084 -0.31261,0.30534 -0.16721,0.13449 -0.35259,0.229 -0.0254,-0.0509 -0.0727,-0.11996 -0.0472,-0.0654 -0.0909,-0.10177 0.38167,-0.17812 0.6761,-0.54162 -0.1563,-0.26899 -0.26899,-0.58887 -0.10904,-0.32351 -0.18174,-0.68701 h -0.0763 v 0.18902 q 0,0.30534 -0.0254,0.63612 -0.0218,0.33079 -0.0982,0.64703 -0.0763,0.31625 -0.23264,0.57796 -0.0363,-0.0363 -0.10178,-0.0836 -0.0654,-0.0436 -0.11632,-0.0691 0.14177,-0.24354 0.2072,-0.53434 0.0654,-0.29443 0.0836,-0.59977 0.0218,-0.30534 0.0218,-0.57433 z m 3.40235,1.88292 q -0.0945,0 -0.16357,-0.0691 -0.0691,-0.0691 -0.0691,-0.16358 0,-0.0945 0.0691,-0.16357 0.0691,-0.0691 0.16357,-0.0691 0.0945,0 0.16358,0.0691 0.0691,0.0691 0.0691,0.16357 0,0.0945 -0.0691,0.16358 -0.0691,0.0691 -0.16358,0.0691 z m 2.20644,-0.0909 v 0.80697 h 0.98145 v -0.80697 z m 2.25733,0 h -0.99962 v 0.80697 h 0.99962 z m -2.25733,-0.26899 h 0.98145 v -0.79243 h -0.98145 z m 2.25733,0 v -0.79243 h -0.99962 v 0.79243 z m -1.27588,-1.77024 h 0.27626 v 0.70519 h 1.28315 v 2.62446 h -0.28353 v -0.21083 h -2.25733 v 0.22537 h -0.27262 v -2.639 h 1.25407 z"
         id="text73"
         aria-label="网页版 · 由" /><g
         id="g74"
         transform="matrix(0.17837653,0,0,0.17837653,137.31758,168.20716)"><rect
           style="fill:#ffb494;fill-opacity:1;stroke:none;stroke-width:0.668471;stroke-linecap:round;stroke-linejoin:round;stroke-dasharray:none;stroke-opacity:1"
           id="rect73"
           width="24.408638"
           height="24.408638"
           x="102.90819"
           y="-21.038006"
           rx="12.204319"
           ry="12.204319"
           transform="rotate(45)" /><path
           style="fill:none;fill-opacity:1;stroke:#fff5ec;stroke-width:2.62987;stroke-linecap:round;stroke-linejoin:round;stroke-dasharray:none;stroke-opacity:1"
           id="path73"
           d="m 95.189751,74.49121 a 7.5764618,7.5764618 0 0 1 -4.345679,7.526939 7.5764618,7.5764618 0 0 1 -8.559319,-1.509239 7.5764618,7.5764618 0 0 1 -1.509239,-8.559318 7.5764618,7.5764618 0 0 1 7.526938,-4.34568" /><circle
           style="fill:#fff5ec;fill-opacity:1;stroke:none;stroke-width:0.835073;stroke-linecap:round;stroke-linejoin:round;stroke-dasharray:none;stroke-opacity:1"
           id="circle73"
           cx="69.79393"
           cy="-92.999733"
           r="1.3149358"
           transform="rotate(90)" /><path
           style="fill:#474747;fill-opacity:1;stroke:#fff5ec;stroke-width:2.62987;stroke-linecap:round;stroke-linejoin:round;stroke-dasharray:none;stroke-opacity:1"
           d="m 85.460211,77.333455 4.365238,-4.365238"
           id="path74" /><circle
           style="fill:#fff5ec;fill-opacity:0;stroke:none;stroke-width:0.835073;stroke-linecap:round;stroke-linejoin:round;stroke-dasharray:none;stroke-opacity:1"
           id="circle74"
           cx="80.507736"
           cy="-82.285934"
           r="1.3149358"
           transform="rotate(90)" /></g><g
         id="g82"
         transform="matrix(0.35354581,0,0,0.35354581,104.17363,131.4186)"><path
           style="font-weight:bold;font-size:9.93611px;line-height:1.3;font-family:'PT Astra Sans';-inkscape-font-specification:'PT Astra Sans';text-align:center;letter-spacing:0px;text-anchor:middle;fill:#474747;stroke-width:0.369672;stroke-linecap:round;stroke-linejoin:round;stroke-dasharray:0.369672, 2.21803"
           d="m 150.13848,144.89605 q -0.14555,0.10189 -0.32506,0.18437 -0.17466,0.0776 -0.37843,0.13099 -0.19891,0.0582 -0.41723,0.0873 -0.21833,0.034 -0.43665,0.034 -0.58219,0 -0.99458,-0.17466 -0.41239,-0.17466 -0.67438,-0.49001 -0.26198,-0.32021 -0.38327,-0.75685 -0.12129,-0.4415 -0.12129,-0.97518 0,-0.56764 0.1698,-1.00428 0.16981,-0.4415 0.4512,-0.76171 0.2814,-0.3202 0.70834,-0.47546 0.42694,-0.1601 0.96062,-0.1601 0.48516,0 0.83448,0.10189 0.34931,0.10188 0.60645,0.22802 l -0.2911,0.97032 q -0.23288,-0.0922 -0.47546,-0.1601 -0.23773,-0.0728 -0.53367,-0.0728 -0.26684,0 -0.48517,0.0728 -0.21347,0.0728 -0.36872,0.22803 -0.1601,0.16495 -0.24743,0.42209 -0.0873,0.25713 -0.0873,0.6113 0,0.28139 0.0631,0.52398 0.0631,0.24258 0.19892,0.42209 0.14069,0.17465 0.35417,0.27654 0.21832,0.10188 0.52397,0.10188 0.33961,0 0.6113,-0.0873 0.27655,-0.0922 0.46576,-0.18921 z m 1.9455,-4.23546 0.1698,0.65982 h 0.11159 q 0.16981,-0.23287 0.33961,-0.37842 0.16981,-0.1504 0.33962,-0.23288 0.17466,-0.0873 0.35416,-0.11644 0.17951,-0.034 0.37843,-0.034 0.19407,0 0.41239,0.0631 0.22317,0.0582 0.43179,0.19892 l -0.38813,1.11587 q -0.0825,-0.0582 -0.17951,-0.10674 -0.097,-0.0485 -0.19406,-0.0825 -0.0922,-0.0388 -0.18436,-0.0582 -0.0873,-0.0194 -0.1504,-0.0194 -0.32021,0 -0.61131,0.15525 -0.29109,0.15525 -0.52882,0.52883 v 2.8479 h -1.20806 v -4.54112 z m 3.47861,0 h 1.2129 v 4.54112 h -1.2129 z m -0.15526,-1.64469 q 0,-0.1504 0.0631,-0.27655 0.0679,-0.12614 0.1795,-0.21347 0.11159,-0.0922 0.26199,-0.14069 0.1504,-0.0534 0.32506,-0.0534 0.19892,0 0.35902,0.0534 0.1601,0.0485 0.27169,0.14069 0.11644,0.0873 0.17951,0.21347 0.0631,0.12615 0.0631,0.27655 0,0.33476 -0.23773,0.51427 -0.23773,0.17466 -0.63556,0.17466 -0.17466,0 -0.32506,-0.0437 -0.1504,-0.0485 -0.26199,-0.13584 -0.11158,-0.0873 -0.1795,-0.21348 -0.0631,-0.13099 -0.0631,-0.29594 z m 6.278,1.64469 0.83447,2.256 0.18922,0.61131 h 0.034 l 0.14555,-0.62101 0.63556,-2.2463 h 1.10617 l -1.45064,4.57993 h -0.87329 l -0.96547,-2.34818 -0.1601,-0.49002 h -0.034 l -0.17466,0.49972 -0.90725,2.33848 h -0.91696 l -1.49915,-4.57993 h 1.31479 l 0.64526,2.14442 0.16981,0.69378 h 0.0291 l 0.20377,-0.70349 0.78111,-2.13471 z m 3.81337,0 h 1.2129 v 4.54112 h -1.2129 z m -0.15526,-1.64469 q 0,-0.1504 0.0631,-0.27655 0.0679,-0.12614 0.17951,-0.21347 0.11159,-0.0922 0.26199,-0.14069 0.1504,-0.0534 0.32506,-0.0534 0.19892,0 0.35902,0.0534 0.1601,0.0485 0.27169,0.14069 0.11644,0.0873 0.17951,0.21347 0.0631,0.12615 0.0631,0.27655 0,0.33476 -0.23773,0.51427 -0.23773,0.17466 -0.63556,0.17466 -0.17466,0 -0.32506,-0.0437 -0.1504,-0.0485 -0.26199,-0.13584 -0.11158,-0.0873 -0.17951,-0.21348 -0.0631,-0.13099 -0.0631,-0.29594 z m 2.24145,1.64469 h 0.68408 v -1.02854 l 1.2129,-0.31535 v 1.34389 h 1.12073 v 1.00914 h -1.12073 v 1.62529 q 0,0.27169 0.0194,0.4609 0.0194,0.18437 0.0776,0.3008 0.0582,0.11159 0.15525,0.16496 0.10188,0.0485 0.26198,0.0485 0.0825,0 0.16011,-0.0146 0.0825,-0.0145 0.15525,-0.0388 0.0728,-0.0243 0.13099,-0.0534 0.0582,-0.0291 0.0922,-0.0582 l 0.21347,0.94121 q -0.0485,0.0388 -0.16495,0.0922 -0.11159,0.0485 -0.26199,0.0922 -0.1504,0.0485 -0.32506,0.0776 -0.1698,0.034 -0.33961,0.034 -0.32506,0 -0.58219,-0.0825 -0.25714,-0.0825 -0.43665,-0.25229 -0.17951,-0.16981 -0.27654,-0.43664 -0.0922,-0.26684 -0.0922,-0.63071 v -2.27056 h -0.68408 z m 3.80852,3.31851 q 0.15525,0.10188 0.3008,0.17951 0.1504,0.0728 0.3008,0.12614 0.15525,0.0485 0.32021,0.0728 0.16495,0.0243 0.35416,0.0243 0.30566,0 0.42209,-0.11158 0.1213,-0.11644 0.1213,-0.28625 0,-0.1601 -0.0873,-0.26199 -0.0873,-0.10188 -0.22318,-0.1698 -0.13099,-0.0679 -0.29595,-0.11159 -0.1601,-0.0485 -0.3105,-0.097 -0.18436,-0.0582 -0.38813,-0.16011 -0.19892,-0.10673 -0.36872,-0.27169 -0.16496,-0.16495 -0.27169,-0.40268 -0.10674,-0.24258 -0.10674,-0.57249 0,-0.33961 0.12129,-0.6016 0.12129,-0.26199 0.34447,-0.4415 0.22317,-0.17951 0.53853,-0.26684 0.3202,-0.0922 0.70833,-0.0922 0.19407,0 0.36387,0.0194 0.17466,0.0146 0.33476,0.0534 0.16496,0.034 0.32991,0.0922 0.16981,0.0582 0.35417,0.13584 l -0.25228,0.91696 q -0.26199,-0.10189 -0.53368,-0.18436 -0.27169,-0.0825 -0.57734,-0.0825 -0.24258,0 -0.37843,0.10188 -0.13584,0.10189 -0.13584,0.30565 0,0.16496 0.0922,0.26199 0.0922,0.097 0.23288,0.1601 0.14069,0.0582 0.3105,0.10189 0.16981,0.0388 0.32506,0.0873 0.20862,0.0679 0.40268,0.1698 0.19407,0.10189 0.34447,0.25714 0.1504,0.15525 0.24258,0.37357 0.0922,0.21833 0.0922,0.51913 0,0.32991 -0.10189,0.60645 -0.10188,0.27654 -0.3202,0.47546 -0.21347,0.19891 -0.55309,0.3105 -0.33476,0.11644 -0.80537,0.11644 -0.51427,0 -0.92665,-0.11644 -0.41239,-0.11644 -0.67438,-0.26199 z"
           id="text81"
           aria-label="criwits" /><path
           style="font-size:9.93611px;line-height:1.3;font-family:'PT Astra Sans';-inkscape-font-specification:'PT Astra Sans';text-align:center;letter-spacing:0px;text-anchor:middle;fill:#bbbbbb;stroke-width:0.369672;stroke-linecap:round;stroke-linejoin:round;stroke-dasharray:0.369672, 2.21803"
           d="m 175.4496,144.72625 q 0,-0.27654 0.16981,-0.4318 0.1698,-0.1601 0.4609,-0.1601 0.28139,0 0.45605,0.1601 0.17466,0.15526 0.17466,0.4318 0,0.12614 -0.0485,0.23288 -0.0437,0.10673 -0.12614,0.18921 -0.0825,0.0776 -0.19891,0.12129 -0.11644,0.0485 -0.25714,0.0485 -0.2911,0 -0.4609,-0.1698 -0.16981,-0.16981 -0.16981,-0.42209 z m 1.97461,-3.96377 h 0.65497 v -1.00429 l 0.78111,-0.44149 v 1.44578 h 1.09161 v 0.66467 h -1.09161 v 2.26085 q 0,0.26684 0.0291,0.4512 0.034,0.18436 0.10188,0.3008 0.0728,0.11644 0.18436,0.16981 0.11644,0.0485 0.2814,0.0485 0.0922,0 0.21347,-0.0194 0.12614,-0.0243 0.22802,-0.0922 l 0.17951,0.55308 q -0.11159,0.0776 -0.33476,0.14555 -0.21832,0.0728 -0.57249,0.0728 -0.29595,0 -0.50457,-0.0776 -0.20862,-0.0776 -0.33961,-0.24258 -0.131,-0.16496 -0.18921,-0.42209 -0.0582,-0.26199 -0.0582,-0.62586 v -2.52284 h -0.65497 z m 3.008,2.22204 q 0,-0.55309 0.1407,-0.98488 0.14069,-0.43665 0.41238,-0.73745 0.27169,-0.30565 0.66953,-0.46575 0.39783,-0.1601 0.9121,-0.1601 0.54338,0 0.94607,0.17951 0.40268,0.1795 0.66467,0.49486 0.26684,0.3105 0.39298,0.7423 0.13099,0.43179 0.13099,0.93151 0,0.54338 -0.14069,0.97517 -0.1407,0.4318 -0.41724,0.73745 -0.27169,0.3008 -0.66953,0.4609 -0.39783,0.1601 -0.90725,0.1601 -0.55793,0 -0.96062,-0.17465 -0.40268,-0.17951 -0.66467,-0.49002 -0.26199,-0.31535 -0.38813,-0.74229 -0.12129,-0.42695 -0.12129,-0.92666 z m 0.82963,0 q 0,0.31535 0.0679,0.61615 0.0679,0.3008 0.21832,0.53853 0.15525,0.23288 0.40754,0.37843 0.25228,0.14069 0.621,0.14069 0.66468,0 0.98003,-0.41238 0.32021,-0.41724 0.32021,-1.26142 0,-0.32506 -0.0728,-0.63071 -0.0679,-0.30565 -0.22317,-0.53853 -0.1504,-0.23773 -0.40269,-0.37843 -0.24743,-0.14069 -0.6016,-0.14069 -0.66467,0 -0.98973,0.41723 -0.32505,0.41239 -0.32505,1.27113 z m 4.46834,-2.22204 h 0.52397 l 0.15525,0.56764 h 0.0728 q 0.23287,-0.33477 0.59189,-0.51427 0.35902,-0.17951 0.82478,-0.17951 0.42209,0 0.74715,0.12614 0.32991,0.12614 0.55308,0.39783 0.22803,0.26684 0.34447,0.69863 0.11643,0.42694 0.11643,1.02855 0,0.56278 -0.13584,1.01398 -0.13099,0.44635 -0.39783,0.76171 -0.26199,0.31535 -0.65497,0.48516 -0.39298,0.1698 -0.91211,0.1698 -0.1698,0 -0.3105,-0.0145 -0.13584,-0.01 -0.26199,-0.034 -0.12129,-0.0243 -0.23773,-0.0679 -0.11158,-0.0388 -0.23772,-0.097 v 1.87758 h -0.78111 z m 1.98916,0.53368 q -0.50942,0 -0.79567,0.25228 -0.28624,0.25228 -0.41238,0.78111 v 2.04253 q 0.19406,0.13584 0.42209,0.21347 0.22802,0.0728 0.58219,0.0728 0.68893,0 1.00428,-0.44149 0.31536,-0.44635 0.31536,-1.33905 0,-0.42209 -0.0776,-0.72289 -0.0776,-0.3008 -0.22317,-0.49001 -0.14555,-0.18922 -0.35417,-0.27654 -0.20377,-0.0922 -0.4609,-0.0922 z"
           id="text82"
           aria-label=".top" /></g><path
         style="font-size:3.63499px;line-height:1.3;font-family:'Sarasa UI SC';-inkscape-font-specification:'Sarasa UI SC';letter-spacing:0px;fill:#515151;stroke-width:2.57598;stroke-linecap:round;stroke-linejoin:round"
         d="m 173.26931,180.16914 h 1.83204 v 0.25809 h -1.83204 z m -1.13411,0.14177 0.18174,-0.17448 q 0.10542,0.0691 0.22537,0.15267 0.12359,0.0836 0.23628,0.16721 0.11632,0.08 0.18902,0.1454 l -0.18902,0.19629 q -0.0691,-0.0654 -0.18175,-0.14904 -0.10905,-0.0872 -0.23264,-0.17448 -0.11996,-0.0909 -0.229,-0.16357 z m 1.11594,2.25006 q -0.0109,-0.0436 -0.04,-0.13086 -0.0291,-0.0872 -0.0545,-0.1454 0.0509,-0.007 0.0945,-0.0654 0.0473,-0.0582 0.10541,-0.1454 0.0327,-0.0509 0.10178,-0.17448 0.0727,-0.12359 0.15267,-0.2908 0.0836,-0.17085 0.15267,-0.35259 h -0.73427 v -0.25809 h 2.33003 v 0.25809 h -1.26861 q -0.11269,0.25444 -0.25081,0.51253 -0.13813,0.25445 -0.28353,0.46528 l 1.19954,-0.0909 q -0.0909,-0.1563 -0.18538,-0.31624 -0.0945,-0.15994 -0.18175,-0.29807 l 0.22537,-0.10542 q 0.11268,0.17448 0.23627,0.38168 0.12723,0.20356 0.23991,0.39621 0.11269,0.18902 0.18175,0.32715 l -0.24354,0.12723 -0.14177,-0.27626 q -0.41075,0.0363 -0.68701,0.0618 -0.27626,0.0218 -0.45074,0.04 -0.17084,0.0182 -0.26899,0.0327 -0.0981,0.0109 -0.14903,0.0218 -0.0473,0.0109 -0.08,0.0255 z m -0.44711,-1.34858 v 1.39947 q 0.0582,0.0254 0.12723,0.08 0.0727,0.0509 0.17811,0.11632 0.18175,0.11268 0.41803,0.1454 0.23627,0.0327 0.53797,0.0327 0.2072,0 0.44711,-0.007 0.23991,-0.0109 0.47255,-0.0254 0.23264,-0.0145 0.41802,-0.0363 -0.0254,0.0582 -0.0545,0.1454 -0.0255,0.0909 -0.0291,0.15266 -0.0909,0.007 -0.24355,0.0109 -0.15267,0.007 -0.33442,0.0109 -0.17811,0.007 -0.35623,0.0109 -0.17811,0.004 -0.32715,0.004 -0.33441,0 -0.57432,-0.0436 -0.23991,-0.04 -0.43257,-0.1563 -0.10905,-0.0691 -0.20356,-0.13813 -0.0909,-0.0727 -0.15267,-0.0727 -0.0582,0 -0.13813,0.0654 -0.0763,0.0654 -0.16357,0.16721 -0.0872,0.10541 -0.17812,0.22537 l -0.19265,-0.25081 q 0.1345,-0.1454 0.26535,-0.25809 0.1345,-0.11268 0.25082,-0.16357 v -1.15957 h -0.49799 v -0.25444 z m 3.84946,0.29079 v 0.32352 h 1.40674 v -0.32352 z m -0.25809,-0.19629 h 1.93382 v 0.7161 h -1.93382 z m -0.54525,-0.45437 h 3.00978 v 0.70519 h -0.26172 v -0.48709 h -2.49361 v 0.48709 h -0.25445 z m 0.28717,1.40311 h 2.46816 v 1.03233 h -0.26899 v -0.13449 h -1.93745 v 0.14176 h -0.26172 z m 0.26172,0.66884 h 1.93745 v -0.42893 h -1.93745 z m 1.44672,-2.98433 h 0.27263 v 0.30534 h 0.82514 v 0.24718 h -0.82514 v 0.25445 h -0.27263 v -0.25445 h -1.0287 v 0.25445 h -0.26535 v -0.25445 h -0.80333 v -0.24718 h 0.80333 v -0.30534 h 0.26535 v 0.30534 h 1.0287 z"
         id="text83"
         aria-label="运营" /><g
         id="g4"
         transform="translate(9.2189596)"><g
           id="g1"
           transform="matrix(0.19004751,0,0,0.19004751,65.030839,141.24422)"><circle
             style="fill:url(#radialGradient267);stroke-width:1.07838;stroke-linecap:square"
             id="circle261"
             cx="105"
             cy="148.5"
             r="57.982555" /><circle
             style="fill:#0074d9;fill-opacity:1;stroke-width:0.857471;stroke-linecap:square"
             id="circle262"
             cx="105"
             cy="148.5"
             r="46.104691" /><g
             id="g264"
             transform="translate(7.6394348,71.368099)"><path
               id="path262"
               style="color:#000000;fill:#ffffff;stroke-linecap:square;-inkscape-stroke:none"
               d="m 71.721305,55.185779 c -1.091122,0 -1.980758,0.889119 -1.980758,1.980241 v 34.340022 c 0,1.091122 0.889636,1.982308 1.980758,1.982308 h 51.276965 c 1.09112,0 1.98231,-0.891186 1.98231,-1.982308 V 57.16602 c 0,-1.091122 -0.89119,-1.980241 -1.98231,-1.980241 z m -0.371037,1.44539 52.367342,32.999536 c -0.1829,0.370629 -0.55873,0.623218 -1.00614,0.623218 H 72.010176 c -0.630336,0 -1.127063,-0.496727 -1.127063,-1.127063 V 57.544808 c 0,-0.381458 0.183835,-0.711118 0.467155,-0.913639 z m -0.867647,33.505448 c 0.328976,0.495595 0.890555,0.82424 1.527555,0.824239 h 50.701294 c 0.63494,0 1.19555,-0.326155 1.52497,-0.819071 v 1.364257 c 0,0.692312 -0.54586,1.238168 -1.23817,1.238168 H 71.721305 c -0.69231,0 -1.238684,-0.545856 -1.238684,-1.238168 z" /><rect
               style="fill:none;fill-opacity:1;stroke:#ffffff;stroke-width:0.731029;stroke-linecap:square;stroke-dasharray:none;stroke-opacity:1"
               id="rect262"
               width="68.566505"
               height="3.1464603"
               x="63.077312"
               y="95.566048"
               ry="1.2287005" /><path
               style="font-weight:bold;font-size:26.4885px;line-height:1;font-family:Inter;-inkscape-font-specification:'Inter Bold';letter-spacing:0px;fill:#ffffff;stroke-width:3.31211;stroke-linecap:square"
               d="m 79.657152,67.032435 h -4.185861 l 0.376258,13.488817 h 3.442752 z m -2.088227,19.508931 c 1.204023,0 2.248136,-1.006488 2.257543,-2.257543 -0.0094,-1.232242 -1.05352,-2.23873 -2.257543,-2.23873 -1.241649,0 -2.266949,1.006488 -2.257543,2.23873 -0.0094,1.251055 1.015894,2.257543 2.257543,2.257543 z"
               id="path263"
               aria-label="!" /><path
               style="font-weight:bold;font-size:26.4885px;line-height:1;font-family:Inter;-inkscape-font-specification:'Inter Bold';letter-spacing:0px;fill:#0074d9;fill-opacity:1;stroke-width:3.31211;stroke-linecap:square"
               d="m 111.9077,72.569089 h 3.56503 V 72.24927 c 0.0188,-1.834253 0.67727,-2.690238 2.16348,-3.583849 1.759,-1.044113 2.90659,-2.426858 2.90659,-4.637368 0,-3.29225 -2.65262,-5.211161 -6.38697,-5.211161 -3.41453,0 -6.19883,1.787221 -6.28349,5.549792 h 3.83782 c 0.0564,-1.533248 1.19462,-2.351607 2.42686,-2.351607 1.26987,0 2.29517,0.846578 2.29517,2.154072 0,1.232242 -0.89361,2.050601 -2.0506,2.784303 -1.58028,0.997081 -2.46449,2.003569 -2.47389,5.295818 z m 1.85306,6.020114 c 1.20403,0 2.24814,-1.006488 2.25755,-2.257543 -0.009,-1.232242 -1.05352,-2.23873 -2.25755,-2.23873 -1.24165,0 -2.26695,1.006488 -2.25754,2.23873 -0.009,1.251055 1.01589,2.257543 2.25754,2.257543 z"
               id="path264"
               aria-label="?" /></g></g><g
           id="g2"
           transform="translate(0,0.62154069)"><path
             style="font-weight:bold;font-size:7.18758px;line-height:1.3;font-family:'Sarasa UI SC';-inkscape-font-specification:'Sarasa UI SC';letter-spacing:0px;fill:#0074d9;stroke-width:5.09356;stroke-linecap:round;stroke-linejoin:round"
             d="m 100.98974,165.40918 0.84095,0.1725 q -0.15813,0.69001 -0.41688,1.33689 -0.25876,0.63969 -0.56782,1.08532 -0.0791,-0.0719 -0.21563,-0.15812 -0.12937,-0.0934 -0.27313,-0.17251 -0.13656,-0.0863 -0.24437,-0.13656 0.30906,-0.38094 0.53188,-0.95595 0.22281,-0.575 0.345,-1.17157 z m 2.30003,0.18687 0.76907,-0.25875 q 0.18687,0.36657 0.345,0.79063 0.15813,0.42407 0.27313,0.83376 0.12219,0.40251 0.1725,0.72595 l -0.82657,0.2875 q -0.0359,-0.32344 -0.15094,-0.73313 -0.10781,-0.41688 -0.25875,-0.84813 -0.15094,-0.43126 -0.32344,-0.79783 z m -2.09878,-3.37816 0.84814,0.19407 q -0.0719,0.26594 -0.15813,0.53906 -0.0863,0.27313 -0.18688,0.53189 h 2.48691 l 0.13656,-0.0288 0.61094,0.11501 q -0.0647,0.43844 -0.15093,0.90563 -0.0863,0.46001 -0.16532,0.78345 l -0.73313,-0.13657 q 0.0288,-0.16531 0.0575,-0.38094 0.0288,-0.22281 0.0575,-0.46 h -0.96314 v 3.7016 q 0,0.30907 -0.0647,0.49594 -0.0647,0.19407 -0.26595,0.30188 -0.18687,0.10063 -0.45281,0.12938 -0.25876,0.0359 -0.61095,0.0359 -0.0287,-0.18688 -0.115,-0.43845 -0.0791,-0.25156 -0.17969,-0.42406 0.23,0.007 0.43126,0.007 0.20844,0 0.28031,0 0.12219,0 0.12219,-0.12218 v -3.68723 h -0.83376 q -0.15812,0.31625 -0.33063,0.59657 -0.16531,0.28031 -0.35219,0.51031 -0.0719,-0.0791 -0.20125,-0.18687 -0.12938,-0.10782 -0.26594,-0.20844 -0.12938,-0.10782 -0.230003,-0.1725 0.409693,-0.46001 0.725943,-1.15721 0.32344,-0.69719 0.50313,-1.4447 z m -1.538139,0 0.812199,0.25875 q -0.13657,0.37376 -0.30907,0.74751 -0.172501,0.37376 -0.373753,0.73314 v 4.9738 h -0.819384 v -3.69442 q -0.115001,0.15813 -0.244378,0.30907 -0.122189,0.14375 -0.244377,0.27313 -0.03594,-0.10781 -0.122189,-0.28032 -0.07906,-0.1725 -0.172502,-0.345 -0.09344,-0.1725 -0.165315,-0.27313 0.330629,-0.32344 0.632507,-0.75469 0.309066,-0.43845 0.567819,-0.93439 0.258753,-0.50313 0.438443,-1.01345 z m 9.897299,-0.0288 h 0.82657 v 1.17158 h 1.32251 v 2.03408 h 0.30907 v 0.79782 h -1.27939 q 0.23,0.63251 0.59657,1.16439 0.37375,0.52469 0.88407,0.84095 -0.15812,0.12219 -0.345,0.33781 -0.17969,0.22282 -0.28032,0.39532 -0.46719,-0.33782 -0.81938,-0.84095 -0.345,-0.51031 -0.59657,-1.12845 -0.14375,0.55345 -0.43844,1.06377 -0.29469,0.50313 -0.8122,0.92001 -0.0934,-0.12219 -0.27313,-0.29469 -0.17969,-0.17251 -0.33063,-0.28032 v 0.0791 h -0.66844 v -0.35219 l -2.07721,0.30907 v -2.53722 h 0.66126 v 1.77533 l 0.32344,-0.0359 v -2.12753 h -1.15002 v -0.75469 h 1.15002 v -1.02064 h -0.24438 q -0.18688,0.52469 -0.39532,0.89126 -0.10781,-0.0791 -0.30906,-0.19406 -0.19407,-0.12219 -0.32344,-0.18688 0.23719,-0.37376 0.40969,-0.92001 0.17969,-0.54626 0.27313,-1.10689 l 0.71875,0.14375 q -0.0288,0.15813 -0.0647,0.31626 -0.0359,0.15094 -0.0791,0.30187 h 1.71783 v 0.7547 h -0.94157 v 1.02064 h 1.06376 v 0.75469 h -1.06376 v 2.04846 l 0.33063,-0.0359 v -1.63159 h 0.66844 v 2.42941 q 0.53907,-0.43845 0.79783,-0.97033 0.25875,-0.53907 0.35219,-1.12845 h -0.94158 v -0.79782 h 1.02064 l 0.007,-0.52469 v -0.71157 h -0.88407 v -0.79782 h 0.88407 z m 1.33689,3.20566 v -1.23626 h -0.51032 v 0.71157 l -0.007,0.52469 z m 4.54255,-3.20566 h 0.90563 v 1.14283 h 2.21378 v 0.87688 h -2.21378 v 0.27313 q 0,0.20844 -0.007,0.43125 -0.007,0.21563 -0.0359,0.43126 h 2.87503 v 0.87688 h -2.51565 q 0.38094,0.72595 1.05657,1.2147 0.67563,0.48157 1.6819,0.69001 -0.15094,0.13657 -0.32345,0.38094 -0.16531,0.25157 -0.25875,0.43845 -1.05657,-0.27313 -1.73939,-0.83376 -0.68282,-0.56782 -1.12127,-1.41596 -0.20125,0.46001 -0.56781,0.87689 -0.35938,0.41688 -0.92001,0.76188 -0.56064,0.34501 -1.37283,0.59657 -0.0503,-0.10781 -0.14375,-0.25156 -0.0934,-0.14376 -0.20844,-0.28751 -0.10782,-0.13656 -0.20126,-0.22281 0.7547,-0.22282 1.26502,-0.5247 0.5175,-0.30187 0.83376,-0.66125 0.32344,-0.36657 0.49594,-0.76189 h -2.45815 v -0.87688 h 2.70253 q 0.0359,-0.22282 0.0431,-0.43844 0.0144,-0.21563 0.0144,-0.43126 v -0.26594 h -1.3872 q -0.13657,0.26594 -0.28751,0.51032 -0.14375,0.23719 -0.30188,0.43125 -0.0934,-0.0719 -0.24437,-0.15812 -0.15094,-0.0934 -0.31626,-0.1725 -0.15812,-0.0791 -0.27312,-0.12938 0.26594,-0.28032 0.48875,-0.66845 0.22282,-0.38813 0.39532,-0.83376 0.1725,-0.45281 0.2875,-0.91282 l 0.91282,0.19407 q -0.0575,0.22281 -0.12937,0.43844 -0.0647,0.21563 -0.14375,0.42407 h 0.99907 z m 7.93509,3.19129 0.67563,-0.38095 q 0.17969,0.24438 0.38094,0.53907 0.20125,0.29469 0.38094,0.57501 0.18688,0.28032 0.29469,0.49594 l -0.73313,0.44563 q -0.10062,-0.22281 -0.27313,-0.51032 -0.16531,-0.29469 -0.35938,-0.59656 -0.18687,-0.30907 -0.36656,-0.56782 z m 0.35219,-3.1841 0.83376,0.19406 q -0.0575,0.22282 -0.13657,0.45282 -0.0719,0.23 -0.15093,0.46001 h 2.03408 q 0,0 0,0.0791 0,0.0719 0,0.16531 0,0.0934 -0.007,0.14376 -0.0359,1.2147 -0.0719,2.06283 -0.0359,0.84095 -0.0862,1.39439 -0.0503,0.54626 -0.12938,0.85532 -0.0719,0.30907 -0.18688,0.45282 -0.14375,0.20125 -0.30906,0.28032 -0.15813,0.0863 -0.38095,0.12219 -0.20125,0.0288 -0.51031,0.0216 -0.30907,0 -0.62532,-0.007 -0.007,-0.17969 -0.0862,-0.42407 -0.0791,-0.23719 -0.19407,-0.41688 0.34501,0.0288 0.6397,0.0359 0.30187,0.007 0.43844,0.007 0.10781,0 0.1725,-0.0216 0.0719,-0.0288 0.13656,-0.10063 0.11501,-0.115 0.18688,-0.53907 0.0719,-0.42407 0.115,-1.23626 0.0503,-0.8122 0.0863,-2.0844 h -1.54533 q -0.14375,0.33063 -0.30906,0.62532 -0.15813,0.2875 -0.32344,0.5175 -0.0934,-0.0863 -0.25876,-0.20125 -0.15812,-0.12219 -0.30187,-0.21562 v 3.37816 h -1.92628 v 0.53188 h -0.78344 v -5.36912 h 0.81938 q 0.0719,-0.27313 0.12938,-0.58939 0.0575,-0.32344 0.0791,-0.58219 l 0.93439,0.13656 q -0.0862,0.26595 -0.17969,0.53907 -0.0934,0.26594 -0.18688,0.49595 h 1.11408 v 1.17876 q 0.31625,-0.46719 0.56063,-1.08533 0.25156,-0.61813 0.40969,-1.25782 z m -2.8966,1.91189 v 1.17158 h 1.15002 v -1.17158 z m 0,3.33504 h 1.15002 v -1.41595 h -1.15002 z m 8.66104,-4.11129 h -0.66845 l -0.0216,0.86969 h 0.68282 z m -2.45815,2.47252 h 0.805 q 0.0575,-0.41688 0.0863,-0.84813 h -0.80501 v -0.7547 h 0.83376 l 0.0144,-0.86969 h -0.93438 v -0.78345 h 3.32785 q 0,0 0,0.0863 0,0.0863 -0.007,0.19407 0,0.10062 0,0.15812 -0.007,1.40158 -0.0144,2.3719 0,0.96314 -0.0216,1.58127 -0.0216,0.61813 -0.0647,0.95595 -0.0431,0.33782 -0.12219,0.47438 -0.12219,0.20844 -0.24437,0.29469 -0.12219,0.0862 -0.30188,0.12938 -0.16532,0.0431 -0.39532,0.0431 -0.22282,0.007 -0.46719,0 -0.007,-0.20125 -0.0791,-0.46719 -0.0719,-0.25875 -0.17969,-0.45282 0.20126,0.0144 0.36657,0.0216 0.16532,0 0.26594,0 0.15813,0 0.23,-0.15093 0.0575,-0.0863 0.0863,-0.37376 0.0288,-0.2875 0.0431,-0.85532 h -0.88407 q -0.13657,0.71157 -0.37376,1.30814 -0.23719,0.59657 -0.61813,1.07095 -0.0575,-0.0791 -0.18688,-0.20125 -0.12937,-0.12219 -0.27312,-0.24438 -0.13657,-0.12219 -0.23719,-0.19407 0.30187,-0.33781 0.50313,-0.77625 0.20125,-0.43845 0.31625,-0.96314 h -0.66844 z m 2.44377,-0.84813 h -0.71157 q -0.0144,0.22281 -0.0359,0.43125 -0.0216,0.20844 -0.0431,0.41688 h 0.78345 z m 1.33689,-2.42222 h 2.13471 l 0.12938,-0.0359 0.61094,0.38813 q -0.20125,0.51031 -0.45281,1.07813 -0.24438,0.56782 -0.48157,1.04939 0.50313,0.48157 0.65407,0.89845 0.15813,0.41688 0.15813,0.76907 0,0.38813 -0.10063,0.65407 -0.10063,0.25875 -0.33063,0.4025 -0.21563,0.14375 -0.5175,0.17969 -0.14376,0.0144 -0.33063,0.0216 -0.17969,0 -0.35938,-0.007 -0.007,-0.1725 -0.0719,-0.40251 -0.0647,-0.23 -0.16531,-0.4025 0.16531,0.007 0.29469,0.0144 0.12937,0.007 0.23,0 0.18688,0 0.33782,-0.0647 0.20125,-0.10782 0.20125,-0.48157 0,-0.29469 -0.17969,-0.67564 -0.17969,-0.38094 -0.66844,-0.79782 0.115,-0.25875 0.23719,-0.56782 0.12218,-0.30906 0.23719,-0.62531 0.12218,-0.31626 0.21562,-0.58939 H 131.616 v 5.59194 h -0.8122 z m 3.87411,0.0503 0.66126,-0.43844 q 0.18687,0.20125 0.38813,0.44563 0.20844,0.24437 0.38812,0.48156 0.18688,0.23001 0.2947,0.41688 l -0.70439,0.51032 q -0.10062,-0.19406 -0.27313,-0.43844 -0.1725,-0.24438 -0.37375,-0.50313 -0.19406,-0.25875 -0.38094,-0.47438 z m -0.21563,1.20032 h 0.88407 v 5.14631 h -0.88407 z m 2.04846,-1.35845 h 4.01786 v 5.54163 q 0,0.35219 -0.0934,0.53906 -0.0863,0.18688 -0.31625,0.28751 -0.22282,0.10062 -0.57501,0.12219 -0.345,0.0288 -0.84813,0.0216 -0.0288,-0.1725 -0.11501,-0.41688 -0.0863,-0.23719 -0.17968,-0.39532 0.21562,0.007 0.43125,0.0144 0.21563,0.007 0.38813,0.007 0.1725,-0.007 0.24438,-0.007 0.10062,0 0.14375,-0.0359 0.0431,-0.0431 0.0431,-0.15094 v -4.70068 h -3.14097 z m 5.39069,0.39532 0.55344,-0.56063 q 0.20125,0.15094 0.43126,0.345 0.23,0.18688 0.43844,0.38094 0.21562,0.18688 0.345,0.34501 l -0.58219,0.62532 q -0.12219,-0.15813 -0.32344,-0.35938 -0.20126,-0.20126 -0.43126,-0.40251 -0.22281,-0.20844 -0.43125,-0.37375 z m -0.55345,1.58845 h 1.92627 v 2.7816 l 0.73314,-0.51751 q 0.0359,0.18688 0.12219,0.42407 0.0862,0.23719 0.15094,0.37375 -0.54626,0.39532 -0.89126,0.64688 -0.33782,0.25157 -0.53189,0.40251 -0.19406,0.15094 -0.2875,0.23719 -0.0934,0.0863 -0.14375,0.15094 -0.0288,-0.115 -0.10781,-0.26594 -0.0719,-0.15094 -0.15813,-0.30188 -0.0863,-0.14375 -0.15813,-0.23719 0.12219,-0.0791 0.25876,-0.25157 0.13656,-0.1725 0.13656,-0.41688 v -2.17064 H 141.348 Z m 4.08974,-2.18502 h 0.92719 v 2.23534 h 1.66033 v 0.89844 h -1.66033 v 3.58661 h -0.92719 v -3.58661 h -1.72502 v -0.89844 h 1.72502 z m 4.87318,2.89659 v 0.26594 h 3.20566 v -0.26594 z m 0,0.7547 v 0.26594 h 3.20566 v -0.26594 z m 0,-1.48783 v 0.25157 h 3.20566 v -0.25157 z m 2.13471,-2.2569 0.81938,0.20125 q -0.0288,0.0791 -0.0719,0.16532 -0.0359,0.0863 -0.0791,0.16531 h 1.98377 v 0.67563 h -1.06376 q 0.14375,0.16532 0.23719,0.31626 l -0.48875,0.21562 h 0.63969 v 2.7816 h -0.81938 v 0.43125 h 1.51658 v 0.69001 h -1.51658 v 1.1572 h -0.89845 v -1.1572 h -1.61721 q -0.15094,0.345 -0.575,0.64688 -0.41688,0.30188 -1.2722,0.5247 -0.0863,-0.14376 -0.24438,-0.33063 -0.15094,-0.18688 -0.29469,-0.30188 0.53188,-0.10063 0.84813,-0.23719 0.32344,-0.14375 0.49594,-0.30188 h -1.43751 v -0.69001 h 1.71783 v -0.43125 h -0.88407 v -2.7816 h 0.72594 q -0.0503,-0.12218 -0.12937,-0.25875 -0.0791,-0.14375 -0.15813,-0.27313 h -0.15094 q -0.30906,0.42407 -0.62532,0.70439 -0.115,-0.10063 -0.33063,-0.24438 -0.21562,-0.15094 -0.36656,-0.23 0.33781,-0.25876 0.6325,-0.6397 0.30188,-0.38813 0.48157,-0.79782 l 0.79782,0.22282 -0.15812,0.30906 h 1.59564 v 0.56782 q 0.22281,-0.23 0.4025,-0.51751 0.17969,-0.2875 0.28751,-0.58219 z m 0.25875,4.95224 v -0.43125 h -1.50939 v 0.43125 z m -0.67563,-3.21285 q -0.13657,-0.0862 -0.31626,-0.17968 -0.17969,-0.0934 -0.30187,-0.14376 0.0647,-0.0503 0.12218,-0.10062 0.0647,-0.0503 0.12219,-0.10782 h -0.89126 q 0.0575,0.0934 0.10782,0.18688 0.0503,0.0934 0.0791,0.1725 l -0.48157,0.1725 z m 0.22281,0 h 1.22908 q -0.0719,-0.12218 -0.17969,-0.25875 -0.10782,-0.14375 -0.21563,-0.27313 h -0.38094 q -0.10781,0.15094 -0.22282,0.28751 -0.115,0.12937 -0.23,0.24437 z m 6.70601,-1.26501 h 2.58753 v 5.10318 q 0,0.29469 0.0216,0.32344 0.0359,0.0431 0.0791,0.0431 0.0288,0 0.0575,0 0.0359,0 0.0647,0 0.0647,0 0.0934,-0.0431 0.0288,-0.0359 0.0503,-0.25875 0.007,-0.12219 0.0144,-0.36657 0.007,-0.24437 0.007,-0.56781 0.27313,0.22281 0.61813,0.345 0,0.19406 -0.0144,0.40969 -0.007,0.21563 -0.0288,0.40251 -0.0144,0.18687 -0.0359,0.29469 -0.0647,0.30906 -0.23719,0.44563 -0.0862,0.0719 -0.20844,0.10062 -0.115,0.0288 -0.23719,0.0288 -0.0934,0 -0.20844,0 -0.10781,0 -0.19406,0 -0.12938,0 -0.27313,-0.0503 -0.13657,-0.0503 -0.23,-0.14375 -0.0647,-0.0719 -0.10782,-0.1725 -0.0431,-0.10063 -0.0647,-0.27313 -0.0216,-0.17969 -0.0216,-0.48876 v -4.31973 h -0.89845 v 1.51658 q 0,0.46 -0.0431,0.99188 -0.0431,0.53188 -0.1725,1.07814 -0.12219,0.53907 -0.36657,1.0422 -0.23719,0.49594 -0.62532,0.88407 -0.0647,-0.0791 -0.18688,-0.18688 -0.12219,-0.10781 -0.25156,-0.21562 -0.12938,-0.10063 -0.23,-0.15094 0.35937,-0.35938 0.56781,-0.78345 0.20844,-0.43125 0.30907,-0.88407 0.10781,-0.46001 0.13656,-0.91282 0.0288,-0.45282 0.0288,-0.86251 z m -2.12033,-0.41688 h 0.82657 v 1.48783 h 0.93439 v 0.8122 h -0.93439 v 0.43125 q 0.0934,0.0934 0.23719,0.26594 0.15094,0.1725 0.30907,0.36657 0.15812,0.18688 0.2875,0.345 0.13656,0.15813 0.18688,0.23 l -0.48876,0.6972 q -0.0863,-0.1725 -0.23,-0.40969 -0.14375,-0.24438 -0.30188,-0.48876 v 3.0116 h -0.82657 v -2.87503 q -0.1725,0.48156 -0.38813,0.91282 -0.20844,0.42407 -0.44563,0.72594 -0.0575,-0.17968 -0.18688,-0.40969 -0.12219,-0.23719 -0.22281,-0.39531 0.23719,-0.28751 0.45281,-0.68282 0.21563,-0.39532 0.38813,-0.84095 0.17969,-0.45282 0.29469,-0.88407 h -0.95594 v -0.8122 h 1.06376 z m 6.35382,0.58938 0.58219,-0.50313 q 0.18688,0.16532 0.38813,0.37376 0.20844,0.20125 0.39532,0.4025 0.18687,0.19407 0.30187,0.35219 l -0.61813,0.57501 q -0.10781,-0.16532 -0.2875,-0.37376 -0.1725,-0.21562 -0.37376,-0.43125 -0.20125,-0.21563 -0.38812,-0.39532 z m -0.30188,1.61721 h 1.68189 v 2.67378 l 0.52469,-0.46001 q 0.0575,0.1725 0.15094,0.38094 0.10063,0.20844 0.1725,0.32345 -0.46719,0.41688 -0.76188,0.68282 -0.29469,0.25875 -0.46719,0.40969 -0.16532,0.15812 -0.25157,0.23719 -0.0791,0.0863 -0.12219,0.15094 -0.0431,-0.0791 -0.13656,-0.18688 -0.0934,-0.10781 -0.19406,-0.20844 -0.10063,-0.0934 -0.17969,-0.14375 0.13656,-0.12219 0.2875,-0.36657 0.15094,-0.25156 0.15094,-0.575 v -2.1419 h -0.85532 z m 2.5444,-1.9119 h 3.79504 v 2.93972 h -1.4447 v 0.40969 h 1.76814 v 0.78345 h -1.36564 q 0.30907,0.4025 0.71876,0.76907 0.40969,0.36657 0.81939,0.59657 -0.13657,0.115 -0.31626,0.30907 -0.1725,0.18687 -0.27313,0.35219 -0.35219,-0.25157 -0.70438,-0.63251 -0.35219,-0.38813 -0.64688,-0.82657 v 1.75377 h -0.84814 v -1.72502 q -0.30906,0.46 -0.69719,0.84813 -0.38813,0.38813 -0.8122,0.6397 -0.0934,-0.14375 -0.25875,-0.34501 -0.16531,-0.19406 -0.30188,-0.30906 0.47438,-0.22282 0.92001,-0.60376 0.44563,-0.38813 0.7547,-0.82657 l -1.44471,-0.007 v -0.77626 h 1.84002 v -0.40969 h -1.5022 z m 0.77626,1.7969 v 0.46719 h 0.76188 v -0.46719 z m 1.54533,0 v 0.46719 h 0.65407 v -0.46719 z m -1.54533,-1.12127 v 0.46001 h 0.76188 v -0.46001 z m 1.54533,0 v 0.46001 h 0.65407 v -0.46001 z"
             id="text72"
             aria-label="你缺失的那门计算机课" /><path
             style="font-size:4.76702px;line-height:1.3;font-family:'Sarasa UI SC';-inkscape-font-specification:'Sarasa UI SC';letter-spacing:0px;stroke-width:3.37819;stroke-linecap:round;stroke-linejoin:round"
             d="m 98.853176,172.96457 v 1.56358 h -0.40043 v -3.46562 h 0.40043 v 1.27279 h 0.03337 q 0.09057,-0.20021 0.27172,-0.31939 0.185914,-0.12394 0.491003,-0.12394 0.400431,0 0.643551,0.24312 0.24311,0.23835 0.24311,0.73889 v 1.65415 h -0.40043 v -1.62555 q 0,-0.30986 -0.162073,-0.4767 -0.157312,-0.17162 -0.438566,-0.17162 -0.295555,0 -0.491003,0.18592 -0.190681,0.18114 -0.190681,0.52437 z m 3.541894,-1.03444 v 0.33845 h -0.55774 v 1.51592 q 0,0.16684 0.0477,0.25265 0.0524,0.081 0.12871,0.10964 0.081,0.0286 0.17161,0.0286 0.0667,0 0.10488,-0.005 0.0429,-0.01 0.0715,-0.0143 l 0.081,0.35753 q -0.0429,0.0143 -0.11441,0.0286 -0.0715,0.0191 -0.18591,0.0191 -0.16685,0 -0.32892,-0.0715 -0.16208,-0.0715 -0.26696,-0.21929 -0.10487,-0.15254 -0.10487,-0.38136 v -1.62079 H 101.046 v -0.33845 h 0.39566 v -0.62448 h 0.39566 v 0.62448 z m 1.73044,0 v 0.33845 h -0.55775 v 1.51592 q 0,0.16684 0.0477,0.25265 0.0524,0.081 0.12871,0.10964 0.081,0.0286 0.17162,0.0286 0.0667,0 0.10487,-0.005 0.0429,-0.01 0.0715,-0.0143 l 0.081,0.35753 q -0.0429,0.0143 -0.11441,0.0286 -0.0715,0.0191 -0.18592,0.0191 -0.16684,0 -0.32892,-0.0715 -0.16208,-0.0715 -0.26695,-0.21929 -0.10488,-0.15254 -0.10488,-0.38136 v -1.62079 h -0.39566 v -0.33845 h 0.39566 v -0.62448 h 0.39566 v 0.62448 z m 0.60064,3.57526 v -3.57526 h 0.38613 v 0.40996 h 0.0477 q 0.0429,-0.0667 0.11918,-0.17161 0.081,-0.10488 0.22882,-0.19068 0.14777,-0.0858 0.40043,-0.0858 0.32892,0 0.5768,0.16685 0.25266,0.16207 0.3909,0.46716 0.14301,0.30033 0.14301,0.71029 0,0.40996 -0.14301,0.71505 -0.13824,0.30033 -0.38613,0.46717 -0.24788,0.16208 -0.57204,0.16208 -0.25265,0 -0.4052,-0.081 -0.14778,-0.0858 -0.22881,-0.19068 -0.081,-0.10964 -0.12395,-0.18115 h -0.0334 v 1.37767 z m 0.3909,-2.27863 q 0,0.44333 0.19068,0.71982 0.19545,0.27648 0.55298,0.27648 0.25265,0 0.41949,-0.13347 0.17162,-0.13348 0.25265,-0.35753 0.0858,-0.22405 0.0858,-0.5053 0,-0.27172 -0.0858,-0.49101 -0.081,-0.22405 -0.24788,-0.35276 -0.16685,-0.12871 -0.42426,-0.12871 -0.3623,0 -0.55298,0.27172 -0.19068,0.26696 -0.19068,0.70076 z m 4.35229,-0.71506 -0.35753,0.10011 q -0.0524,-0.13348 -0.17638,-0.25265 -0.12394,-0.11918 -0.38613,-0.11918 -0.23835,0 -0.40043,0.10964 -0.15731,0.10965 -0.15731,0.27649 0,0.14778 0.10964,0.23359 0.10964,0.0858 0.33846,0.14301 l 0.38613,0.0953 q 0.69122,0.17161 0.69122,0.70552 0,0.22405 -0.12871,0.40043 -0.12871,0.17637 -0.35753,0.27648 -0.22405,0.10011 -0.52914,0.10011 -0.40043,0 -0.66262,-0.17161 -0.25741,-0.17162 -0.32415,-0.50531 l 0.37659,-0.0953 q 0.10488,0.4195 0.60541,0.4195 0.27649,0 0.43857,-0.11918 0.16684,-0.11917 0.16684,-0.28602 0,-0.27648 -0.38612,-0.36229 l -0.4338,-0.10487 q -0.35276,-0.081 -0.51961,-0.25742 -0.16684,-0.18115 -0.16684,-0.45287 0,-0.21928 0.12394,-0.38613 0.12394,-0.17161 0.33846,-0.26695 0.21451,-0.10011 0.491,-0.10011 0.38613,0 0.60541,0.17161 0.22405,0.16685 0.31463,0.4481 z m 0.9391,2.04505 q -0.12395,0 -0.21452,-0.0906 -0.0906,-0.0906 -0.0906,-0.21451 0,-0.12871 0.0906,-0.21452 0.0906,-0.0906 0.21452,-0.0906 0.12394,0 0.21451,0.0906 0.0906,0.0858 0.0906,0.21452 0,0.12394 -0.0906,0.21451 -0.0906,0.0906 -0.21451,0.0906 z m 0,-1.93064 q -0.12395,0 -0.21452,-0.0906 -0.0906,-0.0906 -0.0906,-0.21452 0,-0.12394 0.0906,-0.21451 0.0906,-0.0906 0.21452,-0.0906 0.12394,0 0.21451,0.0906 0.0906,0.0906 0.0906,0.21451 0,0.12394 -0.0906,0.21452 -0.0906,0.0906 -0.21451,0.0906 z m 2.24526,-1.72566 -1.12025,4.14731 h -0.36229 l 1.11548,-4.14731 z m 1.69706,0 -1.12025,4.14731 h -0.36229 l 1.11548,-4.14731 z m 1.05829,3.6277 -0.79133,-2.59802 h 0.4195 l 0.56251,1.98784 h 0.0286 l 0.55297,-1.98784 h 0.42904 l 0.5482,1.98308 h 0.0238 l 0.56251,-1.98308 h 0.41949 l -0.79132,2.59802 h -0.3909 l -0.56727,-1.99738 h -0.0429 l -0.56727,1.99738 z m 3.87082,0 -0.79133,-2.59802 h 0.4195 l 0.56251,1.98784 h 0.0286 l 0.55298,-1.98784 h 0.42903 l 0.5482,1.98308 h 0.0238 l 0.56251,-1.98308 h 0.4195 l -0.79133,2.59802 h -0.3909 l -0.56727,-1.99738 h -0.0429 l -0.56728,1.99738 z m 3.87082,0 -0.79133,-2.59802 h 0.4195 l 0.56251,1.98784 h 0.0286 l 0.55298,-1.98784 h 0.42903 l 0.54821,1.98308 h 0.0238 l 0.56251,-1.98308 h 0.4195 l -0.79133,2.59802 h -0.39089 l -0.56728,-1.99738 h -0.0429 l -0.56728,1.99738 z m 3.57527,0.0286 q -0.12395,0 -0.21452,-0.0906 -0.0906,-0.0906 -0.0906,-0.21451 0,-0.12871 0.0906,-0.21452 0.0906,-0.0906 0.21452,-0.0906 0.12394,0 0.21451,0.0906 0.0906,0.0858 0.0906,0.21452 0,0.12394 -0.0906,0.21451 -0.0906,0.0906 -0.21451,0.0906 z m 2.07365,0.0238 q -0.3623,0 -0.62925,-0.17161 -0.26218,-0.17162 -0.4052,-0.47194 -0.14301,-0.30509 -0.14301,-0.69598 0,-0.39567 0.14778,-0.69599 0.14778,-0.30509 0.40997,-0.4767 0.26218,-0.17638 0.61494,-0.17638 0.27172,0 0.491,0.10487 0.22405,0.10011 0.3623,0.28603 0.14301,0.18114 0.17638,0.42426 h -0.40043 q -0.0477,-0.17638 -0.20498,-0.31462 -0.15255,-0.13825 -0.4195,-0.13825 -0.34799,0 -0.56251,0.26696 -0.21452,0.26695 -0.21452,0.70552 0,0.45286 0.20975,0.72458 0.21452,0.27172 0.56728,0.27172 0.23358,0 0.40043,-0.11917 0.16684,-0.11918 0.22405,-0.33369 h 0.40043 q -0.0334,0.22881 -0.16685,0.41473 -0.13347,0.18114 -0.35276,0.29079 -0.21451,0.10487 -0.5053,0.10487 z m 1.60649,-0.0524 v -2.59802 h 0.38612 v 0.39089 h 0.0238 q 0.0715,-0.19545 0.25742,-0.31462 0.18591,-0.11918 0.4195,-0.11918 0.0477,0 0.10964,0.005 0.0667,0 0.10011,0 v 0.40996 q -0.0191,-0.005 -0.0906,-0.0143 -0.0715,-0.0143 -0.15254,-0.0143 -0.28126,0 -0.46717,0.17161 -0.18591,0.17162 -0.18591,0.43857 v 1.64462 z m 1.77333,0 v -2.59802 h 0.40043 v 2.59802 z m 0.20021,-3.03182 q -0.11441,0 -0.20021,-0.081 -0.081,-0.081 -0.081,-0.19068 0,-0.11441 0.081,-0.19068 0.0858,-0.081 0.20021,-0.081 0.11918,0 0.20022,0.081 0.0858,0.0763 0.0858,0.19068 0,0.10964 -0.0858,0.19068 -0.081,0.081 -0.20022,0.081 z m 1.51591,3.03182 -0.79133,-2.59802 h 0.4195 l 0.56251,1.98784 h 0.0286 l 0.55298,-1.98784 h 0.42903 l 0.54821,1.98308 h 0.0238 l 0.56251,-1.98308 h 0.4195 l -0.79133,2.59802 h -0.39089 l -0.56728,-1.99738 h -0.0429 l -0.56728,1.99738 z m 3.28448,0 v -2.59802 h 0.40043 v 2.59802 z m 0.20021,-3.03182 q -0.1144,0 -0.20021,-0.081 -0.081,-0.081 -0.081,-0.19068 0,-0.11441 0.081,-0.19068 0.0858,-0.081 0.20021,-0.081 0.11918,0 0.20022,0.081 0.0858,0.0763 0.0858,0.19068 0,0.10964 -0.0858,0.19068 -0.081,0.081 -0.20022,0.081 z m 2.05936,0.4338 v 0.33845 h -0.55774 v 1.51592 q 0,0.16684 0.0477,0.25265 0.0524,0.081 0.12871,0.10964 0.081,0.0286 0.17161,0.0286 0.0667,0 0.10487,-0.005 0.0429,-0.01 0.0715,-0.0143 l 0.081,0.35753 q -0.0429,0.0143 -0.11441,0.0286 -0.0715,0.0191 -0.18591,0.0191 -0.16685,0 -0.32893,-0.0715 -0.16208,-0.0715 -0.26695,-0.21929 -0.10488,-0.15254 -0.10488,-0.38136 v -1.62079 h -0.39566 v -0.33845 h 0.39566 v -0.62448 h 0.39567 v 0.62448 z m 2.39781,0.58157 -0.35753,0.10011 q -0.0524,-0.13348 -0.17638,-0.25265 -0.12394,-0.11918 -0.38613,-0.11918 -0.23835,0 -0.40043,0.10964 -0.15731,0.10965 -0.15731,0.27649 0,0.14778 0.10964,0.23359 0.10964,0.0858 0.33846,0.14301 l 0.38613,0.0953 q 0.69122,0.17161 0.69122,0.70552 0,0.22405 -0.12871,0.40043 -0.12871,0.17637 -0.35753,0.27648 -0.22405,0.10011 -0.52914,0.10011 -0.40043,0 -0.66261,-0.17161 -0.25742,-0.17162 -0.32416,-0.50531 l 0.37659,-0.0953 q 0.10488,0.4195 0.60541,0.4195 0.27649,0 0.43857,-0.11918 0.16685,-0.11917 0.16685,-0.28602 0,-0.27648 -0.38613,-0.36229 l -0.4338,-0.10487 q -0.35276,-0.081 -0.51961,-0.25742 -0.16684,-0.18115 -0.16684,-0.45287 0,-0.21928 0.12394,-0.38613 0.12394,-0.17161 0.33846,-0.26695 0.21451,-0.10011 0.491,-0.10011 0.38613,0 0.60541,0.17161 0.22405,0.16685 0.31463,0.4481 z m 0.9391,2.04505 q -0.12394,0 -0.21452,-0.0906 -0.0906,-0.0906 -0.0906,-0.21451 0,-0.12871 0.0906,-0.21452 0.0906,-0.0906 0.21452,-0.0906 0.12394,0 0.21451,0.0906 0.0906,0.0858 0.0906,0.21452 0,0.12394 -0.0906,0.21451 -0.0906,0.0906 -0.21451,0.0906 z m 2.14992,-2.62662 v 0.33845 h -0.55774 v 1.51592 q 0,0.16684 0.0477,0.25265 0.0524,0.081 0.12871,0.10964 0.081,0.0286 0.17161,0.0286 0.0667,0 0.10488,-0.005 0.0429,-0.01 0.0715,-0.0143 l 0.081,0.35753 q -0.0429,0.0143 -0.11441,0.0286 -0.0715,0.0191 -0.18591,0.0191 -0.16685,0 -0.32892,-0.0715 -0.16208,-0.0715 -0.26696,-0.21929 -0.10487,-0.15254 -0.10487,-0.38136 v -1.62079 h -0.39566 v -0.33845 h 0.39566 v -0.62448 h 0.39566 v 0.62448 z m 1.63033,2.65046 q -0.35276,0 -0.61971,-0.16685 -0.26219,-0.16684 -0.40997,-0.46716 -0.14777,-0.30033 -0.14777,-0.70552 0,-0.4052 0.14777,-0.70552 0.14778,-0.30509 0.40997,-0.47194 0.26695,-0.17161 0.61971,-0.17161 0.35276,0 0.61495,0.17161 0.26695,0.16685 0.41473,0.47194 0.14777,0.30032 0.14777,0.70552 0,0.40519 -0.14777,0.70552 -0.14778,0.30032 -0.41473,0.46716 -0.26219,0.16685 -0.61495,0.16685 z m 0,-0.35753 q 0.26695,0 0.43857,-0.13347 0.17638,-0.13825 0.25742,-0.3623 0.0858,-0.22405 0.0858,-0.48623 0,-0.26219 -0.0858,-0.48624 -0.081,-0.22405 -0.25742,-0.36229 -0.17162,-0.13825 -0.43857,-0.13825 -0.26695,0 -0.43857,0.13825 -0.17161,0.13824 -0.25741,0.36229 -0.081,0.22405 -0.081,0.48624 0,0.26218 0.081,0.48623 0.0858,0.22405 0.25741,0.3623 0.17162,0.13347 0.43857,0.13347 z m 1.78764,1.28233 v -3.57526 h 0.38613 v 0.40996 h 0.0477 q 0.0429,-0.0667 0.11917,-0.17161 0.081,-0.10488 0.22882,-0.19068 0.14778,-0.0858 0.40043,-0.0858 0.32892,0 0.57681,0.16685 0.25265,0.16207 0.39089,0.46716 0.14301,0.30033 0.14301,0.71029 0,0.40996 -0.14301,0.71505 -0.13824,0.30033 -0.38613,0.46717 -0.24788,0.16208 -0.57204,0.16208 -0.25265,0 -0.40519,-0.081 -0.14778,-0.0858 -0.22882,-0.19068 -0.081,-0.10964 -0.12394,-0.18115 h -0.0334 v 1.37767 z m 0.39089,-2.27863 q 0,0.44333 0.19068,0.71982 0.19545,0.27648 0.55298,0.27648 0.25265,0 0.4195,-0.13347 0.17161,-0.13348 0.25265,-0.35753 0.0858,-0.22405 0.0858,-0.5053 0,-0.27172 -0.0858,-0.49101 -0.081,-0.22405 -0.24789,-0.35276 -0.16684,-0.12871 -0.42426,-0.12871 -0.3623,0 -0.55298,0.27172 -0.19068,0.26696 -0.19068,0.70076 z m 3.73734,-2.32631 -1.12025,4.14731 h -0.36229 l 1.11548,-4.14731 z m 0.47194,3.6277 v -2.59802 h 0.38613 v 0.40519 h 0.0334 q 0.081,-0.20975 0.26219,-0.32415 0.18114,-0.11918 0.43379,-0.11918 0.25742,0 0.42904,0.11918 0.17161,0.1144 0.26695,0.32415 h 0.0286 q 0.10011,-0.20021 0.30032,-0.31939 0.20022,-0.12394 0.47671,-0.12394 0.35275,0 0.57204,0.21928 0.22405,0.21929 0.22405,0.67692 v 1.73996 h -0.40043 v -1.73996 q 0,-0.28602 -0.15731,-0.40996 -0.15732,-0.12395 -0.37183,-0.12395 -0.27649,0 -0.42903,0.16685 -0.14778,0.16208 -0.14778,0.41473 v 1.69229 h -0.4052 v -1.78286 q 0,-0.21929 -0.14301,-0.35276 -0.14301,-0.13825 -0.37183,-0.13825 -0.15731,0 -0.29078,0.0858 -0.13348,0.081 -0.21452,0.22882 -0.081,0.14301 -0.081,0.33369 v 1.62555 z m 4.14254,0 v -2.59802 h 0.40043 v 2.59802 z m 0.20021,-3.03182 q -0.11441,0 -0.20021,-0.081 -0.081,-0.081 -0.081,-0.19068 0,-0.11441 0.081,-0.19068 0.0858,-0.081 0.20021,-0.081 0.11918,0 0.20022,0.081 0.0858,0.0763 0.0858,0.19068 0,0.10964 -0.0858,0.19068 -0.081,0.081 -0.20022,0.081 z m 2.76964,1.01537 -0.35753,0.10011 q -0.0524,-0.13348 -0.17638,-0.25265 -0.12394,-0.11918 -0.38612,-0.11918 -0.23835,0 -0.40043,0.10964 -0.15732,0.10965 -0.15732,0.27649 0,0.14778 0.10965,0.23359 0.10964,0.0858 0.33845,0.14301 l 0.38613,0.0953 q 0.69122,0.17161 0.69122,0.70552 0,0.22405 -0.12871,0.40043 -0.12871,0.17637 -0.35752,0.27648 -0.22405,0.10011 -0.52914,0.10011 -0.40043,0 -0.66262,-0.17161 -0.25742,-0.17162 -0.32416,-0.50531 l 0.3766,-0.0953 q 0.10487,0.4195 0.60541,0.4195 0.27649,0 0.43856,-0.11918 0.16685,-0.11917 0.16685,-0.28602 0,-0.27648 -0.38613,-0.36229 l -0.4338,-0.10487 q -0.35276,-0.081 -0.5196,-0.25742 -0.16685,-0.18115 -0.16685,-0.45287 0,-0.21928 0.12394,-0.38613 0.12395,-0.17161 0.33846,-0.26695 0.21452,-0.10011 0.49101,-0.10011 0.38612,0 0.60541,0.17161 0.22405,0.16685 0.31462,0.4481 z m 2.48838,0 -0.35753,0.10011 q -0.0524,-0.13348 -0.17637,-0.25265 -0.12395,-0.11918 -0.38613,-0.11918 -0.23835,0 -0.40043,0.10964 -0.15731,0.10965 -0.15731,0.27649 0,0.14778 0.10964,0.23359 0.10964,0.0858 0.33846,0.14301 l 0.38612,0.0953 q 0.69122,0.17161 0.69122,0.70552 0,0.22405 -0.12871,0.40043 -0.12871,0.17637 -0.35752,0.27648 -0.22405,0.10011 -0.52914,0.10011 -0.40043,0 -0.66262,-0.17161 -0.25742,-0.17162 -0.32416,-0.50531 l 0.3766,-0.0953 q 0.10487,0.4195 0.60541,0.4195 0.27649,0 0.43857,-0.11918 0.16684,-0.11917 0.16684,-0.28602 0,-0.27648 -0.38613,-0.36229 l -0.4338,-0.10487 q -0.35276,-0.081 -0.5196,-0.25742 -0.16685,-0.18115 -0.16685,-0.45287 0,-0.21928 0.12395,-0.38613 0.12394,-0.17161 0.33845,-0.26695 0.21452,-0.10011 0.49101,-0.10011 0.38613,0 0.60541,0.17161 0.22405,0.16685 0.31462,0.4481 z m 0.64831,2.01645 v -2.59802 h 0.40043 v 2.59802 z m 0.20022,-3.03182 q -0.11441,0 -0.20022,-0.081 -0.081,-0.081 -0.081,-0.19068 0,-0.11441 0.081,-0.19068 0.0858,-0.081 0.20022,-0.081 0.11917,0 0.20021,0.081 0.0858,0.0763 0.0858,0.19068 0,0.10964 -0.0858,0.19068 -0.081,0.081 -0.20021,0.081 z m 1.33,1.46824 v 1.56358 h -0.40043 v -2.59802 h 0.38612 v 0.40519 h 0.0334 q 0.0906,-0.20021 0.27649,-0.31939 0.18591,-0.12394 0.48147,-0.12394 0.39566,0 0.63878,0.24312 0.24312,0.24312 0.24312,0.73889 v 1.65415 h -0.40043 v -1.62555 q 0,-0.30509 -0.16208,-0.4767 -0.15731,-0.17162 -0.4338,-0.17162 -0.28602,0 -0.4767,0.18592 -0.18591,0.18114 -0.18591,0.52437 z m 3.43701,2.59326 q -0.43379,0 -0.69121,-0.15731 -0.25266,-0.15731 -0.37183,-0.3623 l 0.31939,-0.22405 q 0.0524,0.0715 0.13348,0.16208 0.0858,0.0906 0.22881,0.15731 0.14778,0.0715 0.38136,0.0715 0.31463,0 0.51961,-0.15255 0.20498,-0.15254 0.20498,-0.4767 v -0.52914 h -0.0334 q -0.0429,0.0715 -0.12394,0.17638 -0.081,0.10488 -0.23358,0.18592 -0.14778,0.0763 -0.40043,0.0763 -0.31463,0 -0.56728,-0.14778 -0.24788,-0.14778 -0.39566,-0.42903 -0.14301,-0.28602 -0.14301,-0.69599 0,-0.39566 0.13824,-0.69121 0.14301,-0.30033 0.3909,-0.4624 0.25265,-0.16685 0.58157,-0.16685 0.25265,0 0.40043,0.0858 0.15255,0.0858 0.23359,0.19068 0.081,0.10487 0.12394,0.17161 h 0.0429 v -0.40996 h 0.38613 v 2.67429 q 0,0.3337 -0.15254,0.54345 -0.15255,0.20974 -0.40997,0.30985 -0.25265,0.10011 -0.56251,0.10011 z m -0.0143,-1.43011 q 0.3623,0 0.55298,-0.24312 0.19068,-0.24311 0.19068,-0.67691 0,-0.4195 -0.19068,-0.68645 -0.18592,-0.26696 -0.55298,-0.26696 -0.25265,0 -0.42426,0.12871 -0.16685,0.12871 -0.25265,0.348 -0.081,0.21451 -0.081,0.4767 0,0.40519 0.19068,0.66261 0.19068,0.25742 0.56727,0.25742 z"
             id="text1"
             aria-label="https://www.criwits.top/missing" /></g></g></g></g></svg>
