<?xml version="1.0" encoding="UTF-8" standalone="no"?>
<svg
   width="2102"
   height="1564"
   xml:space="preserve"
   overflow="hidden"
   version="1.1"
   id="svg44"
   sodipodi:docname="Prices_of_jwewlry.svg"
   inkscape:version="1.4 (86a8ad7, 2024-10-11)"
   inkscape:export-filename="Prices_of_jwewlry.pdf"
   inkscape:export-xdpi="96"
   inkscape:export-ydpi="96"
   xmlns:inkscape="http://www.inkscape.org/namespaces/inkscape"
   xmlns:sodipodi="http://sodipodi.sourceforge.net/DTD/sodipodi-0.dtd"
   xmlns="http://www.w3.org/2000/svg"
   xmlns:svg="http://www.w3.org/2000/svg"><sodipodi:namedview
     id="namedview44"
     pagecolor="#ffffff"
     bordercolor="#111111"
     borderopacity="1"
     inkscape:showpageshadow="0"
     inkscape:pageopacity="0"
     inkscape:pagecheckerboard="1"
     inkscape:deskcolor="#d1d1d1"
     inkscape:zoom="0.36415774"
     inkscape:cx="744.183"
     inkscape:cy="849.90642"
     inkscape:window-width="1920"
     inkscape:window-height="1009"
     inkscape:window-x="-8"
     inkscape:window-y="-8"
     inkscape:window-maximized="1"
     inkscape:current-layer="g44" /><defs
     id="defs1"><clipPath
       id="clip0"><rect
         x="1909"
         y="326"
         width="2105"
         height="1567"
         id="rect1" /></clipPath></defs><g
     clip-path="url(#clip0)"
     transform="translate(-1910,-327)"
     id="g44"
     inkscape:groupmode="layer"><rect
       x="1910"
       y="327"
       width="2102"
       height="1564"
       fill="#ffffff"
       id="rect2"
       style="display:inline" /><g
       id="g2"><path
         d="m 2217.5,1472.55 h 1705 m -1705,-182.01 h 1705 m -1705,-183 h 1705 m -1705,-183.009 h 1705 m -1705,-182.006 h 1705 m -1705,-183.006 h 1705 M 2217.5,377.5 h 1705"
         stroke="#d9d9d9"
         stroke-width="3.4375"
         stroke-linejoin="round"
         stroke-miterlimit="10"
         fill="none"
         id="path2" /></g><g
       id="g3"><path
         d="m 2460.58,377.5 v 1278 m 244.01,-1278 v 1278 m 244.01,-1278 v 1278 m 243,-1278 v 1278 m 244.01,-1278 v 1278 m 244.01,-1278 v 1278 m 242.88,-1278 v 1278"
         stroke="#d9d9d9"
         stroke-width="3.4375"
         stroke-linejoin="round"
         stroke-miterlimit="10"
         fill="none"
         id="path3" /></g><g
       id="g4"><path
         d="M 0,0 3.60892e-4,1278"
         stroke="#bfbfbf"
         stroke-width="3.4375"
         stroke-linejoin="round"
         stroke-miterlimit="10"
         fill="none"
         fill-rule="evenodd"
         transform="matrix(1,0,0,-1,2217.5,1655.5)"
         id="path4" /></g><g
       id="g5"><path
         d="m 2217.5,1655.5 h 1705"
         stroke="#bfbfbf"
         stroke-width="3.4375"
         stroke-linejoin="round"
         stroke-miterlimit="10"
         fill="none"
         fill-rule="evenodd"
         id="path5" /></g><g
       id="g25"><path
         d="m 3165.03,888.063 c 0,7.179 -5.82,12.999 -13,12.999 -7.18,0 -13,-5.82 -13,-12.999 0,-7.18 5.82,-13 13,-13 7.18,0 13,5.82 13,13 z"
         stroke="#1876c9"
         stroke-width="3.4375"
         stroke-linejoin="round"
         stroke-miterlimit="10"
         fill="#0076d9"
         id="path6" /><path
         d="m 3448.03,705.062 c 0,7.18 -5.82,13 -13,13 -7.18,0 -13,-5.82 -13,-13 0,-7.179 5.82,-12.999 13,-12.999 7.18,0 13,5.82 13,12.999 z"
         stroke="#1876c9"
         stroke-width="3.4375"
         stroke-linejoin="round"
         stroke-miterlimit="10"
         fill="#0076d9"
         id="path7" /><path
         d="m 3257.03,888.063 c 0,7.179 -5.82,12.999 -13,12.999 -7.18,0 -13,-5.82 -13,-12.999 0,-7.18 5.82,-13 13,-13 7.18,0 13,5.82 13,13 z"
         stroke="#1876c9"
         stroke-width="3.4375"
         stroke-linejoin="round"
         stroke-miterlimit="10"
         fill="#0076d9"
         id="path8" /><path
         d="m 3158.03,924.062 c 0,7.18 -5.82,13 -13,13 -7.18,0 -13,-5.82 -13,-13 0,-7.179 5.82,-12.999 13,-12.999 7.18,0 13,5.82 13,12.999 z"
         stroke="#1876c9"
         stroke-width="3.4375"
         stroke-linejoin="round"
         stroke-miterlimit="10"
         fill="#0076d9"
         id="path9" /><path
         d="m 2951.03,1162.06 c 0,7.18 -5.82,13 -13,13 -7.18,0 -13,-5.82 -13,-13 0,-7.18 5.82,-13 13,-13 7.18,0 13,5.82 13,13 z"
         stroke="#1876c9"
         stroke-width="3.4375"
         stroke-linejoin="round"
         stroke-miterlimit="10"
         fill="#0076d9"
         id="path10" /><path
         d="m 3330.03,815.062 c 0,7.18 -5.82,13 -13,13 -7.18,0 -13,-5.82 -13,-13 0,-7.179 5.82,-12.999 13,-12.999 7.18,0 13,5.82 13,12.999 z"
         stroke="#1876c9"
         stroke-width="3.4375"
         stroke-linejoin="round"
         stroke-miterlimit="10"
         fill="#0076d9"
         id="path11" /><path
         d="m 2975.03,1143.06 c 0,7.18 -5.82,13 -13,13 -7.18,0 -13,-5.82 -13,-13 0,-7.18 5.82,-13 13,-13 7.18,0 13,5.82 13,13 z"
         stroke="#1876c9"
         stroke-width="3.4375"
         stroke-linejoin="round"
         stroke-miterlimit="10"
         fill="#0076d9"
         id="path12" /><path
         d="m 3750.03,449.063 c 0,7.179 -5.82,12.999 -13,12.999 -7.18,0 -13,-5.82 -13,-12.999 0,-7.18 5.82,-13 13,-13 7.18,0 13,5.82 13,13 z"
         stroke="#1876c9"
         stroke-width="3.4375"
         stroke-linejoin="round"
         stroke-miterlimit="10"
         fill="#0076d9"
         id="path13" /><path
         d="m 3872.03,413.063 c 0,7.179 -5.82,12.999 -13,12.999 -7.18,0 -13,-5.82 -13,-12.999 0,-7.18 5.82,-13 13,-13 7.18,0 13,5.82 13,13 z"
         stroke="#1876c9"
         stroke-width="3.4375"
         stroke-linejoin="round"
         stroke-miterlimit="10"
         fill="#0076d9"
         id="path14" /><path
         d="m 2883.03,1180.06 c 0,7.18 -5.82,13 -13,13 -7.18,0 -13,-5.82 -13,-13 0,-7.18 5.82,-13 13,-13 7.18,0 13,5.82 13,13 z"
         stroke="#1876c9"
         stroke-width="3.4375"
         stroke-linejoin="round"
         stroke-miterlimit="10"
         fill="#0076d9"
         id="path15" /><path
         d="m 3579.03,669.063 c 0,7.179 -5.82,12.999 -13,12.999 -7.18,0 -13,-5.82 -13,-12.999 0,-7.18 5.82,-13 13,-13 7.18,0 13,5.82 13,13 z"
         stroke="#1876c9"
         stroke-width="3.4375"
         stroke-linejoin="round"
         stroke-miterlimit="10"
         fill="#0076d9"
         id="path16" /><path
         d="m 3131.03,942.063 c 0,7.179 -5.82,12.999 -13,12.999 -7.18,0 -13,-5.82 -13,-12.999 0,-7.18 5.82,-13 13,-13 7.18,0 13,5.82 13,13 z"
         stroke="#1876c9"
         stroke-width="3.4375"
         stroke-linejoin="round"
         stroke-miterlimit="10"
         fill="#0076d9"
         id="path17" /><path
         d="m 3197.03,942.063 c 0,7.179 -5.82,12.999 -13,12.999 -7.18,0 -13,-5.82 -13,-12.999 0,-7.18 5.82,-13 13,-13 7.18,0 13,5.82 13,13 z"
         stroke="#1876c9"
         stroke-width="3.4375"
         stroke-linejoin="round"
         stroke-miterlimit="10"
         fill="#0076d9"
         id="path18" /><path
         d="m 3807.03,468.063 c 0,7.179 -5.82,12.999 -13,12.999 -7.18,0 -13,-5.82 -13,-12.999 0,-7.18 5.82,-13 13,-13 7.18,0 13,5.82 13,13 z"
         stroke="#1876c9"
         stroke-width="3.4375"
         stroke-linejoin="round"
         stroke-miterlimit="10"
         fill="#0076d9"
         id="path19" /><path
         d="m 2350.03,1636.06 c 0,7.18 -5.82,13 -13,13 -7.18,0 -13,-5.82 -13,-13 0,-7.18 5.82,-13 13,-13 7.18,0 13,5.82 13,13 z"
         stroke="#1876c9"
         stroke-width="3.4375"
         stroke-linejoin="round"
         stroke-miterlimit="10"
         fill="#0076d9"
         id="path20" /><path
         d="m 2377.03,1527.06 c 0,7.18 -5.82,13 -13,13 -7.18,0 -13,-5.82 -13,-13 0,-7.18 5.82,-13 13,-13 7.18,0 13,5.82 13,13 z"
         stroke="#1876c9"
         stroke-width="3.4375"
         stroke-linejoin="round"
         stroke-miterlimit="10"
         fill="#0076d9"
         id="path21" /><path
         d="m 2263.03,1618.06 c 0,7.18 -5.82,13 -13,13 -7.18,0 -13,-5.82 -13,-13 0,-7.18 5.82,-13 13,-13 7.18,0 13,5.82 13,13 z"
         stroke="#1876c9"
         stroke-width="3.4375"
         stroke-linejoin="round"
         stroke-miterlimit="10"
         fill="#0076d9"
         id="path22" /><path
         d="m 3649.03,577.063 c 0,7.179 -5.82,12.999 -13,12.999 -7.18,0 -13,-5.82 -13,-12.999 0,-7.18 5.82,-13 13,-13 7.18,0 13,5.82 13,13 z"
         stroke="#1876c9"
         stroke-width="3.4375"
         stroke-linejoin="round"
         stroke-miterlimit="10"
         fill="#0076d9"
         id="path23" /><path
         d="m 3556.03,596.062 c 0,7.18 -5.82,13 -13,13 -7.18,0 -13,-5.82 -13,-13 0,-7.179 5.82,-12.999 13,-12.999 7.18,0 13,5.82 13,12.999 z"
         stroke="#1876c9"
         stroke-width="3.4375"
         stroke-linejoin="round"
         stroke-miterlimit="10"
         fill="#0076d9"
         id="path24" /><path
         d="m 3713.03,522.063 c 0,7.179 -5.82,12.999 -13,12.999 -7.18,0 -13,-5.82 -13,-12.999 0,-7.18 5.82,-13 13,-13 7.18,0 13,5.82 13,13 z"
         stroke="#1876c9"
         stroke-width="3.4375"
         stroke-linejoin="round"
         stroke-miterlimit="10"
         fill="#0076d9"
         id="path25" /></g><g
       id="g26"><text
         font-family="'Sarasa Gothic SC', 'Sarasa Gothic SC_MSFontService', sans-serif"
         font-weight="400"
         font-size="46px"
         transform="translate(2059.82,1669)"
         id="text25">2000</text></g><g
       id="g27"><text
         font-family="'Sarasa Gothic SC', 'Sarasa Gothic SC_MSFontService', sans-serif"
         font-weight="400"
         font-size="46px"
         transform="translate(2060.87,1487)"
         id="text26">2500</text></g><g
       id="g28"><text
         font-family="'Sarasa Gothic SC', 'Sarasa Gothic SC_MSFontService', sans-serif"
         font-weight="400"
         font-size="46px"
         transform="translate(2059.45,1304)"
         id="text27">3000</text></g><g
       id="g29"><text
         font-family="'Sarasa Gothic SC', 'Sarasa Gothic SC_MSFontService', sans-serif"
         font-weight="400"
         font-size="46px"
         transform="translate(2060.51,1121)"
         id="text28">3500</text></g><g
       id="g30"><text
         font-family="'Sarasa Gothic SC', 'Sarasa Gothic SC_MSFontService', sans-serif"
         font-weight="400"
         font-size="46px"
         transform="translate(2058.17,939)"
         id="text29">4000</text></g><g
       id="g31"><text
         font-family="'Sarasa Gothic SC', 'Sarasa Gothic SC_MSFontService', sans-serif"
         font-weight="400"
         font-size="46px"
         transform="translate(2059.22,756)"
         id="text30">4500</text></g><g
       id="g32"><text
         font-family="'Sarasa Gothic SC', 'Sarasa Gothic SC_MSFontService', sans-serif"
         font-weight="400"
         font-size="46px"
         transform="translate(2059.91,574)"
         id="text31">5000</text></g><g
       id="g33"><text
         font-family="'Sarasa Gothic SC', 'Sarasa Gothic SC_MSFontService', sans-serif"
         font-weight="400"
         font-size="46px"
         transform="translate(2060.96,391)"
         id="text32">5500</text></g><g
       id="g34"><text
         font-family="'Sarasa Gothic SC', 'Sarasa Gothic SC_MSFontService', sans-serif"
         font-weight="400"
         font-size="46px"
         transform="translate(2188.41,1729)"
         id="text33">30</text></g><g
       id="g35"><text
         font-family="'Sarasa Gothic SC', 'Sarasa Gothic SC_MSFontService', sans-serif"
         font-weight="400"
         font-size="46px"
         transform="translate(2431.46,1729)"
         id="text34">40</text></g><g
       id="g36"><text
         font-family="'Sarasa Gothic SC', 'Sarasa Gothic SC_MSFontService', sans-serif"
         font-weight="400"
         font-size="46px"
         transform="translate(2676.03,1729)"
         id="text35">50</text></g><g
       id="g37"><text
         font-family="'Sarasa Gothic SC', 'Sarasa Gothic SC_MSFontService', sans-serif"
         font-weight="400"
         font-size="46px"
         transform="translate(2919.45,1729)"
         id="text36">60</text></g><g
       id="g38"><text
         font-family="'Sarasa Gothic SC', 'Sarasa Gothic SC_MSFontService', sans-serif"
         font-weight="400"
         font-size="46px"
         transform="translate(3164.38,1729)"
         id="text37">70</text></g><g
       id="g39"><text
         font-family="'Sarasa Gothic SC', 'Sarasa Gothic SC_MSFontService', sans-serif"
         font-weight="400"
         font-size="46px"
         transform="translate(3406.86,1729)"
         id="text38">80</text></g><g
       id="g40"><text
         font-family="'Sarasa Gothic SC', 'Sarasa Gothic SC_MSFontService', sans-serif"
         font-weight="400"
         font-size="46px"
         transform="translate(3650.53,1729)"
         id="text39">90</text></g><g
       id="g41"><text
         font-family="'Sarasa Gothic SC', 'Sarasa Gothic SC_MSFontService', sans-serif"
         font-weight="400"
         font-size="46px"
         transform="translate(3884.65,1729)"
         id="text40">100</text></g><g
       id="g42"><text
         font-family="'Sarasa Gothic SC', 'Sarasa Gothic SC_MSFontService', sans-serif"
         font-weight="400"
         font-size="50px"
         transform="rotate(-90,1583.41,-441.41)"
         id="text41">价格（元）</text></g><g
       id="g43"><text
         font-family="'Sarasa Gothic SC', 'Sarasa Gothic SC_MSFontService', sans-serif"
         font-weight="400"
         font-size="50px"
         transform="translate(2943.92,1812)"
         id="text42">重量（克）</text></g></g></svg>
